ISO-10303-21;
HEADER;
/* Generated by software containing ST-Developer
 * from STEP Tools, Inc. (www.steptools.com) 
 */

FILE_DESCRIPTION(
/* description */ (''),
/* implementation_level */ '2;1');

FILE_NAME(
/* name */ 
'02 - T-SHAPE STANDARD EXTERNAL INVOLUTE MITER BEVEL GEAR CONNECTOR.st
ep',
/* time_stamp */ '2026-10-08T16:58:53+05:30',
/* author */ (''),
/* organization */ (''),
/* preprocessor_version */ 'ST-DEVELOPER v20.2',
/* originating_system */ 'Autodesk Translation Framework v15.15.0.0',
/* authorisation */ '');

FILE_SCHEMA (('AUTOMOTIVE_DESIGN { 1 0 10303 214 3 1 1 }'));
ENDSEC;

DATA;
#10=MECHANICAL_DESIGN_GEOMETRIC_PRESENTATION_REPRESENTATION('',(#17),#273);
#11=ITEM_DEFINED_TRANSFORMATION($,$,#157,#177);
#12=(
REPRESENTATION_RELATIONSHIP($,$,#284,#283)
REPRESENTATION_RELATIONSHIP_WITH_TRANSFORMATION(#11)
SHAPE_REPRESENTATION_RELATIONSHIP()
);
#13=CONTEXT_DEPENDENT_SHAPE_REPRESENTATION(#12,#282);
#14=NEXT_ASSEMBLY_USAGE_OCCURRENCE(
'01 - T-SHAPE STANDARD EXTERNAL INVOLUTE MITER BEVEL GEAR CONNECTOR:1',
'01 - T-SHAPE STANDARD EXTERNAL INVOLUTE MITER BEVEL GEAR CONNECTOR:1',
'01 - T-SHAPE STANDARD EXTERNAL INVOLUTE MITER BEVEL GEAR CONNECTOR:1',
#286,#287,
'01 - T-SHAPE STANDARD EXTERNAL INVOLUTE MITER BEVEL GEAR CONNECTOR:1');
#15=SHAPE_REPRESENTATION_RELATIONSHIP('SRR','None',#284,#16);
#16=ADVANCED_BREP_SHAPE_REPRESENTATION('',(#18),#272);
#17=STYLED_ITEM('',(#297),#18);
#18=MANIFOLD_SOLID_BREP(
'01 - T-SHAPE STANDARD EXTERNAL INVOLUTE MITER BEVEL GEAR CONNECTOR',#143);
#19=FACE_BOUND('',#35,.T.);
#20=FACE_BOUND('',#39,.T.);
#21=FACE_BOUND('',#41,.T.);
#22=PLANE('',#166);
#23=PLANE('',#175);
#24=PLANE('',#176);
#25=FACE_OUTER_BOUND('',#32,.T.);
#26=FACE_OUTER_BOUND('',#33,.T.);
#27=FACE_OUTER_BOUND('',#34,.T.);
#28=FACE_OUTER_BOUND('',#36,.T.);
#29=FACE_OUTER_BOUND('',#37,.T.);
#30=FACE_OUTER_BOUND('',#38,.T.);
#31=FACE_OUTER_BOUND('',#40,.T.);
#32=EDGE_LOOP('',(#96,#97,#98,#99,#100,#101));
#33=EDGE_LOOP('',(#102,#103,#104,#105,#106,#107,#108,#109,#110));
#34=EDGE_LOOP('',(#111));
#35=EDGE_LOOP('',(#112));
#36=EDGE_LOOP('',(#113,#114,#115,#116,#117,#118));
#37=EDGE_LOOP('',(#119,#120,#121,#122,#123,#124,#125,#126,#127));
#38=EDGE_LOOP('',(#128));
#39=EDGE_LOOP('',(#129));
#40=EDGE_LOOP('',(#130));
#41=EDGE_LOOP('',(#131));
#42=ELLIPSE('',#160,7.07106781186548,5.);
#43=ELLIPSE('',#161,7.07106781186548,5.);
#44=ELLIPSE('',#162,7.07106781186548,5.);
#45=ELLIPSE('',#169,15.556349186104,11.);
#46=ELLIPSE('',#170,15.556349186104,11.);
#47=ELLIPSE('',#171,15.556349186104,11.);
#48=LINE('',#234,#54);
#49=LINE('',#243,#55);
#50=LINE('',#245,#56);
#51=LINE('',#256,#57);
#52=LINE('',#261,#58);
#53=LINE('',#263,#59);
#54=VECTOR('',#186,11.);
#55=VECTOR('',#197,11.);
#56=VECTOR('',#198,11.);
#57=VECTOR('',#211,11.);
#58=VECTOR('',#218,11.);
#59=VECTOR('',#219,11.);
#60=CIRCLE('',#159,5.);
#61=CIRCLE('',#164,5.);
#62=CIRCLE('',#165,5.);
#63=CIRCLE('',#167,11.);
#64=CIRCLE('',#173,11.);
#65=CIRCLE('',#174,11.);
#66=VERTEX_POINT('',#231);
#67=VERTEX_POINT('',#233);
#68=VERTEX_POINT('',#235);
#69=VERTEX_POINT('',#237);
#70=VERTEX_POINT('',#241);
#71=VERTEX_POINT('',#244);
#72=VERTEX_POINT('',#248);
#73=VERTEX_POINT('',#251);
#74=VERTEX_POINT('',#252);
#75=VERTEX_POINT('',#254);
#76=VERTEX_POINT('',#259);
#77=VERTEX_POINT('',#262);
#78=EDGE_CURVE('',#66,#66,#60,.T.);
#79=EDGE_CURVE('',#66,#67,#48,.T.);
#80=EDGE_CURVE('',#67,#68,#42,.T.);
#81=EDGE_CURVE('',#68,#69,#43,.T.);
#82=EDGE_CURVE('',#69,#67,#44,.T.);
#83=EDGE_CURVE('',#70,#70,#61,.T.);
#84=EDGE_CURVE('',#70,#69,#49,.T.);
#85=EDGE_CURVE('',#69,#71,#50,.T.);
#86=EDGE_CURVE('',#71,#71,#62,.T.);
#87=EDGE_CURVE('',#72,#72,#63,.T.);
#88=EDGE_CURVE('',#73,#74,#45,.T.);
#89=EDGE_CURVE('',#75,#73,#46,.T.);
#90=EDGE_CURVE('',#75,#72,#51,.T.);
#91=EDGE_CURVE('',#74,#75,#47,.T.);
#92=EDGE_CURVE('',#76,#76,#64,.T.);
#93=EDGE_CURVE('',#76,#74,#52,.T.);
#94=EDGE_CURVE('',#74,#77,#53,.T.);
#95=EDGE_CURVE('',#77,#77,#65,.T.);
#96=ORIENTED_EDGE('',*,*,#78,.F.);
#97=ORIENTED_EDGE('',*,*,#79,.T.);
#98=ORIENTED_EDGE('',*,*,#80,.T.);
#99=ORIENTED_EDGE('',*,*,#81,.T.);
#100=ORIENTED_EDGE('',*,*,#82,.T.);
#101=ORIENTED_EDGE('',*,*,#79,.F.);
#102=ORIENTED_EDGE('',*,*,#83,.F.);
#103=ORIENTED_EDGE('',*,*,#84,.T.);
#104=ORIENTED_EDGE('',*,*,#85,.T.);
#105=ORIENTED_EDGE('',*,*,#86,.F.);
#106=ORIENTED_EDGE('',*,*,#85,.F.);
#107=ORIENTED_EDGE('',*,*,#81,.F.);
#108=ORIENTED_EDGE('',*,*,#80,.F.);
#109=ORIENTED_EDGE('',*,*,#82,.F.);
#110=ORIENTED_EDGE('',*,*,#84,.F.);
#111=ORIENTED_EDGE('',*,*,#87,.T.);
#112=ORIENTED_EDGE('',*,*,#78,.T.);
#113=ORIENTED_EDGE('',*,*,#88,.F.);
#114=ORIENTED_EDGE('',*,*,#89,.F.);
#115=ORIENTED_EDGE('',*,*,#90,.T.);
#116=ORIENTED_EDGE('',*,*,#87,.F.);
#117=ORIENTED_EDGE('',*,*,#90,.F.);
#118=ORIENTED_EDGE('',*,*,#91,.F.);
#119=ORIENTED_EDGE('',*,*,#92,.F.);
#120=ORIENTED_EDGE('',*,*,#93,.T.);
#121=ORIENTED_EDGE('',*,*,#94,.T.);
#122=ORIENTED_EDGE('',*,*,#95,.F.);
#123=ORIENTED_EDGE('',*,*,#94,.F.);
#124=ORIENTED_EDGE('',*,*,#91,.T.);
#125=ORIENTED_EDGE('',*,*,#89,.T.);
#126=ORIENTED_EDGE('',*,*,#88,.T.);
#127=ORIENTED_EDGE('',*,*,#93,.F.);
#128=ORIENTED_EDGE('',*,*,#95,.T.);
#129=ORIENTED_EDGE('',*,*,#83,.T.);
#130=ORIENTED_EDGE('',*,*,#92,.T.);
#131=ORIENTED_EDGE('',*,*,#86,.T.);
#132=CYLINDRICAL_SURFACE('',#158,5.);
#133=CYLINDRICAL_SURFACE('',#163,5.);
#134=CYLINDRICAL_SURFACE('',#168,11.);
#135=CYLINDRICAL_SURFACE('',#172,11.);
#136=ADVANCED_FACE('',(#25),#132,.F.);
#137=ADVANCED_FACE('',(#26),#133,.F.);
#138=ADVANCED_FACE('',(#27,#19),#22,.T.);
#139=ADVANCED_FACE('',(#28),#134,.T.);
#140=ADVANCED_FACE('',(#29),#135,.T.);
#141=ADVANCED_FACE('',(#30,#20),#23,.F.);
#142=ADVANCED_FACE('',(#31,#21),#24,.T.);
#143=CLOSED_SHELL('',(#136,#137,#138,#139,#140,#141,#142));
#144=DERIVED_UNIT_ELEMENT(#146,1.);
#145=DERIVED_UNIT_ELEMENT(#275,-3.);
#146=(
MASS_UNIT()
NAMED_UNIT(*)
SI_UNIT(.KILO.,.GRAM.)
);
#147=DERIVED_UNIT((#144,#145));
#148=MEASURE_REPRESENTATION_ITEM('density measure',
POSITIVE_RATIO_MEASURE(7850.),#147);
#149=PROPERTY_DEFINITION_REPRESENTATION(#154,#151);
#150=PROPERTY_DEFINITION_REPRESENTATION(#155,#152);
#151=REPRESENTATION('material name',(#153),#272);
#152=REPRESENTATION('density',(#148),#272);
#153=DESCRIPTIVE_REPRESENTATION_ITEM('Steel','Steel');
#154=PROPERTY_DEFINITION('material property','material name',#287);
#155=PROPERTY_DEFINITION('material property','density of part',#287);
#156=AXIS2_PLACEMENT_3D('',#228,#178,#179);
#157=AXIS2_PLACEMENT_3D('',#229,#180,#181);
#158=AXIS2_PLACEMENT_3D('',#230,#182,#183);
#159=AXIS2_PLACEMENT_3D('',#232,#184,#185);
#160=AXIS2_PLACEMENT_3D('',#236,#187,#188);
#161=AXIS2_PLACEMENT_3D('',#238,#189,#190);
#162=AXIS2_PLACEMENT_3D('',#239,#191,#192);
#163=AXIS2_PLACEMENT_3D('',#240,#193,#194);
#164=AXIS2_PLACEMENT_3D('',#242,#195,#196);
#165=AXIS2_PLACEMENT_3D('',#246,#199,#200);
#166=AXIS2_PLACEMENT_3D('',#247,#201,#202);
#167=AXIS2_PLACEMENT_3D('',#249,#203,#204);
#168=AXIS2_PLACEMENT_3D('',#250,#205,#206);
#169=AXIS2_PLACEMENT_3D('',#253,#207,#208);
#170=AXIS2_PLACEMENT_3D('',#255,#209,#210);
#171=AXIS2_PLACEMENT_3D('',#257,#212,#213);
#172=AXIS2_PLACEMENT_3D('',#258,#214,#215);
#173=AXIS2_PLACEMENT_3D('',#260,#216,#217);
#174=AXIS2_PLACEMENT_3D('',#264,#220,#221);
#175=AXIS2_PLACEMENT_3D('',#265,#222,#223);
#176=AXIS2_PLACEMENT_3D('',#266,#224,#225);
#177=AXIS2_PLACEMENT_3D('',#267,#226,#227);
#178=DIRECTION('axis',(0.,0.,1.));
#179=DIRECTION('refdir',(1.,0.,0.));
#180=DIRECTION('axis',(0.,0.,1.));
#181=DIRECTION('refdir',(1.,0.,0.));
#182=DIRECTION('center_axis',(0.,0.,-1.));
#183=DIRECTION('ref_axis',(1.,0.,0.));
#184=DIRECTION('center_axis',(0.,0.,-1.));
#185=DIRECTION('ref_axis',(1.,0.,0.));
#186=DIRECTION('',(0.,0.,-1.));
#187=DIRECTION('center_axis',(-0.707106781186547,0.,-0.707106781186548));
#188=DIRECTION('ref_axis',(0.707106781186548,0.,-0.707106781186547));
#189=DIRECTION('center_axis',(0.707106781186547,0.,-0.707106781186548));
#190=DIRECTION('ref_axis',(0.707106781186548,0.,0.707106781186547));
#191=DIRECTION('center_axis',(-0.707106781186547,0.,-0.707106781186548));
#192=DIRECTION('ref_axis',(0.707106781186548,0.,-0.707106781186547));
#193=DIRECTION('center_axis',(1.,0.,0.));
#194=DIRECTION('ref_axis',(0.,1.,0.));
#195=DIRECTION('center_axis',(1.,0.,0.));
#196=DIRECTION('ref_axis',(0.,1.,0.));
#197=DIRECTION('',(1.,0.,0.));
#198=DIRECTION('',(1.,0.,0.));
#199=DIRECTION('center_axis',(-1.,0.,0.));
#200=DIRECTION('ref_axis',(0.,1.,0.));
#201=DIRECTION('center_axis',(0.,0.,1.));
#202=DIRECTION('ref_axis',(1.,0.,0.));
#203=DIRECTION('center_axis',(0.,0.,1.));
#204=DIRECTION('ref_axis',(1.,0.,0.));
#205=DIRECTION('center_axis',(0.,0.,-1.));
#206=DIRECTION('ref_axis',(1.,0.,0.));
#207=DIRECTION('center_axis',(0.707106781186547,0.,-0.707106781186548));
#208=DIRECTION('ref_axis',(0.707106781186548,0.,0.707106781186547));
#209=DIRECTION('center_axis',(-0.707106781186547,0.,-0.707106781186548));
#210=DIRECTION('ref_axis',(0.707106781186548,0.,-0.707106781186547));
#211=DIRECTION('',(0.,0.,1.));
#212=DIRECTION('center_axis',(-0.707106781186547,0.,-0.707106781186548));
#213=DIRECTION('ref_axis',(0.707106781186548,0.,-0.707106781186547));
#214=DIRECTION('center_axis',(1.,0.,0.));
#215=DIRECTION('ref_axis',(0.,1.,0.));
#216=DIRECTION('center_axis',(1.,0.,0.));
#217=DIRECTION('ref_axis',(0.,1.,0.));
#218=DIRECTION('',(-1.,0.,0.));
#219=DIRECTION('',(-1.,0.,0.));
#220=DIRECTION('center_axis',(-1.,0.,0.));
#221=DIRECTION('ref_axis',(0.,1.,0.));
#222=DIRECTION('center_axis',(1.,0.,0.));
#223=DIRECTION('ref_axis',(0.,1.,0.));
#224=DIRECTION('center_axis',(1.,0.,0.));
#225=DIRECTION('ref_axis',(0.,1.,0.));
#226=DIRECTION('',(1.,0.,-5.13478148889135E-16));
#227=DIRECTION('',(-5.13478148889135E-16,0.,-1.));
#228=CARTESIAN_POINT('',(0.,0.,0.));
#229=CARTESIAN_POINT('',(0.,0.,0.));
#230=CARTESIAN_POINT('Origin',(0.,6.73555739531044E-16,11.));
#231=CARTESIAN_POINT('',(-5.,1.28587913910472E-15,16.));
#232=CARTESIAN_POINT('Origin',(0.,6.73555739531044E-16,16.));
#233=CARTESIAN_POINT('',(-5.,1.28587913910472E-15,5.));
#234=CARTESIAN_POINT('',(-5.,1.28587913910472E-15,11.));
#235=CARTESIAN_POINT('',(0.,5.,0.));
#236=CARTESIAN_POINT('Origin',(0.,6.73555739531044E-16,0.));
#237=CARTESIAN_POINT('',(0.,-5.,0.));
#238=CARTESIAN_POINT('Origin',(0.,6.73555739531044E-16,0.));
#239=CARTESIAN_POINT('Origin',(0.,6.73555739531044E-16,0.));
#240=CARTESIAN_POINT('Origin',(0.,0.,0.));
#241=CARTESIAN_POINT('',(-16.,-5.,-6.12323399573677E-16));
#242=CARTESIAN_POINT('Origin',(-16.,4.28798901577131E-16,0.));
#243=CARTESIAN_POINT('',(0.,-5.,-6.12323399573677E-16));
#244=CARTESIAN_POINT('',(16.,-5.,-6.12323399573677E-16));
#245=CARTESIAN_POINT('',(0.,-5.,-6.12323399573677E-16));
#246=CARTESIAN_POINT('Origin',(16.,4.28798901577131E-16,0.));
#247=CARTESIAN_POINT('Origin',(0.,6.73555739531044E-16,16.));
#248=CARTESIAN_POINT('',(-11.,-6.73555739531044E-16,16.));
#249=CARTESIAN_POINT('Origin',(0.,6.73555739531044E-16,16.));
#250=CARTESIAN_POINT('Origin',(0.,6.73555739531044E-16,11.));
#251=CARTESIAN_POINT('',(0.,11.,0.));
#252=CARTESIAN_POINT('',(0.,-11.,0.));
#253=CARTESIAN_POINT('Origin',(0.,6.73555739531044E-16,0.));
#254=CARTESIAN_POINT('',(-11.,2.02066721859313E-15,11.));
#255=CARTESIAN_POINT('Origin',(0.,6.73555739531044E-16,0.));
#256=CARTESIAN_POINT('',(-11.,2.02066721859313E-15,11.));
#257=CARTESIAN_POINT('Origin',(0.,6.73555739531044E-16,0.));
#258=CARTESIAN_POINT('Origin',(0.,0.,0.));
#259=CARTESIAN_POINT('',(16.,-11.,-1.34711147906209E-15));
#260=CARTESIAN_POINT('Origin',(16.,0.,0.));
#261=CARTESIAN_POINT('',(0.,-11.,-1.34711147906209E-15));
#262=CARTESIAN_POINT('',(-16.,-11.,-1.34711147906209E-15));
#263=CARTESIAN_POINT('',(0.,-11.,-1.34711147906209E-15));
#264=CARTESIAN_POINT('Origin',(-16.,0.,0.));
#265=CARTESIAN_POINT('Origin',(-16.,0.,0.));
#266=CARTESIAN_POINT('Origin',(16.,0.,0.));
#267=CARTESIAN_POINT('',(-2.37430562872317,0.,2.37430562872317));
#268=UNCERTAINTY_MEASURE_WITH_UNIT(LENGTH_MEASURE(0.01),#274,
'DISTANCE_ACCURACY_VALUE',
'Maximum model space distance between geometric entities at asserted c
onnectivities');
#269=UNCERTAINTY_MEASURE_WITH_UNIT(LENGTH_MEASURE(0.01),#274,
'DISTANCE_ACCURACY_VALUE',
'Maximum model space distance between geometric entities at asserted c
onnectivities');
#270=UNCERTAINTY_MEASURE_WITH_UNIT(LENGTH_MEASURE(0.01),#274,
'DISTANCE_ACCURACY_VALUE',
'Maximum model space distance between geometric entities at asserted c
onnectivities');
#271=(
GEOMETRIC_REPRESENTATION_CONTEXT(3)
GLOBAL_UNCERTAINTY_ASSIGNED_CONTEXT((#268))
GLOBAL_UNIT_ASSIGNED_CONTEXT((#274,#276,#277))
REPRESENTATION_CONTEXT('','3D')
);
#272=(
GEOMETRIC_REPRESENTATION_CONTEXT(3)
GLOBAL_UNCERTAINTY_ASSIGNED_CONTEXT((#269))
GLOBAL_UNIT_ASSIGNED_CONTEXT((#274,#276,#277))
REPRESENTATION_CONTEXT('','3D')
);
#273=(
GEOMETRIC_REPRESENTATION_CONTEXT(3)
GLOBAL_UNCERTAINTY_ASSIGNED_CONTEXT((#270))
GLOBAL_UNIT_ASSIGNED_CONTEXT((#274,#276,#277))
REPRESENTATION_CONTEXT('','3D')
);
#274=(
LENGTH_UNIT()
NAMED_UNIT(*)
SI_UNIT(.MILLI.,.METRE.)
);
#275=(
LENGTH_UNIT()
NAMED_UNIT(*)
SI_UNIT($,.METRE.)
);
#276=(
NAMED_UNIT(*)
PLANE_ANGLE_UNIT()
SI_UNIT($,.RADIAN.)
);
#277=(
NAMED_UNIT(*)
SI_UNIT($,.STERADIAN.)
SOLID_ANGLE_UNIT()
);
#278=SHAPE_DEFINITION_REPRESENTATION(#280,#283);
#279=SHAPE_DEFINITION_REPRESENTATION(#281,#284);
#280=PRODUCT_DEFINITION_SHAPE('',$,#286);
#281=PRODUCT_DEFINITION_SHAPE('',$,#287);
#282=PRODUCT_DEFINITION_SHAPE($,$,#14);
#283=SHAPE_REPRESENTATION('',(#156,#177),#271);
#284=SHAPE_REPRESENTATION('',(#157),#272);
#285=PRODUCT_DEFINITION_CONTEXT('part definition',#293,'design');
#286=PRODUCT_DEFINITION(
'02 - T-SHAPE STANDARD EXTERNAL INVOLUTE MITER BEVEL GEAR CONNECTOR',
'02 - T-SHAPE STANDARD EXTERNAL INVOLUTE MITER BEVEL GEAR CONNECTOR v7',
#288,#285);
#287=PRODUCT_DEFINITION(
'01 - T-SHAPE STANDARD EXTERNAL INVOLUTE MITER BEVEL GEAR CONNECTOR',
'01 - T-SHAPE STANDARD EXTERNAL INVOLUTE MITER BEVEL GEAR CONNECTOR',#289,
#285);
#288=PRODUCT_DEFINITION_FORMATION('',$,#295);
#289=PRODUCT_DEFINITION_FORMATION('',$,#296);
#290=PRODUCT_RELATED_PRODUCT_CATEGORY(
'02 - T-SHAPE STANDARD EXTERNAL INVOLUTE MITER BEVEL GEAR CONNECTOR v7',
'02 - T-SHAPE STANDARD EXTERNAL INVOLUTE MITER BEVEL GEAR CONNECTOR v7',
(#295));
#291=PRODUCT_RELATED_PRODUCT_CATEGORY(
'01 - T-SHAPE STANDARD EXTERNAL INVOLUTE MITER BEVEL GEAR CONNECTOR',
'01 - T-SHAPE STANDARD EXTERNAL INVOLUTE MITER BEVEL GEAR CONNECTOR',(#296));
#292=APPLICATION_PROTOCOL_DEFINITION('international standard',
'automotive_design',2009,#293);
#293=APPLICATION_CONTEXT(
'Core Data for Automotive Mechanical Design Process');
#294=PRODUCT_CONTEXT('part definition',#293,'mechanical');
#295=PRODUCT(
'02 - T-SHAPE STANDARD EXTERNAL INVOLUTE MITER BEVEL GEAR CONNECTOR',
'02 - T-SHAPE STANDARD EXTERNAL INVOLUTE MITER BEVEL GEAR CONNECTOR v7',
$,(#294));
#296=PRODUCT(
'01 - T-SHAPE STANDARD EXTERNAL INVOLUTE MITER BEVEL GEAR CONNECTOR',
'01 - T-SHAPE STANDARD EXTERNAL INVOLUTE MITER BEVEL GEAR CONNECTOR',$,
(#294));
#297=PRESENTATION_STYLE_ASSIGNMENT((#298));
#298=SURFACE_STYLE_USAGE(.BOTH.,#299);
#299=SURFACE_SIDE_STYLE('',(#300));
#300=SURFACE_STYLE_FILL_AREA(#301);
#301=FILL_AREA_STYLE('Steel - Satin',(#302));
#302=FILL_AREA_STYLE_COLOUR('Steel - Satin',#303);
#303=COLOUR_RGB('Steel - Satin',0.627450980392157,0.627450980392157,0.627450980392157);
ENDSEC;
END-ISO-10303-21;
