ISO-10303-21;
HEADER;
/* Generated by software containing ST-Developer
 * from STEP Tools, Inc. (www.steptools.com) 
 */

FILE_DESCRIPTION(
/* description */ (''),
/* implementation_level */ '2;1');

FILE_NAME(
/* name */ '03 - 28BYJ-48 STEPPER MOTOR.step',
/* time_stamp */ '2026-10-08T16:59:23+05:30',
/* author */ (''),
/* organization */ (''),
/* preprocessor_version */ 'ST-DEVELOPER v20.2',
/* originating_system */ 'Autodesk Translation Framework v15.15.0.0',
/* authorisation */ '');

FILE_SCHEMA (('AUTOMOTIVE_DESIGN { 1 0 10303 214 3 1 1 }'));
ENDSEC;

DATA;
#10=MECHANICAL_DESIGN_GEOMETRIC_PRESENTATION_REPRESENTATION('',(#23,#24),
#811);
#11=ITEM_DEFINED_TRANSFORMATION($,$,#481,#530);
#12=ITEM_DEFINED_TRANSFORMATION($,$,#516,#531);
#13=(
REPRESENTATION_RELATIONSHIP($,$,#825,#824)
REPRESENTATION_RELATIONSHIP_WITH_TRANSFORMATION(#11)
SHAPE_REPRESENTATION_RELATIONSHIP()
);
#14=(
REPRESENTATION_RELATIONSHIP($,$,#826,#824)
REPRESENTATION_RELATIONSHIP_WITH_TRANSFORMATION(#12)
SHAPE_REPRESENTATION_RELATIONSHIP()
);
#15=CONTEXT_DEPENDENT_SHAPE_REPRESENTATION(#13,#822);
#16=CONTEXT_DEPENDENT_SHAPE_REPRESENTATION(#14,#823);
#17=NEXT_ASSEMBLY_USAGE_OCCURRENCE('01 - 28BYJ-48 STEPPER MOTOR BASE:1',
'01 - 28BYJ-48 STEPPER MOTOR BASE:1',
'01 - 28BYJ-48 STEPPER MOTOR BASE:1',#828,#829,
'01 - 28BYJ-48 STEPPER MOTOR BASE:1');
#18=NEXT_ASSEMBLY_USAGE_OCCURRENCE(
'02 - 28BYJ-48 STEPPER MOTOR SHAFT:1',
'02 - 28BYJ-48 STEPPER MOTOR SHAFT:1',
'02 - 28BYJ-48 STEPPER MOTOR SHAFT:1',#828,#830,
'02 - 28BYJ-48 STEPPER MOTOR SHAFT:1');
#19=SHAPE_REPRESENTATION_RELATIONSHIP('SRR','None',#825,#21);
#20=SHAPE_REPRESENTATION_RELATIONSHIP('SRR','None',#826,#22);
#21=ADVANCED_BREP_SHAPE_REPRESENTATION('',(#25),#809);
#22=ADVANCED_BREP_SHAPE_REPRESENTATION('',(#26),#810);
#23=STYLED_ITEM('',(#843),#25);
#24=STYLED_ITEM('',(#843),#26);
#25=MANIFOLD_SOLID_BREP('01 - 28BYJ-48 STEPPER MOTOR BASE',#455);
#26=MANIFOLD_SOLID_BREP('02 - 28BYJ-48 STEPPER MOTOR SHAFT',#456);
#27=CYLINDRICAL_SURFACE('',#493,2.1);
#28=CYLINDRICAL_SURFACE('',#496,3.5);
#29=CYLINDRICAL_SURFACE('',#501,14.);
#30=CYLINDRICAL_SURFACE('',#504,2.1);
#31=CYLINDRICAL_SURFACE('',#507,3.5);
#32=CYLINDRICAL_SURFACE('',#511,4.5);
#33=CYLINDRICAL_SURFACE('',#525,2.5);
#34=FACE_BOUND('',#65,.T.);
#35=FACE_BOUND('',#66,.T.);
#36=FACE_BOUND('',#67,.T.);
#37=FACE_BOUND('',#75,.T.);
#38=FACE_BOUND('',#82,.T.);
#39=FACE_OUTER_BOUND('',#64,.T.);
#40=FACE_OUTER_BOUND('',#68,.T.);
#41=FACE_OUTER_BOUND('',#69,.T.);
#42=FACE_OUTER_BOUND('',#70,.T.);
#43=FACE_OUTER_BOUND('',#71,.T.);
#44=FACE_OUTER_BOUND('',#72,.T.);
#45=FACE_OUTER_BOUND('',#73,.T.);
#46=FACE_OUTER_BOUND('',#74,.T.);
#47=FACE_OUTER_BOUND('',#76,.T.);
#48=FACE_OUTER_BOUND('',#77,.T.);
#49=FACE_OUTER_BOUND('',#78,.T.);
#50=FACE_OUTER_BOUND('',#79,.T.);
#51=FACE_OUTER_BOUND('',#80,.T.);
#52=FACE_OUTER_BOUND('',#81,.T.);
#53=FACE_OUTER_BOUND('',#83,.T.);
#54=FACE_OUTER_BOUND('',#84,.T.);
#55=FACE_OUTER_BOUND('',#85,.T.);
#56=FACE_OUTER_BOUND('',#86,.T.);
#57=FACE_OUTER_BOUND('',#87,.T.);
#58=FACE_OUTER_BOUND('',#88,.T.);
#59=FACE_OUTER_BOUND('',#89,.T.);
#60=FACE_OUTER_BOUND('',#90,.T.);
#61=FACE_OUTER_BOUND('',#91,.T.);
#62=FACE_OUTER_BOUND('',#92,.T.);
#63=FACE_OUTER_BOUND('',#93,.T.);
#64=EDGE_LOOP('',(#292,#293,#294,#295,#296,#297,#298,#299,#300,#301,#302,
#303));
#65=EDGE_LOOP('',(#304));
#66=EDGE_LOOP('',(#305));
#67=EDGE_LOOP('',(#306));
#68=EDGE_LOOP('',(#307,#308,#309,#310));
#69=EDGE_LOOP('',(#311,#312,#313,#314));
#70=EDGE_LOOP('',(#315,#316,#317,#318));
#71=EDGE_LOOP('',(#319,#320,#321,#322));
#72=EDGE_LOOP('',(#323,#324,#325,#326));
#73=EDGE_LOOP('',(#327,#328,#329,#330));
#74=EDGE_LOOP('',(#331,#332,#333,#334));
#75=EDGE_LOOP('',(#335));
#76=EDGE_LOOP('',(#336,#337,#338,#339,#340,#341,#342,#343,#344,#345,#346,
#347));
#77=EDGE_LOOP('',(#348,#349,#350,#351));
#78=EDGE_LOOP('',(#352,#353,#354,#355));
#79=EDGE_LOOP('',(#356,#357,#358,#359));
#80=EDGE_LOOP('',(#360,#361,#362,#363));
#81=EDGE_LOOP('',(#364,#365,#366,#367));
#82=EDGE_LOOP('',(#368));
#83=EDGE_LOOP('',(#369,#370,#371,#372));
#84=EDGE_LOOP('',(#373));
#85=EDGE_LOOP('',(#374,#375,#376,#377));
#86=EDGE_LOOP('',(#378,#379,#380,#381));
#87=EDGE_LOOP('',(#382,#383,#384,#385));
#88=EDGE_LOOP('',(#386,#387,#388,#389));
#89=EDGE_LOOP('',(#390,#391,#392,#393,#394));
#90=EDGE_LOOP('',(#395,#396));
#91=EDGE_LOOP('',(#397,#398,#399,#400,#401,#402,#403,#404,#405,#406,#407,
#408));
#92=EDGE_LOOP('',(#409,#410));
#93=EDGE_LOOP('',(#411));
#94=CIRCLE('',#483,3.5);
#95=CIRCLE('',#484,14.);
#96=CIRCLE('',#485,3.5);
#97=CIRCLE('',#486,14.);
#98=CIRCLE('',#487,14.);
#99=CIRCLE('',#488,2.1);
#100=CIRCLE('',#489,4.5);
#101=CIRCLE('',#490,2.1);
#102=CIRCLE('',#494,2.1);
#103=CIRCLE('',#497,3.5);
#104=CIRCLE('',#500,14.);
#105=CIRCLE('',#502,14.);
#106=CIRCLE('',#503,14.);
#107=CIRCLE('',#505,2.1);
#108=CIRCLE('',#508,3.5);
#109=CIRCLE('',#512,4.5);
#110=CIRCLE('',#520,2.5);
#111=CIRCLE('',#521,2.5);
#112=CIRCLE('',#522,2.5);
#113=CIRCLE('',#524,2.5);
#114=CIRCLE('',#526,2.5);
#115=CIRCLE('',#527,2.5);
#116=LINE('',#679,#154);
#117=LINE('',#683,#155);
#118=LINE('',#687,#156);
#119=LINE('',#691,#157);
#120=LINE('',#695,#158);
#121=LINE('',#697,#159);
#122=LINE('',#699,#160);
#123=LINE('',#709,#161);
#124=LINE('',#711,#162);
#125=LINE('',#712,#163);
#126=LINE('',#715,#164);
#127=LINE('',#716,#165);
#128=LINE('',#720,#166);
#129=LINE('',#723,#167);
#130=LINE('',#725,#168);
#131=LINE('',#726,#169);
#132=LINE('',#730,#170);
#133=LINE('',#733,#171);
#134=LINE('',#734,#172);
#135=LINE('',#740,#173);
#136=LINE('',#742,#174);
#137=LINE('',#745,#175);
#138=LINE('',#749,#176);
#139=LINE('',#752,#177);
#140=LINE('',#753,#178);
#141=LINE('',#757,#179);
#142=LINE('',#759,#180);
#143=LINE('',#764,#181);
#144=LINE('',#767,#182);
#145=LINE('',#773,#183);
#146=LINE('',#775,#184);
#147=LINE('',#777,#185);
#148=LINE('',#778,#186);
#149=LINE('',#782,#187);
#150=LINE('',#784,#188);
#151=LINE('',#786,#189);
#152=LINE('',#787,#190);
#153=LINE('',#798,#191);
#154=VECTOR('',#538,10.);
#155=VECTOR('',#541,10.);
#156=VECTOR('',#544,10.);
#157=VECTOR('',#547,10.);
#158=VECTOR('',#550,10.);
#159=VECTOR('',#551,10.);
#160=VECTOR('',#552,10.);
#161=VECTOR('',#563,10.);
#162=VECTOR('',#564,10.);
#163=VECTOR('',#565,10.);
#164=VECTOR('',#568,10.);
#165=VECTOR('',#569,10.);
#166=VECTOR('',#574,2.1);
#167=VECTOR('',#577,10.);
#168=VECTOR('',#578,10.);
#169=VECTOR('',#579,10.);
#170=VECTOR('',#584,10.);
#171=VECTOR('',#587,10.);
#172=VECTOR('',#588,10.);
#173=VECTOR('',#597,10.);
#174=VECTOR('',#598,10.);
#175=VECTOR('',#601,10.);
#176=VECTOR('',#606,2.1);
#177=VECTOR('',#609,10.);
#178=VECTOR('',#610,10.);
#179=VECTOR('',#615,10.);
#180=VECTOR('',#618,10.);
#181=VECTOR('',#625,4.5);
#182=VECTOR('',#630,10.);
#183=VECTOR('',#637,10.);
#184=VECTOR('',#638,10.);
#185=VECTOR('',#639,10.);
#186=VECTOR('',#640,10.);
#187=VECTOR('',#643,10.);
#188=VECTOR('',#644,10.);
#189=VECTOR('',#645,10.);
#190=VECTOR('',#646,10.);
#191=VECTOR('',#663,2.5);
#192=VERTEX_POINT('',#677);
#193=VERTEX_POINT('',#678);
#194=VERTEX_POINT('',#680);
#195=VERTEX_POINT('',#682);
#196=VERTEX_POINT('',#684);
#197=VERTEX_POINT('',#686);
#198=VERTEX_POINT('',#688);
#199=VERTEX_POINT('',#690);
#200=VERTEX_POINT('',#692);
#201=VERTEX_POINT('',#694);
#202=VERTEX_POINT('',#696);
#203=VERTEX_POINT('',#698);
#204=VERTEX_POINT('',#701);
#205=VERTEX_POINT('',#703);
#206=VERTEX_POINT('',#705);
#207=VERTEX_POINT('',#708);
#208=VERTEX_POINT('',#710);
#209=VERTEX_POINT('',#714);
#210=VERTEX_POINT('',#718);
#211=VERTEX_POINT('',#722);
#212=VERTEX_POINT('',#724);
#213=VERTEX_POINT('',#728);
#214=VERTEX_POINT('',#732);
#215=VERTEX_POINT('',#738);
#216=VERTEX_POINT('',#741);
#217=VERTEX_POINT('',#743);
#218=VERTEX_POINT('',#747);
#219=VERTEX_POINT('',#751);
#220=VERTEX_POINT('',#755);
#221=VERTEX_POINT('',#762);
#222=VERTEX_POINT('',#771);
#223=VERTEX_POINT('',#772);
#224=VERTEX_POINT('',#774);
#225=VERTEX_POINT('',#776);
#226=VERTEX_POINT('',#780);
#227=VERTEX_POINT('',#781);
#228=VERTEX_POINT('',#783);
#229=VERTEX_POINT('',#785);
#230=VERTEX_POINT('',#790);
#231=VERTEX_POINT('',#797);
#232=EDGE_CURVE('',#192,#193,#116,.T.);
#233=EDGE_CURVE('',#193,#194,#94,.T.);
#234=EDGE_CURVE('',#195,#194,#117,.T.);
#235=EDGE_CURVE('',#195,#196,#95,.T.);
#236=EDGE_CURVE('',#197,#196,#118,.T.);
#237=EDGE_CURVE('',#197,#198,#96,.T.);
#238=EDGE_CURVE('',#198,#199,#119,.T.);
#239=EDGE_CURVE('',#199,#200,#97,.T.);
#240=EDGE_CURVE('',#201,#200,#120,.T.);
#241=EDGE_CURVE('',#201,#202,#121,.T.);
#242=EDGE_CURVE('',#202,#203,#122,.T.);
#243=EDGE_CURVE('',#203,#192,#98,.T.);
#244=EDGE_CURVE('',#204,#204,#99,.T.);
#245=EDGE_CURVE('',#205,#205,#100,.T.);
#246=EDGE_CURVE('',#206,#206,#101,.T.);
#247=EDGE_CURVE('',#202,#207,#123,.T.);
#248=EDGE_CURVE('',#208,#207,#124,.T.);
#249=EDGE_CURVE('',#203,#208,#125,.T.);
#250=EDGE_CURVE('',#201,#209,#126,.T.);
#251=EDGE_CURVE('',#207,#209,#127,.T.);
#252=EDGE_CURVE('',#210,#210,#102,.T.);
#253=EDGE_CURVE('',#210,#204,#128,.T.);
#254=EDGE_CURVE('',#211,#196,#129,.T.);
#255=EDGE_CURVE('',#212,#211,#130,.T.);
#256=EDGE_CURVE('',#197,#212,#131,.T.);
#257=EDGE_CURVE('',#213,#212,#103,.T.);
#258=EDGE_CURVE('',#198,#213,#132,.T.);
#259=EDGE_CURVE('',#214,#213,#133,.T.);
#260=EDGE_CURVE('',#199,#214,#134,.T.);
#261=EDGE_CURVE('',#214,#211,#104,.T.);
#262=EDGE_CURVE('',#215,#208,#105,.T.);
#263=EDGE_CURVE('',#200,#215,#135,.T.);
#264=EDGE_CURVE('',#195,#216,#136,.T.);
#265=EDGE_CURVE('',#216,#217,#106,.T.);
#266=EDGE_CURVE('',#217,#192,#137,.T.);
#267=EDGE_CURVE('',#218,#218,#107,.T.);
#268=EDGE_CURVE('',#218,#206,#138,.T.);
#269=EDGE_CURVE('',#219,#217,#139,.T.);
#270=EDGE_CURVE('',#193,#219,#140,.T.);
#271=EDGE_CURVE('',#220,#219,#108,.T.);
#272=EDGE_CURVE('',#194,#220,#141,.T.);
#273=EDGE_CURVE('',#216,#220,#142,.T.);
#274=EDGE_CURVE('',#221,#221,#109,.T.);
#275=EDGE_CURVE('',#221,#205,#143,.T.);
#276=EDGE_CURVE('',#209,#215,#144,.T.);
#277=EDGE_CURVE('',#222,#223,#145,.T.);
#278=EDGE_CURVE('',#222,#224,#146,.T.);
#279=EDGE_CURVE('',#225,#224,#147,.T.);
#280=EDGE_CURVE('',#223,#225,#148,.T.);
#281=EDGE_CURVE('',#226,#227,#149,.T.);
#282=EDGE_CURVE('',#226,#228,#150,.T.);
#283=EDGE_CURVE('',#229,#228,#151,.T.);
#284=EDGE_CURVE('',#227,#229,#152,.T.);
#285=EDGE_CURVE('',#224,#229,#110,.T.);
#286=EDGE_CURVE('',#228,#230,#111,.T.);
#287=EDGE_CURVE('',#230,#225,#112,.T.);
#288=EDGE_CURVE('',#223,#222,#113,.T.);
#289=EDGE_CURVE('',#227,#226,#114,.T.);
#290=EDGE_CURVE('',#230,#231,#153,.T.);
#291=EDGE_CURVE('',#231,#231,#115,.T.);
#292=ORIENTED_EDGE('',*,*,#232,.T.);
#293=ORIENTED_EDGE('',*,*,#233,.T.);
#294=ORIENTED_EDGE('',*,*,#234,.F.);
#295=ORIENTED_EDGE('',*,*,#235,.T.);
#296=ORIENTED_EDGE('',*,*,#236,.F.);
#297=ORIENTED_EDGE('',*,*,#237,.T.);
#298=ORIENTED_EDGE('',*,*,#238,.T.);
#299=ORIENTED_EDGE('',*,*,#239,.T.);
#300=ORIENTED_EDGE('',*,*,#240,.F.);
#301=ORIENTED_EDGE('',*,*,#241,.T.);
#302=ORIENTED_EDGE('',*,*,#242,.T.);
#303=ORIENTED_EDGE('',*,*,#243,.T.);
#304=ORIENTED_EDGE('',*,*,#244,.T.);
#305=ORIENTED_EDGE('',*,*,#245,.T.);
#306=ORIENTED_EDGE('',*,*,#246,.T.);
#307=ORIENTED_EDGE('',*,*,#247,.T.);
#308=ORIENTED_EDGE('',*,*,#248,.F.);
#309=ORIENTED_EDGE('',*,*,#249,.F.);
#310=ORIENTED_EDGE('',*,*,#242,.F.);
#311=ORIENTED_EDGE('',*,*,#250,.T.);
#312=ORIENTED_EDGE('',*,*,#251,.F.);
#313=ORIENTED_EDGE('',*,*,#247,.F.);
#314=ORIENTED_EDGE('',*,*,#241,.F.);
#315=ORIENTED_EDGE('',*,*,#252,.F.);
#316=ORIENTED_EDGE('',*,*,#253,.T.);
#317=ORIENTED_EDGE('',*,*,#244,.F.);
#318=ORIENTED_EDGE('',*,*,#253,.F.);
#319=ORIENTED_EDGE('',*,*,#236,.T.);
#320=ORIENTED_EDGE('',*,*,#254,.F.);
#321=ORIENTED_EDGE('',*,*,#255,.F.);
#322=ORIENTED_EDGE('',*,*,#256,.F.);
#323=ORIENTED_EDGE('',*,*,#237,.F.);
#324=ORIENTED_EDGE('',*,*,#256,.T.);
#325=ORIENTED_EDGE('',*,*,#257,.F.);
#326=ORIENTED_EDGE('',*,*,#258,.F.);
#327=ORIENTED_EDGE('',*,*,#238,.F.);
#328=ORIENTED_EDGE('',*,*,#258,.T.);
#329=ORIENTED_EDGE('',*,*,#259,.F.);
#330=ORIENTED_EDGE('',*,*,#260,.F.);
#331=ORIENTED_EDGE('',*,*,#259,.T.);
#332=ORIENTED_EDGE('',*,*,#257,.T.);
#333=ORIENTED_EDGE('',*,*,#255,.T.);
#334=ORIENTED_EDGE('',*,*,#261,.F.);
#335=ORIENTED_EDGE('',*,*,#252,.T.);
#336=ORIENTED_EDGE('',*,*,#249,.T.);
#337=ORIENTED_EDGE('',*,*,#262,.F.);
#338=ORIENTED_EDGE('',*,*,#263,.F.);
#339=ORIENTED_EDGE('',*,*,#239,.F.);
#340=ORIENTED_EDGE('',*,*,#260,.T.);
#341=ORIENTED_EDGE('',*,*,#261,.T.);
#342=ORIENTED_EDGE('',*,*,#254,.T.);
#343=ORIENTED_EDGE('',*,*,#235,.F.);
#344=ORIENTED_EDGE('',*,*,#264,.T.);
#345=ORIENTED_EDGE('',*,*,#265,.T.);
#346=ORIENTED_EDGE('',*,*,#266,.T.);
#347=ORIENTED_EDGE('',*,*,#243,.F.);
#348=ORIENTED_EDGE('',*,*,#267,.F.);
#349=ORIENTED_EDGE('',*,*,#268,.T.);
#350=ORIENTED_EDGE('',*,*,#246,.F.);
#351=ORIENTED_EDGE('',*,*,#268,.F.);
#352=ORIENTED_EDGE('',*,*,#232,.F.);
#353=ORIENTED_EDGE('',*,*,#266,.F.);
#354=ORIENTED_EDGE('',*,*,#269,.F.);
#355=ORIENTED_EDGE('',*,*,#270,.F.);
#356=ORIENTED_EDGE('',*,*,#233,.F.);
#357=ORIENTED_EDGE('',*,*,#270,.T.);
#358=ORIENTED_EDGE('',*,*,#271,.F.);
#359=ORIENTED_EDGE('',*,*,#272,.F.);
#360=ORIENTED_EDGE('',*,*,#234,.T.);
#361=ORIENTED_EDGE('',*,*,#272,.T.);
#362=ORIENTED_EDGE('',*,*,#273,.F.);
#363=ORIENTED_EDGE('',*,*,#264,.F.);
#364=ORIENTED_EDGE('',*,*,#265,.F.);
#365=ORIENTED_EDGE('',*,*,#273,.T.);
#366=ORIENTED_EDGE('',*,*,#271,.T.);
#367=ORIENTED_EDGE('',*,*,#269,.T.);
#368=ORIENTED_EDGE('',*,*,#267,.T.);
#369=ORIENTED_EDGE('',*,*,#274,.F.);
#370=ORIENTED_EDGE('',*,*,#275,.T.);
#371=ORIENTED_EDGE('',*,*,#245,.F.);
#372=ORIENTED_EDGE('',*,*,#275,.F.);
#373=ORIENTED_EDGE('',*,*,#274,.T.);
#374=ORIENTED_EDGE('',*,*,#263,.T.);
#375=ORIENTED_EDGE('',*,*,#276,.F.);
#376=ORIENTED_EDGE('',*,*,#250,.F.);
#377=ORIENTED_EDGE('',*,*,#240,.T.);
#378=ORIENTED_EDGE('',*,*,#262,.T.);
#379=ORIENTED_EDGE('',*,*,#248,.T.);
#380=ORIENTED_EDGE('',*,*,#251,.T.);
#381=ORIENTED_EDGE('',*,*,#276,.T.);
#382=ORIENTED_EDGE('',*,*,#277,.F.);
#383=ORIENTED_EDGE('',*,*,#278,.T.);
#384=ORIENTED_EDGE('',*,*,#279,.F.);
#385=ORIENTED_EDGE('',*,*,#280,.F.);
#386=ORIENTED_EDGE('',*,*,#281,.F.);
#387=ORIENTED_EDGE('',*,*,#282,.T.);
#388=ORIENTED_EDGE('',*,*,#283,.F.);
#389=ORIENTED_EDGE('',*,*,#284,.F.);
#390=ORIENTED_EDGE('',*,*,#285,.T.);
#391=ORIENTED_EDGE('',*,*,#283,.T.);
#392=ORIENTED_EDGE('',*,*,#286,.T.);
#393=ORIENTED_EDGE('',*,*,#287,.T.);
#394=ORIENTED_EDGE('',*,*,#279,.T.);
#395=ORIENTED_EDGE('',*,*,#277,.T.);
#396=ORIENTED_EDGE('',*,*,#288,.T.);
#397=ORIENTED_EDGE('',*,*,#289,.F.);
#398=ORIENTED_EDGE('',*,*,#284,.T.);
#399=ORIENTED_EDGE('',*,*,#285,.F.);
#400=ORIENTED_EDGE('',*,*,#278,.F.);
#401=ORIENTED_EDGE('',*,*,#288,.F.);
#402=ORIENTED_EDGE('',*,*,#280,.T.);
#403=ORIENTED_EDGE('',*,*,#287,.F.);
#404=ORIENTED_EDGE('',*,*,#290,.T.);
#405=ORIENTED_EDGE('',*,*,#291,.T.);
#406=ORIENTED_EDGE('',*,*,#290,.F.);
#407=ORIENTED_EDGE('',*,*,#286,.F.);
#408=ORIENTED_EDGE('',*,*,#282,.F.);
#409=ORIENTED_EDGE('',*,*,#289,.T.);
#410=ORIENTED_EDGE('',*,*,#281,.T.);
#411=ORIENTED_EDGE('',*,*,#291,.F.);
#412=PLANE('',#482);
#413=PLANE('',#491);
#414=PLANE('',#492);
#415=PLANE('',#495);
#416=PLANE('',#498);
#417=PLANE('',#499);
#418=PLANE('',#506);
#419=PLANE('',#509);
#420=PLANE('',#510);
#421=PLANE('',#513);
#422=PLANE('',#514);
#423=PLANE('',#515);
#424=PLANE('',#517);
#425=PLANE('',#518);
#426=PLANE('',#519);
#427=PLANE('',#523);
#428=PLANE('',#528);
#429=PLANE('',#529);
#430=ADVANCED_FACE('',(#39,#34,#35,#36),#412,.T.);
#431=ADVANCED_FACE('',(#40),#413,.T.);
#432=ADVANCED_FACE('',(#41),#414,.T.);
#433=ADVANCED_FACE('',(#42),#27,.F.);
#434=ADVANCED_FACE('',(#43),#415,.T.);
#435=ADVANCED_FACE('',(#44),#28,.T.);
#436=ADVANCED_FACE('',(#45),#416,.T.);
#437=ADVANCED_FACE('',(#46,#37),#417,.F.);
#438=ADVANCED_FACE('',(#47),#29,.T.);
#439=ADVANCED_FACE('',(#48),#30,.F.);
#440=ADVANCED_FACE('',(#49),#418,.T.);
#441=ADVANCED_FACE('',(#50),#31,.T.);
#442=ADVANCED_FACE('',(#51),#419,.T.);
#443=ADVANCED_FACE('',(#52,#38),#420,.F.);
#444=ADVANCED_FACE('',(#53),#32,.T.);
#445=ADVANCED_FACE('',(#54),#421,.T.);
#446=ADVANCED_FACE('',(#55),#422,.T.);
#447=ADVANCED_FACE('',(#56),#423,.F.);
#448=ADVANCED_FACE('',(#57),#424,.T.);
#449=ADVANCED_FACE('',(#58),#425,.T.);
#450=ADVANCED_FACE('',(#59),#426,.T.);
#451=ADVANCED_FACE('',(#60),#427,.T.);
#452=ADVANCED_FACE('',(#61),#33,.T.);
#453=ADVANCED_FACE('',(#62),#428,.T.);
#454=ADVANCED_FACE('',(#63),#429,.F.);
#455=CLOSED_SHELL('',(#430,#431,#432,#433,#434,#435,#436,#437,#438,#439,
#440,#441,#442,#443,#444,#445,#446,#447));
#456=CLOSED_SHELL('',(#448,#449,#450,#451,#452,#453,#454));
#457=DERIVED_UNIT_ELEMENT(#461,1.);
#458=DERIVED_UNIT_ELEMENT(#813,-3.);
#459=DERIVED_UNIT_ELEMENT(#461,1.);
#460=DERIVED_UNIT_ELEMENT(#813,-3.);
#461=(
MASS_UNIT()
NAMED_UNIT(*)
SI_UNIT(.KILO.,.GRAM.)
);
#462=DERIVED_UNIT((#457,#458));
#463=DERIVED_UNIT((#459,#460));
#464=MEASURE_REPRESENTATION_ITEM('density measure',
POSITIVE_RATIO_MEASURE(7850.),#462);
#465=MEASURE_REPRESENTATION_ITEM('density measure',
POSITIVE_RATIO_MEASURE(7850.),#463);
#466=PROPERTY_DEFINITION_REPRESENTATION(#476,#470);
#467=PROPERTY_DEFINITION_REPRESENTATION(#477,#471);
#468=PROPERTY_DEFINITION_REPRESENTATION(#478,#472);
#469=PROPERTY_DEFINITION_REPRESENTATION(#479,#473);
#470=REPRESENTATION('material name',(#474),#809);
#471=REPRESENTATION('density',(#464),#809);
#472=REPRESENTATION('material name',(#475),#810);
#473=REPRESENTATION('density',(#465),#810);
#474=DESCRIPTIVE_REPRESENTATION_ITEM('Steel','Steel');
#475=DESCRIPTIVE_REPRESENTATION_ITEM('Steel','Steel');
#476=PROPERTY_DEFINITION('material property','material name',#829);
#477=PROPERTY_DEFINITION('material property','density of part',#829);
#478=PROPERTY_DEFINITION('material property','material name',#830);
#479=PROPERTY_DEFINITION('material property','density of part',#830);
#480=AXIS2_PLACEMENT_3D('',#674,#532,#533);
#481=AXIS2_PLACEMENT_3D('',#675,#534,#535);
#482=AXIS2_PLACEMENT_3D('',#676,#536,#537);
#483=AXIS2_PLACEMENT_3D('',#681,#539,#540);
#484=AXIS2_PLACEMENT_3D('',#685,#542,#543);
#485=AXIS2_PLACEMENT_3D('',#689,#545,#546);
#486=AXIS2_PLACEMENT_3D('',#693,#548,#549);
#487=AXIS2_PLACEMENT_3D('',#700,#553,#554);
#488=AXIS2_PLACEMENT_3D('',#702,#555,#556);
#489=AXIS2_PLACEMENT_3D('',#704,#557,#558);
#490=AXIS2_PLACEMENT_3D('',#706,#559,#560);
#491=AXIS2_PLACEMENT_3D('',#707,#561,#562);
#492=AXIS2_PLACEMENT_3D('',#713,#566,#567);
#493=AXIS2_PLACEMENT_3D('',#717,#570,#571);
#494=AXIS2_PLACEMENT_3D('',#719,#572,#573);
#495=AXIS2_PLACEMENT_3D('',#721,#575,#576);
#496=AXIS2_PLACEMENT_3D('',#727,#580,#581);
#497=AXIS2_PLACEMENT_3D('',#729,#582,#583);
#498=AXIS2_PLACEMENT_3D('',#731,#585,#586);
#499=AXIS2_PLACEMENT_3D('',#735,#589,#590);
#500=AXIS2_PLACEMENT_3D('',#736,#591,#592);
#501=AXIS2_PLACEMENT_3D('',#737,#593,#594);
#502=AXIS2_PLACEMENT_3D('',#739,#595,#596);
#503=AXIS2_PLACEMENT_3D('',#744,#599,#600);
#504=AXIS2_PLACEMENT_3D('',#746,#602,#603);
#505=AXIS2_PLACEMENT_3D('',#748,#604,#605);
#506=AXIS2_PLACEMENT_3D('',#750,#607,#608);
#507=AXIS2_PLACEMENT_3D('',#754,#611,#612);
#508=AXIS2_PLACEMENT_3D('',#756,#613,#614);
#509=AXIS2_PLACEMENT_3D('',#758,#616,#617);
#510=AXIS2_PLACEMENT_3D('',#760,#619,#620);
#511=AXIS2_PLACEMENT_3D('',#761,#621,#622);
#512=AXIS2_PLACEMENT_3D('',#763,#623,#624);
#513=AXIS2_PLACEMENT_3D('',#765,#626,#627);
#514=AXIS2_PLACEMENT_3D('',#766,#628,#629);
#515=AXIS2_PLACEMENT_3D('',#768,#631,#632);
#516=AXIS2_PLACEMENT_3D('',#769,#633,#634);
#517=AXIS2_PLACEMENT_3D('',#770,#635,#636);
#518=AXIS2_PLACEMENT_3D('',#779,#641,#642);
#519=AXIS2_PLACEMENT_3D('',#788,#647,#648);
#520=AXIS2_PLACEMENT_3D('',#789,#649,#650);
#521=AXIS2_PLACEMENT_3D('',#791,#651,#652);
#522=AXIS2_PLACEMENT_3D('',#792,#653,#654);
#523=AXIS2_PLACEMENT_3D('',#793,#655,#656);
#524=AXIS2_PLACEMENT_3D('',#794,#657,#658);
#525=AXIS2_PLACEMENT_3D('',#795,#659,#660);
#526=AXIS2_PLACEMENT_3D('',#796,#661,#662);
#527=AXIS2_PLACEMENT_3D('',#799,#664,#665);
#528=AXIS2_PLACEMENT_3D('',#800,#666,#667);
#529=AXIS2_PLACEMENT_3D('',#801,#668,#669);
#530=AXIS2_PLACEMENT_3D('',#802,#670,#671);
#531=AXIS2_PLACEMENT_3D('',#803,#672,#673);
#532=DIRECTION('axis',(0.,0.,1.));
#533=DIRECTION('refdir',(1.,0.,0.));
#534=DIRECTION('axis',(0.,0.,1.));
#535=DIRECTION('refdir',(1.,0.,0.));
#536=DIRECTION('center_axis',(0.,0.,1.));
#537=DIRECTION('ref_axis',(1.,0.,0.));
#538=DIRECTION('',(1.,0.,0.));
#539=DIRECTION('center_axis',(0.,0.,1.));
#540=DIRECTION('ref_axis',(0.,-1.,0.));
#541=DIRECTION('',(1.,-1.40728434401072E-16,0.));
#542=DIRECTION('center_axis',(0.,0.,1.));
#543=DIRECTION('ref_axis',(0.535714285714286,-0.844399315538349,0.));
#544=DIRECTION('',(1.,1.40728434401072E-16,0.));
#545=DIRECTION('center_axis',(0.,0.,1.));
#546=DIRECTION('ref_axis',(0.,1.,0.));
#547=DIRECTION('',(1.,0.,0.));
#548=DIRECTION('center_axis',(0.,0.,1.));
#549=DIRECTION('ref_axis',(0.535714285714286,-0.844399315538349,0.));
#550=DIRECTION('',(2.01858731750028E-16,1.,0.));
#551=DIRECTION('',(1.,0.,0.));
#552=DIRECTION('',(2.01858731750028E-16,1.,0.));
#553=DIRECTION('center_axis',(0.,0.,1.));
#554=DIRECTION('ref_axis',(0.535714285714286,-0.844399315538349,0.));
#555=DIRECTION('center_axis',(0.,0.,-1.));
#556=DIRECTION('ref_axis',(1.,0.,0.));
#557=DIRECTION('center_axis',(0.,0.,-1.));
#558=DIRECTION('ref_axis',(1.,0.,0.));
#559=DIRECTION('center_axis',(0.,0.,-1.));
#560=DIRECTION('ref_axis',(1.,0.,0.));
#561=DIRECTION('center_axis',(1.,-2.01858731750028E-16,0.));
#562=DIRECTION('ref_axis',(-2.01858731750028E-16,-1.,0.));
#563=DIRECTION('',(0.,0.,-1.));
#564=DIRECTION('',(-2.01858731750028E-16,-1.,0.));
#565=DIRECTION('',(0.,0.,-1.));
#566=DIRECTION('center_axis',(0.,-1.,0.));
#567=DIRECTION('ref_axis',(-1.,0.,0.));
#568=DIRECTION('',(0.,0.,-1.));
#569=DIRECTION('',(-1.,0.,0.));
#570=DIRECTION('center_axis',(0.,0.,-1.));
#571=DIRECTION('ref_axis',(1.,0.,0.));
#572=DIRECTION('center_axis',(0.,0.,1.));
#573=DIRECTION('ref_axis',(1.,0.,0.));
#574=DIRECTION('',(0.,0.,1.));
#575=DIRECTION('center_axis',(-1.40728434401072E-16,1.,0.));
#576=DIRECTION('ref_axis',(1.,1.40728434401072E-16,0.));
#577=DIRECTION('',(0.,0.,1.));
#578=DIRECTION('',(1.,1.40728434401072E-16,0.));
#579=DIRECTION('',(0.,0.,-1.));
#580=DIRECTION('center_axis',(0.,0.,-1.));
#581=DIRECTION('ref_axis',(0.,1.,0.));
#582=DIRECTION('center_axis',(0.,0.,-1.));
#583=DIRECTION('ref_axis',(0.,1.,0.));
#584=DIRECTION('',(0.,0.,-1.));
#585=DIRECTION('center_axis',(0.,-1.,0.));
#586=DIRECTION('ref_axis',(-1.,0.,0.));
#587=DIRECTION('',(-1.,0.,0.));
#588=DIRECTION('',(0.,0.,-1.));
#589=DIRECTION('center_axis',(0.,0.,1.));
#590=DIRECTION('ref_axis',(1.,0.,0.));
#591=DIRECTION('center_axis',(0.,0.,-1.));
#592=DIRECTION('ref_axis',(0.535714285714286,-0.844399315538349,0.));
#593=DIRECTION('center_axis',(0.,0.,-1.));
#594=DIRECTION('ref_axis',(1.58603289232165E-16,1.,0.));
#595=DIRECTION('center_axis',(0.,0.,-1.));
#596=DIRECTION('ref_axis',(0.535714285714286,-0.844399315538349,0.));
#597=DIRECTION('',(0.,0.,-1.));
#598=DIRECTION('',(0.,0.,-1.));
#599=DIRECTION('center_axis',(0.,0.,-1.));
#600=DIRECTION('ref_axis',(0.535714285714286,-0.844399315538349,0.));
#601=DIRECTION('',(0.,0.,1.));
#602=DIRECTION('center_axis',(0.,0.,-1.));
#603=DIRECTION('ref_axis',(1.,0.,0.));
#604=DIRECTION('center_axis',(0.,0.,1.));
#605=DIRECTION('ref_axis',(1.,0.,0.));
#606=DIRECTION('',(0.,0.,1.));
#607=DIRECTION('center_axis',(0.,-1.,0.));
#608=DIRECTION('ref_axis',(-1.,0.,0.));
#609=DIRECTION('',(-1.,0.,0.));
#610=DIRECTION('',(0.,0.,-1.));
#611=DIRECTION('center_axis',(0.,0.,-1.));
#612=DIRECTION('ref_axis',(0.,-1.,0.));
#613=DIRECTION('center_axis',(0.,0.,-1.));
#614=DIRECTION('ref_axis',(0.,-1.,0.));
#615=DIRECTION('',(0.,0.,-1.));
#616=DIRECTION('center_axis',(1.40728434401072E-16,1.,0.));
#617=DIRECTION('ref_axis',(1.,-1.40728434401072E-16,0.));
#618=DIRECTION('',(1.,-1.40728434401072E-16,0.));
#619=DIRECTION('center_axis',(0.,0.,1.));
#620=DIRECTION('ref_axis',(1.,0.,0.));
#621=DIRECTION('center_axis',(0.,0.,1.));
#622=DIRECTION('ref_axis',(1.,0.,0.));
#623=DIRECTION('center_axis',(0.,0.,1.));
#624=DIRECTION('ref_axis',(1.,0.,0.));
#625=DIRECTION('',(0.,0.,-1.));
#626=DIRECTION('center_axis',(0.,0.,1.));
#627=DIRECTION('ref_axis',(1.,0.,0.));
#628=DIRECTION('center_axis',(-1.,2.01858731750028E-16,0.));
#629=DIRECTION('ref_axis',(2.01858731750028E-16,1.,0.));
#630=DIRECTION('',(2.01858731750028E-16,1.,0.));
#631=DIRECTION('center_axis',(0.,0.,1.));
#632=DIRECTION('ref_axis',(1.,0.,0.));
#633=DIRECTION('axis',(0.,0.,1.));
#634=DIRECTION('refdir',(1.,0.,0.));
#635=DIRECTION('center_axis',(2.77555756156283E-16,1.,0.));
#636=DIRECTION('ref_axis',(-1.,2.77555756156283E-16,0.));
#637=DIRECTION('',(1.,-2.77555756156283E-16,0.));
#638=DIRECTION('',(0.,0.,1.));
#639=DIRECTION('',(-1.,2.77555756156283E-16,0.));
#640=DIRECTION('',(0.,0.,1.));
#641=DIRECTION('center_axis',(0.,-1.,0.));
#642=DIRECTION('ref_axis',(1.,0.,0.));
#643=DIRECTION('',(-1.,0.,0.));
#644=DIRECTION('',(0.,0.,1.));
#645=DIRECTION('',(1.,0.,0.));
#646=DIRECTION('',(0.,0.,1.));
#647=DIRECTION('center_axis',(0.,0.,1.));
#648=DIRECTION('ref_axis',(-1.,0.,0.));
#649=DIRECTION('center_axis',(0.,0.,1.));
#650=DIRECTION('ref_axis',(-1.,0.,0.));
#651=DIRECTION('center_axis',(0.,0.,1.));
#652=DIRECTION('ref_axis',(-1.,0.,0.));
#653=DIRECTION('center_axis',(0.,0.,1.));
#654=DIRECTION('ref_axis',(-1.,0.,0.));
#655=DIRECTION('center_axis',(0.,0.,1.));
#656=DIRECTION('ref_axis',(-1.,0.,0.));
#657=DIRECTION('center_axis',(0.,0.,1.));
#658=DIRECTION('ref_axis',(-1.,0.,0.));
#659=DIRECTION('center_axis',(0.,0.,1.));
#660=DIRECTION('ref_axis',(-1.,0.,0.));
#661=DIRECTION('center_axis',(0.,0.,1.));
#662=DIRECTION('ref_axis',(-1.,0.,0.));
#663=DIRECTION('',(0.,0.,-1.));
#664=DIRECTION('center_axis',(0.,0.,1.));
#665=DIRECTION('ref_axis',(-1.,0.,0.));
#666=DIRECTION('center_axis',(0.,0.,1.));
#667=DIRECTION('ref_axis',(-1.,0.,0.));
#668=DIRECTION('center_axis',(0.,0.,1.));
#669=DIRECTION('ref_axis',(-1.,0.,0.));
#670=DIRECTION('',(0.,0.,1.));
#671=DIRECTION('',(1.,0.,0.));
#672=DIRECTION('',(0.,0.,1.));
#673=DIRECTION('',(1.,0.,0.));
#674=CARTESIAN_POINT('',(0.,0.,0.));
#675=CARTESIAN_POINT('',(0.,0.,0.));
#676=CARTESIAN_POINT('Origin',(0.,-1.66079520876845,0.));
#677=CARTESIAN_POINT('',(13.555441711726,-3.5,0.));
#678=CARTESIAN_POINT('',(17.5,-3.5,0.));
#679=CARTESIAN_POINT('',(13.555441711726,-3.5,0.));
#680=CARTESIAN_POINT('',(17.5,3.5,0.));
#681=CARTESIAN_POINT('Origin',(17.5,0.,0.));
#682=CARTESIAN_POINT('',(13.555441711726,3.5,0.));
#683=CARTESIAN_POINT('',(13.555441711726,3.5,0.));
#684=CARTESIAN_POINT('',(-13.555441711726,3.5,0.));
#685=CARTESIAN_POINT('Origin',(0.,0.,0.));
#686=CARTESIAN_POINT('',(-17.5,3.5,0.));
#687=CARTESIAN_POINT('',(-17.5,3.5,0.));
#688=CARTESIAN_POINT('',(-17.5,-3.5,0.));
#689=CARTESIAN_POINT('Origin',(-17.5,0.,0.));
#690=CARTESIAN_POINT('',(-13.555441711726,-3.5,0.));
#691=CARTESIAN_POINT('',(-17.5,-3.5,0.));
#692=CARTESIAN_POINT('',(-7.5,-11.8215904175369,0.));
#693=CARTESIAN_POINT('Origin',(0.,0.,0.));
#694=CARTESIAN_POINT('',(-7.5,-17.3215904175369,0.));
#695=CARTESIAN_POINT('',(-7.5,-17.3215904175369,0.));
#696=CARTESIAN_POINT('',(7.5,-17.3215904175369,0.));
#697=CARTESIAN_POINT('',(-7.5,-17.3215904175369,0.));
#698=CARTESIAN_POINT('',(7.5,-11.8215904175369,0.));
#699=CARTESIAN_POINT('',(7.5,-17.3215904175369,0.));
#700=CARTESIAN_POINT('Origin',(0.,0.,0.));
#701=CARTESIAN_POINT('',(-19.6,-2.57175827820944E-16,0.));
#702=CARTESIAN_POINT('Origin',(-17.5,0.,0.));
#703=CARTESIAN_POINT('',(-4.5,8.,0.));
#704=CARTESIAN_POINT('Origin',(0.,8.,0.));
#705=CARTESIAN_POINT('',(15.4,-2.57175827820944E-16,0.));
#706=CARTESIAN_POINT('Origin',(17.5,0.,0.));
#707=CARTESIAN_POINT('Origin',(7.5,-11.8215904175369,0.));
#708=CARTESIAN_POINT('',(7.5,-17.3215904175369,-19.));
#709=CARTESIAN_POINT('',(7.5,-17.3215904175369,0.));
#710=CARTESIAN_POINT('',(7.5,-11.8215904175369,-19.));
#711=CARTESIAN_POINT('',(7.5,-17.3215904175369,-19.));
#712=CARTESIAN_POINT('',(7.5,-11.8215904175369,0.));
#713=CARTESIAN_POINT('Origin',(7.5,-17.3215904175369,0.));
#714=CARTESIAN_POINT('',(-7.5,-17.3215904175369,-19.));
#715=CARTESIAN_POINT('',(-7.5,-17.3215904175369,0.));
#716=CARTESIAN_POINT('',(-7.5,-17.3215904175369,-19.));
#717=CARTESIAN_POINT('Origin',(-17.5,0.,0.));
#718=CARTESIAN_POINT('',(-19.6,-2.57175827820944E-16,-1.));
#719=CARTESIAN_POINT('Origin',(-17.5,0.,-1.));
#720=CARTESIAN_POINT('',(-19.6,2.57175827820944E-16,0.));
#721=CARTESIAN_POINT('Origin',(-17.5,3.5,0.));
#722=CARTESIAN_POINT('',(-13.555441711726,3.5,-1.));
#723=CARTESIAN_POINT('',(-13.555441711726,3.5,0.));
#724=CARTESIAN_POINT('',(-17.5,3.5,-1.));
#725=CARTESIAN_POINT('',(-17.5,3.5,-1.));
#726=CARTESIAN_POINT('',(-17.5,3.5,0.));
#727=CARTESIAN_POINT('Origin',(-17.5,0.,0.));
#728=CARTESIAN_POINT('',(-17.5,-3.5,-1.));
#729=CARTESIAN_POINT('Origin',(-17.5,0.,-1.));
#730=CARTESIAN_POINT('',(-17.5,-3.5,0.));
#731=CARTESIAN_POINT('Origin',(-13.555441711726,-3.5,0.));
#732=CARTESIAN_POINT('',(-13.555441711726,-3.5,-1.));
#733=CARTESIAN_POINT('',(-17.5,-3.5,-1.));
#734=CARTESIAN_POINT('',(-13.555441711726,-3.5,0.));
#735=CARTESIAN_POINT('Origin',(-17.277720855863,0.,-1.));
#736=CARTESIAN_POINT('Origin',(0.,0.,-1.));
#737=CARTESIAN_POINT('Origin',(0.,0.,0.));
#738=CARTESIAN_POINT('',(-7.5,-11.8215904175369,-19.));
#739=CARTESIAN_POINT('Origin',(0.,0.,-19.));
#740=CARTESIAN_POINT('',(-7.5,-11.8215904175369,0.));
#741=CARTESIAN_POINT('',(13.555441711726,3.5,-1.));
#742=CARTESIAN_POINT('',(13.555441711726,3.5,0.));
#743=CARTESIAN_POINT('',(13.555441711726,-3.5,-1.));
#744=CARTESIAN_POINT('Origin',(0.,0.,-1.));
#745=CARTESIAN_POINT('',(13.555441711726,-3.5,0.));
#746=CARTESIAN_POINT('Origin',(17.5,0.,0.));
#747=CARTESIAN_POINT('',(15.4,-2.57175827820944E-16,-1.));
#748=CARTESIAN_POINT('Origin',(17.5,0.,-1.));
#749=CARTESIAN_POINT('',(15.4,2.57175827820944E-16,0.));
#750=CARTESIAN_POINT('Origin',(17.5,-3.5,0.));
#751=CARTESIAN_POINT('',(17.5,-3.5,-1.));
#752=CARTESIAN_POINT('',(13.555441711726,-3.5,-1.));
#753=CARTESIAN_POINT('',(17.5,-3.5,0.));
#754=CARTESIAN_POINT('Origin',(17.5,0.,0.));
#755=CARTESIAN_POINT('',(17.5,3.5,-1.));
#756=CARTESIAN_POINT('Origin',(17.5,0.,-1.));
#757=CARTESIAN_POINT('',(17.5,3.5,0.));
#758=CARTESIAN_POINT('Origin',(13.555441711726,3.5,0.));
#759=CARTESIAN_POINT('',(13.555441711726,3.5,-1.));
#760=CARTESIAN_POINT('Origin',(17.277720855863,0.,-1.));
#761=CARTESIAN_POINT('Origin',(0.,8.,0.));
#762=CARTESIAN_POINT('',(-4.5,8.,2.));
#763=CARTESIAN_POINT('Origin',(0.,8.,2.));
#764=CARTESIAN_POINT('',(-4.5,8.,0.));
#765=CARTESIAN_POINT('Origin',(0.,8.,2.));
#766=CARTESIAN_POINT('Origin',(-7.5,-17.3215904175369,0.));
#767=CARTESIAN_POINT('',(-7.5,-17.3215904175369,-19.));
#768=CARTESIAN_POINT('Origin',(0.,-1.66079520876845,-19.));
#769=CARTESIAN_POINT('',(0.,0.,0.));
#770=CARTESIAN_POINT('Origin',(2.00000000000004,9.49999999999999,2.));
#771=CARTESIAN_POINT('',(-2.00000000000004,9.49999999999999,4.));
#772=CARTESIAN_POINT('',(2.00000000000004,9.49999999999999,4.));
#773=CARTESIAN_POINT('',(-2.00000000000004,9.49999999999999,4.));
#774=CARTESIAN_POINT('',(-2.00000000000004,9.49999999999999,10.));
#775=CARTESIAN_POINT('',(-2.00000000000004,9.49999999999999,2.));
#776=CARTESIAN_POINT('',(2.00000000000004,9.49999999999999,10.));
#777=CARTESIAN_POINT('',(-2.00000000000004,9.49999999999999,10.));
#778=CARTESIAN_POINT('',(2.00000000000004,9.49999999999999,2.));
#779=CARTESIAN_POINT('Origin',(-2.00000000000004,6.49999999999999,2.));
#780=CARTESIAN_POINT('',(2.00000000000004,6.49999999999999,4.));
#781=CARTESIAN_POINT('',(-2.00000000000004,6.49999999999999,4.));
#782=CARTESIAN_POINT('',(-2.00000000000004,6.49999999999999,4.));
#783=CARTESIAN_POINT('',(2.00000000000004,6.49999999999999,10.));
#784=CARTESIAN_POINT('',(2.00000000000004,6.49999999999999,2.));
#785=CARTESIAN_POINT('',(-2.00000000000004,6.49999999999999,10.));
#786=CARTESIAN_POINT('',(-2.00000000000004,6.49999999999999,10.));
#787=CARTESIAN_POINT('',(-2.00000000000004,6.49999999999999,2.));
#788=CARTESIAN_POINT('Origin',(0.,7.99999999999999,10.));
#789=CARTESIAN_POINT('Origin',(0.,8.,10.));
#790=CARTESIAN_POINT('',(2.5,8.,10.));
#791=CARTESIAN_POINT('Origin',(0.,8.,10.));
#792=CARTESIAN_POINT('Origin',(0.,8.,10.));
#793=CARTESIAN_POINT('Origin',(2.77555756156289E-16,10.,4.));
#794=CARTESIAN_POINT('Origin',(0.,8.,4.));
#795=CARTESIAN_POINT('Origin',(0.,8.,2.));
#796=CARTESIAN_POINT('Origin',(0.,8.,4.));
#797=CARTESIAN_POINT('',(2.5,8.,2.));
#798=CARTESIAN_POINT('',(2.5,8.,2.));
#799=CARTESIAN_POINT('Origin',(0.,8.,2.));
#800=CARTESIAN_POINT('Origin',(0.,6.,4.));
#801=CARTESIAN_POINT('Origin',(0.,6.,2.));
#802=CARTESIAN_POINT('',(0.,0.,0.));
#803=CARTESIAN_POINT('',(0.,0.,0.));
#804=UNCERTAINTY_MEASURE_WITH_UNIT(LENGTH_MEASURE(0.01),#812,
'DISTANCE_ACCURACY_VALUE',
'Maximum model space distance between geometric entities at asserted c
onnectivities');
#805=UNCERTAINTY_MEASURE_WITH_UNIT(LENGTH_MEASURE(0.01),#812,
'DISTANCE_ACCURACY_VALUE',
'Maximum model space distance between geometric entities at asserted c
onnectivities');
#806=UNCERTAINTY_MEASURE_WITH_UNIT(LENGTH_MEASURE(0.01),#812,
'DISTANCE_ACCURACY_VALUE',
'Maximum model space distance between geometric entities at asserted c
onnectivities');
#807=UNCERTAINTY_MEASURE_WITH_UNIT(LENGTH_MEASURE(0.01),#812,
'DISTANCE_ACCURACY_VALUE',
'Maximum model space distance between geometric entities at asserted c
onnectivities');
#808=(
GEOMETRIC_REPRESENTATION_CONTEXT(3)
GLOBAL_UNCERTAINTY_ASSIGNED_CONTEXT((#804))
GLOBAL_UNIT_ASSIGNED_CONTEXT((#812,#814,#815))
REPRESENTATION_CONTEXT('','3D')
);
#809=(
GEOMETRIC_REPRESENTATION_CONTEXT(3)
GLOBAL_UNCERTAINTY_ASSIGNED_CONTEXT((#805))
GLOBAL_UNIT_ASSIGNED_CONTEXT((#812,#814,#815))
REPRESENTATION_CONTEXT('','3D')
);
#810=(
GEOMETRIC_REPRESENTATION_CONTEXT(3)
GLOBAL_UNCERTAINTY_ASSIGNED_CONTEXT((#806))
GLOBAL_UNIT_ASSIGNED_CONTEXT((#812,#814,#815))
REPRESENTATION_CONTEXT('','3D')
);
#811=(
GEOMETRIC_REPRESENTATION_CONTEXT(3)
GLOBAL_UNCERTAINTY_ASSIGNED_CONTEXT((#807))
GLOBAL_UNIT_ASSIGNED_CONTEXT((#812,#814,#815))
REPRESENTATION_CONTEXT('','3D')
);
#812=(
LENGTH_UNIT()
NAMED_UNIT(*)
SI_UNIT(.MILLI.,.METRE.)
);
#813=(
LENGTH_UNIT()
NAMED_UNIT(*)
SI_UNIT($,.METRE.)
);
#814=(
NAMED_UNIT(*)
PLANE_ANGLE_UNIT()
SI_UNIT($,.RADIAN.)
);
#815=(
NAMED_UNIT(*)
SI_UNIT($,.STERADIAN.)
SOLID_ANGLE_UNIT()
);
#816=SHAPE_DEFINITION_REPRESENTATION(#819,#824);
#817=SHAPE_DEFINITION_REPRESENTATION(#820,#825);
#818=SHAPE_DEFINITION_REPRESENTATION(#821,#826);
#819=PRODUCT_DEFINITION_SHAPE('',$,#828);
#820=PRODUCT_DEFINITION_SHAPE('',$,#829);
#821=PRODUCT_DEFINITION_SHAPE('',$,#830);
#822=PRODUCT_DEFINITION_SHAPE($,$,#17);
#823=PRODUCT_DEFINITION_SHAPE($,$,#18);
#824=SHAPE_REPRESENTATION('',(#480,#530,#531),#808);
#825=SHAPE_REPRESENTATION('',(#481),#809);
#826=SHAPE_REPRESENTATION('',(#516),#810);
#827=PRODUCT_DEFINITION_CONTEXT('part definition',#838,'design');
#828=PRODUCT_DEFINITION('03 - 28BYJ-48 STEPPER MOTOR',
'03 - 28BYJ-48 STEPPER MOTOR v14',#831,#827);
#829=PRODUCT_DEFINITION('01 - 28BYJ-48 STEPPER MOTOR BASE',
'01 - 28BYJ-48 STEPPER MOTOR BASE',#832,#827);
#830=PRODUCT_DEFINITION('02 - 28BYJ-48 STEPPER MOTOR SHAFT',
'02 - 28BYJ-48 STEPPER MOTOR SHAFT',#833,#827);
#831=PRODUCT_DEFINITION_FORMATION('',$,#840);
#832=PRODUCT_DEFINITION_FORMATION('',$,#841);
#833=PRODUCT_DEFINITION_FORMATION('',$,#842);
#834=PRODUCT_RELATED_PRODUCT_CATEGORY('03 - 28BYJ-48 STEPPER MOTOR v14',
'03 - 28BYJ-48 STEPPER MOTOR v14',(#840));
#835=PRODUCT_RELATED_PRODUCT_CATEGORY(
'01 - 28BYJ-48 STEPPER MOTOR BASE','01 - 28BYJ-48 STEPPER MOTOR BASE',(#841));
#836=PRODUCT_RELATED_PRODUCT_CATEGORY(
'02 - 28BYJ-48 STEPPER MOTOR SHAFT','02 - 28BYJ-48 STEPPER MOTOR SHAFT',
(#842));
#837=APPLICATION_PROTOCOL_DEFINITION('international standard',
'automotive_design',2009,#838);
#838=APPLICATION_CONTEXT(
'Core Data for Automotive Mechanical Design Process');
#839=PRODUCT_CONTEXT('part definition',#838,'mechanical');
#840=PRODUCT('03 - 28BYJ-48 STEPPER MOTOR',
'03 - 28BYJ-48 STEPPER MOTOR v14',$,(#839));
#841=PRODUCT('01 - 28BYJ-48 STEPPER MOTOR BASE',
'01 - 28BYJ-48 STEPPER MOTOR BASE',$,(#839));
#842=PRODUCT('02 - 28BYJ-48 STEPPER MOTOR SHAFT',
'02 - 28BYJ-48 STEPPER MOTOR SHAFT',$,(#839));
#843=PRESENTATION_STYLE_ASSIGNMENT((#844));
#844=SURFACE_STYLE_USAGE(.BOTH.,#845);
#845=SURFACE_SIDE_STYLE('',(#846));
#846=SURFACE_STYLE_FILL_AREA(#847);
#847=FILL_AREA_STYLE('Steel - Satin',(#848));
#848=FILL_AREA_STYLE_COLOUR('Steel - Satin',#849);
#849=COLOUR_RGB('Steel - Satin',0.627450980392157,0.627450980392157,0.627450980392157);
ENDSEC;
END-ISO-10303-21;
