ISO-10303-21;
HEADER;
/* Generated by software containing ST-Developer
 * from STEP Tools, Inc. (www.steptools.com) 
 */

FILE_DESCRIPTION(
/* description */ (''),
/* implementation_level */ '2;1');

FILE_NAME(
/* name */ '04 - PRIMARY SUPPORT MECHANISM ( RIGHT SIDE ).step',
/* time_stamp */ '2026-10-08T17:00:06+05:30',
/* author */ (''),
/* organization */ (''),
/* preprocessor_version */ 'ST-DEVELOPER v20.2',
/* originating_system */ 'Autodesk Translation Framework v15.15.0.0',
/* authorisation */ '');

FILE_SCHEMA (('AUTOMOTIVE_DESIGN { 1 0 10303 214 3 1 1 }'));
ENDSEC;

DATA;
#10=MECHANICAL_DESIGN_GEOMETRIC_PRESENTATION_REPRESENTATION('',(#13),#1485);
#11=SHAPE_REPRESENTATION_RELATIONSHIP('SRR','None',#1492,#12);
#12=ADVANCED_BREP_SHAPE_REPRESENTATION('',(#14),#1484);
#13=STYLED_ITEM('',(#1501),#14);
#14=MANIFOLD_SOLID_BREP('01 - PRIMARY SUPPORT MECHANISM ( RIGHT SIDE )',
#913);
#15=CYLINDRICAL_SURFACE('',#947,2.14);
#16=CYLINDRICAL_SURFACE('',#949,2.14);
#17=CYLINDRICAL_SURFACE('',#951,2.14);
#18=CYLINDRICAL_SURFACE('',#955,3.625);
#19=CYLINDRICAL_SURFACE('',#961,2.14);
#20=CYLINDRICAL_SURFACE('',#966,3.625);
#21=CYLINDRICAL_SURFACE('',#988,14.1);
#22=FACE_BOUND('',#102,.T.);
#23=FACE_BOUND('',#109,.T.);
#24=FACE_BOUND('',#111,.T.);
#25=FACE_BOUND('',#119,.T.);
#26=FACE_BOUND('',#126,.T.);
#27=FACE_BOUND('',#131,.T.);
#28=FACE_BOUND('',#135,.T.);
#29=FACE_BOUND('',#137,.T.);
#30=FACE_BOUND('',#138,.T.);
#31=FACE_BOUND('',#142,.T.);
#32=FACE_BOUND('',#145,.T.);
#33=CIRCLE('',#933,14.1);
#34=CIRCLE('',#934,2.14);
#35=CIRCLE('',#941,14.1);
#36=CIRCLE('',#942,2.14);
#37=CIRCLE('',#944,14.1);
#38=CIRCLE('',#945,14.1);
#39=CIRCLE('',#946,14.1);
#40=CIRCLE('',#948,2.14);
#41=CIRCLE('',#950,2.14);
#42=CIRCLE('',#952,2.14);
#43=CIRCLE('',#953,2.14);
#44=CIRCLE('',#956,3.625);
#45=CIRCLE('',#957,3.625);
#46=CIRCLE('',#962,2.14);
#47=CIRCLE('',#963,2.14);
#48=CIRCLE('',#967,3.625);
#49=CIRCLE('',#968,3.625);
#50=CIRCLE('',#978,14.1);
#51=FACE_OUTER_BOUND('',#96,.T.);
#52=FACE_OUTER_BOUND('',#97,.T.);
#53=FACE_OUTER_BOUND('',#98,.T.);
#54=FACE_OUTER_BOUND('',#99,.T.);
#55=FACE_OUTER_BOUND('',#100,.T.);
#56=FACE_OUTER_BOUND('',#101,.T.);
#57=FACE_OUTER_BOUND('',#103,.T.);
#58=FACE_OUTER_BOUND('',#104,.T.);
#59=FACE_OUTER_BOUND('',#105,.T.);
#60=FACE_OUTER_BOUND('',#106,.T.);
#61=FACE_OUTER_BOUND('',#107,.T.);
#62=FACE_OUTER_BOUND('',#108,.T.);
#63=FACE_OUTER_BOUND('',#110,.T.);
#64=FACE_OUTER_BOUND('',#112,.T.);
#65=FACE_OUTER_BOUND('',#113,.T.);
#66=FACE_OUTER_BOUND('',#114,.T.);
#67=FACE_OUTER_BOUND('',#115,.T.);
#68=FACE_OUTER_BOUND('',#116,.T.);
#69=FACE_OUTER_BOUND('',#117,.T.);
#70=FACE_OUTER_BOUND('',#118,.T.);
#71=FACE_OUTER_BOUND('',#120,.T.);
#72=FACE_OUTER_BOUND('',#121,.T.);
#73=FACE_OUTER_BOUND('',#122,.T.);
#74=FACE_OUTER_BOUND('',#123,.T.);
#75=FACE_OUTER_BOUND('',#124,.T.);
#76=FACE_OUTER_BOUND('',#125,.T.);
#77=FACE_OUTER_BOUND('',#127,.T.);
#78=FACE_OUTER_BOUND('',#128,.T.);
#79=FACE_OUTER_BOUND('',#129,.T.);
#80=FACE_OUTER_BOUND('',#130,.T.);
#81=FACE_OUTER_BOUND('',#132,.T.);
#82=FACE_OUTER_BOUND('',#133,.T.);
#83=FACE_OUTER_BOUND('',#134,.T.);
#84=FACE_OUTER_BOUND('',#136,.T.);
#85=FACE_OUTER_BOUND('',#139,.T.);
#86=FACE_OUTER_BOUND('',#140,.T.);
#87=FACE_OUTER_BOUND('',#141,.T.);
#88=FACE_OUTER_BOUND('',#143,.T.);
#89=FACE_OUTER_BOUND('',#144,.T.);
#90=FACE_OUTER_BOUND('',#146,.T.);
#91=FACE_OUTER_BOUND('',#147,.T.);
#92=FACE_OUTER_BOUND('',#148,.T.);
#93=FACE_OUTER_BOUND('',#149,.T.);
#94=FACE_OUTER_BOUND('',#150,.T.);
#95=FACE_OUTER_BOUND('',#151,.T.);
#96=EDGE_LOOP('',(#578,#579,#580,#581));
#97=EDGE_LOOP('',(#582,#583,#584,#585));
#98=EDGE_LOOP('',(#586,#587,#588,#589));
#99=EDGE_LOOP('',(#590,#591,#592,#593));
#100=EDGE_LOOP('',(#594,#595,#596,#597));
#101=EDGE_LOOP('',(#598,#599,#600,#601,#602,#603));
#102=EDGE_LOOP('',(#604));
#103=EDGE_LOOP('',(#605,#606,#607,#608));
#104=EDGE_LOOP('',(#609,#610,#611,#612));
#105=EDGE_LOOP('',(#613,#614,#615,#616));
#106=EDGE_LOOP('',(#617,#618,#619,#620));
#107=EDGE_LOOP('',(#621,#622,#623,#624));
#108=EDGE_LOOP('',(#625,#626,#627,#628,#629,#630));
#109=EDGE_LOOP('',(#631));
#110=EDGE_LOOP('',(#632,#633,#634,#635));
#111=EDGE_LOOP('',(#636,#637,#638,#639,#640,#641,#642,#643,#644,#645,#646,
#647,#648,#649,#650,#651));
#112=EDGE_LOOP('',(#652,#653,#654,#655));
#113=EDGE_LOOP('',(#656,#657,#658,#659));
#114=EDGE_LOOP('',(#660,#661,#662,#663));
#115=EDGE_LOOP('',(#664,#665,#666,#667));
#116=EDGE_LOOP('',(#668,#669,#670,#671));
#117=EDGE_LOOP('',(#672,#673,#674,#675));
#118=EDGE_LOOP('',(#676,#677,#678,#679));
#119=EDGE_LOOP('',(#680));
#120=EDGE_LOOP('',(#681,#682,#683,#684));
#121=EDGE_LOOP('',(#685,#686,#687,#688));
#122=EDGE_LOOP('',(#689,#690,#691,#692));
#123=EDGE_LOOP('',(#693,#694,#695,#696));
#124=EDGE_LOOP('',(#697,#698,#699,#700));
#125=EDGE_LOOP('',(#701,#702,#703,#704));
#126=EDGE_LOOP('',(#705));
#127=EDGE_LOOP('',(#706,#707,#708,#709));
#128=EDGE_LOOP('',(#710,#711,#712,#713));
#129=EDGE_LOOP('',(#714,#715,#716,#717));
#130=EDGE_LOOP('',(#718,#719,#720,#721));
#131=EDGE_LOOP('',(#722));
#132=EDGE_LOOP('',(#723,#724,#725,#726));
#133=EDGE_LOOP('',(#727,#728,#729,#730));
#134=EDGE_LOOP('',(#731,#732,#733,#734));
#135=EDGE_LOOP('',(#735));
#136=EDGE_LOOP('',(#736,#737,#738,#739,#740,#741,#742,#743,#744,#745,#746,
#747,#748,#749,#750,#751));
#137=EDGE_LOOP('',(#752));
#138=EDGE_LOOP('',(#753));
#139=EDGE_LOOP('',(#754,#755,#756,#757));
#140=EDGE_LOOP('',(#758,#759,#760,#761));
#141=EDGE_LOOP('',(#762,#763,#764,#765,#766,#767));
#142=EDGE_LOOP('',(#768,#769,#770,#771));
#143=EDGE_LOOP('',(#772,#773,#774,#775));
#144=EDGE_LOOP('',(#776,#777,#778,#779,#780,#781));
#145=EDGE_LOOP('',(#782,#783,#784,#785));
#146=EDGE_LOOP('',(#786,#787,#788,#789,#790,#791,#792,#793,#794,#795,#796,
#797));
#147=EDGE_LOOP('',(#798,#799,#800,#801));
#148=EDGE_LOOP('',(#802,#803,#804,#805,#806,#807,#808,#809));
#149=EDGE_LOOP('',(#810,#811,#812,#813));
#150=EDGE_LOOP('',(#814,#815,#816,#817,#818,#819,#820,#821,#822,#823,#824,
#825));
#151=EDGE_LOOP('',(#826,#827,#828,#829));
#152=LINE('',#1230,#260);
#153=LINE('',#1232,#261);
#154=LINE('',#1234,#262);
#155=LINE('',#1235,#263);
#156=LINE('',#1238,#264);
#157=LINE('',#1240,#265);
#158=LINE('',#1241,#266);
#159=LINE('',#1244,#267);
#160=LINE('',#1246,#268);
#161=LINE('',#1247,#269);
#162=LINE('',#1250,#270);
#163=LINE('',#1252,#271);
#164=LINE('',#1253,#272);
#165=LINE('',#1256,#273);
#166=LINE('',#1258,#274);
#167=LINE('',#1259,#275);
#168=LINE('',#1267,#276);
#169=LINE('',#1269,#277);
#170=LINE('',#1271,#278);
#171=LINE('',#1272,#279);
#172=LINE('',#1275,#280);
#173=LINE('',#1277,#281);
#174=LINE('',#1278,#282);
#175=LINE('',#1281,#283);
#176=LINE('',#1283,#284);
#177=LINE('',#1284,#285);
#178=LINE('',#1287,#286);
#179=LINE('',#1289,#287);
#180=LINE('',#1290,#288);
#181=LINE('',#1293,#289);
#182=LINE('',#1295,#290);
#183=LINE('',#1296,#291);
#184=LINE('',#1304,#292);
#185=LINE('',#1306,#293);
#186=LINE('',#1308,#294);
#187=LINE('',#1309,#295);
#188=LINE('',#1314,#296);
#189=LINE('',#1316,#297);
#190=LINE('',#1318,#298);
#191=LINE('',#1322,#299);
#192=LINE('',#1326,#300);
#193=LINE('',#1332,#301);
#194=LINE('',#1337,#302);
#195=LINE('',#1339,#303);
#196=LINE('',#1341,#304);
#197=LINE('',#1342,#305);
#198=LINE('',#1347,#306);
#199=LINE('',#1351,#307);
#200=LINE('',#1353,#308);
#201=LINE('',#1354,#309);
#202=LINE('',#1356,#310);
#203=LINE('',#1358,#311);
#204=LINE('',#1363,#312);
#205=LINE('',#1368,#313);
#206=LINE('',#1370,#314);
#207=LINE('',#1372,#315);
#208=LINE('',#1373,#316);
#209=LINE('',#1377,#317);
#210=LINE('',#1379,#318);
#211=LINE('',#1381,#319);
#212=LINE('',#1382,#320);
#213=LINE('',#1387,#321);
#214=LINE('',#1389,#322);
#215=LINE('',#1393,#323);
#216=LINE('',#1395,#324);
#217=LINE('',#1397,#325);
#218=LINE('',#1398,#326);
#219=LINE('',#1401,#327);
#220=LINE('',#1403,#328);
#221=LINE('',#1404,#329);
#222=LINE('',#1407,#330);
#223=LINE('',#1408,#331);
#224=LINE('',#1412,#332);
#225=LINE('',#1414,#333);
#226=LINE('',#1416,#334);
#227=LINE('',#1417,#335);
#228=LINE('',#1420,#336);
#229=LINE('',#1422,#337);
#230=LINE('',#1423,#338);
#231=LINE('',#1426,#339);
#232=LINE('',#1427,#340);
#233=LINE('',#1430,#341);
#234=LINE('',#1432,#342);
#235=LINE('',#1434,#343);
#236=LINE('',#1436,#344);
#237=LINE('',#1440,#345);
#238=LINE('',#1442,#346);
#239=LINE('',#1444,#347);
#240=LINE('',#1445,#348);
#241=LINE('',#1447,#349);
#242=LINE('',#1449,#350);
#243=LINE('',#1450,#351);
#244=LINE('',#1454,#352);
#245=LINE('',#1456,#353);
#246=LINE('',#1458,#354);
#247=LINE('',#1459,#355);
#248=LINE('',#1461,#356);
#249=LINE('',#1462,#357);
#250=LINE('',#1464,#358);
#251=LINE('',#1465,#359);
#252=LINE('',#1467,#360);
#253=LINE('',#1469,#361);
#254=LINE('',#1471,#362);
#255=LINE('',#1473,#363);
#256=LINE('',#1475,#364);
#257=LINE('',#1476,#365);
#258=LINE('',#1478,#366);
#259=LINE('',#1480,#367);
#260=VECTOR('',#994,10.);
#261=VECTOR('',#995,10.);
#262=VECTOR('',#996,10.);
#263=VECTOR('',#997,10.);
#264=VECTOR('',#1000,10.);
#265=VECTOR('',#1001,10.);
#266=VECTOR('',#1002,10.);
#267=VECTOR('',#1005,10.);
#268=VECTOR('',#1006,10.);
#269=VECTOR('',#1007,10.);
#270=VECTOR('',#1010,10.);
#271=VECTOR('',#1011,10.);
#272=VECTOR('',#1012,10.);
#273=VECTOR('',#1015,10.);
#274=VECTOR('',#1016,10.);
#275=VECTOR('',#1017,10.);
#276=VECTOR('',#1026,10.);
#277=VECTOR('',#1027,10.);
#278=VECTOR('',#1028,10.);
#279=VECTOR('',#1029,10.);
#280=VECTOR('',#1032,10.);
#281=VECTOR('',#1033,10.);
#282=VECTOR('',#1034,10.);
#283=VECTOR('',#1037,10.);
#284=VECTOR('',#1038,10.);
#285=VECTOR('',#1039,10.);
#286=VECTOR('',#1042,10.);
#287=VECTOR('',#1043,10.);
#288=VECTOR('',#1044,10.);
#289=VECTOR('',#1047,10.);
#290=VECTOR('',#1048,10.);
#291=VECTOR('',#1049,10.);
#292=VECTOR('',#1058,10.);
#293=VECTOR('',#1059,10.);
#294=VECTOR('',#1060,10.);
#295=VECTOR('',#1061,10.);
#296=VECTOR('',#1066,10.);
#297=VECTOR('',#1067,10.);
#298=VECTOR('',#1068,10.);
#299=VECTOR('',#1073,2.14);
#300=VECTOR('',#1078,2.14);
#301=VECTOR('',#1085,2.14);
#302=VECTOR('',#1090,10.);
#303=VECTOR('',#1091,10.);
#304=VECTOR('',#1092,10.);
#305=VECTOR('',#1093,10.);
#306=VECTOR('',#1098,10.);
#307=VECTOR('',#1103,10.);
#308=VECTOR('',#1104,10.);
#309=VECTOR('',#1105,10.);
#310=VECTOR('',#1108,10.);
#311=VECTOR('',#1111,10.);
#312=VECTOR('',#1116,2.14);
#313=VECTOR('',#1121,10.);
#314=VECTOR('',#1122,10.);
#315=VECTOR('',#1123,10.);
#316=VECTOR('',#1124,10.);
#317=VECTOR('',#1127,10.);
#318=VECTOR('',#1128,10.);
#319=VECTOR('',#1129,10.);
#320=VECTOR('',#1130,10.);
#321=VECTOR('',#1139,10.);
#322=VECTOR('',#1142,10.);
#323=VECTOR('',#1145,10.);
#324=VECTOR('',#1146,10.);
#325=VECTOR('',#1147,10.);
#326=VECTOR('',#1148,10.);
#327=VECTOR('',#1151,10.);
#328=VECTOR('',#1152,10.);
#329=VECTOR('',#1153,10.);
#330=VECTOR('',#1156,10.);
#331=VECTOR('',#1157,10.);
#332=VECTOR('',#1160,10.);
#333=VECTOR('',#1161,10.);
#334=VECTOR('',#1162,10.);
#335=VECTOR('',#1163,10.);
#336=VECTOR('',#1166,10.);
#337=VECTOR('',#1167,10.);
#338=VECTOR('',#1168,10.);
#339=VECTOR('',#1171,10.);
#340=VECTOR('',#1172,10.);
#341=VECTOR('',#1175,10.);
#342=VECTOR('',#1176,10.);
#343=VECTOR('',#1177,10.);
#344=VECTOR('',#1178,10.);
#345=VECTOR('',#1181,10.);
#346=VECTOR('',#1182,10.);
#347=VECTOR('',#1183,10.);
#348=VECTOR('',#1184,10.);
#349=VECTOR('',#1185,10.);
#350=VECTOR('',#1186,10.);
#351=VECTOR('',#1187,10.);
#352=VECTOR('',#1190,10.);
#353=VECTOR('',#1191,10.);
#354=VECTOR('',#1192,10.);
#355=VECTOR('',#1193,10.);
#356=VECTOR('',#1196,10.);
#357=VECTOR('',#1197,10.);
#358=VECTOR('',#1200,10.);
#359=VECTOR('',#1201,10.);
#360=VECTOR('',#1204,10.);
#361=VECTOR('',#1207,10.);
#362=VECTOR('',#1210,10.);
#363=VECTOR('',#1213,10.);
#364=VECTOR('',#1216,10.);
#365=VECTOR('',#1217,10.);
#366=VECTOR('',#1220,10.);
#367=VECTOR('',#1223,10.);
#368=VERTEX_POINT('',#1228);
#369=VERTEX_POINT('',#1229);
#370=VERTEX_POINT('',#1231);
#371=VERTEX_POINT('',#1233);
#372=VERTEX_POINT('',#1237);
#373=VERTEX_POINT('',#1239);
#374=VERTEX_POINT('',#1243);
#375=VERTEX_POINT('',#1245);
#376=VERTEX_POINT('',#1249);
#377=VERTEX_POINT('',#1251);
#378=VERTEX_POINT('',#1255);
#379=VERTEX_POINT('',#1257);
#380=VERTEX_POINT('',#1262);
#381=VERTEX_POINT('',#1265);
#382=VERTEX_POINT('',#1266);
#383=VERTEX_POINT('',#1268);
#384=VERTEX_POINT('',#1270);
#385=VERTEX_POINT('',#1274);
#386=VERTEX_POINT('',#1276);
#387=VERTEX_POINT('',#1280);
#388=VERTEX_POINT('',#1282);
#389=VERTEX_POINT('',#1286);
#390=VERTEX_POINT('',#1288);
#391=VERTEX_POINT('',#1292);
#392=VERTEX_POINT('',#1294);
#393=VERTEX_POINT('',#1299);
#394=VERTEX_POINT('',#1302);
#395=VERTEX_POINT('',#1303);
#396=VERTEX_POINT('',#1305);
#397=VERTEX_POINT('',#1307);
#398=VERTEX_POINT('',#1311);
#399=VERTEX_POINT('',#1313);
#400=VERTEX_POINT('',#1315);
#401=VERTEX_POINT('',#1317);
#402=VERTEX_POINT('',#1321);
#403=VERTEX_POINT('',#1325);
#404=VERTEX_POINT('',#1329);
#405=VERTEX_POINT('',#1331);
#406=VERTEX_POINT('',#1335);
#407=VERTEX_POINT('',#1336);
#408=VERTEX_POINT('',#1338);
#409=VERTEX_POINT('',#1340);
#410=VERTEX_POINT('',#1344);
#411=VERTEX_POINT('',#1346);
#412=VERTEX_POINT('',#1350);
#413=VERTEX_POINT('',#1352);
#414=VERTEX_POINT('',#1360);
#415=VERTEX_POINT('',#1362);
#416=VERTEX_POINT('',#1366);
#417=VERTEX_POINT('',#1367);
#418=VERTEX_POINT('',#1369);
#419=VERTEX_POINT('',#1371);
#420=VERTEX_POINT('',#1375);
#421=VERTEX_POINT('',#1376);
#422=VERTEX_POINT('',#1378);
#423=VERTEX_POINT('',#1380);
#424=VERTEX_POINT('',#1391);
#425=VERTEX_POINT('',#1392);
#426=VERTEX_POINT('',#1394);
#427=VERTEX_POINT('',#1396);
#428=VERTEX_POINT('',#1400);
#429=VERTEX_POINT('',#1402);
#430=VERTEX_POINT('',#1406);
#431=VERTEX_POINT('',#1410);
#432=VERTEX_POINT('',#1411);
#433=VERTEX_POINT('',#1413);
#434=VERTEX_POINT('',#1415);
#435=VERTEX_POINT('',#1419);
#436=VERTEX_POINT('',#1421);
#437=VERTEX_POINT('',#1425);
#438=VERTEX_POINT('',#1429);
#439=VERTEX_POINT('',#1431);
#440=VERTEX_POINT('',#1433);
#441=VERTEX_POINT('',#1435);
#442=VERTEX_POINT('',#1437);
#443=VERTEX_POINT('',#1439);
#444=VERTEX_POINT('',#1441);
#445=VERTEX_POINT('',#1443);
#446=VERTEX_POINT('',#1446);
#447=VERTEX_POINT('',#1448);
#448=VERTEX_POINT('',#1452);
#449=VERTEX_POINT('',#1453);
#450=VERTEX_POINT('',#1455);
#451=VERTEX_POINT('',#1457);
#452=EDGE_CURVE('',#368,#369,#152,.T.);
#453=EDGE_CURVE('',#368,#370,#153,.T.);
#454=EDGE_CURVE('',#370,#371,#154,.T.);
#455=EDGE_CURVE('',#369,#371,#155,.T.);
#456=EDGE_CURVE('',#372,#368,#156,.T.);
#457=EDGE_CURVE('',#372,#373,#157,.T.);
#458=EDGE_CURVE('',#373,#370,#158,.T.);
#459=EDGE_CURVE('',#374,#372,#159,.T.);
#460=EDGE_CURVE('',#374,#375,#160,.T.);
#461=EDGE_CURVE('',#375,#373,#161,.T.);
#462=EDGE_CURVE('',#376,#374,#162,.T.);
#463=EDGE_CURVE('',#376,#377,#163,.T.);
#464=EDGE_CURVE('',#377,#375,#164,.T.);
#465=EDGE_CURVE('',#378,#376,#165,.T.);
#466=EDGE_CURVE('',#379,#378,#166,.T.);
#467=EDGE_CURVE('',#379,#377,#167,.T.);
#468=EDGE_CURVE('',#371,#379,#33,.T.);
#469=EDGE_CURVE('',#380,#380,#34,.T.);
#470=EDGE_CURVE('',#381,#382,#168,.T.);
#471=EDGE_CURVE('',#381,#383,#169,.T.);
#472=EDGE_CURVE('',#383,#384,#170,.T.);
#473=EDGE_CURVE('',#382,#384,#171,.T.);
#474=EDGE_CURVE('',#385,#381,#172,.T.);
#475=EDGE_CURVE('',#385,#386,#173,.T.);
#476=EDGE_CURVE('',#386,#383,#174,.T.);
#477=EDGE_CURVE('',#387,#385,#175,.T.);
#478=EDGE_CURVE('',#387,#388,#176,.T.);
#479=EDGE_CURVE('',#388,#386,#177,.T.);
#480=EDGE_CURVE('',#389,#387,#178,.T.);
#481=EDGE_CURVE('',#389,#390,#179,.T.);
#482=EDGE_CURVE('',#390,#388,#180,.T.);
#483=EDGE_CURVE('',#391,#389,#181,.T.);
#484=EDGE_CURVE('',#392,#391,#182,.T.);
#485=EDGE_CURVE('',#392,#390,#183,.T.);
#486=EDGE_CURVE('',#384,#392,#35,.T.);
#487=EDGE_CURVE('',#393,#393,#36,.T.);
#488=EDGE_CURVE('',#394,#395,#184,.T.);
#489=EDGE_CURVE('',#395,#396,#185,.T.);
#490=EDGE_CURVE('',#396,#397,#186,.T.);
#491=EDGE_CURVE('',#397,#394,#187,.T.);
#492=EDGE_CURVE('',#369,#391,#37,.T.);
#493=EDGE_CURVE('',#382,#398,#38,.T.);
#494=EDGE_CURVE('',#399,#398,#188,.T.);
#495=EDGE_CURVE('',#399,#400,#189,.T.);
#496=EDGE_CURVE('',#400,#401,#190,.T.);
#497=EDGE_CURVE('',#401,#378,#39,.T.);
#498=EDGE_CURVE('',#380,#402,#191,.T.);
#499=EDGE_CURVE('',#402,#402,#40,.T.);
#500=EDGE_CURVE('',#393,#403,#192,.T.);
#501=EDGE_CURVE('',#403,#403,#41,.T.);
#502=EDGE_CURVE('',#404,#404,#42,.T.);
#503=EDGE_CURVE('',#404,#405,#193,.T.);
#504=EDGE_CURVE('',#405,#405,#43,.T.);
#505=EDGE_CURVE('',#406,#407,#194,.T.);
#506=EDGE_CURVE('',#406,#408,#195,.T.);
#507=EDGE_CURVE('',#408,#409,#196,.T.);
#508=EDGE_CURVE('',#407,#409,#197,.T.);
#509=EDGE_CURVE('',#406,#410,#44,.T.);
#510=EDGE_CURVE('',#410,#411,#198,.T.);
#511=EDGE_CURVE('',#411,#408,#45,.T.);
#512=EDGE_CURVE('',#410,#412,#199,.T.);
#513=EDGE_CURVE('',#413,#412,#200,.T.);
#514=EDGE_CURVE('',#413,#411,#201,.T.);
#515=EDGE_CURVE('',#412,#407,#202,.T.);
#516=EDGE_CURVE('',#409,#413,#203,.T.);
#517=EDGE_CURVE('',#414,#414,#46,.T.);
#518=EDGE_CURVE('',#414,#415,#204,.T.);
#519=EDGE_CURVE('',#415,#415,#47,.T.);
#520=EDGE_CURVE('',#416,#417,#205,.T.);
#521=EDGE_CURVE('',#418,#417,#206,.T.);
#522=EDGE_CURVE('',#418,#419,#207,.T.);
#523=EDGE_CURVE('',#416,#419,#208,.T.);
#524=EDGE_CURVE('',#420,#421,#209,.T.);
#525=EDGE_CURVE('',#420,#422,#210,.T.);
#526=EDGE_CURVE('',#422,#423,#211,.T.);
#527=EDGE_CURVE('',#421,#423,#212,.T.);
#528=EDGE_CURVE('',#420,#416,#48,.T.);
#529=EDGE_CURVE('',#419,#422,#49,.T.);
#530=EDGE_CURVE('',#417,#421,#213,.T.);
#531=EDGE_CURVE('',#423,#418,#214,.T.);
#532=EDGE_CURVE('',#424,#425,#215,.T.);
#533=EDGE_CURVE('',#424,#426,#216,.T.);
#534=EDGE_CURVE('',#427,#426,#217,.T.);
#535=EDGE_CURVE('',#425,#427,#218,.T.);
#536=EDGE_CURVE('',#425,#428,#219,.T.);
#537=EDGE_CURVE('',#429,#427,#220,.T.);
#538=EDGE_CURVE('',#428,#429,#221,.T.);
#539=EDGE_CURVE('',#426,#430,#222,.T.);
#540=EDGE_CURVE('',#430,#429,#223,.T.);
#541=EDGE_CURVE('',#431,#432,#224,.T.);
#542=EDGE_CURVE('',#431,#433,#225,.T.);
#543=EDGE_CURVE('',#434,#433,#226,.T.);
#544=EDGE_CURVE('',#432,#434,#227,.T.);
#545=EDGE_CURVE('',#432,#435,#228,.T.);
#546=EDGE_CURVE('',#436,#434,#229,.T.);
#547=EDGE_CURVE('',#435,#436,#230,.T.);
#548=EDGE_CURVE('',#433,#437,#231,.T.);
#549=EDGE_CURVE('',#437,#436,#232,.T.);
#550=EDGE_CURVE('',#428,#438,#233,.T.);
#551=EDGE_CURVE('',#438,#439,#234,.T.);
#552=EDGE_CURVE('',#439,#440,#235,.T.);
#553=EDGE_CURVE('',#440,#441,#236,.T.);
#554=EDGE_CURVE('',#441,#442,#50,.T.);
#555=EDGE_CURVE('',#442,#443,#237,.T.);
#556=EDGE_CURVE('',#443,#444,#238,.T.);
#557=EDGE_CURVE('',#444,#445,#239,.T.);
#558=EDGE_CURVE('',#445,#431,#240,.T.);
#559=EDGE_CURVE('',#435,#446,#241,.T.);
#560=EDGE_CURVE('',#446,#447,#242,.T.);
#561=EDGE_CURVE('',#447,#424,#243,.T.);
#562=EDGE_CURVE('',#448,#449,#244,.T.);
#563=EDGE_CURVE('',#450,#449,#245,.T.);
#564=EDGE_CURVE('',#450,#451,#246,.T.);
#565=EDGE_CURVE('',#448,#451,#247,.T.);
#566=EDGE_CURVE('',#449,#439,#248,.T.);
#567=EDGE_CURVE('',#450,#438,#249,.T.);
#568=EDGE_CURVE('',#395,#430,#250,.T.);
#569=EDGE_CURVE('',#396,#447,#251,.T.);
#570=EDGE_CURVE('',#397,#446,#252,.T.);
#571=EDGE_CURVE('',#394,#437,#253,.T.);
#572=EDGE_CURVE('',#451,#445,#254,.T.);
#573=EDGE_CURVE('',#448,#444,#255,.T.);
#574=EDGE_CURVE('',#399,#440,#256,.T.);
#575=EDGE_CURVE('',#400,#443,#257,.T.);
#576=EDGE_CURVE('',#401,#442,#258,.T.);
#577=EDGE_CURVE('',#398,#441,#259,.T.);
#578=ORIENTED_EDGE('',*,*,#452,.F.);
#579=ORIENTED_EDGE('',*,*,#453,.T.);
#580=ORIENTED_EDGE('',*,*,#454,.T.);
#581=ORIENTED_EDGE('',*,*,#455,.F.);
#582=ORIENTED_EDGE('',*,*,#456,.F.);
#583=ORIENTED_EDGE('',*,*,#457,.T.);
#584=ORIENTED_EDGE('',*,*,#458,.T.);
#585=ORIENTED_EDGE('',*,*,#453,.F.);
#586=ORIENTED_EDGE('',*,*,#459,.F.);
#587=ORIENTED_EDGE('',*,*,#460,.T.);
#588=ORIENTED_EDGE('',*,*,#461,.T.);
#589=ORIENTED_EDGE('',*,*,#457,.F.);
#590=ORIENTED_EDGE('',*,*,#462,.F.);
#591=ORIENTED_EDGE('',*,*,#463,.T.);
#592=ORIENTED_EDGE('',*,*,#464,.T.);
#593=ORIENTED_EDGE('',*,*,#460,.F.);
#594=ORIENTED_EDGE('',*,*,#465,.F.);
#595=ORIENTED_EDGE('',*,*,#466,.F.);
#596=ORIENTED_EDGE('',*,*,#467,.T.);
#597=ORIENTED_EDGE('',*,*,#463,.F.);
#598=ORIENTED_EDGE('',*,*,#467,.F.);
#599=ORIENTED_EDGE('',*,*,#468,.F.);
#600=ORIENTED_EDGE('',*,*,#454,.F.);
#601=ORIENTED_EDGE('',*,*,#458,.F.);
#602=ORIENTED_EDGE('',*,*,#461,.F.);
#603=ORIENTED_EDGE('',*,*,#464,.F.);
#604=ORIENTED_EDGE('',*,*,#469,.F.);
#605=ORIENTED_EDGE('',*,*,#470,.F.);
#606=ORIENTED_EDGE('',*,*,#471,.T.);
#607=ORIENTED_EDGE('',*,*,#472,.T.);
#608=ORIENTED_EDGE('',*,*,#473,.F.);
#609=ORIENTED_EDGE('',*,*,#474,.F.);
#610=ORIENTED_EDGE('',*,*,#475,.T.);
#611=ORIENTED_EDGE('',*,*,#476,.T.);
#612=ORIENTED_EDGE('',*,*,#471,.F.);
#613=ORIENTED_EDGE('',*,*,#477,.F.);
#614=ORIENTED_EDGE('',*,*,#478,.T.);
#615=ORIENTED_EDGE('',*,*,#479,.T.);
#616=ORIENTED_EDGE('',*,*,#475,.F.);
#617=ORIENTED_EDGE('',*,*,#480,.F.);
#618=ORIENTED_EDGE('',*,*,#481,.T.);
#619=ORIENTED_EDGE('',*,*,#482,.T.);
#620=ORIENTED_EDGE('',*,*,#478,.F.);
#621=ORIENTED_EDGE('',*,*,#483,.F.);
#622=ORIENTED_EDGE('',*,*,#484,.F.);
#623=ORIENTED_EDGE('',*,*,#485,.T.);
#624=ORIENTED_EDGE('',*,*,#481,.F.);
#625=ORIENTED_EDGE('',*,*,#485,.F.);
#626=ORIENTED_EDGE('',*,*,#486,.F.);
#627=ORIENTED_EDGE('',*,*,#472,.F.);
#628=ORIENTED_EDGE('',*,*,#476,.F.);
#629=ORIENTED_EDGE('',*,*,#479,.F.);
#630=ORIENTED_EDGE('',*,*,#482,.F.);
#631=ORIENTED_EDGE('',*,*,#487,.F.);
#632=ORIENTED_EDGE('',*,*,#488,.T.);
#633=ORIENTED_EDGE('',*,*,#489,.T.);
#634=ORIENTED_EDGE('',*,*,#490,.T.);
#635=ORIENTED_EDGE('',*,*,#491,.T.);
#636=ORIENTED_EDGE('',*,*,#465,.T.);
#637=ORIENTED_EDGE('',*,*,#462,.T.);
#638=ORIENTED_EDGE('',*,*,#459,.T.);
#639=ORIENTED_EDGE('',*,*,#456,.T.);
#640=ORIENTED_EDGE('',*,*,#452,.T.);
#641=ORIENTED_EDGE('',*,*,#492,.T.);
#642=ORIENTED_EDGE('',*,*,#483,.T.);
#643=ORIENTED_EDGE('',*,*,#480,.T.);
#644=ORIENTED_EDGE('',*,*,#477,.T.);
#645=ORIENTED_EDGE('',*,*,#474,.T.);
#646=ORIENTED_EDGE('',*,*,#470,.T.);
#647=ORIENTED_EDGE('',*,*,#493,.T.);
#648=ORIENTED_EDGE('',*,*,#494,.F.);
#649=ORIENTED_EDGE('',*,*,#495,.T.);
#650=ORIENTED_EDGE('',*,*,#496,.T.);
#651=ORIENTED_EDGE('',*,*,#497,.T.);
#652=ORIENTED_EDGE('',*,*,#469,.T.);
#653=ORIENTED_EDGE('',*,*,#498,.T.);
#654=ORIENTED_EDGE('',*,*,#499,.F.);
#655=ORIENTED_EDGE('',*,*,#498,.F.);
#656=ORIENTED_EDGE('',*,*,#487,.T.);
#657=ORIENTED_EDGE('',*,*,#500,.T.);
#658=ORIENTED_EDGE('',*,*,#501,.F.);
#659=ORIENTED_EDGE('',*,*,#500,.F.);
#660=ORIENTED_EDGE('',*,*,#502,.F.);
#661=ORIENTED_EDGE('',*,*,#503,.T.);
#662=ORIENTED_EDGE('',*,*,#504,.F.);
#663=ORIENTED_EDGE('',*,*,#503,.F.);
#664=ORIENTED_EDGE('',*,*,#505,.F.);
#665=ORIENTED_EDGE('',*,*,#506,.T.);
#666=ORIENTED_EDGE('',*,*,#507,.T.);
#667=ORIENTED_EDGE('',*,*,#508,.F.);
#668=ORIENTED_EDGE('',*,*,#509,.T.);
#669=ORIENTED_EDGE('',*,*,#510,.T.);
#670=ORIENTED_EDGE('',*,*,#511,.T.);
#671=ORIENTED_EDGE('',*,*,#506,.F.);
#672=ORIENTED_EDGE('',*,*,#512,.T.);
#673=ORIENTED_EDGE('',*,*,#513,.F.);
#674=ORIENTED_EDGE('',*,*,#514,.T.);
#675=ORIENTED_EDGE('',*,*,#510,.F.);
#676=ORIENTED_EDGE('',*,*,#512,.F.);
#677=ORIENTED_EDGE('',*,*,#509,.F.);
#678=ORIENTED_EDGE('',*,*,#505,.T.);
#679=ORIENTED_EDGE('',*,*,#515,.F.);
#680=ORIENTED_EDGE('',*,*,#504,.T.);
#681=ORIENTED_EDGE('',*,*,#514,.F.);
#682=ORIENTED_EDGE('',*,*,#516,.F.);
#683=ORIENTED_EDGE('',*,*,#507,.F.);
#684=ORIENTED_EDGE('',*,*,#511,.F.);
#685=ORIENTED_EDGE('',*,*,#517,.F.);
#686=ORIENTED_EDGE('',*,*,#518,.T.);
#687=ORIENTED_EDGE('',*,*,#519,.F.);
#688=ORIENTED_EDGE('',*,*,#518,.F.);
#689=ORIENTED_EDGE('',*,*,#520,.T.);
#690=ORIENTED_EDGE('',*,*,#521,.F.);
#691=ORIENTED_EDGE('',*,*,#522,.T.);
#692=ORIENTED_EDGE('',*,*,#523,.F.);
#693=ORIENTED_EDGE('',*,*,#524,.F.);
#694=ORIENTED_EDGE('',*,*,#525,.T.);
#695=ORIENTED_EDGE('',*,*,#526,.T.);
#696=ORIENTED_EDGE('',*,*,#527,.F.);
#697=ORIENTED_EDGE('',*,*,#528,.T.);
#698=ORIENTED_EDGE('',*,*,#523,.T.);
#699=ORIENTED_EDGE('',*,*,#529,.T.);
#700=ORIENTED_EDGE('',*,*,#525,.F.);
#701=ORIENTED_EDGE('',*,*,#528,.F.);
#702=ORIENTED_EDGE('',*,*,#524,.T.);
#703=ORIENTED_EDGE('',*,*,#530,.F.);
#704=ORIENTED_EDGE('',*,*,#520,.F.);
#705=ORIENTED_EDGE('',*,*,#519,.T.);
#706=ORIENTED_EDGE('',*,*,#529,.F.);
#707=ORIENTED_EDGE('',*,*,#522,.F.);
#708=ORIENTED_EDGE('',*,*,#531,.F.);
#709=ORIENTED_EDGE('',*,*,#526,.F.);
#710=ORIENTED_EDGE('',*,*,#532,.F.);
#711=ORIENTED_EDGE('',*,*,#533,.T.);
#712=ORIENTED_EDGE('',*,*,#534,.F.);
#713=ORIENTED_EDGE('',*,*,#535,.F.);
#714=ORIENTED_EDGE('',*,*,#536,.F.);
#715=ORIENTED_EDGE('',*,*,#535,.T.);
#716=ORIENTED_EDGE('',*,*,#537,.F.);
#717=ORIENTED_EDGE('',*,*,#538,.F.);
#718=ORIENTED_EDGE('',*,*,#539,.T.);
#719=ORIENTED_EDGE('',*,*,#540,.T.);
#720=ORIENTED_EDGE('',*,*,#537,.T.);
#721=ORIENTED_EDGE('',*,*,#534,.T.);
#722=ORIENTED_EDGE('',*,*,#502,.T.);
#723=ORIENTED_EDGE('',*,*,#541,.F.);
#724=ORIENTED_EDGE('',*,*,#542,.T.);
#725=ORIENTED_EDGE('',*,*,#543,.F.);
#726=ORIENTED_EDGE('',*,*,#544,.F.);
#727=ORIENTED_EDGE('',*,*,#545,.F.);
#728=ORIENTED_EDGE('',*,*,#544,.T.);
#729=ORIENTED_EDGE('',*,*,#546,.F.);
#730=ORIENTED_EDGE('',*,*,#547,.F.);
#731=ORIENTED_EDGE('',*,*,#546,.T.);
#732=ORIENTED_EDGE('',*,*,#543,.T.);
#733=ORIENTED_EDGE('',*,*,#548,.T.);
#734=ORIENTED_EDGE('',*,*,#549,.T.);
#735=ORIENTED_EDGE('',*,*,#517,.T.);
#736=ORIENTED_EDGE('',*,*,#536,.T.);
#737=ORIENTED_EDGE('',*,*,#550,.T.);
#738=ORIENTED_EDGE('',*,*,#551,.T.);
#739=ORIENTED_EDGE('',*,*,#552,.T.);
#740=ORIENTED_EDGE('',*,*,#553,.T.);
#741=ORIENTED_EDGE('',*,*,#554,.T.);
#742=ORIENTED_EDGE('',*,*,#555,.T.);
#743=ORIENTED_EDGE('',*,*,#556,.T.);
#744=ORIENTED_EDGE('',*,*,#557,.T.);
#745=ORIENTED_EDGE('',*,*,#558,.T.);
#746=ORIENTED_EDGE('',*,*,#541,.T.);
#747=ORIENTED_EDGE('',*,*,#545,.T.);
#748=ORIENTED_EDGE('',*,*,#559,.T.);
#749=ORIENTED_EDGE('',*,*,#560,.T.);
#750=ORIENTED_EDGE('',*,*,#561,.T.);
#751=ORIENTED_EDGE('',*,*,#532,.T.);
#752=ORIENTED_EDGE('',*,*,#499,.T.);
#753=ORIENTED_EDGE('',*,*,#501,.T.);
#754=ORIENTED_EDGE('',*,*,#562,.T.);
#755=ORIENTED_EDGE('',*,*,#563,.F.);
#756=ORIENTED_EDGE('',*,*,#564,.T.);
#757=ORIENTED_EDGE('',*,*,#565,.F.);
#758=ORIENTED_EDGE('',*,*,#563,.T.);
#759=ORIENTED_EDGE('',*,*,#566,.T.);
#760=ORIENTED_EDGE('',*,*,#551,.F.);
#761=ORIENTED_EDGE('',*,*,#567,.F.);
#762=ORIENTED_EDGE('',*,*,#489,.F.);
#763=ORIENTED_EDGE('',*,*,#568,.T.);
#764=ORIENTED_EDGE('',*,*,#539,.F.);
#765=ORIENTED_EDGE('',*,*,#533,.F.);
#766=ORIENTED_EDGE('',*,*,#561,.F.);
#767=ORIENTED_EDGE('',*,*,#569,.F.);
#768=ORIENTED_EDGE('',*,*,#513,.T.);
#769=ORIENTED_EDGE('',*,*,#515,.T.);
#770=ORIENTED_EDGE('',*,*,#508,.T.);
#771=ORIENTED_EDGE('',*,*,#516,.T.);
#772=ORIENTED_EDGE('',*,*,#490,.F.);
#773=ORIENTED_EDGE('',*,*,#569,.T.);
#774=ORIENTED_EDGE('',*,*,#560,.F.);
#775=ORIENTED_EDGE('',*,*,#570,.F.);
#776=ORIENTED_EDGE('',*,*,#491,.F.);
#777=ORIENTED_EDGE('',*,*,#570,.T.);
#778=ORIENTED_EDGE('',*,*,#559,.F.);
#779=ORIENTED_EDGE('',*,*,#547,.T.);
#780=ORIENTED_EDGE('',*,*,#549,.F.);
#781=ORIENTED_EDGE('',*,*,#571,.F.);
#782=ORIENTED_EDGE('',*,*,#527,.T.);
#783=ORIENTED_EDGE('',*,*,#531,.T.);
#784=ORIENTED_EDGE('',*,*,#521,.T.);
#785=ORIENTED_EDGE('',*,*,#530,.T.);
#786=ORIENTED_EDGE('',*,*,#488,.F.);
#787=ORIENTED_EDGE('',*,*,#571,.T.);
#788=ORIENTED_EDGE('',*,*,#548,.F.);
#789=ORIENTED_EDGE('',*,*,#542,.F.);
#790=ORIENTED_EDGE('',*,*,#558,.F.);
#791=ORIENTED_EDGE('',*,*,#572,.F.);
#792=ORIENTED_EDGE('',*,*,#564,.F.);
#793=ORIENTED_EDGE('',*,*,#567,.T.);
#794=ORIENTED_EDGE('',*,*,#550,.F.);
#795=ORIENTED_EDGE('',*,*,#538,.T.);
#796=ORIENTED_EDGE('',*,*,#540,.F.);
#797=ORIENTED_EDGE('',*,*,#568,.F.);
#798=ORIENTED_EDGE('',*,*,#565,.T.);
#799=ORIENTED_EDGE('',*,*,#572,.T.);
#800=ORIENTED_EDGE('',*,*,#557,.F.);
#801=ORIENTED_EDGE('',*,*,#573,.F.);
#802=ORIENTED_EDGE('',*,*,#495,.F.);
#803=ORIENTED_EDGE('',*,*,#574,.T.);
#804=ORIENTED_EDGE('',*,*,#552,.F.);
#805=ORIENTED_EDGE('',*,*,#566,.F.);
#806=ORIENTED_EDGE('',*,*,#562,.F.);
#807=ORIENTED_EDGE('',*,*,#573,.T.);
#808=ORIENTED_EDGE('',*,*,#556,.F.);
#809=ORIENTED_EDGE('',*,*,#575,.F.);
#810=ORIENTED_EDGE('',*,*,#496,.F.);
#811=ORIENTED_EDGE('',*,*,#575,.T.);
#812=ORIENTED_EDGE('',*,*,#555,.F.);
#813=ORIENTED_EDGE('',*,*,#576,.F.);
#814=ORIENTED_EDGE('',*,*,#466,.T.);
#815=ORIENTED_EDGE('',*,*,#497,.F.);
#816=ORIENTED_EDGE('',*,*,#576,.T.);
#817=ORIENTED_EDGE('',*,*,#554,.F.);
#818=ORIENTED_EDGE('',*,*,#577,.F.);
#819=ORIENTED_EDGE('',*,*,#493,.F.);
#820=ORIENTED_EDGE('',*,*,#473,.T.);
#821=ORIENTED_EDGE('',*,*,#486,.T.);
#822=ORIENTED_EDGE('',*,*,#484,.T.);
#823=ORIENTED_EDGE('',*,*,#492,.F.);
#824=ORIENTED_EDGE('',*,*,#455,.T.);
#825=ORIENTED_EDGE('',*,*,#468,.T.);
#826=ORIENTED_EDGE('',*,*,#494,.T.);
#827=ORIENTED_EDGE('',*,*,#577,.T.);
#828=ORIENTED_EDGE('',*,*,#553,.F.);
#829=ORIENTED_EDGE('',*,*,#574,.F.);
#830=PLANE('',#927);
#831=PLANE('',#928);
#832=PLANE('',#929);
#833=PLANE('',#930);
#834=PLANE('',#931);
#835=PLANE('',#932);
#836=PLANE('',#935);
#837=PLANE('',#936);
#838=PLANE('',#937);
#839=PLANE('',#938);
#840=PLANE('',#939);
#841=PLANE('',#940);
#842=PLANE('',#943);
#843=PLANE('',#954);
#844=PLANE('',#958);
#845=PLANE('',#959);
#846=PLANE('',#960);
#847=PLANE('',#964);
#848=PLANE('',#965);
#849=PLANE('',#969);
#850=PLANE('',#970);
#851=PLANE('',#971);
#852=PLANE('',#972);
#853=PLANE('',#973);
#854=PLANE('',#974);
#855=PLANE('',#975);
#856=PLANE('',#976);
#857=PLANE('',#977);
#858=PLANE('',#979);
#859=PLANE('',#980);
#860=PLANE('',#981);
#861=PLANE('',#982);
#862=PLANE('',#983);
#863=PLANE('',#984);
#864=PLANE('',#985);
#865=PLANE('',#986);
#866=PLANE('',#987);
#867=PLANE('',#989);
#868=ADVANCED_FACE('',(#51),#830,.F.);
#869=ADVANCED_FACE('',(#52),#831,.F.);
#870=ADVANCED_FACE('',(#53),#832,.F.);
#871=ADVANCED_FACE('',(#54),#833,.F.);
#872=ADVANCED_FACE('',(#55),#834,.F.);
#873=ADVANCED_FACE('',(#56,#22),#835,.F.);
#874=ADVANCED_FACE('',(#57),#836,.F.);
#875=ADVANCED_FACE('',(#58),#837,.F.);
#876=ADVANCED_FACE('',(#59),#838,.F.);
#877=ADVANCED_FACE('',(#60),#839,.F.);
#878=ADVANCED_FACE('',(#61),#840,.F.);
#879=ADVANCED_FACE('',(#62,#23),#841,.F.);
#880=ADVANCED_FACE('',(#63,#24),#842,.F.);
#881=ADVANCED_FACE('',(#64),#15,.F.);
#882=ADVANCED_FACE('',(#65),#16,.F.);
#883=ADVANCED_FACE('',(#66),#17,.F.);
#884=ADVANCED_FACE('',(#67),#843,.F.);
#885=ADVANCED_FACE('',(#68),#18,.F.);
#886=ADVANCED_FACE('',(#69),#844,.F.);
#887=ADVANCED_FACE('',(#70,#25),#845,.F.);
#888=ADVANCED_FACE('',(#71),#846,.T.);
#889=ADVANCED_FACE('',(#72),#19,.F.);
#890=ADVANCED_FACE('',(#73),#847,.F.);
#891=ADVANCED_FACE('',(#74),#848,.F.);
#892=ADVANCED_FACE('',(#75),#20,.F.);
#893=ADVANCED_FACE('',(#76,#26),#849,.F.);
#894=ADVANCED_FACE('',(#77),#850,.T.);
#895=ADVANCED_FACE('',(#78),#851,.T.);
#896=ADVANCED_FACE('',(#79),#852,.T.);
#897=ADVANCED_FACE('',(#80,#27),#853,.T.);
#898=ADVANCED_FACE('',(#81),#854,.T.);
#899=ADVANCED_FACE('',(#82),#855,.T.);
#900=ADVANCED_FACE('',(#83,#28),#856,.T.);
#901=ADVANCED_FACE('',(#84,#29,#30),#857,.T.);
#902=ADVANCED_FACE('',(#85),#858,.T.);
#903=ADVANCED_FACE('',(#86),#859,.T.);
#904=ADVANCED_FACE('',(#87,#31),#860,.T.);
#905=ADVANCED_FACE('',(#88),#861,.T.);
#906=ADVANCED_FACE('',(#89,#32),#862,.T.);
#907=ADVANCED_FACE('',(#90),#863,.T.);
#908=ADVANCED_FACE('',(#91),#864,.T.);
#909=ADVANCED_FACE('',(#92),#865,.T.);
#910=ADVANCED_FACE('',(#93),#866,.T.);
#911=ADVANCED_FACE('',(#94),#21,.F.);
#912=ADVANCED_FACE('',(#95),#867,.T.);
#913=CLOSED_SHELL('',(#868,#869,#870,#871,#872,#873,#874,#875,#876,#877,
#878,#879,#880,#881,#882,#883,#884,#885,#886,#887,#888,#889,#890,#891,#892,
#893,#894,#895,#896,#897,#898,#899,#900,#901,#902,#903,#904,#905,#906,#907,
#908,#909,#910,#911,#912));
#914=DERIVED_UNIT_ELEMENT(#916,1.);
#915=DERIVED_UNIT_ELEMENT(#1487,-3.);
#916=(
MASS_UNIT()
NAMED_UNIT(*)
SI_UNIT(.KILO.,.GRAM.)
);
#917=DERIVED_UNIT((#914,#915));
#918=MEASURE_REPRESENTATION_ITEM('density measure',
POSITIVE_RATIO_MEASURE(7850.),#917);
#919=PROPERTY_DEFINITION_REPRESENTATION(#924,#921);
#920=PROPERTY_DEFINITION_REPRESENTATION(#925,#922);
#921=REPRESENTATION('material name',(#923),#1484);
#922=REPRESENTATION('density',(#918),#1484);
#923=DESCRIPTIVE_REPRESENTATION_ITEM('Steel','Steel');
#924=PROPERTY_DEFINITION('material property','material name',#1494);
#925=PROPERTY_DEFINITION('material property','density of part',#1494);
#926=AXIS2_PLACEMENT_3D('',#1226,#990,#991);
#927=AXIS2_PLACEMENT_3D('',#1227,#992,#993);
#928=AXIS2_PLACEMENT_3D('',#1236,#998,#999);
#929=AXIS2_PLACEMENT_3D('',#1242,#1003,#1004);
#930=AXIS2_PLACEMENT_3D('',#1248,#1008,#1009);
#931=AXIS2_PLACEMENT_3D('',#1254,#1013,#1014);
#932=AXIS2_PLACEMENT_3D('',#1260,#1018,#1019);
#933=AXIS2_PLACEMENT_3D('',#1261,#1020,#1021);
#934=AXIS2_PLACEMENT_3D('',#1263,#1022,#1023);
#935=AXIS2_PLACEMENT_3D('',#1264,#1024,#1025);
#936=AXIS2_PLACEMENT_3D('',#1273,#1030,#1031);
#937=AXIS2_PLACEMENT_3D('',#1279,#1035,#1036);
#938=AXIS2_PLACEMENT_3D('',#1285,#1040,#1041);
#939=AXIS2_PLACEMENT_3D('',#1291,#1045,#1046);
#940=AXIS2_PLACEMENT_3D('',#1297,#1050,#1051);
#941=AXIS2_PLACEMENT_3D('',#1298,#1052,#1053);
#942=AXIS2_PLACEMENT_3D('',#1300,#1054,#1055);
#943=AXIS2_PLACEMENT_3D('',#1301,#1056,#1057);
#944=AXIS2_PLACEMENT_3D('',#1310,#1062,#1063);
#945=AXIS2_PLACEMENT_3D('',#1312,#1064,#1065);
#946=AXIS2_PLACEMENT_3D('',#1319,#1069,#1070);
#947=AXIS2_PLACEMENT_3D('',#1320,#1071,#1072);
#948=AXIS2_PLACEMENT_3D('',#1323,#1074,#1075);
#949=AXIS2_PLACEMENT_3D('',#1324,#1076,#1077);
#950=AXIS2_PLACEMENT_3D('',#1327,#1079,#1080);
#951=AXIS2_PLACEMENT_3D('',#1328,#1081,#1082);
#952=AXIS2_PLACEMENT_3D('',#1330,#1083,#1084);
#953=AXIS2_PLACEMENT_3D('',#1333,#1086,#1087);
#954=AXIS2_PLACEMENT_3D('',#1334,#1088,#1089);
#955=AXIS2_PLACEMENT_3D('',#1343,#1094,#1095);
#956=AXIS2_PLACEMENT_3D('',#1345,#1096,#1097);
#957=AXIS2_PLACEMENT_3D('',#1348,#1099,#1100);
#958=AXIS2_PLACEMENT_3D('',#1349,#1101,#1102);
#959=AXIS2_PLACEMENT_3D('',#1355,#1106,#1107);
#960=AXIS2_PLACEMENT_3D('',#1357,#1109,#1110);
#961=AXIS2_PLACEMENT_3D('',#1359,#1112,#1113);
#962=AXIS2_PLACEMENT_3D('',#1361,#1114,#1115);
#963=AXIS2_PLACEMENT_3D('',#1364,#1117,#1118);
#964=AXIS2_PLACEMENT_3D('',#1365,#1119,#1120);
#965=AXIS2_PLACEMENT_3D('',#1374,#1125,#1126);
#966=AXIS2_PLACEMENT_3D('',#1383,#1131,#1132);
#967=AXIS2_PLACEMENT_3D('',#1384,#1133,#1134);
#968=AXIS2_PLACEMENT_3D('',#1385,#1135,#1136);
#969=AXIS2_PLACEMENT_3D('',#1386,#1137,#1138);
#970=AXIS2_PLACEMENT_3D('',#1388,#1140,#1141);
#971=AXIS2_PLACEMENT_3D('',#1390,#1143,#1144);
#972=AXIS2_PLACEMENT_3D('',#1399,#1149,#1150);
#973=AXIS2_PLACEMENT_3D('',#1405,#1154,#1155);
#974=AXIS2_PLACEMENT_3D('',#1409,#1158,#1159);
#975=AXIS2_PLACEMENT_3D('',#1418,#1164,#1165);
#976=AXIS2_PLACEMENT_3D('',#1424,#1169,#1170);
#977=AXIS2_PLACEMENT_3D('',#1428,#1173,#1174);
#978=AXIS2_PLACEMENT_3D('',#1438,#1179,#1180);
#979=AXIS2_PLACEMENT_3D('',#1451,#1188,#1189);
#980=AXIS2_PLACEMENT_3D('',#1460,#1194,#1195);
#981=AXIS2_PLACEMENT_3D('',#1463,#1198,#1199);
#982=AXIS2_PLACEMENT_3D('',#1466,#1202,#1203);
#983=AXIS2_PLACEMENT_3D('',#1468,#1205,#1206);
#984=AXIS2_PLACEMENT_3D('',#1470,#1208,#1209);
#985=AXIS2_PLACEMENT_3D('',#1472,#1211,#1212);
#986=AXIS2_PLACEMENT_3D('',#1474,#1214,#1215);
#987=AXIS2_PLACEMENT_3D('',#1477,#1218,#1219);
#988=AXIS2_PLACEMENT_3D('',#1479,#1221,#1222);
#989=AXIS2_PLACEMENT_3D('',#1481,#1224,#1225);
#990=DIRECTION('axis',(0.,0.,1.));
#991=DIRECTION('refdir',(1.,0.,0.));
#992=DIRECTION('center_axis',(-0.5,0.866025403784439,0.));
#993=DIRECTION('ref_axis',(-0.866025403784439,-0.5,0.));
#994=DIRECTION('',(-0.866025403784439,-0.5,0.));
#995=DIRECTION('',(0.,0.,1.));
#996=DIRECTION('',(-0.866025403784439,-0.5,0.));
#997=DIRECTION('',(0.,0.,1.));
#998=DIRECTION('center_axis',(0.5,0.866025403784439,0.));
#999=DIRECTION('ref_axis',(-0.866025403784439,0.5,0.));
#1000=DIRECTION('',(-0.866025403784439,0.5,0.));
#1001=DIRECTION('',(0.,0.,1.));
#1002=DIRECTION('',(-0.866025403784439,0.5,0.));
#1003=DIRECTION('center_axis',(1.,-1.06094493041852E-15,0.));
#1004=DIRECTION('ref_axis',(1.06094493041852E-15,1.,0.));
#1005=DIRECTION('',(1.06094493041852E-15,1.,0.));
#1006=DIRECTION('',(0.,0.,1.));
#1007=DIRECTION('',(1.06094493041852E-15,1.,0.));
#1008=DIRECTION('center_axis',(0.499999999999999,-0.866025403784439,0.));
#1009=DIRECTION('ref_axis',(0.866025403784439,0.499999999999999,0.));
#1010=DIRECTION('',(0.866025403784439,0.499999999999999,0.));
#1011=DIRECTION('',(0.,0.,1.));
#1012=DIRECTION('',(0.866025403784439,0.499999999999999,0.));
#1013=DIRECTION('center_axis',(-0.5,-0.866025403784438,0.));
#1014=DIRECTION('ref_axis',(0.866025403784438,-0.5,0.));
#1015=DIRECTION('',(0.866025403784438,-0.5,0.));
#1016=DIRECTION('',(0.,0.,-1.));
#1017=DIRECTION('',(0.866025403784438,-0.5,0.));
#1018=DIRECTION('center_axis',(0.,0.,1.));
#1019=DIRECTION('ref_axis',(1.,0.,0.));
#1020=DIRECTION('center_axis',(0.,0.,-1.));
#1021=DIRECTION('ref_axis',(0.539007092198582,-0.84230122554798,0.));
#1022=DIRECTION('center_axis',(0.,0.,-1.));
#1023=DIRECTION('ref_axis',(1.,0.,0.));
#1024=DIRECTION('center_axis',(0.5,-0.866025403784439,0.));
#1025=DIRECTION('ref_axis',(0.866025403784439,0.499999999999999,0.));
#1026=DIRECTION('',(0.866025403784439,0.499999999999999,0.));
#1027=DIRECTION('',(0.,0.,1.));
#1028=DIRECTION('',(0.866025403784439,0.499999999999999,0.));
#1029=DIRECTION('',(0.,0.,1.));
#1030=DIRECTION('center_axis',(-0.5,-0.866025403784439,0.));
#1031=DIRECTION('ref_axis',(0.866025403784439,-0.5,0.));
#1032=DIRECTION('',(0.866025403784439,-0.5,0.));
#1033=DIRECTION('',(0.,0.,1.));
#1034=DIRECTION('',(0.866025403784439,-0.5,0.));
#1035=DIRECTION('center_axis',(-1.,0.,0.));
#1036=DIRECTION('ref_axis',(0.,-1.,0.));
#1037=DIRECTION('',(0.,-1.,0.));
#1038=DIRECTION('',(0.,0.,1.));
#1039=DIRECTION('',(0.,-1.,0.));
#1040=DIRECTION('center_axis',(-0.5,0.866025403784439,0.));
#1041=DIRECTION('ref_axis',(-0.866025403784439,-0.5,0.));
#1042=DIRECTION('',(-0.866025403784439,-0.5,0.));
#1043=DIRECTION('',(0.,0.,1.));
#1044=DIRECTION('',(-0.866025403784439,-0.5,0.));
#1045=DIRECTION('center_axis',(0.5,0.866025403784439,0.));
#1046=DIRECTION('ref_axis',(-0.866025403784439,0.5,0.));
#1047=DIRECTION('',(-0.866025403784439,0.5,0.));
#1048=DIRECTION('',(0.,0.,-1.));
#1049=DIRECTION('',(-0.866025403784439,0.5,0.));
#1050=DIRECTION('center_axis',(0.,0.,1.));
#1051=DIRECTION('ref_axis',(1.,0.,0.));
#1052=DIRECTION('center_axis',(0.,0.,-1.));
#1053=DIRECTION('ref_axis',(0.539007092198582,-0.84230122554798,0.));
#1054=DIRECTION('center_axis',(0.,0.,-1.));
#1055=DIRECTION('ref_axis',(1.,0.,0.));
#1056=DIRECTION('center_axis',(0.,0.,1.));
#1057=DIRECTION('ref_axis',(1.,0.,0.));
#1058=DIRECTION('',(-1.,0.,0.));
#1059=DIRECTION('',(0.,1.,0.));
#1060=DIRECTION('',(1.,-2.22044604925031E-16,0.));
#1061=DIRECTION('',(0.,-1.,0.));
#1062=DIRECTION('center_axis',(0.,0.,1.));
#1063=DIRECTION('ref_axis',(0.539007092198582,-0.84230122554798,0.));
#1064=DIRECTION('center_axis',(0.,0.,1.));
#1065=DIRECTION('ref_axis',(0.539007092198582,-0.84230122554798,0.));
#1066=DIRECTION('',(0.,1.,0.));
#1067=DIRECTION('',(1.,0.,0.));
#1068=DIRECTION('',(6.00646185572987E-16,1.,0.));
#1069=DIRECTION('center_axis',(0.,0.,1.));
#1070=DIRECTION('ref_axis',(0.539007092198582,-0.84230122554798,0.));
#1071=DIRECTION('center_axis',(0.,0.,1.));
#1072=DIRECTION('ref_axis',(1.,0.,0.));
#1073=DIRECTION('',(0.,0.,1.));
#1074=DIRECTION('center_axis',(0.,0.,-1.));
#1075=DIRECTION('ref_axis',(1.,0.,0.));
#1076=DIRECTION('center_axis',(0.,0.,1.));
#1077=DIRECTION('ref_axis',(1.,0.,0.));
#1078=DIRECTION('',(0.,0.,1.));
#1079=DIRECTION('center_axis',(0.,0.,-1.));
#1080=DIRECTION('ref_axis',(1.,0.,0.));
#1081=DIRECTION('center_axis',(0.,0.,-1.));
#1082=DIRECTION('ref_axis',(-1.,0.,0.));
#1083=DIRECTION('center_axis',(0.,0.,-1.));
#1084=DIRECTION('ref_axis',(-1.,0.,0.));
#1085=DIRECTION('',(0.,0.,-1.));
#1086=DIRECTION('center_axis',(0.,0.,1.));
#1087=DIRECTION('ref_axis',(-1.,0.,0.));
#1088=DIRECTION('center_axis',(-5.55111512312578E-16,-1.,0.));
#1089=DIRECTION('ref_axis',(-1.,5.55111512312578E-16,0.));
#1090=DIRECTION('',(-1.,5.55111512312578E-16,0.));
#1091=DIRECTION('',(0.,0.,-1.));
#1092=DIRECTION('',(-1.,5.55111512312578E-16,0.));
#1093=DIRECTION('',(0.,0.,-1.));
#1094=DIRECTION('center_axis',(0.,0.,-1.));
#1095=DIRECTION('ref_axis',(1.,1.22464679914735E-16,0.));
#1096=DIRECTION('center_axis',(0.,0.,1.));
#1097=DIRECTION('ref_axis',(-1.,0.,0.));
#1098=DIRECTION('',(0.,0.,-1.));
#1099=DIRECTION('center_axis',(0.,0.,-1.));
#1100=DIRECTION('ref_axis',(-1.,0.,0.));
#1101=DIRECTION('center_axis',(-5.55111512312578E-16,1.,0.));
#1102=DIRECTION('ref_axis',(1.,5.55111512312578E-16,0.));
#1103=DIRECTION('',(-1.,-5.55111512312578E-16,0.));
#1104=DIRECTION('',(0.,0.,1.));
#1105=DIRECTION('',(1.,5.55111512312578E-16,0.));
#1106=DIRECTION('center_axis',(0.,0.,1.));
#1107=DIRECTION('ref_axis',(-1.,0.,0.));
#1108=DIRECTION('',(0.,-1.,0.));
#1109=DIRECTION('center_axis',(0.,0.,1.));
#1110=DIRECTION('ref_axis',(-1.,0.,0.));
#1111=DIRECTION('',(0.,1.,0.));
#1112=DIRECTION('center_axis',(0.,0.,-1.));
#1113=DIRECTION('ref_axis',(-1.,0.,0.));
#1114=DIRECTION('center_axis',(0.,0.,-1.));
#1115=DIRECTION('ref_axis',(-1.,0.,0.));
#1116=DIRECTION('',(0.,0.,-1.));
#1117=DIRECTION('center_axis',(0.,0.,1.));
#1118=DIRECTION('ref_axis',(-1.,0.,0.));
#1119=DIRECTION('center_axis',(-5.55111512312578E-16,-1.,0.));
#1120=DIRECTION('ref_axis',(-1.,5.55111512312578E-16,0.));
#1121=DIRECTION('',(1.,-5.55111512312578E-16,0.));
#1122=DIRECTION('',(0.,0.,1.));
#1123=DIRECTION('',(-1.,5.55111512312578E-16,0.));
#1124=DIRECTION('',(0.,0.,-1.));
#1125=DIRECTION('center_axis',(0.,1.,0.));
#1126=DIRECTION('ref_axis',(1.,0.,0.));
#1127=DIRECTION('',(1.,0.,0.));
#1128=DIRECTION('',(0.,0.,-1.));
#1129=DIRECTION('',(1.,0.,0.));
#1130=DIRECTION('',(0.,0.,-1.));
#1131=DIRECTION('center_axis',(0.,0.,-1.));
#1132=DIRECTION('ref_axis',(-1.,0.,0.));
#1133=DIRECTION('center_axis',(0.,0.,1.));
#1134=DIRECTION('ref_axis',(-1.,0.,0.));
#1135=DIRECTION('center_axis',(0.,0.,-1.));
#1136=DIRECTION('ref_axis',(-1.,0.,0.));
#1137=DIRECTION('center_axis',(0.,0.,1.));
#1138=DIRECTION('ref_axis',(-1.,0.,0.));
#1139=DIRECTION('',(0.,1.,0.));
#1140=DIRECTION('center_axis',(0.,0.,1.));
#1141=DIRECTION('ref_axis',(-1.,0.,0.));
#1142=DIRECTION('',(0.,-1.,0.));
#1143=DIRECTION('center_axis',(0.,1.,0.));
#1144=DIRECTION('ref_axis',(-1.,0.,0.));
#1145=DIRECTION('',(1.,0.,0.));
#1146=DIRECTION('',(0.,0.,1.));
#1147=DIRECTION('',(-1.,0.,0.));
#1148=DIRECTION('',(0.,0.,1.));
#1149=DIRECTION('center_axis',(1.,0.,0.));
#1150=DIRECTION('ref_axis',(0.,1.,0.));
#1151=DIRECTION('',(0.,-1.,0.));
#1152=DIRECTION('',(0.,1.,0.));
#1153=DIRECTION('',(0.,0.,1.));
#1154=DIRECTION('center_axis',(0.,0.,1.));
#1155=DIRECTION('ref_axis',(1.,0.,0.));
#1156=DIRECTION('',(0.,-1.,0.));
#1157=DIRECTION('',(1.,0.,0.));
#1158=DIRECTION('center_axis',(-1.,0.,0.));
#1159=DIRECTION('ref_axis',(0.,-1.,0.));
#1160=DIRECTION('',(0.,1.,0.));
#1161=DIRECTION('',(0.,0.,1.));
#1162=DIRECTION('',(0.,-1.,0.));
#1163=DIRECTION('',(0.,0.,1.));
#1164=DIRECTION('center_axis',(0.,1.,0.));
#1165=DIRECTION('ref_axis',(-1.,0.,0.));
#1166=DIRECTION('',(1.,0.,0.));
#1167=DIRECTION('',(-1.,0.,0.));
#1168=DIRECTION('',(0.,0.,1.));
#1169=DIRECTION('center_axis',(0.,0.,1.));
#1170=DIRECTION('ref_axis',(1.,0.,0.));
#1171=DIRECTION('',(1.,0.,0.));
#1172=DIRECTION('',(0.,1.,0.));
#1173=DIRECTION('center_axis',(0.,0.,1.));
#1174=DIRECTION('ref_axis',(1.,0.,0.));
#1175=DIRECTION('',(1.,0.,0.));
#1176=DIRECTION('',(0.,1.,0.));
#1177=DIRECTION('',(-1.,0.,0.));
#1178=DIRECTION('',(0.,1.,0.));
#1179=DIRECTION('center_axis',(0.,0.,-1.));
#1180=DIRECTION('ref_axis',(0.539007092198582,-0.84230122554798,0.));
#1181=DIRECTION('',(-6.00646185572987E-16,-1.,0.));
#1182=DIRECTION('',(-1.,0.,0.));
#1183=DIRECTION('',(-5.63031488585345E-17,-1.,0.));
#1184=DIRECTION('',(1.,0.,0.));
#1185=DIRECTION('',(0.,1.,0.));
#1186=DIRECTION('',(-1.,2.22044604925031E-16,0.));
#1187=DIRECTION('',(0.,-1.,0.));
#1188=DIRECTION('center_axis',(0.,0.,1.));
#1189=DIRECTION('ref_axis',(1.,0.,0.));
#1190=DIRECTION('',(-1.,0.,0.));
#1191=DIRECTION('',(0.,1.,0.));
#1192=DIRECTION('',(1.,0.,0.));
#1193=DIRECTION('',(-5.63031488585345E-17,-1.,0.));
#1194=DIRECTION('center_axis',(1.,0.,0.));
#1195=DIRECTION('ref_axis',(0.,1.,0.));
#1196=DIRECTION('',(0.,0.,1.));
#1197=DIRECTION('',(0.,0.,1.));
#1198=DIRECTION('center_axis',(-1.,0.,0.));
#1199=DIRECTION('ref_axis',(0.,-1.,0.));
#1200=DIRECTION('',(0.,0.,1.));
#1201=DIRECTION('',(0.,0.,1.));
#1202=DIRECTION('center_axis',(2.22044604925031E-16,1.,0.));
#1203=DIRECTION('ref_axis',(-1.,2.22044604925031E-16,0.));
#1204=DIRECTION('',(0.,0.,1.));
#1205=DIRECTION('center_axis',(1.,0.,0.));
#1206=DIRECTION('ref_axis',(0.,1.,0.));
#1207=DIRECTION('',(0.,0.,1.));
#1208=DIRECTION('center_axis',(0.,-1.,0.));
#1209=DIRECTION('ref_axis',(1.,0.,0.));
#1210=DIRECTION('',(0.,0.,1.));
#1211=DIRECTION('center_axis',(-1.,5.63031488585345E-17,0.));
#1212=DIRECTION('ref_axis',(-5.63031488585345E-17,-1.,0.));
#1213=DIRECTION('',(0.,0.,1.));
#1214=DIRECTION('center_axis',(0.,1.,0.));
#1215=DIRECTION('ref_axis',(-1.,0.,0.));
#1216=DIRECTION('',(0.,0.,1.));
#1217=DIRECTION('',(0.,0.,1.));
#1218=DIRECTION('center_axis',(-1.,6.00646185572987E-16,0.));
#1219=DIRECTION('ref_axis',(-6.00646185572987E-16,-1.,0.));
#1220=DIRECTION('',(0.,0.,1.));
#1221=DIRECTION('center_axis',(0.,0.,1.));
#1222=DIRECTION('ref_axis',(7.8739221604621E-17,1.,0.));
#1223=DIRECTION('',(0.,0.,1.));
#1224=DIRECTION('center_axis',(1.,0.,0.));
#1225=DIRECTION('ref_axis',(0.,1.,0.));
#1226=CARTESIAN_POINT('',(0.,0.,0.));
#1227=CARTESIAN_POINT('Origin',(17.5,16.1853798691513,0.));
#1228=CARTESIAN_POINT('',(17.5,16.1853798691513,0.));
#1229=CARTESIAN_POINT('',(13.9382760724269,14.1290176007878,0.));
#1230=CARTESIAN_POINT('',(7.43326246585343,10.3733462439505,0.));
#1231=CARTESIAN_POINT('',(17.5,16.1853798691513,4.));
#1232=CARTESIAN_POINT('',(17.5,16.1853798691513,0.));
#1233=CARTESIAN_POINT('',(13.9382760724269,14.1290176007878,4.));
#1234=CARTESIAN_POINT('',(17.5,16.1853798691513,4.));
#1235=CARTESIAN_POINT('',(13.9382760724269,14.1290176007878,0.));
#1236=CARTESIAN_POINT('Origin',(21.125,14.0924851433389,0.));
#1237=CARTESIAN_POINT('',(21.125,14.0924851433389,0.));
#1238=CARTESIAN_POINT('',(16.2542375341466,16.9046211641581,0.));
#1239=CARTESIAN_POINT('',(21.125,14.0924851433389,4.));
#1240=CARTESIAN_POINT('',(21.125,14.0924851433389,0.));
#1241=CARTESIAN_POINT('',(21.125,14.0924851433389,4.));
#1242=CARTESIAN_POINT('Origin',(21.125,9.90669569171413,0.));
#1243=CARTESIAN_POINT('',(21.125,9.90669569171413,0.));
#1244=CARTESIAN_POINT('',(21.125,4.95334784585705,0.));
#1245=CARTESIAN_POINT('',(21.125,9.90669569171413,4.));
#1246=CARTESIAN_POINT('',(21.125,9.90669569171413,0.));
#1247=CARTESIAN_POINT('',(21.125,9.90669569171413,4.));
#1248=CARTESIAN_POINT('Origin',(17.5,7.81380096590174,0.));
#1249=CARTESIAN_POINT('',(17.5,7.81380096590174,0.));
#1250=CARTESIAN_POINT('',(9.24576246585342,3.04821470360712,0.));
#1251=CARTESIAN_POINT('',(17.5,7.81380096590174,4.));
#1252=CARTESIAN_POINT('',(17.5,7.81380096590174,0.));
#1253=CARTESIAN_POINT('',(17.5,7.81380096590174,4.));
#1254=CARTESIAN_POINT('Origin',(13.9382760724269,9.87016323426521,0.));
#1255=CARTESIAN_POINT('',(13.9382760724269,9.87016323426521,0.));
#1256=CARTESIAN_POINT('',(10.84837557036,11.6541181209027,0.));
#1257=CARTESIAN_POINT('',(13.9382760724269,9.87016323426521,4.));
#1258=CARTESIAN_POINT('',(13.9382760724269,9.87016323426521,0.));
#1259=CARTESIAN_POINT('',(13.875,9.90669569171414,4.));
#1260=CARTESIAN_POINT('Origin',(17.5316380362135,11.9995904175265,4.));
#1261=CARTESIAN_POINT('Origin',(8.51889125404934E-15,11.9995904175265,4.));
#1262=CARTESIAN_POINT('',(15.36,11.9995904175265,4.));
#1263=CARTESIAN_POINT('Origin',(17.5,11.9995904175265,4.));
#1264=CARTESIAN_POINT('Origin',(-17.5,7.81380096590174,0.));
#1265=CARTESIAN_POINT('',(-17.5,7.81380096590174,0.));
#1266=CARTESIAN_POINT('',(-13.9382760724269,9.87016323426521,0.));
#1267=CARTESIAN_POINT('',(-12.6292375341466,10.6259369867209,0.));
#1268=CARTESIAN_POINT('',(-17.5,7.81380096590174,4.));
#1269=CARTESIAN_POINT('',(-17.5,7.81380096590174,0.));
#1270=CARTESIAN_POINT('',(-13.9382760724269,9.87016323426521,4.));
#1271=CARTESIAN_POINT('',(-17.5,7.81380096590174,4.));
#1272=CARTESIAN_POINT('',(-13.9382760724269,9.87016323426521,0.));
#1273=CARTESIAN_POINT('Origin',(-21.125,9.90669569171413,0.));
#1274=CARTESIAN_POINT('',(-21.125,9.90669569171413,0.));
#1275=CARTESIAN_POINT('',(-11.0582624658534,4.0946620665133,0.));
#1276=CARTESIAN_POINT('',(-21.125,9.90669569171413,4.));
#1277=CARTESIAN_POINT('',(-21.125,9.90669569171413,0.));
#1278=CARTESIAN_POINT('',(-21.125,9.90669569171413,4.));
#1279=CARTESIAN_POINT('Origin',(-21.125,14.0924851433389,0.));
#1280=CARTESIAN_POINT('',(-21.125,14.0924851433389,0.));
#1281=CARTESIAN_POINT('',(-21.125,7.04624257166946,0.));
#1282=CARTESIAN_POINT('',(-21.125,14.0924851433389,4.));
#1283=CARTESIAN_POINT('',(-21.125,14.0924851433389,0.));
#1284=CARTESIAN_POINT('',(-21.125,14.0924851433389,4.));
#1285=CARTESIAN_POINT('Origin',(-17.5,16.1853798691513,0.));
#1286=CARTESIAN_POINT('',(-17.5,16.1853798691513,0.));
#1287=CARTESIAN_POINT('',(-14.4417375341466,17.9510685270643,0.));
#1288=CARTESIAN_POINT('',(-17.5,16.1853798691513,4.));
#1289=CARTESIAN_POINT('',(-17.5,16.1853798691513,0.));
#1290=CARTESIAN_POINT('',(-17.5,16.1853798691513,4.));
#1291=CARTESIAN_POINT('Origin',(-13.9382760724269,14.1290176007878,0.));
#1292=CARTESIAN_POINT('',(-13.9382760724269,14.1290176007878,0.));
#1293=CARTESIAN_POINT('',(-5.65240050206686,9.34516510976875,0.));
#1294=CARTESIAN_POINT('',(-13.9382760724269,14.1290176007878,4.));
#1295=CARTESIAN_POINT('',(-13.9382760724269,14.1290176007878,0.));
#1296=CARTESIAN_POINT('',(-13.875,14.0924851433389,4.));
#1297=CARTESIAN_POINT('Origin',(-17.5316380362134,11.9995904175265,4.));
#1298=CARTESIAN_POINT('Origin',(8.51889125404934E-15,11.9995904175265,4.));
#1299=CARTESIAN_POINT('',(-19.64,11.9995904175265,4.));
#1300=CARTESIAN_POINT('Origin',(-17.5,11.9995904175265,4.));
#1301=CARTESIAN_POINT('Origin',(0.,0.,0.));
#1302=CARTESIAN_POINT('',(30.,-35.,0.));
#1303=CARTESIAN_POINT('',(-30.,-35.,0.));
#1304=CARTESIAN_POINT('',(30.,-35.,0.));
#1305=CARTESIAN_POINT('',(-30.,35.,0.));
#1306=CARTESIAN_POINT('',(-30.,-35.,0.));
#1307=CARTESIAN_POINT('',(30.,35.,0.));
#1308=CARTESIAN_POINT('',(-30.,35.,0.));
#1309=CARTESIAN_POINT('',(30.,35.,0.));
#1310=CARTESIAN_POINT('Origin',(8.51889125404934E-15,11.9995904175265,0.));
#1311=CARTESIAN_POINT('',(-7.59999999999999,0.123143137300002,0.));
#1312=CARTESIAN_POINT('Origin',(8.51889125404934E-15,11.9995904175265,0.));
#1313=CARTESIAN_POINT('',(-7.59999999999999,-5.422,0.));
#1314=CARTESIAN_POINT('',(-7.59999999999999,-5.422,0.));
#1315=CARTESIAN_POINT('',(7.60000000000001,-5.422,0.));
#1316=CARTESIAN_POINT('',(-7.59999999999999,-5.422,0.));
#1317=CARTESIAN_POINT('',(7.60000000000001,0.123143137300001,0.));
#1318=CARTESIAN_POINT('',(7.60000000000001,-5.422,0.));
#1319=CARTESIAN_POINT('Origin',(8.51889125404934E-15,11.9995904175265,0.));
#1320=CARTESIAN_POINT('Origin',(17.5,11.9995904175265,0.));
#1321=CARTESIAN_POINT('',(15.36,11.9995904175265,12.));
#1322=CARTESIAN_POINT('',(15.36,11.9995904175265,0.));
#1323=CARTESIAN_POINT('Origin',(17.5,11.9995904175265,12.));
#1324=CARTESIAN_POINT('Origin',(-17.5,11.9995904175265,0.));
#1325=CARTESIAN_POINT('',(-19.64,11.9995904175265,12.));
#1326=CARTESIAN_POINT('',(-19.64,11.9995904175265,0.));
#1327=CARTESIAN_POINT('Origin',(-17.5,11.9995904175265,12.));
#1328=CARTESIAN_POINT('Origin',(-22.,-27.,57.));
#1329=CARTESIAN_POINT('',(-19.86,-27.,57.));
#1330=CARTESIAN_POINT('Origin',(-22.,-27.,57.));
#1331=CARTESIAN_POINT('',(-19.86,-27.,51.));
#1332=CARTESIAN_POINT('',(-19.86,-27.,57.));
#1333=CARTESIAN_POINT('Origin',(-22.,-27.,51.));
#1334=CARTESIAN_POINT('Origin',(-22.,-30.625,51.));
#1335=CARTESIAN_POINT('',(-22.,-30.625,51.));
#1336=CARTESIAN_POINT('',(-30.,-30.625,51.));
#1337=CARTESIAN_POINT('',(-22.,-30.625,51.));
#1338=CARTESIAN_POINT('',(-22.,-30.625,26.));
#1339=CARTESIAN_POINT('',(-22.,-30.625,51.));
#1340=CARTESIAN_POINT('',(-30.,-30.625,26.));
#1341=CARTESIAN_POINT('',(-22.,-30.625,26.));
#1342=CARTESIAN_POINT('',(-30.,-30.625,25.5));
#1343=CARTESIAN_POINT('Origin',(-22.,-27.,51.));
#1344=CARTESIAN_POINT('',(-22.,-23.375,51.));
#1345=CARTESIAN_POINT('Origin',(-22.,-27.,51.));
#1346=CARTESIAN_POINT('',(-22.,-23.375,26.));
#1347=CARTESIAN_POINT('',(-22.,-23.375,51.));
#1348=CARTESIAN_POINT('Origin',(-22.,-27.,26.));
#1349=CARTESIAN_POINT('Origin',(-30.,-23.375,51.));
#1350=CARTESIAN_POINT('',(-30.,-23.375,51.));
#1351=CARTESIAN_POINT('',(-22.,-23.375,51.));
#1352=CARTESIAN_POINT('',(-30.,-23.375,26.));
#1353=CARTESIAN_POINT('',(-30.,-23.375,25.5));
#1354=CARTESIAN_POINT('',(-22.,-23.375,26.));
#1355=CARTESIAN_POINT('Origin',(-24.1875,-27.,51.));
#1356=CARTESIAN_POINT('',(-30.,4.,51.));
#1357=CARTESIAN_POINT('Origin',(-24.1875,-27.,26.));
#1358=CARTESIAN_POINT('',(-30.,4.,26.));
#1359=CARTESIAN_POINT('Origin',(22.,-27.,57.));
#1360=CARTESIAN_POINT('',(24.14,-27.,57.));
#1361=CARTESIAN_POINT('Origin',(22.,-27.,57.));
#1362=CARTESIAN_POINT('',(24.14,-27.,51.));
#1363=CARTESIAN_POINT('',(24.14,-27.,57.));
#1364=CARTESIAN_POINT('Origin',(22.,-27.,51.));
#1365=CARTESIAN_POINT('Origin',(30.,-30.625,51.));
#1366=CARTESIAN_POINT('',(22.,-30.625,51.));
#1367=CARTESIAN_POINT('',(30.,-30.625,51.));
#1368=CARTESIAN_POINT('',(22.,-30.625,51.));
#1369=CARTESIAN_POINT('',(30.,-30.625,26.));
#1370=CARTESIAN_POINT('',(30.,-30.625,25.5));
#1371=CARTESIAN_POINT('',(22.,-30.625,26.));
#1372=CARTESIAN_POINT('',(22.,-30.625,26.));
#1373=CARTESIAN_POINT('',(22.,-30.625,51.));
#1374=CARTESIAN_POINT('Origin',(22.,-23.375,51.));
#1375=CARTESIAN_POINT('',(22.,-23.375,51.));
#1376=CARTESIAN_POINT('',(30.,-23.375,51.));
#1377=CARTESIAN_POINT('',(22.,-23.375,51.));
#1378=CARTESIAN_POINT('',(22.,-23.375,26.));
#1379=CARTESIAN_POINT('',(22.,-23.375,51.));
#1380=CARTESIAN_POINT('',(30.,-23.375,26.));
#1381=CARTESIAN_POINT('',(22.,-23.375,26.));
#1382=CARTESIAN_POINT('',(30.,-23.375,25.5));
#1383=CARTESIAN_POINT('Origin',(22.,-27.,51.));
#1384=CARTESIAN_POINT('Origin',(22.,-27.,51.));
#1385=CARTESIAN_POINT('Origin',(22.,-27.,26.));
#1386=CARTESIAN_POINT('Origin',(24.1875,-27.,51.));
#1387=CARTESIAN_POINT('',(30.,-31.,51.));
#1388=CARTESIAN_POINT('Origin',(24.1875,-27.,26.));
#1389=CARTESIAN_POINT('',(30.,-31.,26.));
#1390=CARTESIAN_POINT('Origin',(-14.,-19.,12.));
#1391=CARTESIAN_POINT('',(-30.,-19.,12.));
#1392=CARTESIAN_POINT('',(-14.,-19.,12.));
#1393=CARTESIAN_POINT('',(-7.,-19.,12.));
#1394=CARTESIAN_POINT('',(-30.,-19.,57.));
#1395=CARTESIAN_POINT('',(-30.,-19.,12.));
#1396=CARTESIAN_POINT('',(-14.,-19.,57.));
#1397=CARTESIAN_POINT('',(-14.,-19.,57.));
#1398=CARTESIAN_POINT('',(-14.,-19.,12.));
#1399=CARTESIAN_POINT('Origin',(-14.,-35.,12.));
#1400=CARTESIAN_POINT('',(-14.,-35.,12.));
#1401=CARTESIAN_POINT('',(-14.,-17.5,12.));
#1402=CARTESIAN_POINT('',(-14.,-35.,57.));
#1403=CARTESIAN_POINT('',(-14.,-35.,57.));
#1404=CARTESIAN_POINT('',(-14.,-35.,12.));
#1405=CARTESIAN_POINT('Origin',(-22.,-27.,57.));
#1406=CARTESIAN_POINT('',(-30.,-35.,57.));
#1407=CARTESIAN_POINT('',(-30.,-19.,57.));
#1408=CARTESIAN_POINT('',(-30.,-35.,57.));
#1409=CARTESIAN_POINT('Origin',(14.,-19.,12.));
#1410=CARTESIAN_POINT('',(14.,-35.,12.));
#1411=CARTESIAN_POINT('',(14.,-19.,12.));
#1412=CARTESIAN_POINT('',(14.,-9.5,12.));
#1413=CARTESIAN_POINT('',(14.,-35.,57.));
#1414=CARTESIAN_POINT('',(14.,-35.,12.));
#1415=CARTESIAN_POINT('',(14.,-19.,57.));
#1416=CARTESIAN_POINT('',(14.,-35.,57.));
#1417=CARTESIAN_POINT('',(14.,-19.,12.));
#1418=CARTESIAN_POINT('Origin',(30.,-19.,12.));
#1419=CARTESIAN_POINT('',(30.,-19.,12.));
#1420=CARTESIAN_POINT('',(15.,-19.,12.));
#1421=CARTESIAN_POINT('',(30.,-19.,57.));
#1422=CARTESIAN_POINT('',(14.,-19.,57.));
#1423=CARTESIAN_POINT('',(30.,-19.,12.));
#1424=CARTESIAN_POINT('Origin',(22.,-27.,57.));
#1425=CARTESIAN_POINT('',(30.,-35.,57.));
#1426=CARTESIAN_POINT('',(30.,-35.,57.));
#1427=CARTESIAN_POINT('',(30.,-19.,57.));
#1428=CARTESIAN_POINT('Origin',(0.,0.,12.));
#1429=CARTESIAN_POINT('',(-4.,-35.,12.));
#1430=CARTESIAN_POINT('',(30.,-35.,12.));
#1431=CARTESIAN_POINT('',(-4.,-5.422,12.));
#1432=CARTESIAN_POINT('',(-4.,-5.422,12.));
#1433=CARTESIAN_POINT('',(-7.59999999999999,-5.422,12.));
#1434=CARTESIAN_POINT('',(-7.59999999999999,-5.422,12.));
#1435=CARTESIAN_POINT('',(-7.59999999999999,0.123143137300002,12.));
#1436=CARTESIAN_POINT('',(-7.59999999999999,-5.422,12.));
#1437=CARTESIAN_POINT('',(7.60000000000001,0.123143137300001,12.));
#1438=CARTESIAN_POINT('Origin',(8.51889125404934E-15,11.9995904175265,12.));
#1439=CARTESIAN_POINT('',(7.60000000000001,-5.422,12.));
#1440=CARTESIAN_POINT('',(7.60000000000001,-5.422,12.));
#1441=CARTESIAN_POINT('',(4.,-5.422,12.));
#1442=CARTESIAN_POINT('',(-7.59999999999999,-5.422,12.));
#1443=CARTESIAN_POINT('',(4.,-35.,12.));
#1444=CARTESIAN_POINT('',(4.,-5.422,12.));
#1445=CARTESIAN_POINT('',(30.,-35.,12.));
#1446=CARTESIAN_POINT('',(30.,35.,12.));
#1447=CARTESIAN_POINT('',(30.,35.,12.));
#1448=CARTESIAN_POINT('',(-30.,35.,12.));
#1449=CARTESIAN_POINT('',(-30.,35.,12.));
#1450=CARTESIAN_POINT('',(-30.,-35.,12.));
#1451=CARTESIAN_POINT('Origin',(4.44089209850063E-15,-20.211,9.));
#1452=CARTESIAN_POINT('',(4.,-5.422,9.));
#1453=CARTESIAN_POINT('',(-4.,-5.422,9.));
#1454=CARTESIAN_POINT('',(-7.59999999999999,-5.422,9.));
#1455=CARTESIAN_POINT('',(-4.,-35.,9.));
#1456=CARTESIAN_POINT('',(-4.,-27.6055,9.));
#1457=CARTESIAN_POINT('',(4.,-35.,9.));
#1458=CARTESIAN_POINT('',(30.,-35.,9.));
#1459=CARTESIAN_POINT('',(4.,-12.8165,9.));
#1460=CARTESIAN_POINT('Origin',(-4.,-35.,0.));
#1461=CARTESIAN_POINT('',(-4.,-5.422,0.));
#1462=CARTESIAN_POINT('',(-4.,-35.,0.));
#1463=CARTESIAN_POINT('Origin',(-30.,35.,0.));
#1464=CARTESIAN_POINT('',(-30.,-35.,0.));
#1465=CARTESIAN_POINT('',(-30.,35.,0.));
#1466=CARTESIAN_POINT('Origin',(30.,35.,0.));
#1467=CARTESIAN_POINT('',(30.,35.,0.));
#1468=CARTESIAN_POINT('Origin',(30.,-35.,0.));
#1469=CARTESIAN_POINT('',(30.,-35.,0.));
#1470=CARTESIAN_POINT('Origin',(4.,-35.,0.));
#1471=CARTESIAN_POINT('',(4.,-35.,0.));
#1472=CARTESIAN_POINT('Origin',(4.,-5.422,0.));
#1473=CARTESIAN_POINT('',(4.,-5.422,0.));
#1474=CARTESIAN_POINT('Origin',(7.60000000000001,-5.422,0.));
#1475=CARTESIAN_POINT('',(-7.59999999999999,-5.422,0.));
#1476=CARTESIAN_POINT('',(7.60000000000001,-5.422,0.));
#1477=CARTESIAN_POINT('Origin',(7.60000000000001,0.123143137300001,0.));
#1478=CARTESIAN_POINT('',(7.60000000000001,0.123143137300001,0.));
#1479=CARTESIAN_POINT('Origin',(8.51889125404934E-15,11.9995904175265,0.));
#1480=CARTESIAN_POINT('',(-7.59999999999999,0.123143137300002,0.));
#1481=CARTESIAN_POINT('Origin',(-7.59999999999999,-5.422,0.));
#1482=UNCERTAINTY_MEASURE_WITH_UNIT(LENGTH_MEASURE(0.01),#1486,
'DISTANCE_ACCURACY_VALUE',
'Maximum model space distance between geometric entities at asserted c
onnectivities');
#1483=UNCERTAINTY_MEASURE_WITH_UNIT(LENGTH_MEASURE(0.01),#1486,
'DISTANCE_ACCURACY_VALUE',
'Maximum model space distance between geometric entities at asserted c
onnectivities');
#1484=(
GEOMETRIC_REPRESENTATION_CONTEXT(3)
GLOBAL_UNCERTAINTY_ASSIGNED_CONTEXT((#1482))
GLOBAL_UNIT_ASSIGNED_CONTEXT((#1486,#1488,#1489))
REPRESENTATION_CONTEXT('','3D')
);
#1485=(
GEOMETRIC_REPRESENTATION_CONTEXT(3)
GLOBAL_UNCERTAINTY_ASSIGNED_CONTEXT((#1483))
GLOBAL_UNIT_ASSIGNED_CONTEXT((#1486,#1488,#1489))
REPRESENTATION_CONTEXT('','3D')
);
#1486=(
LENGTH_UNIT()
NAMED_UNIT(*)
SI_UNIT(.MILLI.,.METRE.)
);
#1487=(
LENGTH_UNIT()
NAMED_UNIT(*)
SI_UNIT($,.METRE.)
);
#1488=(
NAMED_UNIT(*)
PLANE_ANGLE_UNIT()
SI_UNIT($,.RADIAN.)
);
#1489=(
NAMED_UNIT(*)
SI_UNIT($,.STERADIAN.)
SOLID_ANGLE_UNIT()
);
#1490=SHAPE_DEFINITION_REPRESENTATION(#1491,#1492);
#1491=PRODUCT_DEFINITION_SHAPE('',$,#1494);
#1492=SHAPE_REPRESENTATION('',(#926),#1484);
#1493=PRODUCT_DEFINITION_CONTEXT('part definition',#1498,'design');
#1494=PRODUCT_DEFINITION(
'04 - PRIMARY SUPPORT MECHANISM ( RIGHT SIDE )',
'04 - PRIMARY SUPPORT MECHANISM ( RIGHT SIDE ) v10',#1495,#1493);
#1495=PRODUCT_DEFINITION_FORMATION('',$,#1500);
#1496=PRODUCT_RELATED_PRODUCT_CATEGORY(
'04 - PRIMARY SUPPORT MECHANISM ( RIGHT SIDE ) v10',
'04 - PRIMARY SUPPORT MECHANISM ( RIGHT SIDE ) v10',(#1500));
#1497=APPLICATION_PROTOCOL_DEFINITION('international standard',
'automotive_design',2009,#1498);
#1498=APPLICATION_CONTEXT(
'Core Data for Automotive Mechanical Design Process');
#1499=PRODUCT_CONTEXT('part definition',#1498,'mechanical');
#1500=PRODUCT('04 - PRIMARY SUPPORT MECHANISM ( RIGHT SIDE )',
'04 - PRIMARY SUPPORT MECHANISM ( RIGHT SIDE ) v10',$,(#1499));
#1501=PRESENTATION_STYLE_ASSIGNMENT((#1502));
#1502=SURFACE_STYLE_USAGE(.BOTH.,#1503);
#1503=SURFACE_SIDE_STYLE('',(#1504));
#1504=SURFACE_STYLE_FILL_AREA(#1505);
#1505=FILL_AREA_STYLE('Steel - Satin',(#1506));
#1506=FILL_AREA_STYLE_COLOUR('Steel - Satin',#1507);
#1507=COLOUR_RGB('Steel - Satin',0.627450980392157,0.627450980392157,0.627450980392157);
ENDSEC;
END-ISO-10303-21;
