ISO-10303-21;
HEADER;
/* Generated by software containing ST-Developer
 * from STEP Tools, Inc. (www.steptools.com) 
 */

FILE_DESCRIPTION(
/* description */ (''),
/* implementation_level */ '2;1');

FILE_NAME(
/* name */ '05 - PRIMARY SUPPORT MECHANISM ( LEFT SIDE ).step',
/* time_stamp */ '2026-10-08T17:00:34+05:30',
/* author */ (''),
/* organization */ (''),
/* preprocessor_version */ 'ST-DEVELOPER v20.2',
/* originating_system */ 'Autodesk Translation Framework v15.15.0.0',
/* authorisation */ '');

FILE_SCHEMA (('AUTOMOTIVE_DESIGN { 1 0 10303 214 3 1 1 }'));
ENDSEC;

DATA;
#10=MECHANICAL_DESIGN_GEOMETRIC_PRESENTATION_REPRESENTATION('',(#13),#1613);
#11=SHAPE_REPRESENTATION_RELATIONSHIP('SRR','None',#1620,#12);
#12=ADVANCED_BREP_SHAPE_REPRESENTATION('',(#14),#1612);
#13=STYLED_ITEM('',(#1629),#14);
#14=MANIFOLD_SOLID_BREP('01 - PRIMARY SUPPORT MECHANISM ( LEFT SIDE )',
#1001);
#15=CYLINDRICAL_SURFACE('',#1035,2.14);
#16=CYLINDRICAL_SURFACE('',#1037,2.14);
#17=CYLINDRICAL_SURFACE('',#1039,2.14);
#18=CYLINDRICAL_SURFACE('',#1049,2.14);
#19=CYLINDRICAL_SURFACE('',#1072,14.1);
#20=FACE_BOUND('',#100,.T.);
#21=FACE_BOUND('',#107,.T.);
#22=FACE_BOUND('',#109,.T.);
#23=FACE_BOUND('',#119,.T.);
#24=FACE_BOUND('',#128,.T.);
#25=FACE_BOUND('',#133,.T.);
#26=FACE_BOUND('',#135,.T.);
#27=FACE_BOUND('',#136,.T.);
#28=FACE_BOUND('',#140,.T.);
#29=FACE_BOUND('',#149,.T.);
#30=FACE_BOUND('',#152,.T.);
#31=CIRCLE('',#1021,14.1);
#32=CIRCLE('',#1022,2.14);
#33=CIRCLE('',#1029,14.1);
#34=CIRCLE('',#1030,2.14);
#35=CIRCLE('',#1032,14.1);
#36=CIRCLE('',#1033,14.1);
#37=CIRCLE('',#1034,14.1);
#38=CIRCLE('',#1036,2.14);
#39=CIRCLE('',#1038,2.14);
#40=CIRCLE('',#1040,2.14);
#41=CIRCLE('',#1041,2.14);
#42=CIRCLE('',#1050,2.14);
#43=CIRCLE('',#1051,2.14);
#44=CIRCLE('',#1063,14.1);
#45=FACE_OUTER_BOUND('',#94,.T.);
#46=FACE_OUTER_BOUND('',#95,.T.);
#47=FACE_OUTER_BOUND('',#96,.T.);
#48=FACE_OUTER_BOUND('',#97,.T.);
#49=FACE_OUTER_BOUND('',#98,.T.);
#50=FACE_OUTER_BOUND('',#99,.T.);
#51=FACE_OUTER_BOUND('',#101,.T.);
#52=FACE_OUTER_BOUND('',#102,.T.);
#53=FACE_OUTER_BOUND('',#103,.T.);
#54=FACE_OUTER_BOUND('',#104,.T.);
#55=FACE_OUTER_BOUND('',#105,.T.);
#56=FACE_OUTER_BOUND('',#106,.T.);
#57=FACE_OUTER_BOUND('',#108,.T.);
#58=FACE_OUTER_BOUND('',#110,.T.);
#59=FACE_OUTER_BOUND('',#111,.T.);
#60=FACE_OUTER_BOUND('',#112,.T.);
#61=FACE_OUTER_BOUND('',#113,.T.);
#62=FACE_OUTER_BOUND('',#114,.T.);
#63=FACE_OUTER_BOUND('',#115,.T.);
#64=FACE_OUTER_BOUND('',#116,.T.);
#65=FACE_OUTER_BOUND('',#117,.T.);
#66=FACE_OUTER_BOUND('',#118,.T.);
#67=FACE_OUTER_BOUND('',#120,.T.);
#68=FACE_OUTER_BOUND('',#121,.T.);
#69=FACE_OUTER_BOUND('',#122,.T.);
#70=FACE_OUTER_BOUND('',#123,.T.);
#71=FACE_OUTER_BOUND('',#124,.T.);
#72=FACE_OUTER_BOUND('',#125,.T.);
#73=FACE_OUTER_BOUND('',#126,.T.);
#74=FACE_OUTER_BOUND('',#127,.T.);
#75=FACE_OUTER_BOUND('',#129,.T.);
#76=FACE_OUTER_BOUND('',#130,.T.);
#77=FACE_OUTER_BOUND('',#131,.T.);
#78=FACE_OUTER_BOUND('',#132,.T.);
#79=FACE_OUTER_BOUND('',#134,.T.);
#80=FACE_OUTER_BOUND('',#137,.T.);
#81=FACE_OUTER_BOUND('',#138,.T.);
#82=FACE_OUTER_BOUND('',#139,.T.);
#83=FACE_OUTER_BOUND('',#141,.T.);
#84=FACE_OUTER_BOUND('',#142,.T.);
#85=FACE_OUTER_BOUND('',#143,.T.);
#86=FACE_OUTER_BOUND('',#144,.T.);
#87=FACE_OUTER_BOUND('',#145,.T.);
#88=FACE_OUTER_BOUND('',#146,.T.);
#89=FACE_OUTER_BOUND('',#147,.T.);
#90=FACE_OUTER_BOUND('',#148,.T.);
#91=FACE_OUTER_BOUND('',#150,.T.);
#92=FACE_OUTER_BOUND('',#151,.T.);
#93=FACE_OUTER_BOUND('',#153,.T.);
#94=EDGE_LOOP('',(#632,#633,#634,#635));
#95=EDGE_LOOP('',(#636,#637,#638,#639));
#96=EDGE_LOOP('',(#640,#641,#642,#643));
#97=EDGE_LOOP('',(#644,#645,#646,#647));
#98=EDGE_LOOP('',(#648,#649,#650,#651));
#99=EDGE_LOOP('',(#652,#653,#654,#655,#656,#657));
#100=EDGE_LOOP('',(#658));
#101=EDGE_LOOP('',(#659,#660,#661,#662));
#102=EDGE_LOOP('',(#663,#664,#665,#666));
#103=EDGE_LOOP('',(#667,#668,#669,#670));
#104=EDGE_LOOP('',(#671,#672,#673,#674));
#105=EDGE_LOOP('',(#675,#676,#677,#678));
#106=EDGE_LOOP('',(#679,#680,#681,#682,#683,#684));
#107=EDGE_LOOP('',(#685));
#108=EDGE_LOOP('',(#686,#687,#688,#689));
#109=EDGE_LOOP('',(#690,#691,#692,#693,#694,#695,#696,#697,#698,#699,#700,
#701,#702,#703,#704,#705));
#110=EDGE_LOOP('',(#706,#707,#708,#709));
#111=EDGE_LOOP('',(#710,#711,#712,#713));
#112=EDGE_LOOP('',(#714,#715,#716,#717));
#113=EDGE_LOOP('',(#718,#719,#720,#721));
#114=EDGE_LOOP('',(#722,#723,#724,#725));
#115=EDGE_LOOP('',(#726,#727,#728,#729));
#116=EDGE_LOOP('',(#730,#731,#732,#733));
#117=EDGE_LOOP('',(#734,#735,#736,#737));
#118=EDGE_LOOP('',(#738,#739,#740,#741,#742,#743));
#119=EDGE_LOOP('',(#744));
#120=EDGE_LOOP('',(#745,#746,#747,#748,#749,#750));
#121=EDGE_LOOP('',(#751,#752,#753,#754));
#122=EDGE_LOOP('',(#755,#756,#757,#758));
#123=EDGE_LOOP('',(#759,#760,#761,#762));
#124=EDGE_LOOP('',(#763,#764,#765,#766));
#125=EDGE_LOOP('',(#767,#768,#769,#770));
#126=EDGE_LOOP('',(#771,#772,#773,#774));
#127=EDGE_LOOP('',(#775,#776,#777,#778,#779,#780));
#128=EDGE_LOOP('',(#781));
#129=EDGE_LOOP('',(#782,#783,#784,#785,#786,#787));
#130=EDGE_LOOP('',(#788,#789,#790,#791));
#131=EDGE_LOOP('',(#792,#793,#794,#795));
#132=EDGE_LOOP('',(#796,#797,#798,#799));
#133=EDGE_LOOP('',(#800));
#134=EDGE_LOOP('',(#801,#802,#803,#804,#805,#806,#807,#808,#809,#810,#811,
#812,#813,#814,#815,#816));
#135=EDGE_LOOP('',(#817));
#136=EDGE_LOOP('',(#818));
#137=EDGE_LOOP('',(#819,#820,#821,#822));
#138=EDGE_LOOP('',(#823,#824,#825,#826));
#139=EDGE_LOOP('',(#827,#828,#829,#830));
#140=EDGE_LOOP('',(#831));
#141=EDGE_LOOP('',(#832,#833,#834,#835));
#142=EDGE_LOOP('',(#836,#837,#838,#839));
#143=EDGE_LOOP('',(#840,#841,#842,#843));
#144=EDGE_LOOP('',(#844,#845,#846,#847,#848,#849,#850,#851));
#145=EDGE_LOOP('',(#852,#853,#854,#855));
#146=EDGE_LOOP('',(#856,#857,#858,#859,#860,#861,#862,#863,#864,#865,#866,
#867));
#147=EDGE_LOOP('',(#868,#869,#870,#871));
#148=EDGE_LOOP('',(#872,#873,#874,#875,#876,#877));
#149=EDGE_LOOP('',(#878,#879,#880,#881));
#150=EDGE_LOOP('',(#882,#883,#884,#885));
#151=EDGE_LOOP('',(#886,#887,#888,#889,#890,#891));
#152=EDGE_LOOP('',(#892,#893,#894,#895));
#153=EDGE_LOOP('',(#896,#897,#898,#899,#900,#901,#902,#903,#904,#905,#906,
#907));
#154=LINE('',#1334,#278);
#155=LINE('',#1336,#279);
#156=LINE('',#1338,#280);
#157=LINE('',#1339,#281);
#158=LINE('',#1342,#282);
#159=LINE('',#1344,#283);
#160=LINE('',#1345,#284);
#161=LINE('',#1348,#285);
#162=LINE('',#1350,#286);
#163=LINE('',#1351,#287);
#164=LINE('',#1354,#288);
#165=LINE('',#1356,#289);
#166=LINE('',#1357,#290);
#167=LINE('',#1360,#291);
#168=LINE('',#1362,#292);
#169=LINE('',#1363,#293);
#170=LINE('',#1371,#294);
#171=LINE('',#1373,#295);
#172=LINE('',#1375,#296);
#173=LINE('',#1376,#297);
#174=LINE('',#1379,#298);
#175=LINE('',#1381,#299);
#176=LINE('',#1382,#300);
#177=LINE('',#1385,#301);
#178=LINE('',#1387,#302);
#179=LINE('',#1388,#303);
#180=LINE('',#1391,#304);
#181=LINE('',#1393,#305);
#182=LINE('',#1394,#306);
#183=LINE('',#1397,#307);
#184=LINE('',#1399,#308);
#185=LINE('',#1400,#309);
#186=LINE('',#1408,#310);
#187=LINE('',#1410,#311);
#188=LINE('',#1412,#312);
#189=LINE('',#1413,#313);
#190=LINE('',#1418,#314);
#191=LINE('',#1420,#315);
#192=LINE('',#1422,#316);
#193=LINE('',#1426,#317);
#194=LINE('',#1430,#318);
#195=LINE('',#1436,#319);
#196=LINE('',#1441,#320);
#197=LINE('',#1443,#321);
#198=LINE('',#1445,#322);
#199=LINE('',#1446,#323);
#200=LINE('',#1449,#324);
#201=LINE('',#1451,#325);
#202=LINE('',#1452,#326);
#203=LINE('',#1456,#327);
#204=LINE('',#1458,#328);
#205=LINE('',#1460,#329);
#206=LINE('',#1461,#330);
#207=LINE('',#1464,#331);
#208=LINE('',#1466,#332);
#209=LINE('',#1467,#333);
#210=LINE('',#1469,#334);
#211=LINE('',#1470,#335);
#212=LINE('',#1472,#336);
#213=LINE('',#1474,#337);
#214=LINE('',#1479,#338);
#215=LINE('',#1484,#339);
#216=LINE('',#1486,#340);
#217=LINE('',#1488,#341);
#218=LINE('',#1489,#342);
#219=LINE('',#1492,#343);
#220=LINE('',#1494,#344);
#221=LINE('',#1495,#345);
#222=LINE('',#1498,#346);
#223=LINE('',#1500,#347);
#224=LINE('',#1501,#348);
#225=LINE('',#1505,#349);
#226=LINE('',#1507,#350);
#227=LINE('',#1509,#351);
#228=LINE('',#1510,#352);
#229=LINE('',#1512,#353);
#230=LINE('',#1513,#354);
#231=LINE('',#1515,#355);
#232=LINE('',#1517,#356);
#233=LINE('',#1521,#357);
#234=LINE('',#1523,#358);
#235=LINE('',#1525,#359);
#236=LINE('',#1526,#360);
#237=LINE('',#1529,#361);
#238=LINE('',#1531,#362);
#239=LINE('',#1532,#363);
#240=LINE('',#1535,#364);
#241=LINE('',#1536,#365);
#242=LINE('',#1539,#366);
#243=LINE('',#1541,#367);
#244=LINE('',#1543,#368);
#245=LINE('',#1545,#369);
#246=LINE('',#1549,#370);
#247=LINE('',#1551,#371);
#248=LINE('',#1553,#372);
#249=LINE('',#1555,#373);
#250=LINE('',#1557,#374);
#251=LINE('',#1559,#375);
#252=LINE('',#1561,#376);
#253=LINE('',#1563,#377);
#254=LINE('',#1564,#378);
#255=LINE('',#1567,#379);
#256=LINE('',#1569,#380);
#257=LINE('',#1570,#381);
#258=LINE('',#1573,#382);
#259=LINE('',#1574,#383);
#260=LINE('',#1577,#384);
#261=LINE('',#1578,#385);
#262=LINE('',#1582,#386);
#263=LINE('',#1584,#387);
#264=LINE('',#1586,#388);
#265=LINE('',#1587,#389);
#266=LINE('',#1589,#390);
#267=LINE('',#1590,#391);
#268=LINE('',#1592,#392);
#269=LINE('',#1593,#393);
#270=LINE('',#1595,#394);
#271=LINE('',#1596,#395);
#272=LINE('',#1598,#396);
#273=LINE('',#1600,#397);
#274=LINE('',#1603,#398);
#275=LINE('',#1604,#399);
#276=LINE('',#1606,#400);
#277=LINE('',#1608,#401);
#278=VECTOR('',#1082,10.);
#279=VECTOR('',#1083,10.);
#280=VECTOR('',#1084,10.);
#281=VECTOR('',#1085,10.);
#282=VECTOR('',#1088,10.);
#283=VECTOR('',#1089,10.);
#284=VECTOR('',#1090,10.);
#285=VECTOR('',#1093,10.);
#286=VECTOR('',#1094,10.);
#287=VECTOR('',#1095,10.);
#288=VECTOR('',#1098,10.);
#289=VECTOR('',#1099,10.);
#290=VECTOR('',#1100,10.);
#291=VECTOR('',#1103,10.);
#292=VECTOR('',#1104,10.);
#293=VECTOR('',#1105,10.);
#294=VECTOR('',#1114,10.);
#295=VECTOR('',#1115,10.);
#296=VECTOR('',#1116,10.);
#297=VECTOR('',#1117,10.);
#298=VECTOR('',#1120,10.);
#299=VECTOR('',#1121,10.);
#300=VECTOR('',#1122,10.);
#301=VECTOR('',#1125,10.);
#302=VECTOR('',#1126,10.);
#303=VECTOR('',#1127,10.);
#304=VECTOR('',#1130,10.);
#305=VECTOR('',#1131,10.);
#306=VECTOR('',#1132,10.);
#307=VECTOR('',#1135,10.);
#308=VECTOR('',#1136,10.);
#309=VECTOR('',#1137,10.);
#310=VECTOR('',#1146,10.);
#311=VECTOR('',#1147,10.);
#312=VECTOR('',#1148,10.);
#313=VECTOR('',#1149,10.);
#314=VECTOR('',#1154,10.);
#315=VECTOR('',#1155,10.);
#316=VECTOR('',#1156,10.);
#317=VECTOR('',#1161,2.14);
#318=VECTOR('',#1166,2.14);
#319=VECTOR('',#1173,2.14);
#320=VECTOR('',#1178,10.);
#321=VECTOR('',#1179,10.);
#322=VECTOR('',#1180,10.);
#323=VECTOR('',#1181,10.);
#324=VECTOR('',#1184,10.);
#325=VECTOR('',#1185,10.);
#326=VECTOR('',#1186,10.);
#327=VECTOR('',#1189,10.);
#328=VECTOR('',#1190,10.);
#329=VECTOR('',#1191,10.);
#330=VECTOR('',#1192,10.);
#331=VECTOR('',#1195,10.);
#332=VECTOR('',#1196,10.);
#333=VECTOR('',#1197,10.);
#334=VECTOR('',#1200,10.);
#335=VECTOR('',#1201,10.);
#336=VECTOR('',#1204,10.);
#337=VECTOR('',#1207,10.);
#338=VECTOR('',#1212,2.14);
#339=VECTOR('',#1217,10.);
#340=VECTOR('',#1218,10.);
#341=VECTOR('',#1219,10.);
#342=VECTOR('',#1220,10.);
#343=VECTOR('',#1223,10.);
#344=VECTOR('',#1224,10.);
#345=VECTOR('',#1225,10.);
#346=VECTOR('',#1228,10.);
#347=VECTOR('',#1229,10.);
#348=VECTOR('',#1230,10.);
#349=VECTOR('',#1233,10.);
#350=VECTOR('',#1234,10.);
#351=VECTOR('',#1235,10.);
#352=VECTOR('',#1236,10.);
#353=VECTOR('',#1239,10.);
#354=VECTOR('',#1240,10.);
#355=VECTOR('',#1243,10.);
#356=VECTOR('',#1246,10.);
#357=VECTOR('',#1249,10.);
#358=VECTOR('',#1250,10.);
#359=VECTOR('',#1251,10.);
#360=VECTOR('',#1252,10.);
#361=VECTOR('',#1255,10.);
#362=VECTOR('',#1256,10.);
#363=VECTOR('',#1257,10.);
#364=VECTOR('',#1260,10.);
#365=VECTOR('',#1261,10.);
#366=VECTOR('',#1264,10.);
#367=VECTOR('',#1265,10.);
#368=VECTOR('',#1266,10.);
#369=VECTOR('',#1267,10.);
#370=VECTOR('',#1270,10.);
#371=VECTOR('',#1271,10.);
#372=VECTOR('',#1272,10.);
#373=VECTOR('',#1273,10.);
#374=VECTOR('',#1274,10.);
#375=VECTOR('',#1275,10.);
#376=VECTOR('',#1276,10.);
#377=VECTOR('',#1277,10.);
#378=VECTOR('',#1278,10.);
#379=VECTOR('',#1281,10.);
#380=VECTOR('',#1282,10.);
#381=VECTOR('',#1283,10.);
#382=VECTOR('',#1286,10.);
#383=VECTOR('',#1287,10.);
#384=VECTOR('',#1290,10.);
#385=VECTOR('',#1291,10.);
#386=VECTOR('',#1294,10.);
#387=VECTOR('',#1295,10.);
#388=VECTOR('',#1296,10.);
#389=VECTOR('',#1297,10.);
#390=VECTOR('',#1300,10.);
#391=VECTOR('',#1301,10.);
#392=VECTOR('',#1304,10.);
#393=VECTOR('',#1305,10.);
#394=VECTOR('',#1308,10.);
#395=VECTOR('',#1309,10.);
#396=VECTOR('',#1312,10.);
#397=VECTOR('',#1315,10.);
#398=VECTOR('',#1320,10.);
#399=VECTOR('',#1321,10.);
#400=VECTOR('',#1324,10.);
#401=VECTOR('',#1327,10.);
#402=VERTEX_POINT('',#1332);
#403=VERTEX_POINT('',#1333);
#404=VERTEX_POINT('',#1335);
#405=VERTEX_POINT('',#1337);
#406=VERTEX_POINT('',#1341);
#407=VERTEX_POINT('',#1343);
#408=VERTEX_POINT('',#1347);
#409=VERTEX_POINT('',#1349);
#410=VERTEX_POINT('',#1353);
#411=VERTEX_POINT('',#1355);
#412=VERTEX_POINT('',#1359);
#413=VERTEX_POINT('',#1361);
#414=VERTEX_POINT('',#1366);
#415=VERTEX_POINT('',#1369);
#416=VERTEX_POINT('',#1370);
#417=VERTEX_POINT('',#1372);
#418=VERTEX_POINT('',#1374);
#419=VERTEX_POINT('',#1378);
#420=VERTEX_POINT('',#1380);
#421=VERTEX_POINT('',#1384);
#422=VERTEX_POINT('',#1386);
#423=VERTEX_POINT('',#1390);
#424=VERTEX_POINT('',#1392);
#425=VERTEX_POINT('',#1396);
#426=VERTEX_POINT('',#1398);
#427=VERTEX_POINT('',#1403);
#428=VERTEX_POINT('',#1406);
#429=VERTEX_POINT('',#1407);
#430=VERTEX_POINT('',#1409);
#431=VERTEX_POINT('',#1411);
#432=VERTEX_POINT('',#1415);
#433=VERTEX_POINT('',#1417);
#434=VERTEX_POINT('',#1419);
#435=VERTEX_POINT('',#1421);
#436=VERTEX_POINT('',#1425);
#437=VERTEX_POINT('',#1429);
#438=VERTEX_POINT('',#1433);
#439=VERTEX_POINT('',#1435);
#440=VERTEX_POINT('',#1439);
#441=VERTEX_POINT('',#1440);
#442=VERTEX_POINT('',#1442);
#443=VERTEX_POINT('',#1444);
#444=VERTEX_POINT('',#1448);
#445=VERTEX_POINT('',#1450);
#446=VERTEX_POINT('',#1454);
#447=VERTEX_POINT('',#1455);
#448=VERTEX_POINT('',#1457);
#449=VERTEX_POINT('',#1459);
#450=VERTEX_POINT('',#1463);
#451=VERTEX_POINT('',#1465);
#452=VERTEX_POINT('',#1476);
#453=VERTEX_POINT('',#1478);
#454=VERTEX_POINT('',#1482);
#455=VERTEX_POINT('',#1483);
#456=VERTEX_POINT('',#1485);
#457=VERTEX_POINT('',#1487);
#458=VERTEX_POINT('',#1491);
#459=VERTEX_POINT('',#1493);
#460=VERTEX_POINT('',#1497);
#461=VERTEX_POINT('',#1499);
#462=VERTEX_POINT('',#1503);
#463=VERTEX_POINT('',#1504);
#464=VERTEX_POINT('',#1506);
#465=VERTEX_POINT('',#1508);
#466=VERTEX_POINT('',#1519);
#467=VERTEX_POINT('',#1520);
#468=VERTEX_POINT('',#1522);
#469=VERTEX_POINT('',#1524);
#470=VERTEX_POINT('',#1528);
#471=VERTEX_POINT('',#1530);
#472=VERTEX_POINT('',#1534);
#473=VERTEX_POINT('',#1538);
#474=VERTEX_POINT('',#1540);
#475=VERTEX_POINT('',#1542);
#476=VERTEX_POINT('',#1544);
#477=VERTEX_POINT('',#1546);
#478=VERTEX_POINT('',#1548);
#479=VERTEX_POINT('',#1550);
#480=VERTEX_POINT('',#1552);
#481=VERTEX_POINT('',#1554);
#482=VERTEX_POINT('',#1556);
#483=VERTEX_POINT('',#1558);
#484=VERTEX_POINT('',#1560);
#485=VERTEX_POINT('',#1562);
#486=VERTEX_POINT('',#1566);
#487=VERTEX_POINT('',#1568);
#488=VERTEX_POINT('',#1572);
#489=VERTEX_POINT('',#1576);
#490=VERTEX_POINT('',#1580);
#491=VERTEX_POINT('',#1581);
#492=VERTEX_POINT('',#1583);
#493=VERTEX_POINT('',#1585);
#494=EDGE_CURVE('',#402,#403,#154,.T.);
#495=EDGE_CURVE('',#402,#404,#155,.T.);
#496=EDGE_CURVE('',#404,#405,#156,.T.);
#497=EDGE_CURVE('',#403,#405,#157,.T.);
#498=EDGE_CURVE('',#406,#402,#158,.T.);
#499=EDGE_CURVE('',#406,#407,#159,.T.);
#500=EDGE_CURVE('',#407,#404,#160,.T.);
#501=EDGE_CURVE('',#408,#406,#161,.T.);
#502=EDGE_CURVE('',#408,#409,#162,.T.);
#503=EDGE_CURVE('',#409,#407,#163,.T.);
#504=EDGE_CURVE('',#410,#408,#164,.T.);
#505=EDGE_CURVE('',#410,#411,#165,.T.);
#506=EDGE_CURVE('',#411,#409,#166,.T.);
#507=EDGE_CURVE('',#412,#410,#167,.T.);
#508=EDGE_CURVE('',#413,#412,#168,.T.);
#509=EDGE_CURVE('',#413,#411,#169,.T.);
#510=EDGE_CURVE('',#405,#413,#31,.T.);
#511=EDGE_CURVE('',#414,#414,#32,.T.);
#512=EDGE_CURVE('',#415,#416,#170,.T.);
#513=EDGE_CURVE('',#415,#417,#171,.T.);
#514=EDGE_CURVE('',#417,#418,#172,.T.);
#515=EDGE_CURVE('',#416,#418,#173,.T.);
#516=EDGE_CURVE('',#419,#415,#174,.T.);
#517=EDGE_CURVE('',#419,#420,#175,.T.);
#518=EDGE_CURVE('',#420,#417,#176,.T.);
#519=EDGE_CURVE('',#421,#419,#177,.T.);
#520=EDGE_CURVE('',#421,#422,#178,.T.);
#521=EDGE_CURVE('',#422,#420,#179,.T.);
#522=EDGE_CURVE('',#423,#421,#180,.T.);
#523=EDGE_CURVE('',#423,#424,#181,.T.);
#524=EDGE_CURVE('',#424,#422,#182,.T.);
#525=EDGE_CURVE('',#425,#423,#183,.T.);
#526=EDGE_CURVE('',#426,#425,#184,.T.);
#527=EDGE_CURVE('',#426,#424,#185,.T.);
#528=EDGE_CURVE('',#418,#426,#33,.T.);
#529=EDGE_CURVE('',#427,#427,#34,.T.);
#530=EDGE_CURVE('',#428,#429,#186,.T.);
#531=EDGE_CURVE('',#429,#430,#187,.T.);
#532=EDGE_CURVE('',#430,#431,#188,.T.);
#533=EDGE_CURVE('',#431,#428,#189,.T.);
#534=EDGE_CURVE('',#403,#425,#35,.T.);
#535=EDGE_CURVE('',#416,#432,#36,.T.);
#536=EDGE_CURVE('',#433,#432,#190,.T.);
#537=EDGE_CURVE('',#433,#434,#191,.T.);
#538=EDGE_CURVE('',#434,#435,#192,.T.);
#539=EDGE_CURVE('',#435,#412,#37,.T.);
#540=EDGE_CURVE('',#414,#436,#193,.T.);
#541=EDGE_CURVE('',#436,#436,#38,.T.);
#542=EDGE_CURVE('',#427,#437,#194,.T.);
#543=EDGE_CURVE('',#437,#437,#39,.T.);
#544=EDGE_CURVE('',#438,#438,#40,.T.);
#545=EDGE_CURVE('',#438,#439,#195,.T.);
#546=EDGE_CURVE('',#439,#439,#41,.T.);
#547=EDGE_CURVE('',#440,#441,#196,.T.);
#548=EDGE_CURVE('',#441,#442,#197,.T.);
#549=EDGE_CURVE('',#442,#443,#198,.T.);
#550=EDGE_CURVE('',#440,#443,#199,.T.);
#551=EDGE_CURVE('',#441,#444,#200,.T.);
#552=EDGE_CURVE('',#445,#444,#201,.T.);
#553=EDGE_CURVE('',#445,#442,#202,.T.);
#554=EDGE_CURVE('',#446,#447,#203,.T.);
#555=EDGE_CURVE('',#446,#448,#204,.T.);
#556=EDGE_CURVE('',#448,#449,#205,.T.);
#557=EDGE_CURVE('',#447,#449,#206,.T.);
#558=EDGE_CURVE('',#446,#450,#207,.T.);
#559=EDGE_CURVE('',#450,#451,#208,.T.);
#560=EDGE_CURVE('',#451,#448,#209,.T.);
#561=EDGE_CURVE('',#450,#440,#210,.T.);
#562=EDGE_CURVE('',#443,#451,#211,.T.);
#563=EDGE_CURVE('',#444,#447,#212,.T.);
#564=EDGE_CURVE('',#449,#445,#213,.T.);
#565=EDGE_CURVE('',#452,#452,#42,.T.);
#566=EDGE_CURVE('',#452,#453,#214,.T.);
#567=EDGE_CURVE('',#453,#453,#43,.T.);
#568=EDGE_CURVE('',#454,#455,#215,.T.);
#569=EDGE_CURVE('',#455,#456,#216,.T.);
#570=EDGE_CURVE('',#456,#457,#217,.T.);
#571=EDGE_CURVE('',#454,#457,#218,.T.);
#572=EDGE_CURVE('',#455,#458,#219,.T.);
#573=EDGE_CURVE('',#458,#459,#220,.T.);
#574=EDGE_CURVE('',#459,#456,#221,.T.);
#575=EDGE_CURVE('',#458,#460,#222,.T.);
#576=EDGE_CURVE('',#461,#460,#223,.T.);
#577=EDGE_CURVE('',#461,#459,#224,.T.);
#578=EDGE_CURVE('',#462,#463,#225,.T.);
#579=EDGE_CURVE('',#462,#464,#226,.T.);
#580=EDGE_CURVE('',#464,#465,#227,.T.);
#581=EDGE_CURVE('',#463,#465,#228,.T.);
#582=EDGE_CURVE('',#462,#454,#229,.T.);
#583=EDGE_CURVE('',#457,#464,#230,.T.);
#584=EDGE_CURVE('',#460,#463,#231,.T.);
#585=EDGE_CURVE('',#465,#461,#232,.T.);
#586=EDGE_CURVE('',#466,#467,#233,.T.);
#587=EDGE_CURVE('',#466,#468,#234,.T.);
#588=EDGE_CURVE('',#469,#468,#235,.T.);
#589=EDGE_CURVE('',#467,#469,#236,.T.);
#590=EDGE_CURVE('',#470,#466,#237,.T.);
#591=EDGE_CURVE('',#470,#471,#238,.T.);
#592=EDGE_CURVE('',#468,#471,#239,.T.);
#593=EDGE_CURVE('',#471,#472,#240,.T.);
#594=EDGE_CURVE('',#472,#469,#241,.T.);
#595=EDGE_CURVE('',#467,#473,#242,.T.);
#596=EDGE_CURVE('',#473,#474,#243,.T.);
#597=EDGE_CURVE('',#474,#475,#244,.T.);
#598=EDGE_CURVE('',#475,#476,#245,.T.);
#599=EDGE_CURVE('',#476,#477,#44,.T.);
#600=EDGE_CURVE('',#477,#478,#246,.T.);
#601=EDGE_CURVE('',#478,#479,#247,.T.);
#602=EDGE_CURVE('',#479,#480,#248,.T.);
#603=EDGE_CURVE('',#480,#481,#249,.T.);
#604=EDGE_CURVE('',#481,#482,#250,.T.);
#605=EDGE_CURVE('',#482,#483,#251,.T.);
#606=EDGE_CURVE('',#483,#484,#252,.T.);
#607=EDGE_CURVE('',#484,#485,#253,.T.);
#608=EDGE_CURVE('',#485,#470,#254,.T.);
#609=EDGE_CURVE('',#482,#486,#255,.T.);
#610=EDGE_CURVE('',#487,#486,#256,.T.);
#611=EDGE_CURVE('',#483,#487,#257,.T.);
#612=EDGE_CURVE('',#481,#488,#258,.T.);
#613=EDGE_CURVE('',#486,#488,#259,.T.);
#614=EDGE_CURVE('',#488,#489,#260,.T.);
#615=EDGE_CURVE('',#489,#487,#261,.T.);
#616=EDGE_CURVE('',#490,#491,#262,.T.);
#617=EDGE_CURVE('',#492,#491,#263,.T.);
#618=EDGE_CURVE('',#492,#493,#264,.T.);
#619=EDGE_CURVE('',#490,#493,#265,.T.);
#620=EDGE_CURVE('',#493,#480,#266,.T.);
#621=EDGE_CURVE('',#490,#479,#267,.T.);
#622=EDGE_CURVE('',#491,#474,#268,.T.);
#623=EDGE_CURVE('',#492,#473,#269,.T.);
#624=EDGE_CURVE('',#433,#475,#270,.T.);
#625=EDGE_CURVE('',#434,#478,#271,.T.);
#626=EDGE_CURVE('',#435,#477,#272,.T.);
#627=EDGE_CURVE('',#432,#476,#273,.T.);
#628=EDGE_CURVE('',#429,#472,#274,.T.);
#629=EDGE_CURVE('',#430,#485,#275,.T.);
#630=EDGE_CURVE('',#431,#484,#276,.T.);
#631=EDGE_CURVE('',#428,#489,#277,.T.);
#632=ORIENTED_EDGE('',*,*,#494,.F.);
#633=ORIENTED_EDGE('',*,*,#495,.T.);
#634=ORIENTED_EDGE('',*,*,#496,.T.);
#635=ORIENTED_EDGE('',*,*,#497,.F.);
#636=ORIENTED_EDGE('',*,*,#498,.F.);
#637=ORIENTED_EDGE('',*,*,#499,.T.);
#638=ORIENTED_EDGE('',*,*,#500,.T.);
#639=ORIENTED_EDGE('',*,*,#495,.F.);
#640=ORIENTED_EDGE('',*,*,#501,.F.);
#641=ORIENTED_EDGE('',*,*,#502,.T.);
#642=ORIENTED_EDGE('',*,*,#503,.T.);
#643=ORIENTED_EDGE('',*,*,#499,.F.);
#644=ORIENTED_EDGE('',*,*,#504,.F.);
#645=ORIENTED_EDGE('',*,*,#505,.T.);
#646=ORIENTED_EDGE('',*,*,#506,.T.);
#647=ORIENTED_EDGE('',*,*,#502,.F.);
#648=ORIENTED_EDGE('',*,*,#507,.F.);
#649=ORIENTED_EDGE('',*,*,#508,.F.);
#650=ORIENTED_EDGE('',*,*,#509,.T.);
#651=ORIENTED_EDGE('',*,*,#505,.F.);
#652=ORIENTED_EDGE('',*,*,#509,.F.);
#653=ORIENTED_EDGE('',*,*,#510,.F.);
#654=ORIENTED_EDGE('',*,*,#496,.F.);
#655=ORIENTED_EDGE('',*,*,#500,.F.);
#656=ORIENTED_EDGE('',*,*,#503,.F.);
#657=ORIENTED_EDGE('',*,*,#506,.F.);
#658=ORIENTED_EDGE('',*,*,#511,.F.);
#659=ORIENTED_EDGE('',*,*,#512,.F.);
#660=ORIENTED_EDGE('',*,*,#513,.T.);
#661=ORIENTED_EDGE('',*,*,#514,.T.);
#662=ORIENTED_EDGE('',*,*,#515,.F.);
#663=ORIENTED_EDGE('',*,*,#516,.F.);
#664=ORIENTED_EDGE('',*,*,#517,.T.);
#665=ORIENTED_EDGE('',*,*,#518,.T.);
#666=ORIENTED_EDGE('',*,*,#513,.F.);
#667=ORIENTED_EDGE('',*,*,#519,.F.);
#668=ORIENTED_EDGE('',*,*,#520,.T.);
#669=ORIENTED_EDGE('',*,*,#521,.T.);
#670=ORIENTED_EDGE('',*,*,#517,.F.);
#671=ORIENTED_EDGE('',*,*,#522,.F.);
#672=ORIENTED_EDGE('',*,*,#523,.T.);
#673=ORIENTED_EDGE('',*,*,#524,.T.);
#674=ORIENTED_EDGE('',*,*,#520,.F.);
#675=ORIENTED_EDGE('',*,*,#525,.F.);
#676=ORIENTED_EDGE('',*,*,#526,.F.);
#677=ORIENTED_EDGE('',*,*,#527,.T.);
#678=ORIENTED_EDGE('',*,*,#523,.F.);
#679=ORIENTED_EDGE('',*,*,#527,.F.);
#680=ORIENTED_EDGE('',*,*,#528,.F.);
#681=ORIENTED_EDGE('',*,*,#514,.F.);
#682=ORIENTED_EDGE('',*,*,#518,.F.);
#683=ORIENTED_EDGE('',*,*,#521,.F.);
#684=ORIENTED_EDGE('',*,*,#524,.F.);
#685=ORIENTED_EDGE('',*,*,#529,.F.);
#686=ORIENTED_EDGE('',*,*,#530,.T.);
#687=ORIENTED_EDGE('',*,*,#531,.T.);
#688=ORIENTED_EDGE('',*,*,#532,.T.);
#689=ORIENTED_EDGE('',*,*,#533,.T.);
#690=ORIENTED_EDGE('',*,*,#507,.T.);
#691=ORIENTED_EDGE('',*,*,#504,.T.);
#692=ORIENTED_EDGE('',*,*,#501,.T.);
#693=ORIENTED_EDGE('',*,*,#498,.T.);
#694=ORIENTED_EDGE('',*,*,#494,.T.);
#695=ORIENTED_EDGE('',*,*,#534,.T.);
#696=ORIENTED_EDGE('',*,*,#525,.T.);
#697=ORIENTED_EDGE('',*,*,#522,.T.);
#698=ORIENTED_EDGE('',*,*,#519,.T.);
#699=ORIENTED_EDGE('',*,*,#516,.T.);
#700=ORIENTED_EDGE('',*,*,#512,.T.);
#701=ORIENTED_EDGE('',*,*,#535,.T.);
#702=ORIENTED_EDGE('',*,*,#536,.F.);
#703=ORIENTED_EDGE('',*,*,#537,.T.);
#704=ORIENTED_EDGE('',*,*,#538,.T.);
#705=ORIENTED_EDGE('',*,*,#539,.T.);
#706=ORIENTED_EDGE('',*,*,#511,.T.);
#707=ORIENTED_EDGE('',*,*,#540,.T.);
#708=ORIENTED_EDGE('',*,*,#541,.F.);
#709=ORIENTED_EDGE('',*,*,#540,.F.);
#710=ORIENTED_EDGE('',*,*,#529,.T.);
#711=ORIENTED_EDGE('',*,*,#542,.T.);
#712=ORIENTED_EDGE('',*,*,#543,.F.);
#713=ORIENTED_EDGE('',*,*,#542,.F.);
#714=ORIENTED_EDGE('',*,*,#544,.F.);
#715=ORIENTED_EDGE('',*,*,#545,.T.);
#716=ORIENTED_EDGE('',*,*,#546,.F.);
#717=ORIENTED_EDGE('',*,*,#545,.F.);
#718=ORIENTED_EDGE('',*,*,#547,.T.);
#719=ORIENTED_EDGE('',*,*,#548,.T.);
#720=ORIENTED_EDGE('',*,*,#549,.T.);
#721=ORIENTED_EDGE('',*,*,#550,.F.);
#722=ORIENTED_EDGE('',*,*,#551,.T.);
#723=ORIENTED_EDGE('',*,*,#552,.F.);
#724=ORIENTED_EDGE('',*,*,#553,.T.);
#725=ORIENTED_EDGE('',*,*,#548,.F.);
#726=ORIENTED_EDGE('',*,*,#554,.F.);
#727=ORIENTED_EDGE('',*,*,#555,.T.);
#728=ORIENTED_EDGE('',*,*,#556,.T.);
#729=ORIENTED_EDGE('',*,*,#557,.F.);
#730=ORIENTED_EDGE('',*,*,#558,.T.);
#731=ORIENTED_EDGE('',*,*,#559,.T.);
#732=ORIENTED_EDGE('',*,*,#560,.T.);
#733=ORIENTED_EDGE('',*,*,#555,.F.);
#734=ORIENTED_EDGE('',*,*,#561,.T.);
#735=ORIENTED_EDGE('',*,*,#550,.T.);
#736=ORIENTED_EDGE('',*,*,#562,.T.);
#737=ORIENTED_EDGE('',*,*,#559,.F.);
#738=ORIENTED_EDGE('',*,*,#561,.F.);
#739=ORIENTED_EDGE('',*,*,#558,.F.);
#740=ORIENTED_EDGE('',*,*,#554,.T.);
#741=ORIENTED_EDGE('',*,*,#563,.F.);
#742=ORIENTED_EDGE('',*,*,#551,.F.);
#743=ORIENTED_EDGE('',*,*,#547,.F.);
#744=ORIENTED_EDGE('',*,*,#546,.T.);
#745=ORIENTED_EDGE('',*,*,#562,.F.);
#746=ORIENTED_EDGE('',*,*,#549,.F.);
#747=ORIENTED_EDGE('',*,*,#553,.F.);
#748=ORIENTED_EDGE('',*,*,#564,.F.);
#749=ORIENTED_EDGE('',*,*,#556,.F.);
#750=ORIENTED_EDGE('',*,*,#560,.F.);
#751=ORIENTED_EDGE('',*,*,#565,.F.);
#752=ORIENTED_EDGE('',*,*,#566,.T.);
#753=ORIENTED_EDGE('',*,*,#567,.F.);
#754=ORIENTED_EDGE('',*,*,#566,.F.);
#755=ORIENTED_EDGE('',*,*,#568,.T.);
#756=ORIENTED_EDGE('',*,*,#569,.T.);
#757=ORIENTED_EDGE('',*,*,#570,.T.);
#758=ORIENTED_EDGE('',*,*,#571,.F.);
#759=ORIENTED_EDGE('',*,*,#572,.T.);
#760=ORIENTED_EDGE('',*,*,#573,.T.);
#761=ORIENTED_EDGE('',*,*,#574,.T.);
#762=ORIENTED_EDGE('',*,*,#569,.F.);
#763=ORIENTED_EDGE('',*,*,#575,.T.);
#764=ORIENTED_EDGE('',*,*,#576,.F.);
#765=ORIENTED_EDGE('',*,*,#577,.T.);
#766=ORIENTED_EDGE('',*,*,#573,.F.);
#767=ORIENTED_EDGE('',*,*,#578,.F.);
#768=ORIENTED_EDGE('',*,*,#579,.T.);
#769=ORIENTED_EDGE('',*,*,#580,.T.);
#770=ORIENTED_EDGE('',*,*,#581,.F.);
#771=ORIENTED_EDGE('',*,*,#582,.T.);
#772=ORIENTED_EDGE('',*,*,#571,.T.);
#773=ORIENTED_EDGE('',*,*,#583,.T.);
#774=ORIENTED_EDGE('',*,*,#579,.F.);
#775=ORIENTED_EDGE('',*,*,#582,.F.);
#776=ORIENTED_EDGE('',*,*,#578,.T.);
#777=ORIENTED_EDGE('',*,*,#584,.F.);
#778=ORIENTED_EDGE('',*,*,#575,.F.);
#779=ORIENTED_EDGE('',*,*,#572,.F.);
#780=ORIENTED_EDGE('',*,*,#568,.F.);
#781=ORIENTED_EDGE('',*,*,#567,.T.);
#782=ORIENTED_EDGE('',*,*,#583,.F.);
#783=ORIENTED_EDGE('',*,*,#570,.F.);
#784=ORIENTED_EDGE('',*,*,#574,.F.);
#785=ORIENTED_EDGE('',*,*,#577,.F.);
#786=ORIENTED_EDGE('',*,*,#585,.F.);
#787=ORIENTED_EDGE('',*,*,#580,.F.);
#788=ORIENTED_EDGE('',*,*,#586,.F.);
#789=ORIENTED_EDGE('',*,*,#587,.T.);
#790=ORIENTED_EDGE('',*,*,#588,.F.);
#791=ORIENTED_EDGE('',*,*,#589,.F.);
#792=ORIENTED_EDGE('',*,*,#590,.F.);
#793=ORIENTED_EDGE('',*,*,#591,.T.);
#794=ORIENTED_EDGE('',*,*,#592,.F.);
#795=ORIENTED_EDGE('',*,*,#587,.F.);
#796=ORIENTED_EDGE('',*,*,#592,.T.);
#797=ORIENTED_EDGE('',*,*,#593,.T.);
#798=ORIENTED_EDGE('',*,*,#594,.T.);
#799=ORIENTED_EDGE('',*,*,#588,.T.);
#800=ORIENTED_EDGE('',*,*,#544,.T.);
#801=ORIENTED_EDGE('',*,*,#590,.T.);
#802=ORIENTED_EDGE('',*,*,#586,.T.);
#803=ORIENTED_EDGE('',*,*,#595,.T.);
#804=ORIENTED_EDGE('',*,*,#596,.T.);
#805=ORIENTED_EDGE('',*,*,#597,.T.);
#806=ORIENTED_EDGE('',*,*,#598,.T.);
#807=ORIENTED_EDGE('',*,*,#599,.T.);
#808=ORIENTED_EDGE('',*,*,#600,.T.);
#809=ORIENTED_EDGE('',*,*,#601,.T.);
#810=ORIENTED_EDGE('',*,*,#602,.T.);
#811=ORIENTED_EDGE('',*,*,#603,.T.);
#812=ORIENTED_EDGE('',*,*,#604,.T.);
#813=ORIENTED_EDGE('',*,*,#605,.T.);
#814=ORIENTED_EDGE('',*,*,#606,.T.);
#815=ORIENTED_EDGE('',*,*,#607,.T.);
#816=ORIENTED_EDGE('',*,*,#608,.T.);
#817=ORIENTED_EDGE('',*,*,#541,.T.);
#818=ORIENTED_EDGE('',*,*,#543,.T.);
#819=ORIENTED_EDGE('',*,*,#605,.F.);
#820=ORIENTED_EDGE('',*,*,#609,.T.);
#821=ORIENTED_EDGE('',*,*,#610,.F.);
#822=ORIENTED_EDGE('',*,*,#611,.F.);
#823=ORIENTED_EDGE('',*,*,#604,.F.);
#824=ORIENTED_EDGE('',*,*,#612,.T.);
#825=ORIENTED_EDGE('',*,*,#613,.F.);
#826=ORIENTED_EDGE('',*,*,#609,.F.);
#827=ORIENTED_EDGE('',*,*,#613,.T.);
#828=ORIENTED_EDGE('',*,*,#614,.T.);
#829=ORIENTED_EDGE('',*,*,#615,.T.);
#830=ORIENTED_EDGE('',*,*,#610,.T.);
#831=ORIENTED_EDGE('',*,*,#565,.T.);
#832=ORIENTED_EDGE('',*,*,#616,.T.);
#833=ORIENTED_EDGE('',*,*,#617,.F.);
#834=ORIENTED_EDGE('',*,*,#618,.T.);
#835=ORIENTED_EDGE('',*,*,#619,.F.);
#836=ORIENTED_EDGE('',*,*,#619,.T.);
#837=ORIENTED_EDGE('',*,*,#620,.T.);
#838=ORIENTED_EDGE('',*,*,#602,.F.);
#839=ORIENTED_EDGE('',*,*,#621,.F.);
#840=ORIENTED_EDGE('',*,*,#617,.T.);
#841=ORIENTED_EDGE('',*,*,#622,.T.);
#842=ORIENTED_EDGE('',*,*,#596,.F.);
#843=ORIENTED_EDGE('',*,*,#623,.F.);
#844=ORIENTED_EDGE('',*,*,#537,.F.);
#845=ORIENTED_EDGE('',*,*,#624,.T.);
#846=ORIENTED_EDGE('',*,*,#597,.F.);
#847=ORIENTED_EDGE('',*,*,#622,.F.);
#848=ORIENTED_EDGE('',*,*,#616,.F.);
#849=ORIENTED_EDGE('',*,*,#621,.T.);
#850=ORIENTED_EDGE('',*,*,#601,.F.);
#851=ORIENTED_EDGE('',*,*,#625,.F.);
#852=ORIENTED_EDGE('',*,*,#538,.F.);
#853=ORIENTED_EDGE('',*,*,#625,.T.);
#854=ORIENTED_EDGE('',*,*,#600,.F.);
#855=ORIENTED_EDGE('',*,*,#626,.F.);
#856=ORIENTED_EDGE('',*,*,#508,.T.);
#857=ORIENTED_EDGE('',*,*,#539,.F.);
#858=ORIENTED_EDGE('',*,*,#626,.T.);
#859=ORIENTED_EDGE('',*,*,#599,.F.);
#860=ORIENTED_EDGE('',*,*,#627,.F.);
#861=ORIENTED_EDGE('',*,*,#535,.F.);
#862=ORIENTED_EDGE('',*,*,#515,.T.);
#863=ORIENTED_EDGE('',*,*,#528,.T.);
#864=ORIENTED_EDGE('',*,*,#526,.T.);
#865=ORIENTED_EDGE('',*,*,#534,.F.);
#866=ORIENTED_EDGE('',*,*,#497,.T.);
#867=ORIENTED_EDGE('',*,*,#510,.T.);
#868=ORIENTED_EDGE('',*,*,#536,.T.);
#869=ORIENTED_EDGE('',*,*,#627,.T.);
#870=ORIENTED_EDGE('',*,*,#598,.F.);
#871=ORIENTED_EDGE('',*,*,#624,.F.);
#872=ORIENTED_EDGE('',*,*,#531,.F.);
#873=ORIENTED_EDGE('',*,*,#628,.T.);
#874=ORIENTED_EDGE('',*,*,#593,.F.);
#875=ORIENTED_EDGE('',*,*,#591,.F.);
#876=ORIENTED_EDGE('',*,*,#608,.F.);
#877=ORIENTED_EDGE('',*,*,#629,.F.);
#878=ORIENTED_EDGE('',*,*,#557,.T.);
#879=ORIENTED_EDGE('',*,*,#564,.T.);
#880=ORIENTED_EDGE('',*,*,#552,.T.);
#881=ORIENTED_EDGE('',*,*,#563,.T.);
#882=ORIENTED_EDGE('',*,*,#532,.F.);
#883=ORIENTED_EDGE('',*,*,#629,.T.);
#884=ORIENTED_EDGE('',*,*,#607,.F.);
#885=ORIENTED_EDGE('',*,*,#630,.F.);
#886=ORIENTED_EDGE('',*,*,#533,.F.);
#887=ORIENTED_EDGE('',*,*,#630,.T.);
#888=ORIENTED_EDGE('',*,*,#606,.F.);
#889=ORIENTED_EDGE('',*,*,#611,.T.);
#890=ORIENTED_EDGE('',*,*,#615,.F.);
#891=ORIENTED_EDGE('',*,*,#631,.F.);
#892=ORIENTED_EDGE('',*,*,#581,.T.);
#893=ORIENTED_EDGE('',*,*,#585,.T.);
#894=ORIENTED_EDGE('',*,*,#576,.T.);
#895=ORIENTED_EDGE('',*,*,#584,.T.);
#896=ORIENTED_EDGE('',*,*,#530,.F.);
#897=ORIENTED_EDGE('',*,*,#631,.T.);
#898=ORIENTED_EDGE('',*,*,#614,.F.);
#899=ORIENTED_EDGE('',*,*,#612,.F.);
#900=ORIENTED_EDGE('',*,*,#603,.F.);
#901=ORIENTED_EDGE('',*,*,#620,.F.);
#902=ORIENTED_EDGE('',*,*,#618,.F.);
#903=ORIENTED_EDGE('',*,*,#623,.T.);
#904=ORIENTED_EDGE('',*,*,#595,.F.);
#905=ORIENTED_EDGE('',*,*,#589,.T.);
#906=ORIENTED_EDGE('',*,*,#594,.F.);
#907=ORIENTED_EDGE('',*,*,#628,.F.);
#908=PLANE('',#1015);
#909=PLANE('',#1016);
#910=PLANE('',#1017);
#911=PLANE('',#1018);
#912=PLANE('',#1019);
#913=PLANE('',#1020);
#914=PLANE('',#1023);
#915=PLANE('',#1024);
#916=PLANE('',#1025);
#917=PLANE('',#1026);
#918=PLANE('',#1027);
#919=PLANE('',#1028);
#920=PLANE('',#1031);
#921=PLANE('',#1042);
#922=PLANE('',#1043);
#923=PLANE('',#1044);
#924=PLANE('',#1045);
#925=PLANE('',#1046);
#926=PLANE('',#1047);
#927=PLANE('',#1048);
#928=PLANE('',#1052);
#929=PLANE('',#1053);
#930=PLANE('',#1054);
#931=PLANE('',#1055);
#932=PLANE('',#1056);
#933=PLANE('',#1057);
#934=PLANE('',#1058);
#935=PLANE('',#1059);
#936=PLANE('',#1060);
#937=PLANE('',#1061);
#938=PLANE('',#1062);
#939=PLANE('',#1064);
#940=PLANE('',#1065);
#941=PLANE('',#1066);
#942=PLANE('',#1067);
#943=PLANE('',#1068);
#944=PLANE('',#1069);
#945=PLANE('',#1070);
#946=PLANE('',#1071);
#947=PLANE('',#1073);
#948=PLANE('',#1074);
#949=PLANE('',#1075);
#950=PLANE('',#1076);
#951=PLANE('',#1077);
#952=ADVANCED_FACE('',(#45),#908,.F.);
#953=ADVANCED_FACE('',(#46),#909,.F.);
#954=ADVANCED_FACE('',(#47),#910,.F.);
#955=ADVANCED_FACE('',(#48),#911,.F.);
#956=ADVANCED_FACE('',(#49),#912,.F.);
#957=ADVANCED_FACE('',(#50,#20),#913,.F.);
#958=ADVANCED_FACE('',(#51),#914,.F.);
#959=ADVANCED_FACE('',(#52),#915,.F.);
#960=ADVANCED_FACE('',(#53),#916,.F.);
#961=ADVANCED_FACE('',(#54),#917,.F.);
#962=ADVANCED_FACE('',(#55),#918,.F.);
#963=ADVANCED_FACE('',(#56,#21),#919,.F.);
#964=ADVANCED_FACE('',(#57,#22),#920,.F.);
#965=ADVANCED_FACE('',(#58),#15,.F.);
#966=ADVANCED_FACE('',(#59),#16,.F.);
#967=ADVANCED_FACE('',(#60),#17,.F.);
#968=ADVANCED_FACE('',(#61),#921,.F.);
#969=ADVANCED_FACE('',(#62),#922,.F.);
#970=ADVANCED_FACE('',(#63),#923,.F.);
#971=ADVANCED_FACE('',(#64),#924,.F.);
#972=ADVANCED_FACE('',(#65),#925,.F.);
#973=ADVANCED_FACE('',(#66,#23),#926,.F.);
#974=ADVANCED_FACE('',(#67),#927,.F.);
#975=ADVANCED_FACE('',(#68),#18,.F.);
#976=ADVANCED_FACE('',(#69),#928,.F.);
#977=ADVANCED_FACE('',(#70),#929,.F.);
#978=ADVANCED_FACE('',(#71),#930,.F.);
#979=ADVANCED_FACE('',(#72),#931,.F.);
#980=ADVANCED_FACE('',(#73),#932,.F.);
#981=ADVANCED_FACE('',(#74,#24),#933,.F.);
#982=ADVANCED_FACE('',(#75),#934,.F.);
#983=ADVANCED_FACE('',(#76),#935,.T.);
#984=ADVANCED_FACE('',(#77),#936,.T.);
#985=ADVANCED_FACE('',(#78,#25),#937,.T.);
#986=ADVANCED_FACE('',(#79,#26,#27),#938,.T.);
#987=ADVANCED_FACE('',(#80),#939,.T.);
#988=ADVANCED_FACE('',(#81),#940,.T.);
#989=ADVANCED_FACE('',(#82,#28),#941,.T.);
#990=ADVANCED_FACE('',(#83),#942,.T.);
#991=ADVANCED_FACE('',(#84),#943,.T.);
#992=ADVANCED_FACE('',(#85),#944,.T.);
#993=ADVANCED_FACE('',(#86),#945,.T.);
#994=ADVANCED_FACE('',(#87),#946,.T.);
#995=ADVANCED_FACE('',(#88),#19,.F.);
#996=ADVANCED_FACE('',(#89),#947,.T.);
#997=ADVANCED_FACE('',(#90,#29),#948,.T.);
#998=ADVANCED_FACE('',(#91),#949,.T.);
#999=ADVANCED_FACE('',(#92,#30),#950,.T.);
#1000=ADVANCED_FACE('',(#93),#951,.T.);
#1001=CLOSED_SHELL('',(#952,#953,#954,#955,#956,#957,#958,#959,#960,#961,
#962,#963,#964,#965,#966,#967,#968,#969,#970,#971,#972,#973,#974,#975,#976,
#977,#978,#979,#980,#981,#982,#983,#984,#985,#986,#987,#988,#989,#990,#991,
#992,#993,#994,#995,#996,#997,#998,#999,#1000));
#1002=DERIVED_UNIT_ELEMENT(#1004,1.);
#1003=DERIVED_UNIT_ELEMENT(#1615,-3.);
#1004=(
MASS_UNIT()
NAMED_UNIT(*)
SI_UNIT(.KILO.,.GRAM.)
);
#1005=DERIVED_UNIT((#1002,#1003));
#1006=MEASURE_REPRESENTATION_ITEM('density measure',
POSITIVE_RATIO_MEASURE(7850.),#1005);
#1007=PROPERTY_DEFINITION_REPRESENTATION(#1012,#1009);
#1008=PROPERTY_DEFINITION_REPRESENTATION(#1013,#1010);
#1009=REPRESENTATION('material name',(#1011),#1612);
#1010=REPRESENTATION('density',(#1006),#1612);
#1011=DESCRIPTIVE_REPRESENTATION_ITEM('Steel','Steel');
#1012=PROPERTY_DEFINITION('material property','material name',#1622);
#1013=PROPERTY_DEFINITION('material property','density of part',#1622);
#1014=AXIS2_PLACEMENT_3D('',#1330,#1078,#1079);
#1015=AXIS2_PLACEMENT_3D('',#1331,#1080,#1081);
#1016=AXIS2_PLACEMENT_3D('',#1340,#1086,#1087);
#1017=AXIS2_PLACEMENT_3D('',#1346,#1091,#1092);
#1018=AXIS2_PLACEMENT_3D('',#1352,#1096,#1097);
#1019=AXIS2_PLACEMENT_3D('',#1358,#1101,#1102);
#1020=AXIS2_PLACEMENT_3D('',#1364,#1106,#1107);
#1021=AXIS2_PLACEMENT_3D('',#1365,#1108,#1109);
#1022=AXIS2_PLACEMENT_3D('',#1367,#1110,#1111);
#1023=AXIS2_PLACEMENT_3D('',#1368,#1112,#1113);
#1024=AXIS2_PLACEMENT_3D('',#1377,#1118,#1119);
#1025=AXIS2_PLACEMENT_3D('',#1383,#1123,#1124);
#1026=AXIS2_PLACEMENT_3D('',#1389,#1128,#1129);
#1027=AXIS2_PLACEMENT_3D('',#1395,#1133,#1134);
#1028=AXIS2_PLACEMENT_3D('',#1401,#1138,#1139);
#1029=AXIS2_PLACEMENT_3D('',#1402,#1140,#1141);
#1030=AXIS2_PLACEMENT_3D('',#1404,#1142,#1143);
#1031=AXIS2_PLACEMENT_3D('',#1405,#1144,#1145);
#1032=AXIS2_PLACEMENT_3D('',#1414,#1150,#1151);
#1033=AXIS2_PLACEMENT_3D('',#1416,#1152,#1153);
#1034=AXIS2_PLACEMENT_3D('',#1423,#1157,#1158);
#1035=AXIS2_PLACEMENT_3D('',#1424,#1159,#1160);
#1036=AXIS2_PLACEMENT_3D('',#1427,#1162,#1163);
#1037=AXIS2_PLACEMENT_3D('',#1428,#1164,#1165);
#1038=AXIS2_PLACEMENT_3D('',#1431,#1167,#1168);
#1039=AXIS2_PLACEMENT_3D('',#1432,#1169,#1170);
#1040=AXIS2_PLACEMENT_3D('',#1434,#1171,#1172);
#1041=AXIS2_PLACEMENT_3D('',#1437,#1174,#1175);
#1042=AXIS2_PLACEMENT_3D('',#1438,#1176,#1177);
#1043=AXIS2_PLACEMENT_3D('',#1447,#1182,#1183);
#1044=AXIS2_PLACEMENT_3D('',#1453,#1187,#1188);
#1045=AXIS2_PLACEMENT_3D('',#1462,#1193,#1194);
#1046=AXIS2_PLACEMENT_3D('',#1468,#1198,#1199);
#1047=AXIS2_PLACEMENT_3D('',#1471,#1202,#1203);
#1048=AXIS2_PLACEMENT_3D('',#1473,#1205,#1206);
#1049=AXIS2_PLACEMENT_3D('',#1475,#1208,#1209);
#1050=AXIS2_PLACEMENT_3D('',#1477,#1210,#1211);
#1051=AXIS2_PLACEMENT_3D('',#1480,#1213,#1214);
#1052=AXIS2_PLACEMENT_3D('',#1481,#1215,#1216);
#1053=AXIS2_PLACEMENT_3D('',#1490,#1221,#1222);
#1054=AXIS2_PLACEMENT_3D('',#1496,#1226,#1227);
#1055=AXIS2_PLACEMENT_3D('',#1502,#1231,#1232);
#1056=AXIS2_PLACEMENT_3D('',#1511,#1237,#1238);
#1057=AXIS2_PLACEMENT_3D('',#1514,#1241,#1242);
#1058=AXIS2_PLACEMENT_3D('',#1516,#1244,#1245);
#1059=AXIS2_PLACEMENT_3D('',#1518,#1247,#1248);
#1060=AXIS2_PLACEMENT_3D('',#1527,#1253,#1254);
#1061=AXIS2_PLACEMENT_3D('',#1533,#1258,#1259);
#1062=AXIS2_PLACEMENT_3D('',#1537,#1262,#1263);
#1063=AXIS2_PLACEMENT_3D('',#1547,#1268,#1269);
#1064=AXIS2_PLACEMENT_3D('',#1565,#1279,#1280);
#1065=AXIS2_PLACEMENT_3D('',#1571,#1284,#1285);
#1066=AXIS2_PLACEMENT_3D('',#1575,#1288,#1289);
#1067=AXIS2_PLACEMENT_3D('',#1579,#1292,#1293);
#1068=AXIS2_PLACEMENT_3D('',#1588,#1298,#1299);
#1069=AXIS2_PLACEMENT_3D('',#1591,#1302,#1303);
#1070=AXIS2_PLACEMENT_3D('',#1594,#1306,#1307);
#1071=AXIS2_PLACEMENT_3D('',#1597,#1310,#1311);
#1072=AXIS2_PLACEMENT_3D('',#1599,#1313,#1314);
#1073=AXIS2_PLACEMENT_3D('',#1601,#1316,#1317);
#1074=AXIS2_PLACEMENT_3D('',#1602,#1318,#1319);
#1075=AXIS2_PLACEMENT_3D('',#1605,#1322,#1323);
#1076=AXIS2_PLACEMENT_3D('',#1607,#1325,#1326);
#1077=AXIS2_PLACEMENT_3D('',#1609,#1328,#1329);
#1078=DIRECTION('axis',(0.,0.,1.));
#1079=DIRECTION('refdir',(1.,0.,0.));
#1080=DIRECTION('center_axis',(-0.5,0.866025403784439,0.));
#1081=DIRECTION('ref_axis',(-0.866025403784439,-0.5,0.));
#1082=DIRECTION('',(-0.866025403784439,-0.5,0.));
#1083=DIRECTION('',(0.,0.,1.));
#1084=DIRECTION('',(-0.866025403784439,-0.5,0.));
#1085=DIRECTION('',(0.,0.,1.));
#1086=DIRECTION('center_axis',(0.5,0.866025403784439,0.));
#1087=DIRECTION('ref_axis',(-0.866025403784439,0.5,0.));
#1088=DIRECTION('',(-0.866025403784439,0.5,0.));
#1089=DIRECTION('',(0.,0.,1.));
#1090=DIRECTION('',(-0.866025403784439,0.5,0.));
#1091=DIRECTION('center_axis',(1.,-1.06094493041852E-15,0.));
#1092=DIRECTION('ref_axis',(1.06094493041852E-15,1.,0.));
#1093=DIRECTION('',(1.06094493041852E-15,1.,0.));
#1094=DIRECTION('',(0.,0.,1.));
#1095=DIRECTION('',(1.06094493041852E-15,1.,0.));
#1096=DIRECTION('center_axis',(0.499999999999999,-0.866025403784439,0.));
#1097=DIRECTION('ref_axis',(0.866025403784439,0.499999999999999,0.));
#1098=DIRECTION('',(0.866025403784439,0.499999999999999,0.));
#1099=DIRECTION('',(0.,0.,1.));
#1100=DIRECTION('',(0.866025403784439,0.499999999999999,0.));
#1101=DIRECTION('center_axis',(-0.5,-0.866025403784438,0.));
#1102=DIRECTION('ref_axis',(0.866025403784438,-0.5,0.));
#1103=DIRECTION('',(0.866025403784438,-0.5,0.));
#1104=DIRECTION('',(0.,0.,-1.));
#1105=DIRECTION('',(0.866025403784438,-0.5,0.));
#1106=DIRECTION('center_axis',(0.,0.,1.));
#1107=DIRECTION('ref_axis',(1.,0.,0.));
#1108=DIRECTION('center_axis',(0.,0.,-1.));
#1109=DIRECTION('ref_axis',(0.539007092198582,-0.84230122554798,0.));
#1110=DIRECTION('center_axis',(0.,0.,-1.));
#1111=DIRECTION('ref_axis',(1.,0.,0.));
#1112=DIRECTION('center_axis',(0.5,-0.866025403784439,0.));
#1113=DIRECTION('ref_axis',(0.866025403784439,0.499999999999999,0.));
#1114=DIRECTION('',(0.866025403784439,0.499999999999999,0.));
#1115=DIRECTION('',(0.,0.,1.));
#1116=DIRECTION('',(0.866025403784439,0.499999999999999,0.));
#1117=DIRECTION('',(0.,0.,1.));
#1118=DIRECTION('center_axis',(-0.5,-0.866025403784439,0.));
#1119=DIRECTION('ref_axis',(0.866025403784439,-0.5,0.));
#1120=DIRECTION('',(0.866025403784439,-0.5,0.));
#1121=DIRECTION('',(0.,0.,1.));
#1122=DIRECTION('',(0.866025403784439,-0.5,0.));
#1123=DIRECTION('center_axis',(-1.,0.,0.));
#1124=DIRECTION('ref_axis',(0.,-1.,0.));
#1125=DIRECTION('',(0.,-1.,0.));
#1126=DIRECTION('',(0.,0.,1.));
#1127=DIRECTION('',(0.,-1.,0.));
#1128=DIRECTION('center_axis',(-0.5,0.866025403784439,0.));
#1129=DIRECTION('ref_axis',(-0.866025403784439,-0.5,0.));
#1130=DIRECTION('',(-0.866025403784439,-0.5,0.));
#1131=DIRECTION('',(0.,0.,1.));
#1132=DIRECTION('',(-0.866025403784439,-0.5,0.));
#1133=DIRECTION('center_axis',(0.5,0.866025403784439,0.));
#1134=DIRECTION('ref_axis',(-0.866025403784439,0.5,0.));
#1135=DIRECTION('',(-0.866025403784439,0.5,0.));
#1136=DIRECTION('',(0.,0.,-1.));
#1137=DIRECTION('',(-0.866025403784439,0.5,0.));
#1138=DIRECTION('center_axis',(0.,0.,1.));
#1139=DIRECTION('ref_axis',(1.,0.,0.));
#1140=DIRECTION('center_axis',(0.,0.,-1.));
#1141=DIRECTION('ref_axis',(0.539007092198582,-0.84230122554798,0.));
#1142=DIRECTION('center_axis',(0.,0.,-1.));
#1143=DIRECTION('ref_axis',(1.,0.,0.));
#1144=DIRECTION('center_axis',(0.,0.,1.));
#1145=DIRECTION('ref_axis',(1.,0.,0.));
#1146=DIRECTION('',(-1.,0.,0.));
#1147=DIRECTION('',(0.,1.,0.));
#1148=DIRECTION('',(1.,-2.22044604925031E-16,0.));
#1149=DIRECTION('',(0.,-1.,0.));
#1150=DIRECTION('center_axis',(0.,0.,1.));
#1151=DIRECTION('ref_axis',(0.539007092198582,-0.84230122554798,0.));
#1152=DIRECTION('center_axis',(0.,0.,1.));
#1153=DIRECTION('ref_axis',(0.539007092198582,-0.84230122554798,0.));
#1154=DIRECTION('',(0.,1.,0.));
#1155=DIRECTION('',(1.,0.,0.));
#1156=DIRECTION('',(6.00646185572987E-16,1.,0.));
#1157=DIRECTION('center_axis',(0.,0.,1.));
#1158=DIRECTION('ref_axis',(0.539007092198582,-0.84230122554798,0.));
#1159=DIRECTION('center_axis',(0.,0.,1.));
#1160=DIRECTION('ref_axis',(1.,0.,0.));
#1161=DIRECTION('',(0.,0.,1.));
#1162=DIRECTION('center_axis',(0.,0.,-1.));
#1163=DIRECTION('ref_axis',(1.,0.,0.));
#1164=DIRECTION('center_axis',(0.,0.,1.));
#1165=DIRECTION('ref_axis',(1.,0.,0.));
#1166=DIRECTION('',(0.,0.,1.));
#1167=DIRECTION('center_axis',(0.,0.,-1.));
#1168=DIRECTION('ref_axis',(1.,0.,0.));
#1169=DIRECTION('center_axis',(0.,0.,-1.));
#1170=DIRECTION('ref_axis',(-1.,0.,0.));
#1171=DIRECTION('center_axis',(0.,0.,-1.));
#1172=DIRECTION('ref_axis',(-1.,0.,0.));
#1173=DIRECTION('',(0.,0.,-1.));
#1174=DIRECTION('center_axis',(0.,0.,1.));
#1175=DIRECTION('ref_axis',(-1.,0.,0.));
#1176=DIRECTION('center_axis',(0.5000001742146,0.866025303201569,0.));
#1177=DIRECTION('ref_axis',(0.866025303201569,-0.5000001742146,0.));
#1178=DIRECTION('',(-0.866025303201569,0.5000001742146,0.));
#1179=DIRECTION('',(0.,0.,-1.));
#1180=DIRECTION('',(0.866025303201569,-0.5000001742146,0.));
#1181=DIRECTION('',(0.,0.,-1.));
#1182=DIRECTION('center_axis',(0.,1.,0.));
#1183=DIRECTION('ref_axis',(1.,0.,0.));
#1184=DIRECTION('',(-1.,0.,0.));
#1185=DIRECTION('',(0.,0.,1.));
#1186=DIRECTION('',(1.,0.,0.));
#1187=DIRECTION('center_axis',(0.,-1.,0.));
#1188=DIRECTION('ref_axis',(-1.,0.,0.));
#1189=DIRECTION('',(-1.,0.,0.));
#1190=DIRECTION('',(0.,0.,-1.));
#1191=DIRECTION('',(-1.,0.,0.));
#1192=DIRECTION('',(0.,0.,-1.));
#1193=DIRECTION('center_axis',(0.49999982578538,-0.866025504367273,0.));
#1194=DIRECTION('ref_axis',(-0.866025504367273,-0.49999982578538,0.));
#1195=DIRECTION('',(0.866025504367273,0.49999982578538,0.));
#1196=DIRECTION('',(0.,0.,-1.));
#1197=DIRECTION('',(-0.866025504367273,-0.49999982578538,0.));
#1198=DIRECTION('center_axis',(0.99999999999998,-2.01165703539014E-7,0.));
#1199=DIRECTION('ref_axis',(-2.01165703539014E-7,-0.99999999999998,0.));
#1200=DIRECTION('',(2.01165703539014E-7,0.99999999999998,0.));
#1201=DIRECTION('',(-2.01165703539014E-7,-0.99999999999998,0.));
#1202=DIRECTION('center_axis',(0.,0.,1.));
#1203=DIRECTION('ref_axis',(-1.,0.,0.));
#1204=DIRECTION('',(0.,-1.,0.));
#1205=DIRECTION('center_axis',(0.,0.,-1.));
#1206=DIRECTION('ref_axis',(-1.,0.,0.));
#1207=DIRECTION('',(0.,1.,0.));
#1208=DIRECTION('center_axis',(0.,0.,-1.));
#1209=DIRECTION('ref_axis',(-1.,0.,0.));
#1210=DIRECTION('center_axis',(0.,0.,-1.));
#1211=DIRECTION('ref_axis',(-1.,0.,0.));
#1212=DIRECTION('',(0.,0.,-1.));
#1213=DIRECTION('center_axis',(0.,0.,1.));
#1214=DIRECTION('ref_axis',(-1.,0.,0.));
#1215=DIRECTION('center_axis',(-1.,5.30472465209259E-16,0.));
#1216=DIRECTION('ref_axis',(5.30472465209259E-16,1.,0.));
#1217=DIRECTION('',(-5.30472465209259E-16,-1.,0.));
#1218=DIRECTION('',(0.,0.,-1.));
#1219=DIRECTION('',(5.30472465209259E-16,1.,0.));
#1220=DIRECTION('',(0.,0.,-1.));
#1221=DIRECTION('center_axis',(-0.5,-0.866025403784439,0.));
#1222=DIRECTION('ref_axis',(-0.866025403784439,0.5,0.));
#1223=DIRECTION('',(0.866025403784438,-0.5,0.));
#1224=DIRECTION('',(0.,0.,-1.));
#1225=DIRECTION('',(-0.866025403784438,0.5,0.));
#1226=DIRECTION('center_axis',(0.,-1.,0.));
#1227=DIRECTION('ref_axis',(-1.,0.,0.));
#1228=DIRECTION('',(1.,0.,0.));
#1229=DIRECTION('',(0.,0.,1.));
#1230=DIRECTION('',(-1.,0.,0.));
#1231=DIRECTION('center_axis',(0.,1.,0.));
#1232=DIRECTION('ref_axis',(1.,0.,0.));
#1233=DIRECTION('',(1.,0.,0.));
#1234=DIRECTION('',(0.,0.,-1.));
#1235=DIRECTION('',(1.,0.,0.));
#1236=DIRECTION('',(0.,0.,-1.));
#1237=DIRECTION('center_axis',(-0.499999999999999,0.866025403784439,0.));
#1238=DIRECTION('ref_axis',(0.866025403784439,0.499999999999999,0.));
#1239=DIRECTION('',(-0.866025403784439,-0.499999999999999,0.));
#1240=DIRECTION('',(0.866025403784439,0.499999999999999,0.));
#1241=DIRECTION('center_axis',(0.,0.,1.));
#1242=DIRECTION('ref_axis',(-1.,0.,0.));
#1243=DIRECTION('',(0.,1.,0.));
#1244=DIRECTION('center_axis',(0.,0.,-1.));
#1245=DIRECTION('ref_axis',(-1.,0.,0.));
#1246=DIRECTION('',(0.,-1.,0.));
#1247=DIRECTION('center_axis',(1.,0.,0.));
#1248=DIRECTION('ref_axis',(0.,1.,0.));
#1249=DIRECTION('',(0.,-1.,0.));
#1250=DIRECTION('',(0.,0.,1.));
#1251=DIRECTION('',(0.,1.,0.));
#1252=DIRECTION('',(0.,0.,1.));
#1253=DIRECTION('center_axis',(0.,1.,0.));
#1254=DIRECTION('ref_axis',(-1.,0.,0.));
#1255=DIRECTION('',(1.,0.,0.));
#1256=DIRECTION('',(0.,0.,1.));
#1257=DIRECTION('',(-1.,0.,0.));
#1258=DIRECTION('center_axis',(0.,0.,1.));
#1259=DIRECTION('ref_axis',(1.,0.,0.));
#1260=DIRECTION('',(0.,-1.,0.));
#1261=DIRECTION('',(1.,0.,0.));
#1262=DIRECTION('center_axis',(0.,0.,1.));
#1263=DIRECTION('ref_axis',(1.,0.,0.));
#1264=DIRECTION('',(1.,0.,0.));
#1265=DIRECTION('',(0.,1.,0.));
#1266=DIRECTION('',(-1.,0.,0.));
#1267=DIRECTION('',(0.,1.,0.));
#1268=DIRECTION('center_axis',(0.,0.,-1.));
#1269=DIRECTION('ref_axis',(0.539007092198582,-0.84230122554798,0.));
#1270=DIRECTION('',(-6.00646185572987E-16,-1.,0.));
#1271=DIRECTION('',(-1.,0.,0.));
#1272=DIRECTION('',(-5.63031488585345E-17,-1.,0.));
#1273=DIRECTION('',(1.,0.,0.));
#1274=DIRECTION('',(0.,1.,0.));
#1275=DIRECTION('',(1.,0.,0.));
#1276=DIRECTION('',(0.,1.,0.));
#1277=DIRECTION('',(-1.,2.22044604925031E-16,0.));
#1278=DIRECTION('',(0.,-1.,0.));
#1279=DIRECTION('center_axis',(0.,1.,0.));
#1280=DIRECTION('ref_axis',(-1.,0.,0.));
#1281=DIRECTION('',(0.,0.,1.));
#1282=DIRECTION('',(-1.,0.,0.));
#1283=DIRECTION('',(0.,0.,1.));
#1284=DIRECTION('center_axis',(-1.,0.,0.));
#1285=DIRECTION('ref_axis',(0.,-1.,0.));
#1286=DIRECTION('',(0.,0.,1.));
#1287=DIRECTION('',(0.,-1.,0.));
#1288=DIRECTION('center_axis',(0.,0.,1.));
#1289=DIRECTION('ref_axis',(1.,0.,0.));
#1290=DIRECTION('',(1.,0.,0.));
#1291=DIRECTION('',(0.,1.,0.));
#1292=DIRECTION('center_axis',(0.,0.,1.));
#1293=DIRECTION('ref_axis',(1.,0.,0.));
#1294=DIRECTION('',(-1.,0.,0.));
#1295=DIRECTION('',(0.,1.,0.));
#1296=DIRECTION('',(1.,0.,0.));
#1297=DIRECTION('',(-5.63031488585345E-17,-1.,0.));
#1298=DIRECTION('center_axis',(-1.,5.63031488585345E-17,0.));
#1299=DIRECTION('ref_axis',(-5.63031488585345E-17,-1.,0.));
#1300=DIRECTION('',(0.,0.,1.));
#1301=DIRECTION('',(0.,0.,1.));
#1302=DIRECTION('center_axis',(1.,0.,0.));
#1303=DIRECTION('ref_axis',(0.,1.,0.));
#1304=DIRECTION('',(0.,0.,1.));
#1305=DIRECTION('',(0.,0.,1.));
#1306=DIRECTION('center_axis',(0.,1.,0.));
#1307=DIRECTION('ref_axis',(-1.,0.,0.));
#1308=DIRECTION('',(0.,0.,1.));
#1309=DIRECTION('',(0.,0.,1.));
#1310=DIRECTION('center_axis',(-1.,6.00646185572987E-16,0.));
#1311=DIRECTION('ref_axis',(-6.00646185572987E-16,-1.,0.));
#1312=DIRECTION('',(0.,0.,1.));
#1313=DIRECTION('center_axis',(0.,0.,1.));
#1314=DIRECTION('ref_axis',(7.8739221604621E-17,1.,0.));
#1315=DIRECTION('',(0.,0.,1.));
#1316=DIRECTION('center_axis',(1.,0.,0.));
#1317=DIRECTION('ref_axis',(0.,1.,0.));
#1318=DIRECTION('center_axis',(-1.,0.,0.));
#1319=DIRECTION('ref_axis',(0.,-1.,0.));
#1320=DIRECTION('',(0.,0.,1.));
#1321=DIRECTION('',(0.,0.,1.));
#1322=DIRECTION('center_axis',(2.22044604925031E-16,1.,0.));
#1323=DIRECTION('ref_axis',(-1.,2.22044604925031E-16,0.));
#1324=DIRECTION('',(0.,0.,1.));
#1325=DIRECTION('center_axis',(1.,0.,0.));
#1326=DIRECTION('ref_axis',(0.,1.,0.));
#1327=DIRECTION('',(0.,0.,1.));
#1328=DIRECTION('center_axis',(0.,-1.,0.));
#1329=DIRECTION('ref_axis',(1.,0.,0.));
#1330=CARTESIAN_POINT('',(0.,0.,0.));
#1331=CARTESIAN_POINT('Origin',(17.5,16.1853798691513,0.));
#1332=CARTESIAN_POINT('',(17.5,16.1853798691513,0.));
#1333=CARTESIAN_POINT('',(13.9382760724269,14.1290176007878,0.));
#1334=CARTESIAN_POINT('',(7.43326246585343,10.3733462439505,0.));
#1335=CARTESIAN_POINT('',(17.5,16.1853798691513,4.));
#1336=CARTESIAN_POINT('',(17.5,16.1853798691513,0.));
#1337=CARTESIAN_POINT('',(13.9382760724269,14.1290176007878,4.));
#1338=CARTESIAN_POINT('',(17.5,16.1853798691513,4.));
#1339=CARTESIAN_POINT('',(13.9382760724269,14.1290176007878,0.));
#1340=CARTESIAN_POINT('Origin',(21.125,14.0924851433389,0.));
#1341=CARTESIAN_POINT('',(21.125,14.0924851433389,0.));
#1342=CARTESIAN_POINT('',(16.2542375341466,16.9046211641581,0.));
#1343=CARTESIAN_POINT('',(21.125,14.0924851433389,4.));
#1344=CARTESIAN_POINT('',(21.125,14.0924851433389,0.));
#1345=CARTESIAN_POINT('',(21.125,14.0924851433389,4.));
#1346=CARTESIAN_POINT('Origin',(21.125,9.90669569171413,0.));
#1347=CARTESIAN_POINT('',(21.125,9.90669569171413,0.));
#1348=CARTESIAN_POINT('',(21.125,4.95334784585705,0.));
#1349=CARTESIAN_POINT('',(21.125,9.90669569171413,4.));
#1350=CARTESIAN_POINT('',(21.125,9.90669569171413,0.));
#1351=CARTESIAN_POINT('',(21.125,9.90669569171413,4.));
#1352=CARTESIAN_POINT('Origin',(17.5,7.81380096590174,0.));
#1353=CARTESIAN_POINT('',(17.5,7.81380096590174,0.));
#1354=CARTESIAN_POINT('',(9.24576246585342,3.04821470360712,0.));
#1355=CARTESIAN_POINT('',(17.5,7.81380096590174,4.));
#1356=CARTESIAN_POINT('',(17.5,7.81380096590174,0.));
#1357=CARTESIAN_POINT('',(17.5,7.81380096590174,4.));
#1358=CARTESIAN_POINT('Origin',(13.9382760724269,9.87016323426521,0.));
#1359=CARTESIAN_POINT('',(13.9382760724269,9.87016323426522,0.));
#1360=CARTESIAN_POINT('',(10.84837557036,11.6541181209027,0.));
#1361=CARTESIAN_POINT('',(13.9382760724269,9.87016323426522,4.));
#1362=CARTESIAN_POINT('',(13.9382760724269,9.87016323426521,0.));
#1363=CARTESIAN_POINT('',(13.875,9.90669569171414,4.));
#1364=CARTESIAN_POINT('Origin',(17.5316380362135,11.9995904175265,4.));
#1365=CARTESIAN_POINT('Origin',(8.51889125404934E-15,11.9995904175265,4.));
#1366=CARTESIAN_POINT('',(15.36,11.9995904175265,4.));
#1367=CARTESIAN_POINT('Origin',(17.5,11.9995904175265,4.));
#1368=CARTESIAN_POINT('Origin',(-17.5,7.81380096590174,0.));
#1369=CARTESIAN_POINT('',(-17.5,7.81380096590174,0.));
#1370=CARTESIAN_POINT('',(-13.9382760724269,9.8701632342652,0.));
#1371=CARTESIAN_POINT('',(-12.6292375341466,10.6259369867209,0.));
#1372=CARTESIAN_POINT('',(-17.5,7.81380096590174,4.));
#1373=CARTESIAN_POINT('',(-17.5,7.81380096590174,0.));
#1374=CARTESIAN_POINT('',(-13.9382760724269,9.8701632342652,4.));
#1375=CARTESIAN_POINT('',(-17.5,7.81380096590174,4.));
#1376=CARTESIAN_POINT('',(-13.9382760724269,9.87016323426521,0.));
#1377=CARTESIAN_POINT('Origin',(-21.125,9.90669569171413,0.));
#1378=CARTESIAN_POINT('',(-21.125,9.90669569171413,0.));
#1379=CARTESIAN_POINT('',(-11.0582624658534,4.0946620665133,0.));
#1380=CARTESIAN_POINT('',(-21.125,9.90669569171413,4.));
#1381=CARTESIAN_POINT('',(-21.125,9.90669569171413,0.));
#1382=CARTESIAN_POINT('',(-21.125,9.90669569171413,4.));
#1383=CARTESIAN_POINT('Origin',(-21.125,14.0924851433389,0.));
#1384=CARTESIAN_POINT('',(-21.125,14.0924851433389,0.));
#1385=CARTESIAN_POINT('',(-21.125,7.04624257166946,0.));
#1386=CARTESIAN_POINT('',(-21.125,14.0924851433389,4.));
#1387=CARTESIAN_POINT('',(-21.125,14.0924851433389,0.));
#1388=CARTESIAN_POINT('',(-21.125,14.0924851433389,4.));
#1389=CARTESIAN_POINT('Origin',(-17.5,16.1853798691513,0.));
#1390=CARTESIAN_POINT('',(-17.5,16.1853798691513,0.));
#1391=CARTESIAN_POINT('',(-14.4417375341466,17.9510685270643,0.));
#1392=CARTESIAN_POINT('',(-17.5,16.1853798691513,4.));
#1393=CARTESIAN_POINT('',(-17.5,16.1853798691513,0.));
#1394=CARTESIAN_POINT('',(-17.5,16.1853798691513,4.));
#1395=CARTESIAN_POINT('Origin',(-13.9382760724269,14.1290176007878,0.));
#1396=CARTESIAN_POINT('',(-13.9382760724269,14.1290176007878,0.));
#1397=CARTESIAN_POINT('',(-5.65240050206686,9.34516510976875,0.));
#1398=CARTESIAN_POINT('',(-13.9382760724269,14.1290176007878,4.));
#1399=CARTESIAN_POINT('',(-13.9382760724269,14.1290176007878,0.));
#1400=CARTESIAN_POINT('',(-13.875,14.0924851433389,4.));
#1401=CARTESIAN_POINT('Origin',(-17.5316380362134,11.9995904175265,4.));
#1402=CARTESIAN_POINT('Origin',(8.51889125404934E-15,11.9995904175265,4.));
#1403=CARTESIAN_POINT('',(-19.64,11.9995904175265,4.));
#1404=CARTESIAN_POINT('Origin',(-17.5,11.9995904175265,4.));
#1405=CARTESIAN_POINT('Origin',(0.,0.,0.));
#1406=CARTESIAN_POINT('',(30.,-35.,0.));
#1407=CARTESIAN_POINT('',(-30.,-35.,0.));
#1408=CARTESIAN_POINT('',(30.,-35.,0.));
#1409=CARTESIAN_POINT('',(-30.,35.,0.));
#1410=CARTESIAN_POINT('',(-30.,-35.,0.));
#1411=CARTESIAN_POINT('',(30.,35.,0.));
#1412=CARTESIAN_POINT('',(-30.,35.,0.));
#1413=CARTESIAN_POINT('',(30.,35.,0.));
#1414=CARTESIAN_POINT('Origin',(8.51889125404934E-15,11.9995904175265,0.));
#1415=CARTESIAN_POINT('',(-7.6,0.123143137300001,0.));
#1416=CARTESIAN_POINT('Origin',(8.51889125404934E-15,11.9995904175265,0.));
#1417=CARTESIAN_POINT('',(-7.59999999999999,-5.422,0.));
#1418=CARTESIAN_POINT('',(-7.59999999999999,-5.422,0.));
#1419=CARTESIAN_POINT('',(7.60000000000001,-5.422,0.));
#1420=CARTESIAN_POINT('',(-7.59999999999999,-5.422,0.));
#1421=CARTESIAN_POINT('',(7.60000000000001,0.123143137300001,0.));
#1422=CARTESIAN_POINT('',(7.60000000000001,-5.422,0.));
#1423=CARTESIAN_POINT('Origin',(8.51889125404934E-15,11.9995904175265,0.));
#1424=CARTESIAN_POINT('Origin',(17.5,11.9995904175265,0.));
#1425=CARTESIAN_POINT('',(15.36,11.9995904175265,12.));
#1426=CARTESIAN_POINT('',(15.36,11.9995904175265,0.));
#1427=CARTESIAN_POINT('Origin',(17.5,11.9995904175265,12.));
#1428=CARTESIAN_POINT('Origin',(-17.5,11.9995904175265,0.));
#1429=CARTESIAN_POINT('',(-19.64,11.9995904175265,12.));
#1430=CARTESIAN_POINT('',(-19.64,11.9995904175265,0.));
#1431=CARTESIAN_POINT('Origin',(-17.5,11.9995904175265,12.));
#1432=CARTESIAN_POINT('Origin',(-22.,-27.,57.));
#1433=CARTESIAN_POINT('',(-19.86,-27.,57.));
#1434=CARTESIAN_POINT('Origin',(-22.,-27.,57.));
#1435=CARTESIAN_POINT('',(-19.86,-27.,51.));
#1436=CARTESIAN_POINT('',(-19.86,-27.,57.));
#1437=CARTESIAN_POINT('Origin',(-22.,-27.,51.));
#1438=CARTESIAN_POINT('Origin',(-21.9999991579627,-22.8142105483753,51.));
#1439=CARTESIAN_POINT('',(-18.3749995789814,-24.9071060034133,51.));
#1440=CARTESIAN_POINT('',(-21.9999991579627,-22.8142105483753,51.));
#1441=CARTESIAN_POINT('',(-18.3749995789814,-24.9071060034133,51.));
#1442=CARTESIAN_POINT('',(-21.9999991579627,-22.8142105483753,26.));
#1443=CARTESIAN_POINT('',(-21.9999991579627,-22.8142105483753,51.));
#1444=CARTESIAN_POINT('',(-18.3749995789814,-24.9071060034133,26.));
#1445=CARTESIAN_POINT('',(-18.3749995789814,-24.9071060034133,26.));
#1446=CARTESIAN_POINT('',(-18.3749995789814,-24.9071060034133,51.));
#1447=CARTESIAN_POINT('Origin',(-30.,-22.8142105483753,51.));
#1448=CARTESIAN_POINT('',(-30.,-22.8142105483753,51.));
#1449=CARTESIAN_POINT('',(-21.9999991579627,-22.8142105483753,51.));
#1450=CARTESIAN_POINT('',(-30.,-22.8142105483753,26.));
#1451=CARTESIAN_POINT('',(-30.,-22.8142105483753,25.5));
#1452=CARTESIAN_POINT('',(-21.9999991579627,-22.8142105483753,26.));
#1453=CARTESIAN_POINT('Origin',(-22.0000008420373,-31.1857894516247,51.));
#1454=CARTESIAN_POINT('',(-22.0000008420373,-31.1857894516247,51.));
#1455=CARTESIAN_POINT('',(-30.,-31.1857894516247,51.));
#1456=CARTESIAN_POINT('',(-22.0000008420373,-31.1857894516247,51.));
#1457=CARTESIAN_POINT('',(-22.0000008420373,-31.1857894516247,26.));
#1458=CARTESIAN_POINT('',(-22.0000008420373,-31.1857894516247,51.));
#1459=CARTESIAN_POINT('',(-30.,-31.1857894516247,26.));
#1460=CARTESIAN_POINT('',(-22.0000008420373,-31.1857894516247,26.));
#1461=CARTESIAN_POINT('',(-30.,-31.1857894516247,25.5));
#1462=CARTESIAN_POINT('Origin',(-18.3750004210187,-29.092895455038,51.));
#1463=CARTESIAN_POINT('',(-18.3750004210187,-29.092895455038,51.));
#1464=CARTESIAN_POINT('',(-22.0000008420373,-31.1857894516247,51.));
#1465=CARTESIAN_POINT('',(-18.3750004210187,-29.092895455038,26.));
#1466=CARTESIAN_POINT('',(-18.3750004210187,-29.092895455038,51.));
#1467=CARTESIAN_POINT('',(-22.0000008420373,-31.1857894516247,26.));
#1468=CARTESIAN_POINT('Origin',(-18.3749995789814,-24.9071060034133,51.));
#1469=CARTESIAN_POINT('',(-18.3750004210187,-29.092895455038,51.));
#1470=CARTESIAN_POINT('',(-18.3750004210187,-29.092895455038,26.));
#1471=CARTESIAN_POINT('Origin',(-24.1874997894907,-27.,51.));
#1472=CARTESIAN_POINT('',(-30.,4.,51.));
#1473=CARTESIAN_POINT('Origin',(-24.1874997894907,-27.,26.));
#1474=CARTESIAN_POINT('',(-30.,4.,26.));
#1475=CARTESIAN_POINT('Origin',(22.,-27.,57.));
#1476=CARTESIAN_POINT('',(24.14,-27.,57.));
#1477=CARTESIAN_POINT('Origin',(22.,-27.,57.));
#1478=CARTESIAN_POINT('',(24.14,-27.,51.));
#1479=CARTESIAN_POINT('',(24.14,-27.,57.));
#1480=CARTESIAN_POINT('Origin',(22.,-27.,51.));
#1481=CARTESIAN_POINT('Origin',(18.375,-29.0928947258124,51.));
#1482=CARTESIAN_POINT('',(18.375,-24.9071052741876,51.));
#1483=CARTESIAN_POINT('',(18.375,-29.0928947258124,51.));
#1484=CARTESIAN_POINT('',(18.375,-24.9071052741876,51.));
#1485=CARTESIAN_POINT('',(18.375,-29.0928947258124,26.));
#1486=CARTESIAN_POINT('',(18.375,-29.0928947258124,51.));
#1487=CARTESIAN_POINT('',(18.375,-24.9071052741876,26.));
#1488=CARTESIAN_POINT('',(18.375,-24.9071052741876,26.));
#1489=CARTESIAN_POINT('',(18.375,-24.9071052741876,51.));
#1490=CARTESIAN_POINT('Origin',(22.,-31.1857894516248,51.));
#1491=CARTESIAN_POINT('',(22.,-31.1857894516248,51.));
#1492=CARTESIAN_POINT('',(18.375,-29.0928947258124,51.));
#1493=CARTESIAN_POINT('',(22.,-31.1857894516248,26.));
#1494=CARTESIAN_POINT('',(22.,-31.1857894516248,51.));
#1495=CARTESIAN_POINT('',(18.375,-29.0928947258124,26.));
#1496=CARTESIAN_POINT('Origin',(30.,-31.1857894516248,51.));
#1497=CARTESIAN_POINT('',(30.,-31.1857894516248,51.));
#1498=CARTESIAN_POINT('',(22.,-31.1857894516248,51.));
#1499=CARTESIAN_POINT('',(30.,-31.1857894516248,26.));
#1500=CARTESIAN_POINT('',(30.,-31.1857894516248,25.5));
#1501=CARTESIAN_POINT('',(22.,-31.1857894516248,26.));
#1502=CARTESIAN_POINT('Origin',(22.,-22.8142105483752,51.));
#1503=CARTESIAN_POINT('',(22.,-22.8142105483752,51.));
#1504=CARTESIAN_POINT('',(30.,-22.8142105483752,51.));
#1505=CARTESIAN_POINT('',(22.,-22.8142105483752,51.));
#1506=CARTESIAN_POINT('',(22.,-22.8142105483752,26.));
#1507=CARTESIAN_POINT('',(22.,-22.8142105483752,51.));
#1508=CARTESIAN_POINT('',(30.,-22.8142105483752,26.));
#1509=CARTESIAN_POINT('',(22.,-22.8142105483752,26.));
#1510=CARTESIAN_POINT('',(30.,-22.8142105483752,25.5));
#1511=CARTESIAN_POINT('Origin',(18.375,-24.9071052741876,51.));
#1512=CARTESIAN_POINT('',(22.,-22.8142105483752,51.));
#1513=CARTESIAN_POINT('',(22.,-22.8142105483752,26.));
#1514=CARTESIAN_POINT('Origin',(24.1875,-27.,51.));
#1515=CARTESIAN_POINT('',(30.,-31.,51.));
#1516=CARTESIAN_POINT('Origin',(24.1875,-27.,26.));
#1517=CARTESIAN_POINT('',(30.,-31.,26.));
#1518=CARTESIAN_POINT('Origin',(-14.,-35.,12.));
#1519=CARTESIAN_POINT('',(-14.,-19.,12.));
#1520=CARTESIAN_POINT('',(-14.,-35.,12.));
#1521=CARTESIAN_POINT('',(-14.,-17.5,12.));
#1522=CARTESIAN_POINT('',(-14.,-19.,57.));
#1523=CARTESIAN_POINT('',(-14.,-19.,12.));
#1524=CARTESIAN_POINT('',(-14.,-35.,57.));
#1525=CARTESIAN_POINT('',(-14.,-35.,57.));
#1526=CARTESIAN_POINT('',(-14.,-35.,12.));
#1527=CARTESIAN_POINT('Origin',(-14.,-19.,12.));
#1528=CARTESIAN_POINT('',(-30.,-19.,12.));
#1529=CARTESIAN_POINT('',(-7.,-19.,12.));
#1530=CARTESIAN_POINT('',(-30.,-19.,57.));
#1531=CARTESIAN_POINT('',(-30.,-19.,12.));
#1532=CARTESIAN_POINT('',(-14.,-19.,57.));
#1533=CARTESIAN_POINT('Origin',(-22.,-27.,57.));
#1534=CARTESIAN_POINT('',(-30.,-35.,57.));
#1535=CARTESIAN_POINT('',(-30.,-19.,57.));
#1536=CARTESIAN_POINT('',(-30.,-35.,57.));
#1537=CARTESIAN_POINT('Origin',(0.,0.,12.));
#1538=CARTESIAN_POINT('',(-3.99999999999999,-35.,12.));
#1539=CARTESIAN_POINT('',(30.,-35.,12.));
#1540=CARTESIAN_POINT('',(-4.,-5.422,12.));
#1541=CARTESIAN_POINT('',(-4.,-5.422,12.));
#1542=CARTESIAN_POINT('',(-7.59999999999999,-5.422,12.));
#1543=CARTESIAN_POINT('',(-7.59999999999999,-5.422,12.));
#1544=CARTESIAN_POINT('',(-7.6,0.123143137300001,12.));
#1545=CARTESIAN_POINT('',(-7.59999999999999,-5.422,12.));
#1546=CARTESIAN_POINT('',(7.60000000000001,0.123143137300001,12.));
#1547=CARTESIAN_POINT('Origin',(8.51889125404934E-15,11.9995904175265,12.));
#1548=CARTESIAN_POINT('',(7.60000000000001,-5.422,12.));
#1549=CARTESIAN_POINT('',(7.60000000000001,-5.422,12.));
#1550=CARTESIAN_POINT('',(4.,-5.422,12.));
#1551=CARTESIAN_POINT('',(-7.59999999999999,-5.422,12.));
#1552=CARTESIAN_POINT('',(4.,-35.,12.));
#1553=CARTESIAN_POINT('',(4.,-5.422,12.));
#1554=CARTESIAN_POINT('',(14.,-35.,12.));
#1555=CARTESIAN_POINT('',(30.,-35.,12.));
#1556=CARTESIAN_POINT('',(14.,-19.,12.));
#1557=CARTESIAN_POINT('',(14.,-9.5,12.));
#1558=CARTESIAN_POINT('',(30.,-19.,12.));
#1559=CARTESIAN_POINT('',(15.,-19.,12.));
#1560=CARTESIAN_POINT('',(30.,35.,12.));
#1561=CARTESIAN_POINT('',(30.,35.,12.));
#1562=CARTESIAN_POINT('',(-30.,35.,12.));
#1563=CARTESIAN_POINT('',(-30.,35.,12.));
#1564=CARTESIAN_POINT('',(-30.,-35.,12.));
#1565=CARTESIAN_POINT('Origin',(30.,-19.,12.));
#1566=CARTESIAN_POINT('',(14.,-19.,57.));
#1567=CARTESIAN_POINT('',(14.,-19.,12.));
#1568=CARTESIAN_POINT('',(30.,-19.,57.));
#1569=CARTESIAN_POINT('',(14.,-19.,57.));
#1570=CARTESIAN_POINT('',(30.,-19.,12.));
#1571=CARTESIAN_POINT('Origin',(14.,-19.,12.));
#1572=CARTESIAN_POINT('',(14.,-35.,57.));
#1573=CARTESIAN_POINT('',(14.,-35.,12.));
#1574=CARTESIAN_POINT('',(14.,-35.,57.));
#1575=CARTESIAN_POINT('Origin',(22.,-27.,57.));
#1576=CARTESIAN_POINT('',(30.,-35.,57.));
#1577=CARTESIAN_POINT('',(30.,-35.,57.));
#1578=CARTESIAN_POINT('',(30.,-19.,57.));
#1579=CARTESIAN_POINT('Origin',(4.44089209850063E-15,-20.211,9.));
#1580=CARTESIAN_POINT('',(4.,-5.422,9.));
#1581=CARTESIAN_POINT('',(-4.,-5.422,9.));
#1582=CARTESIAN_POINT('',(-7.59999999999999,-5.422,9.));
#1583=CARTESIAN_POINT('',(-3.99999999999999,-35.,9.));
#1584=CARTESIAN_POINT('',(-4.,-27.6055,9.));
#1585=CARTESIAN_POINT('',(4.,-35.,9.));
#1586=CARTESIAN_POINT('',(30.,-35.,9.));
#1587=CARTESIAN_POINT('',(4.,-12.8165,9.));
#1588=CARTESIAN_POINT('Origin',(4.,-5.422,0.));
#1589=CARTESIAN_POINT('',(4.,-35.,0.));
#1590=CARTESIAN_POINT('',(4.,-5.422,0.));
#1591=CARTESIAN_POINT('Origin',(-4.,-35.,0.));
#1592=CARTESIAN_POINT('',(-4.,-5.422,0.));
#1593=CARTESIAN_POINT('',(-3.99999999999999,-35.,0.));
#1594=CARTESIAN_POINT('Origin',(7.60000000000001,-5.422,0.));
#1595=CARTESIAN_POINT('',(-7.59999999999999,-5.422,0.));
#1596=CARTESIAN_POINT('',(7.60000000000001,-5.422,0.));
#1597=CARTESIAN_POINT('Origin',(7.60000000000001,0.123143137300001,0.));
#1598=CARTESIAN_POINT('',(7.60000000000001,0.123143137300001,0.));
#1599=CARTESIAN_POINT('Origin',(8.51889125404934E-15,11.9995904175265,0.));
#1600=CARTESIAN_POINT('',(-7.6,0.123143137300001,0.));
#1601=CARTESIAN_POINT('Origin',(-7.59999999999999,-5.422,0.));
#1602=CARTESIAN_POINT('Origin',(-30.,35.,0.));
#1603=CARTESIAN_POINT('',(-30.,-35.,0.));
#1604=CARTESIAN_POINT('',(-30.,35.,0.));
#1605=CARTESIAN_POINT('Origin',(30.,35.,0.));
#1606=CARTESIAN_POINT('',(30.,35.,0.));
#1607=CARTESIAN_POINT('Origin',(30.,-35.,0.));
#1608=CARTESIAN_POINT('',(30.,-35.,0.));
#1609=CARTESIAN_POINT('Origin',(4.,-35.,0.));
#1610=UNCERTAINTY_MEASURE_WITH_UNIT(LENGTH_MEASURE(0.01),#1614,
'DISTANCE_ACCURACY_VALUE',
'Maximum model space distance between geometric entities at asserted c
onnectivities');
#1611=UNCERTAINTY_MEASURE_WITH_UNIT(LENGTH_MEASURE(0.01),#1614,
'DISTANCE_ACCURACY_VALUE',
'Maximum model space distance between geometric entities at asserted c
onnectivities');
#1612=(
GEOMETRIC_REPRESENTATION_CONTEXT(3)
GLOBAL_UNCERTAINTY_ASSIGNED_CONTEXT((#1610))
GLOBAL_UNIT_ASSIGNED_CONTEXT((#1614,#1616,#1617))
REPRESENTATION_CONTEXT('','3D')
);
#1613=(
GEOMETRIC_REPRESENTATION_CONTEXT(3)
GLOBAL_UNCERTAINTY_ASSIGNED_CONTEXT((#1611))
GLOBAL_UNIT_ASSIGNED_CONTEXT((#1614,#1616,#1617))
REPRESENTATION_CONTEXT('','3D')
);
#1614=(
LENGTH_UNIT()
NAMED_UNIT(*)
SI_UNIT(.MILLI.,.METRE.)
);
#1615=(
LENGTH_UNIT()
NAMED_UNIT(*)
SI_UNIT($,.METRE.)
);
#1616=(
NAMED_UNIT(*)
PLANE_ANGLE_UNIT()
SI_UNIT($,.RADIAN.)
);
#1617=(
NAMED_UNIT(*)
SI_UNIT($,.STERADIAN.)
SOLID_ANGLE_UNIT()
);
#1618=SHAPE_DEFINITION_REPRESENTATION(#1619,#1620);
#1619=PRODUCT_DEFINITION_SHAPE('',$,#1622);
#1620=SHAPE_REPRESENTATION('',(#1014),#1612);
#1621=PRODUCT_DEFINITION_CONTEXT('part definition',#1626,'design');
#1622=PRODUCT_DEFINITION('05 - PRIMARY SUPPORT MECHANISM ( LEFT SIDE )',
'05 - PRIMARY SUPPORT MECHANISM ( LEFT SIDE ) v6',#1623,#1621);
#1623=PRODUCT_DEFINITION_FORMATION('',$,#1628);
#1624=PRODUCT_RELATED_PRODUCT_CATEGORY(
'05 - PRIMARY SUPPORT MECHANISM ( LEFT SIDE ) v6',
'05 - PRIMARY SUPPORT MECHANISM ( LEFT SIDE ) v6',(#1628));
#1625=APPLICATION_PROTOCOL_DEFINITION('international standard',
'automotive_design',2009,#1626);
#1626=APPLICATION_CONTEXT(
'Core Data for Automotive Mechanical Design Process');
#1627=PRODUCT_CONTEXT('part definition',#1626,'mechanical');
#1628=PRODUCT('05 - PRIMARY SUPPORT MECHANISM ( LEFT SIDE )',
'05 - PRIMARY SUPPORT MECHANISM ( LEFT SIDE ) v6',$,(#1627));
#1629=PRESENTATION_STYLE_ASSIGNMENT((#1630));
#1630=SURFACE_STYLE_USAGE(.BOTH.,#1631);
#1631=SURFACE_SIDE_STYLE('',(#1632));
#1632=SURFACE_STYLE_FILL_AREA(#1633);
#1633=FILL_AREA_STYLE('Steel - Satin',(#1634));
#1634=FILL_AREA_STYLE_COLOUR('Steel - Satin',#1635);
#1635=COLOUR_RGB('Steel - Satin',0.627450980392157,0.627450980392157,0.627450980392157);
ENDSEC;
END-ISO-10303-21;
