ISO-10303-21;
HEADER;
/* Generated by software containing ST-Developer
 * from STEP Tools, Inc. (www.steptools.com) 
 */

FILE_DESCRIPTION(
/* description */ (''),
/* implementation_level */ '2;1');

FILE_NAME(
/* name */ '07 - DIFFERENTIALGEAR MECHANISM BASE.step',
/* time_stamp */ '2026-10-08T17:01:37+05:30',
/* author */ (''),
/* organization */ (''),
/* preprocessor_version */ 'ST-DEVELOPER v20.2',
/* originating_system */ 'Autodesk Translation Framework v15.15.0.0',
/* authorisation */ '');

FILE_SCHEMA (('AUTOMOTIVE_DESIGN { 1 0 10303 214 3 1 1 }'));
ENDSEC;

DATA;
#10=MECHANICAL_DESIGN_GEOMETRIC_PRESENTATION_REPRESENTATION('',(#23,#24),
#2030);
#11=ITEM_DEFINED_TRANSFORMATION($,$,#1291,#1356);
#12=ITEM_DEFINED_TRANSFORMATION($,$,#1349,#1357);
#13=(
REPRESENTATION_RELATIONSHIP($,$,#2044,#2043)
REPRESENTATION_RELATIONSHIP_WITH_TRANSFORMATION(#11)
SHAPE_REPRESENTATION_RELATIONSHIP()
);
#14=(
REPRESENTATION_RELATIONSHIP($,$,#2045,#2043)
REPRESENTATION_RELATIONSHIP_WITH_TRANSFORMATION(#12)
SHAPE_REPRESENTATION_RELATIONSHIP()
);
#15=CONTEXT_DEPENDENT_SHAPE_REPRESENTATION(#13,#2041);
#16=CONTEXT_DEPENDENT_SHAPE_REPRESENTATION(#14,#2042);
#17=NEXT_ASSEMBLY_USAGE_OCCURRENCE(
'01 - DIFFERENTIAL GEAR MECHANISM BASE:1',
'01 - DIFFERENTIAL GEAR MECHANISM BASE:1',
'01 - DIFFERENTIAL GEAR MECHANISM BASE:1',#2047,#2048,
'01 - DIFFERENTIAL GEAR MECHANISM BASE:1');
#18=NEXT_ASSEMBLY_USAGE_OCCURRENCE(
'02 - DIFFERENTIAL GEAR MECHANISM CAP:1',
'02 - DIFFERENTIAL GEAR MECHANISM CAP:1',
'02 - DIFFERENTIAL GEAR MECHANISM CAP:1',#2047,#2049,
'02 - DIFFERENTIAL GEAR MECHANISM CAP:1');
#19=SHAPE_REPRESENTATION_RELATIONSHIP('SRR','None',#2044,#21);
#20=SHAPE_REPRESENTATION_RELATIONSHIP('SRR','None',#2045,#22);
#21=ADVANCED_BREP_SHAPE_REPRESENTATION('',(#25),#2028);
#22=ADVANCED_BREP_SHAPE_REPRESENTATION('',(#26),#2029);
#23=STYLED_ITEM('',(#2062),#25);
#24=STYLED_ITEM('',(#2062),#26);
#25=MANIFOLD_SOLID_BREP('01 - DIFFERENTIAL GEAR MECHANISM BASE',#1265);
#26=MANIFOLD_SOLID_BREP('Body1',#1266);
#27=FACE_BOUND('',#102,.T.);
#28=FACE_BOUND('',#142,.T.);
#29=FACE_BOUND('',#144,.T.);
#30=FACE_OUTER_BOUND('',#93,.T.);
#31=FACE_OUTER_BOUND('',#94,.T.);
#32=FACE_OUTER_BOUND('',#95,.T.);
#33=FACE_OUTER_BOUND('',#96,.T.);
#34=FACE_OUTER_BOUND('',#97,.T.);
#35=FACE_OUTER_BOUND('',#98,.T.);
#36=FACE_OUTER_BOUND('',#99,.T.);
#37=FACE_OUTER_BOUND('',#100,.T.);
#38=FACE_OUTER_BOUND('',#101,.T.);
#39=FACE_OUTER_BOUND('',#103,.T.);
#40=FACE_OUTER_BOUND('',#104,.T.);
#41=FACE_OUTER_BOUND('',#105,.T.);
#42=FACE_OUTER_BOUND('',#106,.T.);
#43=FACE_OUTER_BOUND('',#107,.T.);
#44=FACE_OUTER_BOUND('',#108,.T.);
#45=FACE_OUTER_BOUND('',#109,.T.);
#46=FACE_OUTER_BOUND('',#110,.T.);
#47=FACE_OUTER_BOUND('',#111,.T.);
#48=FACE_OUTER_BOUND('',#112,.T.);
#49=FACE_OUTER_BOUND('',#113,.T.);
#50=FACE_OUTER_BOUND('',#114,.T.);
#51=FACE_OUTER_BOUND('',#115,.T.);
#52=FACE_OUTER_BOUND('',#116,.T.);
#53=FACE_OUTER_BOUND('',#117,.T.);
#54=FACE_OUTER_BOUND('',#118,.T.);
#55=FACE_OUTER_BOUND('',#119,.T.);
#56=FACE_OUTER_BOUND('',#120,.T.);
#57=FACE_OUTER_BOUND('',#121,.T.);
#58=FACE_OUTER_BOUND('',#122,.T.);
#59=FACE_OUTER_BOUND('',#123,.T.);
#60=FACE_OUTER_BOUND('',#124,.T.);
#61=FACE_OUTER_BOUND('',#125,.T.);
#62=FACE_OUTER_BOUND('',#126,.T.);
#63=FACE_OUTER_BOUND('',#127,.T.);
#64=FACE_OUTER_BOUND('',#128,.T.);
#65=FACE_OUTER_BOUND('',#129,.T.);
#66=FACE_OUTER_BOUND('',#130,.T.);
#67=FACE_OUTER_BOUND('',#131,.T.);
#68=FACE_OUTER_BOUND('',#132,.T.);
#69=FACE_OUTER_BOUND('',#133,.T.);
#70=FACE_OUTER_BOUND('',#134,.T.);
#71=FACE_OUTER_BOUND('',#135,.T.);
#72=FACE_OUTER_BOUND('',#136,.T.);
#73=FACE_OUTER_BOUND('',#137,.T.);
#74=FACE_OUTER_BOUND('',#138,.T.);
#75=FACE_OUTER_BOUND('',#139,.T.);
#76=FACE_OUTER_BOUND('',#140,.T.);
#77=FACE_OUTER_BOUND('',#141,.T.);
#78=FACE_OUTER_BOUND('',#143,.T.);
#79=FACE_OUTER_BOUND('',#145,.T.);
#80=FACE_OUTER_BOUND('',#146,.T.);
#81=FACE_OUTER_BOUND('',#147,.T.);
#82=FACE_OUTER_BOUND('',#148,.T.);
#83=FACE_OUTER_BOUND('',#149,.T.);
#84=FACE_OUTER_BOUND('',#150,.T.);
#85=FACE_OUTER_BOUND('',#151,.T.);
#86=FACE_OUTER_BOUND('',#152,.T.);
#87=FACE_OUTER_BOUND('',#153,.T.);
#88=FACE_OUTER_BOUND('',#154,.T.);
#89=FACE_OUTER_BOUND('',#155,.T.);
#90=FACE_OUTER_BOUND('',#156,.T.);
#91=FACE_OUTER_BOUND('',#157,.T.);
#92=FACE_OUTER_BOUND('',#158,.T.);
#93=EDGE_LOOP('',(#793,#794,#795,#796));
#94=EDGE_LOOP('',(#797,#798,#799,#800));
#95=EDGE_LOOP('',(#801,#802,#803,#804));
#96=EDGE_LOOP('',(#805,#806,#807,#808));
#97=EDGE_LOOP('',(#809,#810,#811,#812));
#98=EDGE_LOOP('',(#813,#814,#815,#816));
#99=EDGE_LOOP('',(#817,#818,#819,#820));
#100=EDGE_LOOP('',(#821,#822,#823,#824));
#101=EDGE_LOOP('',(#825,#826,#827,#828,#829,#830,#831,#832,#833,#834,#835,
#836,#837,#838,#839,#840,#841,#842,#843,#844,#845,#846,#847,#848,#849,#850,
#851,#852));
#102=EDGE_LOOP('',(#853,#854,#855,#856));
#103=EDGE_LOOP('',(#857,#858,#859,#860,#861,#862,#863,#864));
#104=EDGE_LOOP('',(#865,#866,#867,#868));
#105=EDGE_LOOP('',(#869,#870,#871,#872));
#106=EDGE_LOOP('',(#873,#874,#875,#876,#877,#878));
#107=EDGE_LOOP('',(#879,#880,#881,#882));
#108=EDGE_LOOP('',(#883,#884,#885,#886));
#109=EDGE_LOOP('',(#887,#888,#889,#890,#891,#892));
#110=EDGE_LOOP('',(#893,#894,#895,#896));
#111=EDGE_LOOP('',(#897,#898,#899,#900));
#112=EDGE_LOOP('',(#901,#902,#903,#904));
#113=EDGE_LOOP('',(#905,#906,#907,#908));
#114=EDGE_LOOP('',(#909,#910,#911,#912,#913,#914,#915,#916,#917,#918,#919,
#920));
#115=EDGE_LOOP('',(#921,#922,#923,#924,#925,#926));
#116=EDGE_LOOP('',(#927,#928,#929,#930));
#117=EDGE_LOOP('',(#931,#932,#933,#934,#935,#936,#937,#938,#939,#940,#941));
#118=EDGE_LOOP('',(#942,#943,#944,#945));
#119=EDGE_LOOP('',(#946,#947,#948,#949,#950,#951));
#120=EDGE_LOOP('',(#952,#953,#954,#955));
#121=EDGE_LOOP('',(#956,#957,#958,#959));
#122=EDGE_LOOP('',(#960,#961,#962,#963));
#123=EDGE_LOOP('',(#964,#965,#966,#967));
#124=EDGE_LOOP('',(#968,#969,#970,#971));
#125=EDGE_LOOP('',(#972,#973,#974,#975,#976,#977));
#126=EDGE_LOOP('',(#978,#979,#980,#981));
#127=EDGE_LOOP('',(#982,#983,#984,#985));
#128=EDGE_LOOP('',(#986,#987,#988,#989));
#129=EDGE_LOOP('',(#990,#991,#992,#993));
#130=EDGE_LOOP('',(#994,#995,#996,#997,#998,#999));
#131=EDGE_LOOP('',(#1000,#1001,#1002,#1003,#1004,#1005,#1006,#1007));
#132=EDGE_LOOP('',(#1008,#1009,#1010,#1011));
#133=EDGE_LOOP('',(#1012,#1013,#1014,#1015));
#134=EDGE_LOOP('',(#1016,#1017,#1018,#1019));
#135=EDGE_LOOP('',(#1020,#1021,#1022,#1023,#1024,#1025,#1026,#1027));
#136=EDGE_LOOP('',(#1028,#1029,#1030,#1031));
#137=EDGE_LOOP('',(#1032,#1033,#1034,#1035));
#138=EDGE_LOOP('',(#1036,#1037,#1038,#1039));
#139=EDGE_LOOP('',(#1040,#1041,#1042,#1043,#1044,#1045,#1046));
#140=EDGE_LOOP('',(#1047,#1048,#1049,#1050,#1051,#1052,#1053,#1054));
#141=EDGE_LOOP('',(#1055,#1056,#1057,#1058,#1059,#1060,#1061,#1062));
#142=EDGE_LOOP('',(#1063,#1064,#1065,#1066,#1067,#1068,#1069,#1070));
#143=EDGE_LOOP('',(#1071,#1072,#1073,#1074));
#144=EDGE_LOOP('',(#1075,#1076,#1077,#1078));
#145=EDGE_LOOP('',(#1079,#1080,#1081,#1082));
#146=EDGE_LOOP('',(#1083,#1084,#1085,#1086));
#147=EDGE_LOOP('',(#1087,#1088,#1089,#1090));
#148=EDGE_LOOP('',(#1091,#1092,#1093,#1094));
#149=EDGE_LOOP('',(#1095,#1096,#1097,#1098));
#150=EDGE_LOOP('',(#1099,#1100,#1101,#1102));
#151=EDGE_LOOP('',(#1103,#1104,#1105,#1106));
#152=EDGE_LOOP('',(#1107,#1108,#1109,#1110,#1111,#1112,#1113,#1114));
#153=EDGE_LOOP('',(#1115,#1116,#1117,#1118));
#154=EDGE_LOOP('',(#1119,#1120,#1121,#1122));
#155=EDGE_LOOP('',(#1123,#1124,#1125,#1126));
#156=EDGE_LOOP('',(#1127,#1128,#1129,#1130));
#157=EDGE_LOOP('',(#1131,#1132,#1133,#1134));
#158=EDGE_LOOP('',(#1135,#1136,#1137,#1138));
#159=LINE('',#1672,#332);
#160=LINE('',#1674,#333);
#161=LINE('',#1676,#334);
#162=LINE('',#1677,#335);
#163=LINE('',#1680,#336);
#164=LINE('',#1682,#337);
#165=LINE('',#1683,#338);
#166=LINE('',#1686,#339);
#167=LINE('',#1688,#340);
#168=LINE('',#1689,#341);
#169=LINE('',#1691,#342);
#170=LINE('',#1692,#343);
#171=LINE('',#1697,#344);
#172=LINE('',#1699,#345);
#173=LINE('',#1701,#346);
#174=LINE('',#1702,#347);
#175=LINE('',#1705,#348);
#176=LINE('',#1707,#349);
#177=LINE('',#1708,#350);
#178=LINE('',#1711,#351);
#179=LINE('',#1712,#352);
#180=LINE('',#1715,#353);
#181=LINE('',#1717,#354);
#182=LINE('',#1719,#355);
#183=LINE('',#1721,#356);
#184=LINE('',#1723,#357);
#185=LINE('',#1725,#358);
#186=LINE('',#1727,#359);
#187=LINE('',#1729,#360);
#188=LINE('',#1731,#361);
#189=LINE('',#1733,#362);
#190=LINE('',#1735,#363);
#191=LINE('',#1737,#364);
#192=LINE('',#1739,#365);
#193=LINE('',#1741,#366);
#194=LINE('',#1743,#367);
#195=LINE('',#1745,#368);
#196=LINE('',#1747,#369);
#197=LINE('',#1749,#370);
#198=LINE('',#1751,#371);
#199=LINE('',#1753,#372);
#200=LINE('',#1755,#373);
#201=LINE('',#1757,#374);
#202=LINE('',#1759,#375);
#203=LINE('',#1761,#376);
#204=LINE('',#1763,#377);
#205=LINE('',#1764,#378);
#206=LINE('',#1767,#379);
#207=LINE('',#1769,#380);
#208=LINE('',#1771,#381);
#209=LINE('',#1773,#382);
#210=LINE('',#1774,#383);
#211=LINE('',#1777,#384);
#212=LINE('',#1779,#385);
#213=LINE('',#1780,#386);
#214=LINE('',#1784,#387);
#215=LINE('',#1785,#388);
#216=LINE('',#1786,#389);
#217=LINE('',#1789,#390);
#218=LINE('',#1791,#391);
#219=LINE('',#1793,#392);
#220=LINE('',#1795,#393);
#221=LINE('',#1796,#394);
#222=LINE('',#1799,#395);
#223=LINE('',#1800,#396);
#224=LINE('',#1803,#397);
#225=LINE('',#1804,#398);
#226=LINE('',#1807,#399);
#227=LINE('',#1809,#400);
#228=LINE('',#1811,#401);
#229=LINE('',#1812,#402);
#230=LINE('',#1815,#403);
#231=LINE('',#1817,#404);
#232=LINE('',#1818,#405);
#233=LINE('',#1821,#406);
#234=LINE('',#1822,#407);
#235=LINE('',#1825,#408);
#236=LINE('',#1826,#409);
#237=LINE('',#1828,#410);
#238=LINE('',#1831,#411);
#239=LINE('',#1833,#412);
#240=LINE('',#1835,#413);
#241=LINE('',#1836,#414);
#242=LINE('',#1839,#415);
#243=LINE('',#1840,#416);
#244=LINE('',#1843,#417);
#245=LINE('',#1844,#418);
#246=LINE('',#1847,#419);
#247=LINE('',#1849,#420);
#248=LINE('',#1851,#421);
#249=LINE('',#1852,#422);
#250=LINE('',#1854,#423);
#251=LINE('',#1856,#424);
#252=LINE('',#1858,#425);
#253=LINE('',#1859,#426);
#254=LINE('',#1862,#427);
#255=LINE('',#1864,#428);
#256=LINE('',#1865,#429);
#257=LINE('',#1867,#430);
#258=LINE('',#1869,#431);
#259=LINE('',#1872,#432);
#260=LINE('',#1873,#433);
#261=LINE('',#1876,#434);
#262=LINE('',#1878,#435);
#263=LINE('',#1879,#436);
#264=LINE('',#1882,#437);
#265=LINE('',#1883,#438);
#266=LINE('',#1885,#439);
#267=LINE('',#1887,#440);
#268=LINE('',#1890,#441);
#269=LINE('',#1892,#442);
#270=LINE('',#1893,#443);
#271=LINE('',#1896,#444);
#272=LINE('',#1897,#445);
#273=LINE('',#1900,#446);
#274=LINE('',#1902,#447);
#275=LINE('',#1903,#448);
#276=LINE('',#1905,#449);
#277=LINE('',#1908,#450);
#278=LINE('',#1909,#451);
#279=LINE('',#1912,#452);
#280=LINE('',#1913,#453);
#281=LINE('',#1916,#454);
#282=LINE('',#1918,#455);
#283=LINE('',#1919,#456);
#284=LINE('',#1921,#457);
#285=LINE('',#1923,#458);
#286=LINE('',#1925,#459);
#287=LINE('',#1929,#460);
#288=LINE('',#1930,#461);
#289=LINE('',#1931,#462);
#290=LINE('',#1934,#463);
#291=LINE('',#1935,#464);
#292=LINE('',#1938,#465);
#293=LINE('',#1939,#466);
#294=LINE('',#1941,#467);
#295=LINE('',#1943,#468);
#296=LINE('',#1947,#469);
#297=LINE('',#1949,#470);
#298=LINE('',#1951,#471);
#299=LINE('',#1953,#472);
#300=LINE('',#1955,#473);
#301=LINE('',#1957,#474);
#302=LINE('',#1959,#475);
#303=LINE('',#1960,#476);
#304=LINE('',#1964,#477);
#305=LINE('',#1965,#478);
#306=LINE('',#1966,#479);
#307=LINE('',#1969,#480);
#308=LINE('',#1970,#481);
#309=LINE('',#1973,#482);
#310=LINE('',#1974,#483);
#311=LINE('',#1977,#484);
#312=LINE('',#1978,#485);
#313=LINE('',#1981,#486);
#314=LINE('',#1982,#487);
#315=LINE('',#1985,#488);
#316=LINE('',#1986,#489);
#317=LINE('',#1989,#490);
#318=LINE('',#1990,#491);
#319=LINE('',#1992,#492);
#320=LINE('',#1998,#493);
#321=LINE('',#2000,#494);
#322=LINE('',#2002,#495);
#323=LINE('',#2003,#496);
#324=LINE('',#2006,#497);
#325=LINE('',#2008,#498);
#326=LINE('',#2009,#499);
#327=LINE('',#2012,#500);
#328=LINE('',#2014,#501);
#329=LINE('',#2015,#502);
#330=LINE('',#2017,#503);
#331=LINE('',#2018,#504);
#332=VECTOR('',#1364,10.);
#333=VECTOR('',#1365,10.);
#334=VECTOR('',#1366,10.);
#335=VECTOR('',#1367,10.);
#336=VECTOR('',#1370,10.);
#337=VECTOR('',#1371,10.);
#338=VECTOR('',#1372,10.);
#339=VECTOR('',#1375,10.);
#340=VECTOR('',#1376,10.);
#341=VECTOR('',#1377,10.);
#342=VECTOR('',#1380,10.);
#343=VECTOR('',#1381,10.);
#344=VECTOR('',#1386,10.);
#345=VECTOR('',#1387,10.);
#346=VECTOR('',#1388,10.);
#347=VECTOR('',#1389,10.);
#348=VECTOR('',#1392,10.);
#349=VECTOR('',#1393,10.);
#350=VECTOR('',#1394,10.);
#351=VECTOR('',#1397,10.);
#352=VECTOR('',#1398,10.);
#353=VECTOR('',#1401,10.);
#354=VECTOR('',#1402,10.);
#355=VECTOR('',#1403,10.);
#356=VECTOR('',#1404,10.);
#357=VECTOR('',#1405,10.);
#358=VECTOR('',#1406,10.);
#359=VECTOR('',#1407,10.);
#360=VECTOR('',#1408,10.);
#361=VECTOR('',#1409,10.);
#362=VECTOR('',#1410,10.);
#363=VECTOR('',#1411,10.);
#364=VECTOR('',#1412,10.);
#365=VECTOR('',#1413,10.);
#366=VECTOR('',#1414,10.);
#367=VECTOR('',#1415,10.);
#368=VECTOR('',#1416,10.);
#369=VECTOR('',#1417,10.);
#370=VECTOR('',#1418,10.);
#371=VECTOR('',#1419,10.);
#372=VECTOR('',#1420,10.);
#373=VECTOR('',#1421,10.);
#374=VECTOR('',#1422,10.);
#375=VECTOR('',#1423,10.);
#376=VECTOR('',#1424,10.);
#377=VECTOR('',#1425,10.);
#378=VECTOR('',#1426,10.);
#379=VECTOR('',#1429,10.);
#380=VECTOR('',#1430,10.);
#381=VECTOR('',#1431,10.);
#382=VECTOR('',#1432,10.);
#383=VECTOR('',#1433,10.);
#384=VECTOR('',#1436,10.);
#385=VECTOR('',#1437,10.);
#386=VECTOR('',#1438,10.);
#387=VECTOR('',#1441,10.);
#388=VECTOR('',#1442,10.);
#389=VECTOR('',#1443,10.);
#390=VECTOR('',#1446,10.);
#391=VECTOR('',#1447,10.);
#392=VECTOR('',#1448,10.);
#393=VECTOR('',#1449,10.);
#394=VECTOR('',#1450,10.);
#395=VECTOR('',#1453,10.);
#396=VECTOR('',#1454,10.);
#397=VECTOR('',#1457,10.);
#398=VECTOR('',#1458,10.);
#399=VECTOR('',#1461,10.);
#400=VECTOR('',#1462,10.);
#401=VECTOR('',#1463,10.);
#402=VECTOR('',#1464,10.);
#403=VECTOR('',#1467,10.);
#404=VECTOR('',#1468,10.);
#405=VECTOR('',#1469,10.);
#406=VECTOR('',#1472,10.);
#407=VECTOR('',#1473,10.);
#408=VECTOR('',#1476,10.);
#409=VECTOR('',#1477,10.);
#410=VECTOR('',#1480,10.);
#411=VECTOR('',#1483,10.);
#412=VECTOR('',#1484,10.);
#413=VECTOR('',#1485,10.);
#414=VECTOR('',#1486,10.);
#415=VECTOR('',#1489,10.);
#416=VECTOR('',#1490,10.);
#417=VECTOR('',#1493,10.);
#418=VECTOR('',#1494,10.);
#419=VECTOR('',#1497,10.);
#420=VECTOR('',#1498,10.);
#421=VECTOR('',#1499,10.);
#422=VECTOR('',#1500,10.);
#423=VECTOR('',#1501,10.);
#424=VECTOR('',#1502,10.);
#425=VECTOR('',#1503,10.);
#426=VECTOR('',#1504,10.);
#427=VECTOR('',#1507,10.);
#428=VECTOR('',#1508,10.);
#429=VECTOR('',#1509,10.);
#430=VECTOR('',#1512,10.);
#431=VECTOR('',#1515,10.);
#432=VECTOR('',#1518,10.);
#433=VECTOR('',#1519,10.);
#434=VECTOR('',#1522,10.);
#435=VECTOR('',#1523,10.);
#436=VECTOR('',#1524,10.);
#437=VECTOR('',#1527,10.);
#438=VECTOR('',#1528,10.);
#439=VECTOR('',#1531,10.);
#440=VECTOR('',#1534,10.);
#441=VECTOR('',#1537,10.);
#442=VECTOR('',#1538,10.);
#443=VECTOR('',#1539,10.);
#444=VECTOR('',#1542,10.);
#445=VECTOR('',#1543,10.);
#446=VECTOR('',#1546,10.);
#447=VECTOR('',#1547,10.);
#448=VECTOR('',#1548,10.);
#449=VECTOR('',#1551,10.);
#450=VECTOR('',#1554,10.);
#451=VECTOR('',#1555,10.);
#452=VECTOR('',#1558,10.);
#453=VECTOR('',#1559,10.);
#454=VECTOR('',#1562,10.);
#455=VECTOR('',#1563,10.);
#456=VECTOR('',#1564,10.);
#457=VECTOR('',#1567,10.);
#458=VECTOR('',#1570,10.);
#459=VECTOR('',#1573,10.);
#460=VECTOR('',#1576,10.);
#461=VECTOR('',#1577,10.);
#462=VECTOR('',#1578,10.);
#463=VECTOR('',#1581,10.);
#464=VECTOR('',#1582,10.);
#465=VECTOR('',#1585,10.);
#466=VECTOR('',#1586,10.);
#467=VECTOR('',#1589,10.);
#468=VECTOR('',#1592,10.);
#469=VECTOR('',#1595,10.);
#470=VECTOR('',#1596,10.);
#471=VECTOR('',#1597,10.);
#472=VECTOR('',#1598,10.);
#473=VECTOR('',#1599,10.);
#474=VECTOR('',#1600,10.);
#475=VECTOR('',#1601,10.);
#476=VECTOR('',#1602,10.);
#477=VECTOR('',#1605,10.);
#478=VECTOR('',#1606,10.);
#479=VECTOR('',#1607,10.);
#480=VECTOR('',#1610,10.);
#481=VECTOR('',#1611,10.);
#482=VECTOR('',#1614,10.);
#483=VECTOR('',#1615,10.);
#484=VECTOR('',#1618,10.);
#485=VECTOR('',#1619,10.);
#486=VECTOR('',#1622,10.);
#487=VECTOR('',#1623,10.);
#488=VECTOR('',#1626,10.);
#489=VECTOR('',#1627,10.);
#490=VECTOR('',#1630,10.);
#491=VECTOR('',#1631,10.);
#492=VECTOR('',#1634,10.);
#493=VECTOR('',#1641,10.);
#494=VECTOR('',#1642,10.);
#495=VECTOR('',#1643,10.);
#496=VECTOR('',#1644,10.);
#497=VECTOR('',#1647,10.);
#498=VECTOR('',#1648,10.);
#499=VECTOR('',#1649,10.);
#500=VECTOR('',#1652,10.);
#501=VECTOR('',#1653,10.);
#502=VECTOR('',#1654,10.);
#503=VECTOR('',#1657,10.);
#504=VECTOR('',#1658,10.);
#505=VERTEX_POINT('',#1670);
#506=VERTEX_POINT('',#1671);
#507=VERTEX_POINT('',#1673);
#508=VERTEX_POINT('',#1675);
#509=VERTEX_POINT('',#1679);
#510=VERTEX_POINT('',#1681);
#511=VERTEX_POINT('',#1685);
#512=VERTEX_POINT('',#1687);
#513=VERTEX_POINT('',#1695);
#514=VERTEX_POINT('',#1696);
#515=VERTEX_POINT('',#1698);
#516=VERTEX_POINT('',#1700);
#517=VERTEX_POINT('',#1704);
#518=VERTEX_POINT('',#1706);
#519=VERTEX_POINT('',#1710);
#520=VERTEX_POINT('',#1714);
#521=VERTEX_POINT('',#1716);
#522=VERTEX_POINT('',#1718);
#523=VERTEX_POINT('',#1720);
#524=VERTEX_POINT('',#1722);
#525=VERTEX_POINT('',#1724);
#526=VERTEX_POINT('',#1726);
#527=VERTEX_POINT('',#1728);
#528=VERTEX_POINT('',#1730);
#529=VERTEX_POINT('',#1732);
#530=VERTEX_POINT('',#1734);
#531=VERTEX_POINT('',#1736);
#532=VERTEX_POINT('',#1738);
#533=VERTEX_POINT('',#1740);
#534=VERTEX_POINT('',#1742);
#535=VERTEX_POINT('',#1744);
#536=VERTEX_POINT('',#1746);
#537=VERTEX_POINT('',#1748);
#538=VERTEX_POINT('',#1750);
#539=VERTEX_POINT('',#1752);
#540=VERTEX_POINT('',#1754);
#541=VERTEX_POINT('',#1756);
#542=VERTEX_POINT('',#1758);
#543=VERTEX_POINT('',#1760);
#544=VERTEX_POINT('',#1762);
#545=VERTEX_POINT('',#1766);
#546=VERTEX_POINT('',#1768);
#547=VERTEX_POINT('',#1770);
#548=VERTEX_POINT('',#1772);
#549=VERTEX_POINT('',#1776);
#550=VERTEX_POINT('',#1778);
#551=VERTEX_POINT('',#1782);
#552=VERTEX_POINT('',#1783);
#553=VERTEX_POINT('',#1788);
#554=VERTEX_POINT('',#1790);
#555=VERTEX_POINT('',#1792);
#556=VERTEX_POINT('',#1794);
#557=VERTEX_POINT('',#1798);
#558=VERTEX_POINT('',#1802);
#559=VERTEX_POINT('',#1806);
#560=VERTEX_POINT('',#1808);
#561=VERTEX_POINT('',#1810);
#562=VERTEX_POINT('',#1814);
#563=VERTEX_POINT('',#1816);
#564=VERTEX_POINT('',#1820);
#565=VERTEX_POINT('',#1824);
#566=VERTEX_POINT('',#1830);
#567=VERTEX_POINT('',#1832);
#568=VERTEX_POINT('',#1834);
#569=VERTEX_POINT('',#1838);
#570=VERTEX_POINT('',#1842);
#571=VERTEX_POINT('',#1846);
#572=VERTEX_POINT('',#1848);
#573=VERTEX_POINT('',#1850);
#574=VERTEX_POINT('',#1853);
#575=VERTEX_POINT('',#1855);
#576=VERTEX_POINT('',#1857);
#577=VERTEX_POINT('',#1861);
#578=VERTEX_POINT('',#1863);
#579=VERTEX_POINT('',#1871);
#580=VERTEX_POINT('',#1875);
#581=VERTEX_POINT('',#1877);
#582=VERTEX_POINT('',#1881);
#583=VERTEX_POINT('',#1889);
#584=VERTEX_POINT('',#1891);
#585=VERTEX_POINT('',#1895);
#586=VERTEX_POINT('',#1899);
#587=VERTEX_POINT('',#1901);
#588=VERTEX_POINT('',#1907);
#589=VERTEX_POINT('',#1911);
#590=VERTEX_POINT('',#1915);
#591=VERTEX_POINT('',#1917);
#592=VERTEX_POINT('',#1927);
#593=VERTEX_POINT('',#1928);
#594=VERTEX_POINT('',#1933);
#595=VERTEX_POINT('',#1937);
#596=VERTEX_POINT('',#1945);
#597=VERTEX_POINT('',#1946);
#598=VERTEX_POINT('',#1948);
#599=VERTEX_POINT('',#1950);
#600=VERTEX_POINT('',#1952);
#601=VERTEX_POINT('',#1954);
#602=VERTEX_POINT('',#1956);
#603=VERTEX_POINT('',#1958);
#604=VERTEX_POINT('',#1962);
#605=VERTEX_POINT('',#1963);
#606=VERTEX_POINT('',#1968);
#607=VERTEX_POINT('',#1972);
#608=VERTEX_POINT('',#1976);
#609=VERTEX_POINT('',#1980);
#610=VERTEX_POINT('',#1984);
#611=VERTEX_POINT('',#1988);
#612=VERTEX_POINT('',#1996);
#613=VERTEX_POINT('',#1997);
#614=VERTEX_POINT('',#1999);
#615=VERTEX_POINT('',#2001);
#616=VERTEX_POINT('',#2005);
#617=VERTEX_POINT('',#2007);
#618=VERTEX_POINT('',#2011);
#619=VERTEX_POINT('',#2013);
#620=EDGE_CURVE('',#505,#506,#159,.T.);
#621=EDGE_CURVE('',#505,#507,#160,.T.);
#622=EDGE_CURVE('',#508,#507,#161,.T.);
#623=EDGE_CURVE('',#506,#508,#162,.T.);
#624=EDGE_CURVE('',#509,#505,#163,.T.);
#625=EDGE_CURVE('',#509,#510,#164,.T.);
#626=EDGE_CURVE('',#507,#510,#165,.T.);
#627=EDGE_CURVE('',#506,#511,#166,.T.);
#628=EDGE_CURVE('',#512,#508,#167,.T.);
#629=EDGE_CURVE('',#511,#512,#168,.T.);
#630=EDGE_CURVE('',#511,#509,#169,.T.);
#631=EDGE_CURVE('',#510,#512,#170,.T.);
#632=EDGE_CURVE('',#513,#514,#171,.T.);
#633=EDGE_CURVE('',#515,#513,#172,.T.);
#634=EDGE_CURVE('',#516,#515,#173,.T.);
#635=EDGE_CURVE('',#514,#516,#174,.T.);
#636=EDGE_CURVE('',#514,#517,#175,.T.);
#637=EDGE_CURVE('',#518,#516,#176,.T.);
#638=EDGE_CURVE('',#517,#518,#177,.T.);
#639=EDGE_CURVE('',#519,#515,#178,.T.);
#640=EDGE_CURVE('',#518,#519,#179,.T.);
#641=EDGE_CURVE('',#517,#520,#180,.T.);
#642=EDGE_CURVE('',#520,#521,#181,.T.);
#643=EDGE_CURVE('',#521,#522,#182,.T.);
#644=EDGE_CURVE('',#522,#523,#183,.T.);
#645=EDGE_CURVE('',#523,#524,#184,.T.);
#646=EDGE_CURVE('',#524,#525,#185,.T.);
#647=EDGE_CURVE('',#525,#526,#186,.T.);
#648=EDGE_CURVE('',#526,#527,#187,.T.);
#649=EDGE_CURVE('',#527,#528,#188,.T.);
#650=EDGE_CURVE('',#528,#529,#189,.T.);
#651=EDGE_CURVE('',#529,#530,#190,.T.);
#652=EDGE_CURVE('',#530,#531,#191,.T.);
#653=EDGE_CURVE('',#531,#532,#192,.T.);
#654=EDGE_CURVE('',#532,#533,#193,.T.);
#655=EDGE_CURVE('',#533,#534,#194,.T.);
#656=EDGE_CURVE('',#534,#535,#195,.T.);
#657=EDGE_CURVE('',#535,#536,#196,.T.);
#658=EDGE_CURVE('',#536,#537,#197,.T.);
#659=EDGE_CURVE('',#537,#538,#198,.T.);
#660=EDGE_CURVE('',#538,#539,#199,.T.);
#661=EDGE_CURVE('',#539,#540,#200,.T.);
#662=EDGE_CURVE('',#540,#541,#201,.T.);
#663=EDGE_CURVE('',#541,#542,#202,.T.);
#664=EDGE_CURVE('',#542,#543,#203,.T.);
#665=EDGE_CURVE('',#543,#544,#204,.T.);
#666=EDGE_CURVE('',#544,#513,#205,.T.);
#667=EDGE_CURVE('',#519,#545,#206,.T.);
#668=EDGE_CURVE('',#546,#545,#207,.T.);
#669=EDGE_CURVE('',#547,#546,#208,.T.);
#670=EDGE_CURVE('',#547,#548,#209,.T.);
#671=EDGE_CURVE('',#548,#520,#210,.T.);
#672=EDGE_CURVE('',#536,#549,#211,.T.);
#673=EDGE_CURVE('',#550,#549,#212,.T.);
#674=EDGE_CURVE('',#537,#550,#213,.T.);
#675=EDGE_CURVE('',#551,#552,#214,.T.);
#676=EDGE_CURVE('',#550,#551,#215,.T.);
#677=EDGE_CURVE('',#549,#552,#216,.T.);
#678=EDGE_CURVE('',#552,#553,#217,.T.);
#679=EDGE_CURVE('',#554,#553,#218,.T.);
#680=EDGE_CURVE('',#554,#555,#219,.T.);
#681=EDGE_CURVE('',#556,#555,#220,.T.);
#682=EDGE_CURVE('',#551,#556,#221,.T.);
#683=EDGE_CURVE('',#557,#548,#222,.T.);
#684=EDGE_CURVE('',#521,#557,#223,.T.);
#685=EDGE_CURVE('',#558,#547,#224,.T.);
#686=EDGE_CURVE('',#558,#557,#225,.T.);
#687=EDGE_CURVE('',#559,#546,#226,.T.);
#688=EDGE_CURVE('',#560,#559,#227,.T.);
#689=EDGE_CURVE('',#561,#560,#228,.T.);
#690=EDGE_CURVE('',#558,#561,#229,.T.);
#691=EDGE_CURVE('',#543,#562,#230,.T.);
#692=EDGE_CURVE('',#563,#562,#231,.T.);
#693=EDGE_CURVE('',#544,#563,#232,.T.);
#694=EDGE_CURVE('',#542,#564,#233,.T.);
#695=EDGE_CURVE('',#562,#564,#234,.T.);
#696=EDGE_CURVE('',#565,#541,#235,.T.);
#697=EDGE_CURVE('',#564,#565,#236,.T.);
#698=EDGE_CURVE('',#563,#565,#237,.T.);
#699=EDGE_CURVE('',#540,#566,#238,.T.);
#700=EDGE_CURVE('',#566,#567,#239,.T.);
#701=EDGE_CURVE('',#567,#568,#240,.T.);
#702=EDGE_CURVE('',#545,#568,#241,.T.);
#703=EDGE_CURVE('',#535,#569,#242,.T.);
#704=EDGE_CURVE('',#553,#569,#243,.T.);
#705=EDGE_CURVE('',#569,#570,#244,.T.);
#706=EDGE_CURVE('',#554,#570,#245,.T.);
#707=EDGE_CURVE('',#570,#571,#246,.T.);
#708=EDGE_CURVE('',#571,#572,#247,.T.);
#709=EDGE_CURVE('',#572,#573,#248,.T.);
#710=EDGE_CURVE('',#573,#534,#249,.T.);
#711=EDGE_CURVE('',#533,#574,#250,.T.);
#712=EDGE_CURVE('',#574,#575,#251,.T.);
#713=EDGE_CURVE('',#575,#576,#252,.T.);
#714=EDGE_CURVE('',#555,#576,#253,.T.);
#715=EDGE_CURVE('',#522,#577,#254,.T.);
#716=EDGE_CURVE('',#578,#577,#255,.T.);
#717=EDGE_CURVE('',#523,#578,#256,.T.);
#718=EDGE_CURVE('',#577,#561,#257,.T.);
#719=EDGE_CURVE('',#578,#560,#258,.T.);
#720=EDGE_CURVE('',#532,#579,#259,.T.);
#721=EDGE_CURVE('',#574,#579,#260,.T.);
#722=EDGE_CURVE('',#580,#529,#261,.T.);
#723=EDGE_CURVE('',#581,#580,#262,.T.);
#724=EDGE_CURVE('',#530,#581,#263,.T.);
#725=EDGE_CURVE('',#582,#581,#264,.T.);
#726=EDGE_CURVE('',#531,#582,#265,.T.);
#727=EDGE_CURVE('',#579,#582,#266,.T.);
#728=EDGE_CURVE('',#575,#580,#267,.T.);
#729=EDGE_CURVE('',#527,#583,#268,.T.);
#730=EDGE_CURVE('',#584,#583,#269,.T.);
#731=EDGE_CURVE('',#528,#584,#270,.T.);
#732=EDGE_CURVE('',#526,#585,#271,.T.);
#733=EDGE_CURVE('',#583,#585,#272,.T.);
#734=EDGE_CURVE('',#586,#524,#273,.T.);
#735=EDGE_CURVE('',#587,#586,#274,.T.);
#736=EDGE_CURVE('',#525,#587,#275,.T.);
#737=EDGE_CURVE('',#585,#587,#276,.T.);
#738=EDGE_CURVE('',#588,#586,#277,.T.);
#739=EDGE_CURVE('',#584,#588,#278,.T.);
#740=EDGE_CURVE('',#589,#559,#279,.T.);
#741=EDGE_CURVE('',#588,#589,#280,.T.);
#742=EDGE_CURVE('',#590,#538,#281,.T.);
#743=EDGE_CURVE('',#591,#590,#282,.T.);
#744=EDGE_CURVE('',#539,#591,#283,.T.);
#745=EDGE_CURVE('',#566,#591,#284,.T.);
#746=EDGE_CURVE('',#567,#590,#285,.T.);
#747=EDGE_CURVE('',#568,#556,#286,.T.);
#748=EDGE_CURVE('',#592,#593,#287,.T.);
#749=EDGE_CURVE('',#592,#571,#288,.T.);
#750=EDGE_CURVE('',#593,#570,#289,.T.);
#751=EDGE_CURVE('',#594,#592,#290,.T.);
#752=EDGE_CURVE('',#594,#572,#291,.T.);
#753=EDGE_CURVE('',#595,#594,#292,.T.);
#754=EDGE_CURVE('',#595,#573,#293,.T.);
#755=EDGE_CURVE('',#593,#595,#294,.T.);
#756=EDGE_CURVE('',#576,#589,#295,.T.);
#757=EDGE_CURVE('',#596,#597,#296,.T.);
#758=EDGE_CURVE('',#597,#598,#297,.T.);
#759=EDGE_CURVE('',#598,#599,#298,.T.);
#760=EDGE_CURVE('',#599,#600,#299,.T.);
#761=EDGE_CURVE('',#600,#601,#300,.T.);
#762=EDGE_CURVE('',#601,#602,#301,.T.);
#763=EDGE_CURVE('',#602,#603,#302,.T.);
#764=EDGE_CURVE('',#603,#596,#303,.T.);
#765=EDGE_CURVE('',#604,#605,#304,.T.);
#766=EDGE_CURVE('',#604,#596,#305,.T.);
#767=EDGE_CURVE('',#605,#603,#306,.T.);
#768=EDGE_CURVE('',#605,#606,#307,.T.);
#769=EDGE_CURVE('',#606,#602,#308,.T.);
#770=EDGE_CURVE('',#606,#607,#309,.T.);
#771=EDGE_CURVE('',#607,#601,#310,.T.);
#772=EDGE_CURVE('',#607,#608,#311,.T.);
#773=EDGE_CURVE('',#608,#600,#312,.T.);
#774=EDGE_CURVE('',#608,#609,#313,.T.);
#775=EDGE_CURVE('',#609,#599,#314,.T.);
#776=EDGE_CURVE('',#609,#610,#315,.T.);
#777=EDGE_CURVE('',#610,#598,#316,.T.);
#778=EDGE_CURVE('',#610,#611,#317,.T.);
#779=EDGE_CURVE('',#611,#597,#318,.T.);
#780=EDGE_CURVE('',#604,#611,#319,.T.);
#781=EDGE_CURVE('',#612,#613,#320,.T.);
#782=EDGE_CURVE('',#612,#614,#321,.T.);
#783=EDGE_CURVE('',#615,#614,#322,.T.);
#784=EDGE_CURVE('',#613,#615,#323,.T.);
#785=EDGE_CURVE('',#613,#616,#324,.T.);
#786=EDGE_CURVE('',#617,#615,#325,.T.);
#787=EDGE_CURVE('',#616,#617,#326,.T.);
#788=EDGE_CURVE('',#616,#618,#327,.T.);
#789=EDGE_CURVE('',#619,#617,#328,.T.);
#790=EDGE_CURVE('',#618,#619,#329,.T.);
#791=EDGE_CURVE('',#618,#612,#330,.T.);
#792=EDGE_CURVE('',#614,#619,#331,.T.);
#793=ORIENTED_EDGE('',*,*,#620,.F.);
#794=ORIENTED_EDGE('',*,*,#621,.T.);
#795=ORIENTED_EDGE('',*,*,#622,.F.);
#796=ORIENTED_EDGE('',*,*,#623,.F.);
#797=ORIENTED_EDGE('',*,*,#624,.F.);
#798=ORIENTED_EDGE('',*,*,#625,.T.);
#799=ORIENTED_EDGE('',*,*,#626,.F.);
#800=ORIENTED_EDGE('',*,*,#621,.F.);
#801=ORIENTED_EDGE('',*,*,#627,.F.);
#802=ORIENTED_EDGE('',*,*,#623,.T.);
#803=ORIENTED_EDGE('',*,*,#628,.F.);
#804=ORIENTED_EDGE('',*,*,#629,.F.);
#805=ORIENTED_EDGE('',*,*,#630,.F.);
#806=ORIENTED_EDGE('',*,*,#629,.T.);
#807=ORIENTED_EDGE('',*,*,#631,.F.);
#808=ORIENTED_EDGE('',*,*,#625,.F.);
#809=ORIENTED_EDGE('',*,*,#631,.T.);
#810=ORIENTED_EDGE('',*,*,#628,.T.);
#811=ORIENTED_EDGE('',*,*,#622,.T.);
#812=ORIENTED_EDGE('',*,*,#626,.T.);
#813=ORIENTED_EDGE('',*,*,#632,.F.);
#814=ORIENTED_EDGE('',*,*,#633,.F.);
#815=ORIENTED_EDGE('',*,*,#634,.F.);
#816=ORIENTED_EDGE('',*,*,#635,.F.);
#817=ORIENTED_EDGE('',*,*,#636,.F.);
#818=ORIENTED_EDGE('',*,*,#635,.T.);
#819=ORIENTED_EDGE('',*,*,#637,.F.);
#820=ORIENTED_EDGE('',*,*,#638,.F.);
#821=ORIENTED_EDGE('',*,*,#637,.T.);
#822=ORIENTED_EDGE('',*,*,#634,.T.);
#823=ORIENTED_EDGE('',*,*,#639,.F.);
#824=ORIENTED_EDGE('',*,*,#640,.F.);
#825=ORIENTED_EDGE('',*,*,#632,.T.);
#826=ORIENTED_EDGE('',*,*,#636,.T.);
#827=ORIENTED_EDGE('',*,*,#641,.T.);
#828=ORIENTED_EDGE('',*,*,#642,.T.);
#829=ORIENTED_EDGE('',*,*,#643,.T.);
#830=ORIENTED_EDGE('',*,*,#644,.T.);
#831=ORIENTED_EDGE('',*,*,#645,.T.);
#832=ORIENTED_EDGE('',*,*,#646,.T.);
#833=ORIENTED_EDGE('',*,*,#647,.T.);
#834=ORIENTED_EDGE('',*,*,#648,.T.);
#835=ORIENTED_EDGE('',*,*,#649,.T.);
#836=ORIENTED_EDGE('',*,*,#650,.T.);
#837=ORIENTED_EDGE('',*,*,#651,.T.);
#838=ORIENTED_EDGE('',*,*,#652,.T.);
#839=ORIENTED_EDGE('',*,*,#653,.T.);
#840=ORIENTED_EDGE('',*,*,#654,.T.);
#841=ORIENTED_EDGE('',*,*,#655,.T.);
#842=ORIENTED_EDGE('',*,*,#656,.T.);
#843=ORIENTED_EDGE('',*,*,#657,.T.);
#844=ORIENTED_EDGE('',*,*,#658,.T.);
#845=ORIENTED_EDGE('',*,*,#659,.T.);
#846=ORIENTED_EDGE('',*,*,#660,.T.);
#847=ORIENTED_EDGE('',*,*,#661,.T.);
#848=ORIENTED_EDGE('',*,*,#662,.T.);
#849=ORIENTED_EDGE('',*,*,#663,.T.);
#850=ORIENTED_EDGE('',*,*,#664,.T.);
#851=ORIENTED_EDGE('',*,*,#665,.T.);
#852=ORIENTED_EDGE('',*,*,#666,.T.);
#853=ORIENTED_EDGE('',*,*,#624,.T.);
#854=ORIENTED_EDGE('',*,*,#620,.T.);
#855=ORIENTED_EDGE('',*,*,#627,.T.);
#856=ORIENTED_EDGE('',*,*,#630,.T.);
#857=ORIENTED_EDGE('',*,*,#638,.T.);
#858=ORIENTED_EDGE('',*,*,#640,.T.);
#859=ORIENTED_EDGE('',*,*,#667,.T.);
#860=ORIENTED_EDGE('',*,*,#668,.F.);
#861=ORIENTED_EDGE('',*,*,#669,.F.);
#862=ORIENTED_EDGE('',*,*,#670,.T.);
#863=ORIENTED_EDGE('',*,*,#671,.T.);
#864=ORIENTED_EDGE('',*,*,#641,.F.);
#865=ORIENTED_EDGE('',*,*,#658,.F.);
#866=ORIENTED_EDGE('',*,*,#672,.T.);
#867=ORIENTED_EDGE('',*,*,#673,.F.);
#868=ORIENTED_EDGE('',*,*,#674,.F.);
#869=ORIENTED_EDGE('',*,*,#675,.F.);
#870=ORIENTED_EDGE('',*,*,#676,.F.);
#871=ORIENTED_EDGE('',*,*,#673,.T.);
#872=ORIENTED_EDGE('',*,*,#677,.T.);
#873=ORIENTED_EDGE('',*,*,#675,.T.);
#874=ORIENTED_EDGE('',*,*,#678,.T.);
#875=ORIENTED_EDGE('',*,*,#679,.F.);
#876=ORIENTED_EDGE('',*,*,#680,.T.);
#877=ORIENTED_EDGE('',*,*,#681,.F.);
#878=ORIENTED_EDGE('',*,*,#682,.F.);
#879=ORIENTED_EDGE('',*,*,#642,.F.);
#880=ORIENTED_EDGE('',*,*,#671,.F.);
#881=ORIENTED_EDGE('',*,*,#683,.F.);
#882=ORIENTED_EDGE('',*,*,#684,.F.);
#883=ORIENTED_EDGE('',*,*,#685,.F.);
#884=ORIENTED_EDGE('',*,*,#686,.T.);
#885=ORIENTED_EDGE('',*,*,#683,.T.);
#886=ORIENTED_EDGE('',*,*,#670,.F.);
#887=ORIENTED_EDGE('',*,*,#685,.T.);
#888=ORIENTED_EDGE('',*,*,#669,.T.);
#889=ORIENTED_EDGE('',*,*,#687,.F.);
#890=ORIENTED_EDGE('',*,*,#688,.F.);
#891=ORIENTED_EDGE('',*,*,#689,.F.);
#892=ORIENTED_EDGE('',*,*,#690,.F.);
#893=ORIENTED_EDGE('',*,*,#665,.F.);
#894=ORIENTED_EDGE('',*,*,#691,.T.);
#895=ORIENTED_EDGE('',*,*,#692,.F.);
#896=ORIENTED_EDGE('',*,*,#693,.F.);
#897=ORIENTED_EDGE('',*,*,#664,.F.);
#898=ORIENTED_EDGE('',*,*,#694,.T.);
#899=ORIENTED_EDGE('',*,*,#695,.F.);
#900=ORIENTED_EDGE('',*,*,#691,.F.);
#901=ORIENTED_EDGE('',*,*,#663,.F.);
#902=ORIENTED_EDGE('',*,*,#696,.F.);
#903=ORIENTED_EDGE('',*,*,#697,.F.);
#904=ORIENTED_EDGE('',*,*,#694,.F.);
#905=ORIENTED_EDGE('',*,*,#697,.T.);
#906=ORIENTED_EDGE('',*,*,#698,.F.);
#907=ORIENTED_EDGE('',*,*,#692,.T.);
#908=ORIENTED_EDGE('',*,*,#695,.T.);
#909=ORIENTED_EDGE('',*,*,#633,.T.);
#910=ORIENTED_EDGE('',*,*,#666,.F.);
#911=ORIENTED_EDGE('',*,*,#693,.T.);
#912=ORIENTED_EDGE('',*,*,#698,.T.);
#913=ORIENTED_EDGE('',*,*,#696,.T.);
#914=ORIENTED_EDGE('',*,*,#662,.F.);
#915=ORIENTED_EDGE('',*,*,#699,.T.);
#916=ORIENTED_EDGE('',*,*,#700,.T.);
#917=ORIENTED_EDGE('',*,*,#701,.T.);
#918=ORIENTED_EDGE('',*,*,#702,.F.);
#919=ORIENTED_EDGE('',*,*,#667,.F.);
#920=ORIENTED_EDGE('',*,*,#639,.T.);
#921=ORIENTED_EDGE('',*,*,#657,.F.);
#922=ORIENTED_EDGE('',*,*,#703,.T.);
#923=ORIENTED_EDGE('',*,*,#704,.F.);
#924=ORIENTED_EDGE('',*,*,#678,.F.);
#925=ORIENTED_EDGE('',*,*,#677,.F.);
#926=ORIENTED_EDGE('',*,*,#672,.F.);
#927=ORIENTED_EDGE('',*,*,#704,.T.);
#928=ORIENTED_EDGE('',*,*,#705,.T.);
#929=ORIENTED_EDGE('',*,*,#706,.F.);
#930=ORIENTED_EDGE('',*,*,#679,.T.);
#931=ORIENTED_EDGE('',*,*,#706,.T.);
#932=ORIENTED_EDGE('',*,*,#707,.T.);
#933=ORIENTED_EDGE('',*,*,#708,.T.);
#934=ORIENTED_EDGE('',*,*,#709,.T.);
#935=ORIENTED_EDGE('',*,*,#710,.T.);
#936=ORIENTED_EDGE('',*,*,#655,.F.);
#937=ORIENTED_EDGE('',*,*,#711,.T.);
#938=ORIENTED_EDGE('',*,*,#712,.T.);
#939=ORIENTED_EDGE('',*,*,#713,.T.);
#940=ORIENTED_EDGE('',*,*,#714,.F.);
#941=ORIENTED_EDGE('',*,*,#680,.F.);
#942=ORIENTED_EDGE('',*,*,#644,.F.);
#943=ORIENTED_EDGE('',*,*,#715,.T.);
#944=ORIENTED_EDGE('',*,*,#716,.F.);
#945=ORIENTED_EDGE('',*,*,#717,.F.);
#946=ORIENTED_EDGE('',*,*,#643,.F.);
#947=ORIENTED_EDGE('',*,*,#684,.T.);
#948=ORIENTED_EDGE('',*,*,#686,.F.);
#949=ORIENTED_EDGE('',*,*,#690,.T.);
#950=ORIENTED_EDGE('',*,*,#718,.F.);
#951=ORIENTED_EDGE('',*,*,#715,.F.);
#952=ORIENTED_EDGE('',*,*,#718,.T.);
#953=ORIENTED_EDGE('',*,*,#689,.T.);
#954=ORIENTED_EDGE('',*,*,#719,.F.);
#955=ORIENTED_EDGE('',*,*,#716,.T.);
#956=ORIENTED_EDGE('',*,*,#654,.F.);
#957=ORIENTED_EDGE('',*,*,#720,.T.);
#958=ORIENTED_EDGE('',*,*,#721,.F.);
#959=ORIENTED_EDGE('',*,*,#711,.F.);
#960=ORIENTED_EDGE('',*,*,#651,.F.);
#961=ORIENTED_EDGE('',*,*,#722,.F.);
#962=ORIENTED_EDGE('',*,*,#723,.F.);
#963=ORIENTED_EDGE('',*,*,#724,.F.);
#964=ORIENTED_EDGE('',*,*,#652,.F.);
#965=ORIENTED_EDGE('',*,*,#724,.T.);
#966=ORIENTED_EDGE('',*,*,#725,.F.);
#967=ORIENTED_EDGE('',*,*,#726,.F.);
#968=ORIENTED_EDGE('',*,*,#653,.F.);
#969=ORIENTED_EDGE('',*,*,#726,.T.);
#970=ORIENTED_EDGE('',*,*,#727,.F.);
#971=ORIENTED_EDGE('',*,*,#720,.F.);
#972=ORIENTED_EDGE('',*,*,#727,.T.);
#973=ORIENTED_EDGE('',*,*,#725,.T.);
#974=ORIENTED_EDGE('',*,*,#723,.T.);
#975=ORIENTED_EDGE('',*,*,#728,.F.);
#976=ORIENTED_EDGE('',*,*,#712,.F.);
#977=ORIENTED_EDGE('',*,*,#721,.T.);
#978=ORIENTED_EDGE('',*,*,#649,.F.);
#979=ORIENTED_EDGE('',*,*,#729,.T.);
#980=ORIENTED_EDGE('',*,*,#730,.F.);
#981=ORIENTED_EDGE('',*,*,#731,.F.);
#982=ORIENTED_EDGE('',*,*,#648,.F.);
#983=ORIENTED_EDGE('',*,*,#732,.T.);
#984=ORIENTED_EDGE('',*,*,#733,.F.);
#985=ORIENTED_EDGE('',*,*,#729,.F.);
#986=ORIENTED_EDGE('',*,*,#646,.F.);
#987=ORIENTED_EDGE('',*,*,#734,.F.);
#988=ORIENTED_EDGE('',*,*,#735,.F.);
#989=ORIENTED_EDGE('',*,*,#736,.F.);
#990=ORIENTED_EDGE('',*,*,#647,.F.);
#991=ORIENTED_EDGE('',*,*,#736,.T.);
#992=ORIENTED_EDGE('',*,*,#737,.F.);
#993=ORIENTED_EDGE('',*,*,#732,.F.);
#994=ORIENTED_EDGE('',*,*,#737,.T.);
#995=ORIENTED_EDGE('',*,*,#735,.T.);
#996=ORIENTED_EDGE('',*,*,#738,.F.);
#997=ORIENTED_EDGE('',*,*,#739,.F.);
#998=ORIENTED_EDGE('',*,*,#730,.T.);
#999=ORIENTED_EDGE('',*,*,#733,.T.);
#1000=ORIENTED_EDGE('',*,*,#719,.T.);
#1001=ORIENTED_EDGE('',*,*,#688,.T.);
#1002=ORIENTED_EDGE('',*,*,#740,.F.);
#1003=ORIENTED_EDGE('',*,*,#741,.F.);
#1004=ORIENTED_EDGE('',*,*,#738,.T.);
#1005=ORIENTED_EDGE('',*,*,#734,.T.);
#1006=ORIENTED_EDGE('',*,*,#645,.F.);
#1007=ORIENTED_EDGE('',*,*,#717,.T.);
#1008=ORIENTED_EDGE('',*,*,#660,.F.);
#1009=ORIENTED_EDGE('',*,*,#742,.F.);
#1010=ORIENTED_EDGE('',*,*,#743,.F.);
#1011=ORIENTED_EDGE('',*,*,#744,.F.);
#1012=ORIENTED_EDGE('',*,*,#661,.F.);
#1013=ORIENTED_EDGE('',*,*,#744,.T.);
#1014=ORIENTED_EDGE('',*,*,#745,.F.);
#1015=ORIENTED_EDGE('',*,*,#699,.F.);
#1016=ORIENTED_EDGE('',*,*,#743,.T.);
#1017=ORIENTED_EDGE('',*,*,#746,.F.);
#1018=ORIENTED_EDGE('',*,*,#700,.F.);
#1019=ORIENTED_EDGE('',*,*,#745,.T.);
#1020=ORIENTED_EDGE('',*,*,#676,.T.);
#1021=ORIENTED_EDGE('',*,*,#682,.T.);
#1022=ORIENTED_EDGE('',*,*,#747,.F.);
#1023=ORIENTED_EDGE('',*,*,#701,.F.);
#1024=ORIENTED_EDGE('',*,*,#746,.T.);
#1025=ORIENTED_EDGE('',*,*,#742,.T.);
#1026=ORIENTED_EDGE('',*,*,#659,.F.);
#1027=ORIENTED_EDGE('',*,*,#674,.T.);
#1028=ORIENTED_EDGE('',*,*,#748,.F.);
#1029=ORIENTED_EDGE('',*,*,#749,.T.);
#1030=ORIENTED_EDGE('',*,*,#707,.F.);
#1031=ORIENTED_EDGE('',*,*,#750,.F.);
#1032=ORIENTED_EDGE('',*,*,#751,.F.);
#1033=ORIENTED_EDGE('',*,*,#752,.T.);
#1034=ORIENTED_EDGE('',*,*,#708,.F.);
#1035=ORIENTED_EDGE('',*,*,#749,.F.);
#1036=ORIENTED_EDGE('',*,*,#753,.F.);
#1037=ORIENTED_EDGE('',*,*,#754,.T.);
#1038=ORIENTED_EDGE('',*,*,#709,.F.);
#1039=ORIENTED_EDGE('',*,*,#752,.F.);
#1040=ORIENTED_EDGE('',*,*,#755,.F.);
#1041=ORIENTED_EDGE('',*,*,#750,.T.);
#1042=ORIENTED_EDGE('',*,*,#705,.F.);
#1043=ORIENTED_EDGE('',*,*,#703,.F.);
#1044=ORIENTED_EDGE('',*,*,#656,.F.);
#1045=ORIENTED_EDGE('',*,*,#710,.F.);
#1046=ORIENTED_EDGE('',*,*,#754,.F.);
#1047=ORIENTED_EDGE('',*,*,#722,.T.);
#1048=ORIENTED_EDGE('',*,*,#650,.F.);
#1049=ORIENTED_EDGE('',*,*,#731,.T.);
#1050=ORIENTED_EDGE('',*,*,#739,.T.);
#1051=ORIENTED_EDGE('',*,*,#741,.T.);
#1052=ORIENTED_EDGE('',*,*,#756,.F.);
#1053=ORIENTED_EDGE('',*,*,#713,.F.);
#1054=ORIENTED_EDGE('',*,*,#728,.T.);
#1055=ORIENTED_EDGE('',*,*,#757,.T.);
#1056=ORIENTED_EDGE('',*,*,#758,.T.);
#1057=ORIENTED_EDGE('',*,*,#759,.T.);
#1058=ORIENTED_EDGE('',*,*,#760,.T.);
#1059=ORIENTED_EDGE('',*,*,#761,.T.);
#1060=ORIENTED_EDGE('',*,*,#762,.T.);
#1061=ORIENTED_EDGE('',*,*,#763,.T.);
#1062=ORIENTED_EDGE('',*,*,#764,.T.);
#1063=ORIENTED_EDGE('',*,*,#681,.T.);
#1064=ORIENTED_EDGE('',*,*,#714,.T.);
#1065=ORIENTED_EDGE('',*,*,#756,.T.);
#1066=ORIENTED_EDGE('',*,*,#740,.T.);
#1067=ORIENTED_EDGE('',*,*,#687,.T.);
#1068=ORIENTED_EDGE('',*,*,#668,.T.);
#1069=ORIENTED_EDGE('',*,*,#702,.T.);
#1070=ORIENTED_EDGE('',*,*,#747,.T.);
#1071=ORIENTED_EDGE('',*,*,#765,.F.);
#1072=ORIENTED_EDGE('',*,*,#766,.T.);
#1073=ORIENTED_EDGE('',*,*,#764,.F.);
#1074=ORIENTED_EDGE('',*,*,#767,.F.);
#1075=ORIENTED_EDGE('',*,*,#748,.T.);
#1076=ORIENTED_EDGE('',*,*,#755,.T.);
#1077=ORIENTED_EDGE('',*,*,#753,.T.);
#1078=ORIENTED_EDGE('',*,*,#751,.T.);
#1079=ORIENTED_EDGE('',*,*,#768,.F.);
#1080=ORIENTED_EDGE('',*,*,#767,.T.);
#1081=ORIENTED_EDGE('',*,*,#763,.F.);
#1082=ORIENTED_EDGE('',*,*,#769,.F.);
#1083=ORIENTED_EDGE('',*,*,#770,.F.);
#1084=ORIENTED_EDGE('',*,*,#769,.T.);
#1085=ORIENTED_EDGE('',*,*,#762,.F.);
#1086=ORIENTED_EDGE('',*,*,#771,.F.);
#1087=ORIENTED_EDGE('',*,*,#772,.F.);
#1088=ORIENTED_EDGE('',*,*,#771,.T.);
#1089=ORIENTED_EDGE('',*,*,#761,.F.);
#1090=ORIENTED_EDGE('',*,*,#773,.F.);
#1091=ORIENTED_EDGE('',*,*,#774,.F.);
#1092=ORIENTED_EDGE('',*,*,#773,.T.);
#1093=ORIENTED_EDGE('',*,*,#760,.F.);
#1094=ORIENTED_EDGE('',*,*,#775,.F.);
#1095=ORIENTED_EDGE('',*,*,#776,.F.);
#1096=ORIENTED_EDGE('',*,*,#775,.T.);
#1097=ORIENTED_EDGE('',*,*,#759,.F.);
#1098=ORIENTED_EDGE('',*,*,#777,.F.);
#1099=ORIENTED_EDGE('',*,*,#778,.F.);
#1100=ORIENTED_EDGE('',*,*,#777,.T.);
#1101=ORIENTED_EDGE('',*,*,#758,.F.);
#1102=ORIENTED_EDGE('',*,*,#779,.F.);
#1103=ORIENTED_EDGE('',*,*,#780,.T.);
#1104=ORIENTED_EDGE('',*,*,#779,.T.);
#1105=ORIENTED_EDGE('',*,*,#757,.F.);
#1106=ORIENTED_EDGE('',*,*,#766,.F.);
#1107=ORIENTED_EDGE('',*,*,#780,.F.);
#1108=ORIENTED_EDGE('',*,*,#765,.T.);
#1109=ORIENTED_EDGE('',*,*,#768,.T.);
#1110=ORIENTED_EDGE('',*,*,#770,.T.);
#1111=ORIENTED_EDGE('',*,*,#772,.T.);
#1112=ORIENTED_EDGE('',*,*,#774,.T.);
#1113=ORIENTED_EDGE('',*,*,#776,.T.);
#1114=ORIENTED_EDGE('',*,*,#778,.T.);
#1115=ORIENTED_EDGE('',*,*,#781,.F.);
#1116=ORIENTED_EDGE('',*,*,#782,.T.);
#1117=ORIENTED_EDGE('',*,*,#783,.F.);
#1118=ORIENTED_EDGE('',*,*,#784,.F.);
#1119=ORIENTED_EDGE('',*,*,#785,.F.);
#1120=ORIENTED_EDGE('',*,*,#784,.T.);
#1121=ORIENTED_EDGE('',*,*,#786,.F.);
#1122=ORIENTED_EDGE('',*,*,#787,.F.);
#1123=ORIENTED_EDGE('',*,*,#788,.F.);
#1124=ORIENTED_EDGE('',*,*,#787,.T.);
#1125=ORIENTED_EDGE('',*,*,#789,.F.);
#1126=ORIENTED_EDGE('',*,*,#790,.F.);
#1127=ORIENTED_EDGE('',*,*,#791,.F.);
#1128=ORIENTED_EDGE('',*,*,#790,.T.);
#1129=ORIENTED_EDGE('',*,*,#792,.F.);
#1130=ORIENTED_EDGE('',*,*,#782,.F.);
#1131=ORIENTED_EDGE('',*,*,#792,.T.);
#1132=ORIENTED_EDGE('',*,*,#789,.T.);
#1133=ORIENTED_EDGE('',*,*,#786,.T.);
#1134=ORIENTED_EDGE('',*,*,#783,.T.);
#1135=ORIENTED_EDGE('',*,*,#791,.T.);
#1136=ORIENTED_EDGE('',*,*,#781,.T.);
#1137=ORIENTED_EDGE('',*,*,#785,.T.);
#1138=ORIENTED_EDGE('',*,*,#788,.T.);
#1139=PLANE('',#1292);
#1140=PLANE('',#1293);
#1141=PLANE('',#1294);
#1142=PLANE('',#1295);
#1143=PLANE('',#1296);
#1144=PLANE('',#1297);
#1145=PLANE('',#1298);
#1146=PLANE('',#1299);
#1147=PLANE('',#1300);
#1148=PLANE('',#1301);
#1149=PLANE('',#1302);
#1150=PLANE('',#1303);
#1151=PLANE('',#1304);
#1152=PLANE('',#1305);
#1153=PLANE('',#1306);
#1154=PLANE('',#1307);
#1155=PLANE('',#1308);
#1156=PLANE('',#1309);
#1157=PLANE('',#1310);
#1158=PLANE('',#1311);
#1159=PLANE('',#1312);
#1160=PLANE('',#1313);
#1161=PLANE('',#1314);
#1162=PLANE('',#1315);
#1163=PLANE('',#1316);
#1164=PLANE('',#1317);
#1165=PLANE('',#1318);
#1166=PLANE('',#1319);
#1167=PLANE('',#1320);
#1168=PLANE('',#1321);
#1169=PLANE('',#1322);
#1170=PLANE('',#1323);
#1171=PLANE('',#1324);
#1172=PLANE('',#1325);
#1173=PLANE('',#1326);
#1174=PLANE('',#1327);
#1175=PLANE('',#1328);
#1176=PLANE('',#1329);
#1177=PLANE('',#1330);
#1178=PLANE('',#1331);
#1179=PLANE('',#1332);
#1180=PLANE('',#1333);
#1181=PLANE('',#1334);
#1182=PLANE('',#1335);
#1183=PLANE('',#1336);
#1184=PLANE('',#1337);
#1185=PLANE('',#1338);
#1186=PLANE('',#1339);
#1187=PLANE('',#1340);
#1188=PLANE('',#1341);
#1189=PLANE('',#1342);
#1190=PLANE('',#1343);
#1191=PLANE('',#1344);
#1192=PLANE('',#1345);
#1193=PLANE('',#1346);
#1194=PLANE('',#1347);
#1195=PLANE('',#1348);
#1196=PLANE('',#1350);
#1197=PLANE('',#1351);
#1198=PLANE('',#1352);
#1199=PLANE('',#1353);
#1200=PLANE('',#1354);
#1201=PLANE('',#1355);
#1202=ADVANCED_FACE('',(#30),#1139,.T.);
#1203=ADVANCED_FACE('',(#31),#1140,.T.);
#1204=ADVANCED_FACE('',(#32),#1141,.T.);
#1205=ADVANCED_FACE('',(#33),#1142,.T.);
#1206=ADVANCED_FACE('',(#34),#1143,.T.);
#1207=ADVANCED_FACE('',(#35),#1144,.T.);
#1208=ADVANCED_FACE('',(#36),#1145,.T.);
#1209=ADVANCED_FACE('',(#37),#1146,.T.);
#1210=ADVANCED_FACE('',(#38,#27),#1147,.T.);
#1211=ADVANCED_FACE('',(#39),#1148,.T.);
#1212=ADVANCED_FACE('',(#40),#1149,.T.);
#1213=ADVANCED_FACE('',(#41),#1150,.T.);
#1214=ADVANCED_FACE('',(#42),#1151,.T.);
#1215=ADVANCED_FACE('',(#43),#1152,.T.);
#1216=ADVANCED_FACE('',(#44),#1153,.T.);
#1217=ADVANCED_FACE('',(#45),#1154,.T.);
#1218=ADVANCED_FACE('',(#46),#1155,.T.);
#1219=ADVANCED_FACE('',(#47),#1156,.T.);
#1220=ADVANCED_FACE('',(#48),#1157,.T.);
#1221=ADVANCED_FACE('',(#49),#1158,.T.);
#1222=ADVANCED_FACE('',(#50),#1159,.T.);
#1223=ADVANCED_FACE('',(#51),#1160,.T.);
#1224=ADVANCED_FACE('',(#52),#1161,.T.);
#1225=ADVANCED_FACE('',(#53),#1162,.T.);
#1226=ADVANCED_FACE('',(#54),#1163,.T.);
#1227=ADVANCED_FACE('',(#55),#1164,.T.);
#1228=ADVANCED_FACE('',(#56),#1165,.T.);
#1229=ADVANCED_FACE('',(#57),#1166,.T.);
#1230=ADVANCED_FACE('',(#58),#1167,.T.);
#1231=ADVANCED_FACE('',(#59),#1168,.T.);
#1232=ADVANCED_FACE('',(#60),#1169,.T.);
#1233=ADVANCED_FACE('',(#61),#1170,.T.);
#1234=ADVANCED_FACE('',(#62),#1171,.T.);
#1235=ADVANCED_FACE('',(#63),#1172,.T.);
#1236=ADVANCED_FACE('',(#64),#1173,.T.);
#1237=ADVANCED_FACE('',(#65),#1174,.T.);
#1238=ADVANCED_FACE('',(#66),#1175,.T.);
#1239=ADVANCED_FACE('',(#67),#1176,.T.);
#1240=ADVANCED_FACE('',(#68),#1177,.T.);
#1241=ADVANCED_FACE('',(#69),#1178,.T.);
#1242=ADVANCED_FACE('',(#70),#1179,.T.);
#1243=ADVANCED_FACE('',(#71),#1180,.T.);
#1244=ADVANCED_FACE('',(#72),#1181,.F.);
#1245=ADVANCED_FACE('',(#73),#1182,.F.);
#1246=ADVANCED_FACE('',(#74),#1183,.F.);
#1247=ADVANCED_FACE('',(#75),#1184,.F.);
#1248=ADVANCED_FACE('',(#76),#1185,.T.);
#1249=ADVANCED_FACE('',(#77,#28),#1186,.T.);
#1250=ADVANCED_FACE('',(#78,#29),#1187,.T.);
#1251=ADVANCED_FACE('',(#79),#1188,.T.);
#1252=ADVANCED_FACE('',(#80),#1189,.T.);
#1253=ADVANCED_FACE('',(#81),#1190,.T.);
#1254=ADVANCED_FACE('',(#82),#1191,.T.);
#1255=ADVANCED_FACE('',(#83),#1192,.T.);
#1256=ADVANCED_FACE('',(#84),#1193,.T.);
#1257=ADVANCED_FACE('',(#85),#1194,.T.);
#1258=ADVANCED_FACE('',(#86),#1195,.F.);
#1259=ADVANCED_FACE('',(#87),#1196,.T.);
#1260=ADVANCED_FACE('',(#88),#1197,.T.);
#1261=ADVANCED_FACE('',(#89),#1198,.T.);
#1262=ADVANCED_FACE('',(#90),#1199,.T.);
#1263=ADVANCED_FACE('',(#91),#1200,.T.);
#1264=ADVANCED_FACE('',(#92),#1201,.F.);
#1265=CLOSED_SHELL('',(#1202,#1203,#1204,#1205,#1206,#1207,#1208,#1209,
#1210,#1211,#1212,#1213,#1214,#1215,#1216,#1217,#1218,#1219,#1220,#1221,
#1222,#1223,#1224,#1225,#1226,#1227,#1228,#1229,#1230,#1231,#1232,#1233,
#1234,#1235,#1236,#1237,#1238,#1239,#1240,#1241,#1242,#1243,#1244,#1245,
#1246,#1247,#1248,#1249,#1250,#1251,#1252,#1253,#1254,#1255,#1256,#1257,
#1258));
#1266=CLOSED_SHELL('',(#1259,#1260,#1261,#1262,#1263,#1264));
#1267=DERIVED_UNIT_ELEMENT(#1271,1.);
#1268=DERIVED_UNIT_ELEMENT(#2032,-3.);
#1269=DERIVED_UNIT_ELEMENT(#1271,1.);
#1270=DERIVED_UNIT_ELEMENT(#2032,-3.);
#1271=(
MASS_UNIT()
NAMED_UNIT(*)
SI_UNIT(.KILO.,.GRAM.)
);
#1272=DERIVED_UNIT((#1267,#1268));
#1273=DERIVED_UNIT((#1269,#1270));
#1274=MEASURE_REPRESENTATION_ITEM('density measure',
POSITIVE_RATIO_MEASURE(7850.),#1272);
#1275=MEASURE_REPRESENTATION_ITEM('density measure',
POSITIVE_RATIO_MEASURE(7850.),#1273);
#1276=PROPERTY_DEFINITION_REPRESENTATION(#1286,#1280);
#1277=PROPERTY_DEFINITION_REPRESENTATION(#1287,#1281);
#1278=PROPERTY_DEFINITION_REPRESENTATION(#1288,#1282);
#1279=PROPERTY_DEFINITION_REPRESENTATION(#1289,#1283);
#1280=REPRESENTATION('material name',(#1284),#2028);
#1281=REPRESENTATION('density',(#1274),#2028);
#1282=REPRESENTATION('material name',(#1285),#2029);
#1283=REPRESENTATION('density',(#1275),#2029);
#1284=DESCRIPTIVE_REPRESENTATION_ITEM('Steel','Steel');
#1285=DESCRIPTIVE_REPRESENTATION_ITEM('Steel','Steel');
#1286=PROPERTY_DEFINITION('material property','material name',#2048);
#1287=PROPERTY_DEFINITION('material property','density of part',#2048);
#1288=PROPERTY_DEFINITION('material property','material name',#2049);
#1289=PROPERTY_DEFINITION('material property','density of part',#2049);
#1290=AXIS2_PLACEMENT_3D('',#1667,#1358,#1359);
#1291=AXIS2_PLACEMENT_3D('',#1668,#1360,#1361);
#1292=AXIS2_PLACEMENT_3D('',#1669,#1362,#1363);
#1293=AXIS2_PLACEMENT_3D('',#1678,#1368,#1369);
#1294=AXIS2_PLACEMENT_3D('',#1684,#1373,#1374);
#1295=AXIS2_PLACEMENT_3D('',#1690,#1378,#1379);
#1296=AXIS2_PLACEMENT_3D('',#1693,#1382,#1383);
#1297=AXIS2_PLACEMENT_3D('',#1694,#1384,#1385);
#1298=AXIS2_PLACEMENT_3D('',#1703,#1390,#1391);
#1299=AXIS2_PLACEMENT_3D('',#1709,#1395,#1396);
#1300=AXIS2_PLACEMENT_3D('',#1713,#1399,#1400);
#1301=AXIS2_PLACEMENT_3D('',#1765,#1427,#1428);
#1302=AXIS2_PLACEMENT_3D('',#1775,#1434,#1435);
#1303=AXIS2_PLACEMENT_3D('',#1781,#1439,#1440);
#1304=AXIS2_PLACEMENT_3D('',#1787,#1444,#1445);
#1305=AXIS2_PLACEMENT_3D('',#1797,#1451,#1452);
#1306=AXIS2_PLACEMENT_3D('',#1801,#1455,#1456);
#1307=AXIS2_PLACEMENT_3D('',#1805,#1459,#1460);
#1308=AXIS2_PLACEMENT_3D('',#1813,#1465,#1466);
#1309=AXIS2_PLACEMENT_3D('',#1819,#1470,#1471);
#1310=AXIS2_PLACEMENT_3D('',#1823,#1474,#1475);
#1311=AXIS2_PLACEMENT_3D('',#1827,#1478,#1479);
#1312=AXIS2_PLACEMENT_3D('',#1829,#1481,#1482);
#1313=AXIS2_PLACEMENT_3D('',#1837,#1487,#1488);
#1314=AXIS2_PLACEMENT_3D('',#1841,#1491,#1492);
#1315=AXIS2_PLACEMENT_3D('',#1845,#1495,#1496);
#1316=AXIS2_PLACEMENT_3D('',#1860,#1505,#1506);
#1317=AXIS2_PLACEMENT_3D('',#1866,#1510,#1511);
#1318=AXIS2_PLACEMENT_3D('',#1868,#1513,#1514);
#1319=AXIS2_PLACEMENT_3D('',#1870,#1516,#1517);
#1320=AXIS2_PLACEMENT_3D('',#1874,#1520,#1521);
#1321=AXIS2_PLACEMENT_3D('',#1880,#1525,#1526);
#1322=AXIS2_PLACEMENT_3D('',#1884,#1529,#1530);
#1323=AXIS2_PLACEMENT_3D('',#1886,#1532,#1533);
#1324=AXIS2_PLACEMENT_3D('',#1888,#1535,#1536);
#1325=AXIS2_PLACEMENT_3D('',#1894,#1540,#1541);
#1326=AXIS2_PLACEMENT_3D('',#1898,#1544,#1545);
#1327=AXIS2_PLACEMENT_3D('',#1904,#1549,#1550);
#1328=AXIS2_PLACEMENT_3D('',#1906,#1552,#1553);
#1329=AXIS2_PLACEMENT_3D('',#1910,#1556,#1557);
#1330=AXIS2_PLACEMENT_3D('',#1914,#1560,#1561);
#1331=AXIS2_PLACEMENT_3D('',#1920,#1565,#1566);
#1332=AXIS2_PLACEMENT_3D('',#1922,#1568,#1569);
#1333=AXIS2_PLACEMENT_3D('',#1924,#1571,#1572);
#1334=AXIS2_PLACEMENT_3D('',#1926,#1574,#1575);
#1335=AXIS2_PLACEMENT_3D('',#1932,#1579,#1580);
#1336=AXIS2_PLACEMENT_3D('',#1936,#1583,#1584);
#1337=AXIS2_PLACEMENT_3D('',#1940,#1587,#1588);
#1338=AXIS2_PLACEMENT_3D('',#1942,#1590,#1591);
#1339=AXIS2_PLACEMENT_3D('',#1944,#1593,#1594);
#1340=AXIS2_PLACEMENT_3D('',#1961,#1603,#1604);
#1341=AXIS2_PLACEMENT_3D('',#1967,#1608,#1609);
#1342=AXIS2_PLACEMENT_3D('',#1971,#1612,#1613);
#1343=AXIS2_PLACEMENT_3D('',#1975,#1616,#1617);
#1344=AXIS2_PLACEMENT_3D('',#1979,#1620,#1621);
#1345=AXIS2_PLACEMENT_3D('',#1983,#1624,#1625);
#1346=AXIS2_PLACEMENT_3D('',#1987,#1628,#1629);
#1347=AXIS2_PLACEMENT_3D('',#1991,#1632,#1633);
#1348=AXIS2_PLACEMENT_3D('',#1993,#1635,#1636);
#1349=AXIS2_PLACEMENT_3D('',#1994,#1637,#1638);
#1350=AXIS2_PLACEMENT_3D('',#1995,#1639,#1640);
#1351=AXIS2_PLACEMENT_3D('',#2004,#1645,#1646);
#1352=AXIS2_PLACEMENT_3D('',#2010,#1650,#1651);
#1353=AXIS2_PLACEMENT_3D('',#2016,#1655,#1656);
#1354=AXIS2_PLACEMENT_3D('',#2019,#1659,#1660);
#1355=AXIS2_PLACEMENT_3D('',#2020,#1661,#1662);
#1356=AXIS2_PLACEMENT_3D('',#2021,#1663,#1664);
#1357=AXIS2_PLACEMENT_3D('',#2022,#1665,#1666);
#1358=DIRECTION('axis',(0.,0.,1.));
#1359=DIRECTION('refdir',(1.,0.,0.));
#1360=DIRECTION('axis',(0.,0.,1.));
#1361=DIRECTION('refdir',(1.,0.,0.));
#1362=DIRECTION('center_axis',(-1.,0.,0.));
#1363=DIRECTION('ref_axis',(0.,-1.,0.));
#1364=DIRECTION('',(0.,1.,0.));
#1365=DIRECTION('',(0.,0.,1.));
#1366=DIRECTION('',(0.,-1.,0.));
#1367=DIRECTION('',(0.,0.,1.));
#1368=DIRECTION('center_axis',(-6.42490176287706E-17,-1.,0.));
#1369=DIRECTION('ref_axis',(1.,-6.42490176287706E-17,0.));
#1370=DIRECTION('',(-1.,6.42490176287706E-17,0.));
#1371=DIRECTION('',(0.,0.,1.));
#1372=DIRECTION('',(1.,-6.42490176287706E-17,0.));
#1373=DIRECTION('center_axis',(9.22316424976592E-17,1.,0.));
#1374=DIRECTION('ref_axis',(-1.,9.22316424976592E-17,0.));
#1375=DIRECTION('',(1.,-9.22316424976592E-17,0.));
#1376=DIRECTION('',(-1.,9.22316424976592E-17,0.));
#1377=DIRECTION('',(0.,0.,1.));
#1378=DIRECTION('center_axis',(1.,0.,0.));
#1379=DIRECTION('ref_axis',(0.,1.,0.));
#1380=DIRECTION('',(0.,-1.,0.));
#1381=DIRECTION('',(0.,1.,0.));
#1382=DIRECTION('center_axis',(0.,0.,1.));
#1383=DIRECTION('ref_axis',(1.,0.,0.));
#1384=DIRECTION('center_axis',(1.,0.,0.));
#1385=DIRECTION('ref_axis',(0.,1.,0.));
#1386=DIRECTION('',(0.,-1.,0.));
#1387=DIRECTION('',(0.,0.,-1.));
#1388=DIRECTION('',(0.,1.,0.));
#1389=DIRECTION('',(0.,0.,1.));
#1390=DIRECTION('center_axis',(0.,-1.,0.));
#1391=DIRECTION('ref_axis',(1.,0.,0.));
#1392=DIRECTION('',(-1.,0.,0.));
#1393=DIRECTION('',(1.,0.,0.));
#1394=DIRECTION('',(0.,0.,1.));
#1395=DIRECTION('center_axis',(0.,0.,1.));
#1396=DIRECTION('ref_axis',(1.,0.,0.));
#1397=DIRECTION('',(1.,0.,0.));
#1398=DIRECTION('',(0.,1.,0.));
#1399=DIRECTION('center_axis',(0.,0.,1.));
#1400=DIRECTION('ref_axis',(1.,0.,0.));
#1401=DIRECTION('',(0.,-1.,0.));
#1402=DIRECTION('',(1.,8.32667268468868E-16,0.));
#1403=DIRECTION('',(0.,-1.,0.));
#1404=DIRECTION('',(-1.,0.,0.));
#1405=DIRECTION('',(0.,-1.,0.));
#1406=DIRECTION('',(1.,0.,0.));
#1407=DIRECTION('',(0.,-1.,0.));
#1408=DIRECTION('',(1.,0.,0.));
#1409=DIRECTION('',(0.,-1.,0.));
#1410=DIRECTION('',(1.,0.,0.));
#1411=DIRECTION('',(0.,1.,0.));
#1412=DIRECTION('',(1.,0.,0.));
#1413=DIRECTION('',(0.,1.,0.));
#1414=DIRECTION('',(1.,0.,0.));
#1415=DIRECTION('',(0.,1.,0.));
#1416=DIRECTION('',(-1.,0.,0.));
#1417=DIRECTION('',(0.,1.,0.));
#1418=DIRECTION('',(1.,0.,0.));
#1419=DIRECTION('',(0.,1.,0.));
#1420=DIRECTION('',(-1.,0.,0.));
#1421=DIRECTION('',(0.,1.,0.));
#1422=DIRECTION('',(-1.,0.,0.));
#1423=DIRECTION('',(0.,-1.,0.));
#1424=DIRECTION('',(-1.,0.,0.));
#1425=DIRECTION('',(0.,1.,0.));
#1426=DIRECTION('',(-1.,0.,0.));
#1427=DIRECTION('center_axis',(1.,0.,0.));
#1428=DIRECTION('ref_axis',(0.,1.,0.));
#1429=DIRECTION('',(0.,0.,1.));
#1430=DIRECTION('',(0.,1.,0.));
#1431=DIRECTION('',(0.,0.,1.));
#1432=DIRECTION('',(0.,1.,0.));
#1433=DIRECTION('',(0.,0.,-1.));
#1434=DIRECTION('center_axis',(0.,1.,0.));
#1435=DIRECTION('ref_axis',(-1.,0.,0.));
#1436=DIRECTION('',(0.,0.,1.));
#1437=DIRECTION('',(-1.,0.,0.));
#1438=DIRECTION('',(0.,0.,1.));
#1439=DIRECTION('center_axis',(0.,0.,1.));
#1440=DIRECTION('ref_axis',(1.,0.,0.));
#1441=DIRECTION('',(-1.,3.20923843055709E-16,0.));
#1442=DIRECTION('',(0.,-1.,0.));
#1443=DIRECTION('',(0.,-1.,0.));
#1444=DIRECTION('center_axis',(3.20923843055709E-16,1.,0.));
#1445=DIRECTION('ref_axis',(-1.,3.20923843055709E-16,0.));
#1446=DIRECTION('',(0.,0.,1.));
#1447=DIRECTION('',(-1.,6.42490176287706E-17,0.));
#1448=DIRECTION('',(0.,0.,1.));
#1449=DIRECTION('',(-1.,3.20923843055709E-16,0.));
#1450=DIRECTION('',(0.,0.,1.));
#1451=DIRECTION('center_axis',(-8.32667268468868E-16,1.,0.));
#1452=DIRECTION('ref_axis',(-1.,-8.32667268468868E-16,0.));
#1453=DIRECTION('',(-1.,-8.32667268468868E-16,0.));
#1454=DIRECTION('',(0.,0.,1.));
#1455=DIRECTION('center_axis',(0.,0.,1.));
#1456=DIRECTION('ref_axis',(1.,0.,0.));
#1457=DIRECTION('',(-1.,-8.19656842399042E-16,0.));
#1458=DIRECTION('',(0.,1.,0.));
#1459=DIRECTION('center_axis',(-8.19656842399042E-16,1.,0.));
#1460=DIRECTION('ref_axis',(-1.,-8.19656842399042E-16,0.));
#1461=DIRECTION('',(-1.,-8.19656842399042E-16,0.));
#1462=DIRECTION('',(0.,0.,1.));
#1463=DIRECTION('',(-1.,6.42490176287706E-17,0.));
#1464=DIRECTION('',(0.,0.,1.));
#1465=DIRECTION('center_axis',(-1.,0.,0.));
#1466=DIRECTION('ref_axis',(0.,-1.,0.));
#1467=DIRECTION('',(0.,0.,1.));
#1468=DIRECTION('',(0.,-1.,0.));
#1469=DIRECTION('',(0.,0.,1.));
#1470=DIRECTION('center_axis',(0.,-1.,0.));
#1471=DIRECTION('ref_axis',(1.,0.,0.));
#1472=DIRECTION('',(0.,0.,1.));
#1473=DIRECTION('',(1.,0.,0.));
#1474=DIRECTION('center_axis',(1.,0.,0.));
#1475=DIRECTION('ref_axis',(0.,1.,0.));
#1476=DIRECTION('',(0.,0.,-1.));
#1477=DIRECTION('',(0.,1.,0.));
#1478=DIRECTION('center_axis',(0.,0.,1.));
#1479=DIRECTION('ref_axis',(1.,0.,0.));
#1480=DIRECTION('',(1.,0.,0.));
#1481=DIRECTION('center_axis',(0.,-1.,0.));
#1482=DIRECTION('ref_axis',(1.,0.,0.));
#1483=DIRECTION('',(0.,0.,1.));
#1484=DIRECTION('',(1.,0.,0.));
#1485=DIRECTION('',(0.,0.,1.));
#1486=DIRECTION('',(1.,0.,0.));
#1487=DIRECTION('center_axis',(-1.,0.,0.));
#1488=DIRECTION('ref_axis',(0.,-1.,0.));
#1489=DIRECTION('',(0.,0.,1.));
#1490=DIRECTION('',(0.,-1.,0.));
#1491=DIRECTION('center_axis',(0.,0.,1.));
#1492=DIRECTION('ref_axis',(1.,0.,0.));
#1493=DIRECTION('',(1.,0.,0.));
#1494=DIRECTION('',(0.,-1.,0.));
#1495=DIRECTION('center_axis',(-1.,0.,0.));
#1496=DIRECTION('ref_axis',(0.,-1.,0.));
#1497=DIRECTION('',(0.,-1.,0.));
#1498=DIRECTION('',(0.,0.,-1.));
#1499=DIRECTION('',(0.,1.,0.));
#1500=DIRECTION('',(0.,0.,-1.));
#1501=DIRECTION('',(0.,0.,1.));
#1502=DIRECTION('',(0.,-1.,0.));
#1503=DIRECTION('',(0.,0.,1.));
#1504=DIRECTION('',(0.,-1.,0.));
#1505=DIRECTION('center_axis',(0.,-1.,0.));
#1506=DIRECTION('ref_axis',(1.,0.,0.));
#1507=DIRECTION('',(0.,0.,1.));
#1508=DIRECTION('',(1.,0.,0.));
#1509=DIRECTION('',(0.,0.,1.));
#1510=DIRECTION('center_axis',(1.,0.,0.));
#1511=DIRECTION('ref_axis',(0.,1.,0.));
#1512=DIRECTION('',(0.,1.,0.));
#1513=DIRECTION('center_axis',(0.,0.,1.));
#1514=DIRECTION('ref_axis',(1.,0.,0.));
#1515=DIRECTION('',(0.,1.,0.));
#1516=DIRECTION('center_axis',(0.,1.,0.));
#1517=DIRECTION('ref_axis',(-1.,0.,0.));
#1518=DIRECTION('',(0.,0.,1.));
#1519=DIRECTION('',(-1.,0.,0.));
#1520=DIRECTION('center_axis',(-1.,0.,0.));
#1521=DIRECTION('ref_axis',(0.,-1.,0.));
#1522=DIRECTION('',(0.,0.,-1.));
#1523=DIRECTION('',(0.,-1.,0.));
#1524=DIRECTION('',(0.,0.,1.));
#1525=DIRECTION('center_axis',(0.,1.,0.));
#1526=DIRECTION('ref_axis',(-1.,0.,0.));
#1527=DIRECTION('',(-1.,0.,0.));
#1528=DIRECTION('',(0.,0.,1.));
#1529=DIRECTION('center_axis',(-1.,0.,0.));
#1530=DIRECTION('ref_axis',(0.,-1.,0.));
#1531=DIRECTION('',(0.,-1.,0.));
#1532=DIRECTION('center_axis',(0.,0.,1.));
#1533=DIRECTION('ref_axis',(1.,0.,0.));
#1534=DIRECTION('',(-1.,0.,0.));
#1535=DIRECTION('center_axis',(1.,0.,0.));
#1536=DIRECTION('ref_axis',(0.,1.,0.));
#1537=DIRECTION('',(0.,0.,1.));
#1538=DIRECTION('',(0.,1.,0.));
#1539=DIRECTION('',(0.,0.,1.));
#1540=DIRECTION('center_axis',(0.,1.,0.));
#1541=DIRECTION('ref_axis',(-1.,0.,0.));
#1542=DIRECTION('',(0.,0.,1.));
#1543=DIRECTION('',(-1.,0.,0.));
#1544=DIRECTION('center_axis',(0.,1.,0.));
#1545=DIRECTION('ref_axis',(-1.,0.,0.));
#1546=DIRECTION('',(0.,0.,-1.));
#1547=DIRECTION('',(-1.,0.,0.));
#1548=DIRECTION('',(0.,0.,1.));
#1549=DIRECTION('center_axis',(1.,0.,0.));
#1550=DIRECTION('ref_axis',(0.,1.,0.));
#1551=DIRECTION('',(0.,1.,0.));
#1552=DIRECTION('center_axis',(0.,0.,1.));
#1553=DIRECTION('ref_axis',(1.,0.,0.));
#1554=DIRECTION('',(0.,1.,0.));
#1555=DIRECTION('',(-1.,0.,0.));
#1556=DIRECTION('center_axis',(1.,0.,0.));
#1557=DIRECTION('ref_axis',(0.,1.,0.));
#1558=DIRECTION('',(0.,1.,0.));
#1559=DIRECTION('',(0.,0.,1.));
#1560=DIRECTION('center_axis',(0.,-1.,0.));
#1561=DIRECTION('ref_axis',(1.,0.,0.));
#1562=DIRECTION('',(0.,0.,-1.));
#1563=DIRECTION('',(1.,0.,0.));
#1564=DIRECTION('',(0.,0.,1.));
#1565=DIRECTION('center_axis',(-1.,0.,0.));
#1566=DIRECTION('ref_axis',(0.,-1.,0.));
#1567=DIRECTION('',(0.,-1.,0.));
#1568=DIRECTION('center_axis',(0.,0.,1.));
#1569=DIRECTION('ref_axis',(1.,0.,0.));
#1570=DIRECTION('',(0.,-1.,0.));
#1571=DIRECTION('center_axis',(-1.,0.,0.));
#1572=DIRECTION('ref_axis',(0.,-1.,0.));
#1573=DIRECTION('',(0.,-1.,0.));
#1574=DIRECTION('center_axis',(0.,0.,1.));
#1575=DIRECTION('ref_axis',(0.,1.,0.));
#1576=DIRECTION('',(0.,1.,0.));
#1577=DIRECTION('',(-1.,0.,0.));
#1578=DIRECTION('',(-1.,0.,0.));
#1579=DIRECTION('center_axis',(0.,-1.,0.));
#1580=DIRECTION('ref_axis',(0.,0.,1.));
#1581=DIRECTION('',(0.,0.,1.));
#1582=DIRECTION('',(-1.,0.,0.));
#1583=DIRECTION('center_axis',(0.,0.,-1.));
#1584=DIRECTION('ref_axis',(0.,-1.,0.));
#1585=DIRECTION('',(0.,-1.,0.));
#1586=DIRECTION('',(-1.,0.,0.));
#1587=DIRECTION('center_axis',(0.,1.,0.));
#1588=DIRECTION('ref_axis',(0.,0.,-1.));
#1589=DIRECTION('',(0.,0.,-1.));
#1590=DIRECTION('center_axis',(0.,1.,0.));
#1591=DIRECTION('ref_axis',(-1.,0.,0.));
#1592=DIRECTION('',(-1.,0.,0.));
#1593=DIRECTION('center_axis',(0.,0.,1.));
#1594=DIRECTION('ref_axis',(1.,0.,0.));
#1595=DIRECTION('',(1.,-6.24500451351651E-16,0.));
#1596=DIRECTION('',(0.,1.,0.));
#1597=DIRECTION('',(-1.,0.,0.));
#1598=DIRECTION('',(0.,-1.,0.));
#1599=DIRECTION('',(1.,8.32667268468868E-16,0.));
#1600=DIRECTION('',(0.,-1.,0.));
#1601=DIRECTION('',(1.,0.,0.));
#1602=DIRECTION('',(0.,1.,0.));
#1603=DIRECTION('center_axis',(1.,0.,0.));
#1604=DIRECTION('ref_axis',(0.,1.,0.));
#1605=DIRECTION('',(0.,-1.,0.));
#1606=DIRECTION('',(0.,0.,1.));
#1607=DIRECTION('',(0.,0.,1.));
#1608=DIRECTION('center_axis',(0.,-1.,0.));
#1609=DIRECTION('ref_axis',(1.,0.,0.));
#1610=DIRECTION('',(-1.,0.,0.));
#1611=DIRECTION('',(0.,0.,1.));
#1612=DIRECTION('center_axis',(-1.,0.,0.));
#1613=DIRECTION('ref_axis',(0.,-1.,0.));
#1614=DIRECTION('',(0.,1.,0.));
#1615=DIRECTION('',(0.,0.,1.));
#1616=DIRECTION('center_axis',(8.32667268468868E-16,-1.,0.));
#1617=DIRECTION('ref_axis',(1.,8.32667268468868E-16,0.));
#1618=DIRECTION('',(-1.,-8.32667268468868E-16,0.));
#1619=DIRECTION('',(0.,0.,1.));
#1620=DIRECTION('center_axis',(-1.,0.,0.));
#1621=DIRECTION('ref_axis',(0.,-1.,0.));
#1622=DIRECTION('',(0.,1.,0.));
#1623=DIRECTION('',(0.,0.,1.));
#1624=DIRECTION('center_axis',(0.,1.,0.));
#1625=DIRECTION('ref_axis',(-1.,0.,0.));
#1626=DIRECTION('',(1.,0.,0.));
#1627=DIRECTION('',(0.,0.,1.));
#1628=DIRECTION('center_axis',(1.,0.,0.));
#1629=DIRECTION('ref_axis',(0.,1.,0.));
#1630=DIRECTION('',(0.,-1.,0.));
#1631=DIRECTION('',(0.,0.,1.));
#1632=DIRECTION('center_axis',(-6.24500451351651E-16,-1.,0.));
#1633=DIRECTION('ref_axis',(1.,-6.24500451351651E-16,0.));
#1634=DIRECTION('',(1.,-6.24500451351651E-16,0.));
#1635=DIRECTION('center_axis',(0.,0.,1.));
#1636=DIRECTION('ref_axis',(1.,0.,0.));
#1637=DIRECTION('axis',(0.,0.,1.));
#1638=DIRECTION('refdir',(1.,0.,0.));
#1639=DIRECTION('center_axis',(-1.,0.,0.));
#1640=DIRECTION('ref_axis',(0.,-1.,0.));
#1641=DIRECTION('',(0.,1.,0.));
#1642=DIRECTION('',(0.,0.,1.));
#1643=DIRECTION('',(0.,-1.,0.));
#1644=DIRECTION('',(0.,0.,1.));
#1645=DIRECTION('center_axis',(0.,1.,0.));
#1646=DIRECTION('ref_axis',(-1.,0.,0.));
#1647=DIRECTION('',(1.,0.,0.));
#1648=DIRECTION('',(-1.,0.,0.));
#1649=DIRECTION('',(0.,0.,1.));
#1650=DIRECTION('center_axis',(1.,0.,0.));
#1651=DIRECTION('ref_axis',(0.,1.,0.));
#1652=DIRECTION('',(0.,-1.,0.));
#1653=DIRECTION('',(0.,1.,0.));
#1654=DIRECTION('',(0.,0.,1.));
#1655=DIRECTION('center_axis',(0.,-1.,0.));
#1656=DIRECTION('ref_axis',(1.,0.,0.));
#1657=DIRECTION('',(-1.,0.,0.));
#1658=DIRECTION('',(1.,0.,0.));
#1659=DIRECTION('center_axis',(0.,0.,1.));
#1660=DIRECTION('ref_axis',(1.,0.,0.));
#1661=DIRECTION('center_axis',(0.,0.,1.));
#1662=DIRECTION('ref_axis',(-1.,0.,0.));
#1663=DIRECTION('',(0.,0.,1.));
#1664=DIRECTION('',(1.,0.,0.));
#1665=DIRECTION('',(0.,0.,1.));
#1666=DIRECTION('',(1.,0.,0.));
#1667=CARTESIAN_POINT('',(0.,0.,0.));
#1668=CARTESIAN_POINT('',(0.,0.,0.));
#1669=CARTESIAN_POINT('Origin',(-10.,3.86000000000001,0.));
#1670=CARTESIAN_POINT('',(-10.,-0.139999999999996,4.));
#1671=CARTESIAN_POINT('',(-10.,3.86000000000001,4.));
#1672=CARTESIAN_POINT('',(-10.,-4.06999999999999,4.));
#1673=CARTESIAN_POINT('',(-10.,-0.139999999999996,22.));
#1674=CARTESIAN_POINT('',(-10.,-0.139999999999996,0.));
#1675=CARTESIAN_POINT('',(-10.,3.86000000000001,22.));
#1676=CARTESIAN_POINT('',(-10.,-0.139999999999996,22.));
#1677=CARTESIAN_POINT('',(-10.,3.86000000000001,0.));
#1678=CARTESIAN_POINT('Origin',(-10.,-0.139999999999996,0.));
#1679=CARTESIAN_POINT('',(10.,-0.139999999999997,4.));
#1680=CARTESIAN_POINT('',(-5.,-0.139999999999996,4.));
#1681=CARTESIAN_POINT('',(10.,-0.139999999999997,22.));
#1682=CARTESIAN_POINT('',(10.,-0.139999999999997,0.));
#1683=CARTESIAN_POINT('',(-49.14,-0.139999999999993,22.));
#1684=CARTESIAN_POINT('Origin',(10.,3.86000000000001,0.));
#1685=CARTESIAN_POINT('',(10.,3.86,4.));
#1686=CARTESIAN_POINT('',(5.,3.86000000000001,4.));
#1687=CARTESIAN_POINT('',(10.,3.86,22.));
#1688=CARTESIAN_POINT('',(-45.14,3.86000000000001,22.));
#1689=CARTESIAN_POINT('',(10.,3.86,0.));
#1690=CARTESIAN_POINT('Origin',(10.,-0.139999999999997,0.));
#1691=CARTESIAN_POINT('',(10.,-6.06999999999999,4.));
#1692=CARTESIAN_POINT('',(10.,-0.139999999999997,22.));
#1693=CARTESIAN_POINT('Origin',(0.,1.86,22.));
#1694=CARTESIAN_POINT('Origin',(-47.14,56.14,0.));
#1695=CARTESIAN_POINT('',(-47.14,60.14,4.));
#1696=CARTESIAN_POINT('',(-47.14,56.14,4.));
#1697=CARTESIAN_POINT('',(-47.14,22.07,4.));
#1698=CARTESIAN_POINT('',(-47.14,60.14,22.));
#1699=CARTESIAN_POINT('',(-47.14,60.14,0.));
#1700=CARTESIAN_POINT('',(-47.14,56.14,22.));
#1701=CARTESIAN_POINT('',(-47.14,56.14,22.));
#1702=CARTESIAN_POINT('',(-47.14,56.14,0.));
#1703=CARTESIAN_POINT('Origin',(-57.14,56.14,0.));
#1704=CARTESIAN_POINT('',(-57.14,56.14,4.));
#1705=CARTESIAN_POINT('',(-28.57,56.14,4.));
#1706=CARTESIAN_POINT('',(-57.14,56.14,22.));
#1707=CARTESIAN_POINT('',(-53.14,56.14,22.));
#1708=CARTESIAN_POINT('',(-57.14,56.14,0.));
#1709=CARTESIAN_POINT('Origin',(-52.14,58.14,22.));
#1710=CARTESIAN_POINT('',(-57.14,60.14,22.));
#1711=CARTESIAN_POINT('',(-54.64,60.14,22.));
#1712=CARTESIAN_POINT('',(-57.14,29.,22.));
#1713=CARTESIAN_POINT('Origin',(0.,-12.,4.));
#1714=CARTESIAN_POINT('',(-57.14,3.86,4.));
#1715=CARTESIAN_POINT('',(-57.14,-6.07,4.));
#1716=CARTESIAN_POINT('',(-45.14,3.86000000000001,4.));
#1717=CARTESIAN_POINT('',(-22.57,3.86000000000003,4.));
#1718=CARTESIAN_POINT('',(-45.14,-10.14,4.));
#1719=CARTESIAN_POINT('',(-45.14,-6.06999999999999,4.));
#1720=CARTESIAN_POINT('',(-49.14,-10.14,4.));
#1721=CARTESIAN_POINT('',(-24.57,-10.14,4.));
#1722=CARTESIAN_POINT('',(-49.14,-75.14,4.));
#1723=CARTESIAN_POINT('',(-49.14,-48.07,4.));
#1724=CARTESIAN_POINT('',(-45.14,-75.14,4.));
#1725=CARTESIAN_POINT('',(-22.57,-75.14,4.));
#1726=CARTESIAN_POINT('',(-45.14,-80.14,4.));
#1727=CARTESIAN_POINT('',(-45.14,-46.07,4.));
#1728=CARTESIAN_POINT('',(-40.14,-80.14,4.));
#1729=CARTESIAN_POINT('',(-20.07,-80.14,4.));
#1730=CARTESIAN_POINT('',(-40.14,-84.14,4.));
#1731=CARTESIAN_POINT('',(-40.14,-48.07,4.));
#1732=CARTESIAN_POINT('',(40.14,-84.14,4.));
#1733=CARTESIAN_POINT('',(24.57,-84.14,4.));
#1734=CARTESIAN_POINT('',(40.14,-80.14,4.));
#1735=CARTESIAN_POINT('',(40.14,-46.07,4.));
#1736=CARTESIAN_POINT('',(45.14,-80.14,4.));
#1737=CARTESIAN_POINT('',(22.57,-80.14,4.));
#1738=CARTESIAN_POINT('',(45.14,-75.14,4.));
#1739=CARTESIAN_POINT('',(45.14,-43.57,4.));
#1740=CARTESIAN_POINT('',(49.14,-75.14,4.));
#1741=CARTESIAN_POINT('',(24.57,-75.14,4.));
#1742=CARTESIAN_POINT('',(49.14,-10.14,4.));
#1743=CARTESIAN_POINT('',(49.14,-6.07,4.));
#1744=CARTESIAN_POINT('',(45.14,-10.14,4.));
#1745=CARTESIAN_POINT('',(22.57,-10.14,4.));
#1746=CARTESIAN_POINT('',(45.14,3.86,4.));
#1747=CARTESIAN_POINT('',(45.14,-4.07,4.));
#1748=CARTESIAN_POINT('',(57.14,3.86,4.));
#1749=CARTESIAN_POINT('',(28.57,3.86,4.));
#1750=CARTESIAN_POINT('',(57.14,56.14,4.));
#1751=CARTESIAN_POINT('',(57.14,24.07,4.));
#1752=CARTESIAN_POINT('',(47.14,56.14,4.));
#1753=CARTESIAN_POINT('',(23.57,56.14,4.));
#1754=CARTESIAN_POINT('',(47.14,60.14,4.));
#1755=CARTESIAN_POINT('',(47.14,24.07,4.));
#1756=CARTESIAN_POINT('',(10.,60.14,4.));
#1757=CARTESIAN_POINT('',(-28.57,60.14,4.));
#1758=CARTESIAN_POINT('',(10.,56.14,4.));
#1759=CARTESIAN_POINT('',(10.,22.07,4.));
#1760=CARTESIAN_POINT('',(-10.,56.14,4.));
#1761=CARTESIAN_POINT('',(-5.,56.14,4.));
#1762=CARTESIAN_POINT('',(-10.,60.14,4.));
#1763=CARTESIAN_POINT('',(-10.,24.07,4.));
#1764=CARTESIAN_POINT('',(-28.57,60.14,4.));
#1765=CARTESIAN_POINT('Origin',(-57.14,-0.14,0.));
#1766=CARTESIAN_POINT('',(-57.14,60.14,38.));
#1767=CARTESIAN_POINT('',(-57.14,60.14,0.));
#1768=CARTESIAN_POINT('',(-57.14,-0.14,38.));
#1769=CARTESIAN_POINT('',(-57.14,-0.14,38.));
#1770=CARTESIAN_POINT('',(-57.14,-0.14,22.));
#1771=CARTESIAN_POINT('',(-57.14,-0.14,0.));
#1772=CARTESIAN_POINT('',(-57.14,3.86,22.));
#1773=CARTESIAN_POINT('',(-57.14,0.860000000000002,22.));
#1774=CARTESIAN_POINT('',(-57.14,3.86,0.));
#1775=CARTESIAN_POINT('Origin',(57.14,3.86,0.));
#1776=CARTESIAN_POINT('',(45.14,3.86,22.));
#1777=CARTESIAN_POINT('',(45.14,3.86,0.));
#1778=CARTESIAN_POINT('',(57.14,3.86,22.));
#1779=CARTESIAN_POINT('',(53.14,3.86,22.));
#1780=CARTESIAN_POINT('',(57.14,3.86,0.));
#1781=CARTESIAN_POINT('Origin',(51.14,1.86,22.));
#1782=CARTESIAN_POINT('',(57.14,-0.140000000000002,22.));
#1783=CARTESIAN_POINT('',(45.14,-0.14,22.));
#1784=CARTESIAN_POINT('',(54.14,-0.140000000000001,22.));
#1785=CARTESIAN_POINT('',(57.14,31.,22.));
#1786=CARTESIAN_POINT('',(45.14,-0.14,22.));
#1787=CARTESIAN_POINT('Origin',(57.14,-0.140000000000002,0.));
#1788=CARTESIAN_POINT('',(45.14,-0.14,34.));
#1789=CARTESIAN_POINT('',(45.14,-0.14,0.));
#1790=CARTESIAN_POINT('',(49.14,-0.14,34.));
#1791=CARTESIAN_POINT('',(-49.14,-0.139999999999993,34.));
#1792=CARTESIAN_POINT('',(49.14,-0.14,38.));
#1793=CARTESIAN_POINT('',(49.14,-0.14,0.));
#1794=CARTESIAN_POINT('',(57.14,-0.140000000000002,38.));
#1795=CARTESIAN_POINT('',(49.14,-0.14,38.));
#1796=CARTESIAN_POINT('',(57.14,-0.140000000000002,0.));
#1797=CARTESIAN_POINT('Origin',(-45.14,3.86000000000001,0.));
#1798=CARTESIAN_POINT('',(-45.14,3.86000000000001,22.));
#1799=CARTESIAN_POINT('',(-45.14,3.86000000000001,22.));
#1800=CARTESIAN_POINT('',(-45.14,3.86000000000001,0.));
#1801=CARTESIAN_POINT('Origin',(-51.14,1.86,22.));
#1802=CARTESIAN_POINT('',(-45.14,-0.139999999999994,22.));
#1803=CARTESIAN_POINT('',(-50.14,-0.139999999999994,22.));
#1804=CARTESIAN_POINT('',(-45.14,-0.139999999999994,22.));
#1805=CARTESIAN_POINT('Origin',(-49.14,-0.139999999999993,0.));
#1806=CARTESIAN_POINT('',(-49.14,-0.139999999999993,38.));
#1807=CARTESIAN_POINT('',(-49.14,-0.139999999999993,38.));
#1808=CARTESIAN_POINT('',(-49.14,-0.139999999999993,34.));
#1809=CARTESIAN_POINT('',(-49.14,-0.139999999999993,0.));
#1810=CARTESIAN_POINT('',(-45.14,-0.139999999999993,34.));
#1811=CARTESIAN_POINT('',(-49.14,-0.139999999999993,34.));
#1812=CARTESIAN_POINT('',(-45.14,-0.139999999999994,0.));
#1813=CARTESIAN_POINT('Origin',(-10.,60.14,0.));
#1814=CARTESIAN_POINT('',(-10.,56.14,22.));
#1815=CARTESIAN_POINT('',(-10.,56.14,0.));
#1816=CARTESIAN_POINT('',(-10.,60.14,22.));
#1817=CARTESIAN_POINT('',(-10.,56.14,22.));
#1818=CARTESIAN_POINT('',(-10.,60.14,0.));
#1819=CARTESIAN_POINT('Origin',(-10.,56.14,0.));
#1820=CARTESIAN_POINT('',(10.,56.14,22.));
#1821=CARTESIAN_POINT('',(10.,56.14,0.));
#1822=CARTESIAN_POINT('',(-53.14,56.14,22.));
#1823=CARTESIAN_POINT('Origin',(10.,56.14,0.));
#1824=CARTESIAN_POINT('',(10.,60.14,22.));
#1825=CARTESIAN_POINT('',(10.,60.14,0.));
#1826=CARTESIAN_POINT('',(10.,56.14,22.));
#1827=CARTESIAN_POINT('Origin',(0.,58.14,22.));
#1828=CARTESIAN_POINT('',(-28.57,60.14,22.));
#1829=CARTESIAN_POINT('Origin',(-57.14,60.14,0.));
#1830=CARTESIAN_POINT('',(47.14,60.14,22.));
#1831=CARTESIAN_POINT('',(47.14,60.14,0.));
#1832=CARTESIAN_POINT('',(57.14,60.14,22.));
#1833=CARTESIAN_POINT('',(-2.5,60.14,22.));
#1834=CARTESIAN_POINT('',(57.14,60.14,38.));
#1835=CARTESIAN_POINT('',(57.14,60.14,0.));
#1836=CARTESIAN_POINT('',(-57.14,60.14,38.));
#1837=CARTESIAN_POINT('Origin',(45.14,-0.14,0.));
#1838=CARTESIAN_POINT('',(45.14,-10.14,34.));
#1839=CARTESIAN_POINT('',(45.14,-10.14,0.));
#1840=CARTESIAN_POINT('',(45.14,-0.14,34.));
#1841=CARTESIAN_POINT('Origin',(47.14,-5.14,34.));
#1842=CARTESIAN_POINT('',(49.14,-10.14,34.));
#1843=CARTESIAN_POINT('',(45.14,-10.14,34.));
#1844=CARTESIAN_POINT('',(49.14,-2.64,34.));
#1845=CARTESIAN_POINT('Origin',(49.14,-0.14,0.));
#1846=CARTESIAN_POINT('',(49.14,-14.14,34.));
#1847=CARTESIAN_POINT('',(49.14,-7.14,34.));
#1848=CARTESIAN_POINT('',(49.14,-14.14,30.));
#1849=CARTESIAN_POINT('',(49.14,-14.14,15.));
#1850=CARTESIAN_POINT('',(49.14,-10.14,30.));
#1851=CARTESIAN_POINT('',(49.14,-5.14,30.));
#1852=CARTESIAN_POINT('',(49.14,-10.14,0.));
#1853=CARTESIAN_POINT('',(49.14,-75.14,34.));
#1854=CARTESIAN_POINT('',(49.14,-75.14,0.));
#1855=CARTESIAN_POINT('',(49.14,-84.14,34.));
#1856=CARTESIAN_POINT('',(49.14,-39.89,34.));
#1857=CARTESIAN_POINT('',(49.14,-84.14,38.));
#1858=CARTESIAN_POINT('',(49.14,-84.14,0.));
#1859=CARTESIAN_POINT('',(49.14,-0.14,38.));
#1860=CARTESIAN_POINT('Origin',(-49.14,-10.14,0.));
#1861=CARTESIAN_POINT('',(-45.14,-10.14,34.));
#1862=CARTESIAN_POINT('',(-45.14,-10.14,0.));
#1863=CARTESIAN_POINT('',(-49.14,-10.14,34.));
#1864=CARTESIAN_POINT('',(-45.14,-10.14,34.));
#1865=CARTESIAN_POINT('',(-49.14,-10.14,0.));
#1866=CARTESIAN_POINT('Origin',(-45.14,-10.14,0.));
#1867=CARTESIAN_POINT('',(-45.14,-80.14,34.));
#1868=CARTESIAN_POINT('Origin',(-47.14,-5.13999999999999,34.));
#1869=CARTESIAN_POINT('',(-49.14,-44.64,34.));
#1870=CARTESIAN_POINT('Origin',(49.14,-75.14,0.));
#1871=CARTESIAN_POINT('',(45.14,-75.14,34.));
#1872=CARTESIAN_POINT('',(45.14,-75.14,0.));
#1873=CARTESIAN_POINT('',(45.14,-75.14,34.));
#1874=CARTESIAN_POINT('Origin',(40.14,-80.14,0.));
#1875=CARTESIAN_POINT('',(40.14,-84.14,34.));
#1876=CARTESIAN_POINT('',(40.14,-84.14,0.));
#1877=CARTESIAN_POINT('',(40.14,-80.14,34.));
#1878=CARTESIAN_POINT('',(40.14,-84.14,34.));
#1879=CARTESIAN_POINT('',(40.14,-80.14,0.));
#1880=CARTESIAN_POINT('Origin',(45.14,-80.14,0.));
#1881=CARTESIAN_POINT('',(45.14,-80.14,34.));
#1882=CARTESIAN_POINT('',(45.14,-80.14,34.));
#1883=CARTESIAN_POINT('',(45.14,-80.14,0.));
#1884=CARTESIAN_POINT('Origin',(45.14,-75.14,0.));
#1885=CARTESIAN_POINT('',(45.14,-0.14,34.));
#1886=CARTESIAN_POINT('Origin',(44.64,-79.64,34.));
#1887=CARTESIAN_POINT('',(46.89,-84.14,34.));
#1888=CARTESIAN_POINT('Origin',(-40.14,-84.14,0.));
#1889=CARTESIAN_POINT('',(-40.14,-80.14,34.));
#1890=CARTESIAN_POINT('',(-40.14,-80.14,0.));
#1891=CARTESIAN_POINT('',(-40.14,-84.14,34.));
#1892=CARTESIAN_POINT('',(-40.14,-80.14,34.));
#1893=CARTESIAN_POINT('',(-40.14,-84.14,0.));
#1894=CARTESIAN_POINT('Origin',(-40.14,-80.14,0.));
#1895=CARTESIAN_POINT('',(-45.14,-80.14,34.));
#1896=CARTESIAN_POINT('',(-45.14,-80.14,0.));
#1897=CARTESIAN_POINT('',(45.14,-80.14,34.));
#1898=CARTESIAN_POINT('Origin',(-45.14,-75.14,0.));
#1899=CARTESIAN_POINT('',(-49.14,-75.14,34.));
#1900=CARTESIAN_POINT('',(-49.14,-75.14,0.));
#1901=CARTESIAN_POINT('',(-45.14,-75.14,34.));
#1902=CARTESIAN_POINT('',(-49.14,-75.14,34.));
#1903=CARTESIAN_POINT('',(-45.14,-75.14,0.));
#1904=CARTESIAN_POINT('Origin',(-45.14,-80.14,0.));
#1905=CARTESIAN_POINT('',(-45.14,-80.14,34.));
#1906=CARTESIAN_POINT('Origin',(-44.64,-79.64,34.));
#1907=CARTESIAN_POINT('',(-49.14,-84.14,34.));
#1908=CARTESIAN_POINT('',(-49.14,-81.89,34.));
#1909=CARTESIAN_POINT('',(2.25,-84.14,34.));
#1910=CARTESIAN_POINT('Origin',(-49.14,-84.14,0.));
#1911=CARTESIAN_POINT('',(-49.14,-84.14,38.));
#1912=CARTESIAN_POINT('',(-49.14,-84.14,38.));
#1913=CARTESIAN_POINT('',(-49.14,-84.14,0.));
#1914=CARTESIAN_POINT('Origin',(47.14,56.14,0.));
#1915=CARTESIAN_POINT('',(57.14,56.14,22.));
#1916=CARTESIAN_POINT('',(57.14,56.14,0.));
#1917=CARTESIAN_POINT('',(47.14,56.14,22.));
#1918=CARTESIAN_POINT('',(53.14,56.14,22.));
#1919=CARTESIAN_POINT('',(47.14,56.14,0.));
#1920=CARTESIAN_POINT('Origin',(47.14,60.14,0.));
#1921=CARTESIAN_POINT('',(47.14,56.14,22.));
#1922=CARTESIAN_POINT('Origin',(52.14,58.14,22.));
#1923=CARTESIAN_POINT('',(57.14,59.14,22.));
#1924=CARTESIAN_POINT('Origin',(57.14,60.14,0.));
#1925=CARTESIAN_POINT('',(57.14,60.14,38.));
#1926=CARTESIAN_POINT('Origin',(53.14,-14.14,34.));
#1927=CARTESIAN_POINT('',(53.14,-14.14,34.));
#1928=CARTESIAN_POINT('',(53.14,-10.14,34.));
#1929=CARTESIAN_POINT('',(53.14,-51.14,34.));
#1930=CARTESIAN_POINT('',(53.14,-14.14,34.));
#1931=CARTESIAN_POINT('',(53.14,-10.14,34.));
#1932=CARTESIAN_POINT('Origin',(53.14,-14.14,30.));
#1933=CARTESIAN_POINT('',(53.14,-14.14,30.));
#1934=CARTESIAN_POINT('',(53.14,-14.14,15.));
#1935=CARTESIAN_POINT('',(53.14,-14.14,30.));
#1936=CARTESIAN_POINT('Origin',(53.14,-10.14,30.));
#1937=CARTESIAN_POINT('',(53.14,-10.14,30.));
#1938=CARTESIAN_POINT('',(53.14,-49.14,30.));
#1939=CARTESIAN_POINT('',(53.14,-10.14,30.));
#1940=CARTESIAN_POINT('Origin',(53.14,-10.14,34.));
#1941=CARTESIAN_POINT('',(53.14,-10.14,17.));
#1942=CARTESIAN_POINT('Origin',(49.14,-84.14,0.));
#1943=CARTESIAN_POINT('',(49.14,-84.14,38.));
#1944=CARTESIAN_POINT('Origin',(0.,-12.,38.));
#1945=CARTESIAN_POINT('',(53.14,-4.14,38.));
#1946=CARTESIAN_POINT('',(61.14,-4.14000000000001,38.));
#1947=CARTESIAN_POINT('',(53.14,-4.14,38.));
#1948=CARTESIAN_POINT('',(61.14,64.14,38.));
#1949=CARTESIAN_POINT('',(61.14,64.14,38.));
#1950=CARTESIAN_POINT('',(-61.14,64.14,38.));
#1951=CARTESIAN_POINT('',(-61.14,64.14,38.));
#1952=CARTESIAN_POINT('',(-61.14,-4.14,38.));
#1953=CARTESIAN_POINT('',(-61.14,-4.14,38.));
#1954=CARTESIAN_POINT('',(-53.14,-4.14,38.));
#1955=CARTESIAN_POINT('',(-53.14,-4.14,38.));
#1956=CARTESIAN_POINT('',(-53.14,-88.14,38.));
#1957=CARTESIAN_POINT('',(-53.14,-88.14,38.));
#1958=CARTESIAN_POINT('',(53.14,-88.14,38.));
#1959=CARTESIAN_POINT('',(53.14,-88.14,38.));
#1960=CARTESIAN_POINT('',(53.14,-4.14,38.));
#1961=CARTESIAN_POINT('Origin',(53.14,-88.14,0.));
#1962=CARTESIAN_POINT('',(53.14,-4.14,0.));
#1963=CARTESIAN_POINT('',(53.14,-88.14,0.));
#1964=CARTESIAN_POINT('',(53.14,-4.14,0.));
#1965=CARTESIAN_POINT('',(53.14,-4.14,0.));
#1966=CARTESIAN_POINT('',(53.14,-88.14,0.));
#1967=CARTESIAN_POINT('Origin',(-53.14,-88.14,0.));
#1968=CARTESIAN_POINT('',(-53.14,-88.14,0.));
#1969=CARTESIAN_POINT('',(53.14,-88.14,0.));
#1970=CARTESIAN_POINT('',(-53.14,-88.14,0.));
#1971=CARTESIAN_POINT('Origin',(-53.14,-4.14,0.));
#1972=CARTESIAN_POINT('',(-53.14,-4.14,0.));
#1973=CARTESIAN_POINT('',(-53.14,-88.14,0.));
#1974=CARTESIAN_POINT('',(-53.14,-4.14,0.));
#1975=CARTESIAN_POINT('Origin',(-61.14,-4.14,0.));
#1976=CARTESIAN_POINT('',(-61.14,-4.14,0.));
#1977=CARTESIAN_POINT('',(-53.14,-4.14,0.));
#1978=CARTESIAN_POINT('',(-61.14,-4.14,0.));
#1979=CARTESIAN_POINT('Origin',(-61.14,64.14,0.));
#1980=CARTESIAN_POINT('',(-61.14,64.14,0.));
#1981=CARTESIAN_POINT('',(-61.14,-4.14,0.));
#1982=CARTESIAN_POINT('',(-61.14,64.14,0.));
#1983=CARTESIAN_POINT('Origin',(61.14,64.14,0.));
#1984=CARTESIAN_POINT('',(61.14,64.14,0.));
#1985=CARTESIAN_POINT('',(-61.14,64.14,0.));
#1986=CARTESIAN_POINT('',(61.14,64.14,0.));
#1987=CARTESIAN_POINT('Origin',(61.14,-4.14000000000001,0.));
#1988=CARTESIAN_POINT('',(61.14,-4.14000000000001,0.));
#1989=CARTESIAN_POINT('',(61.14,64.14,0.));
#1990=CARTESIAN_POINT('',(61.14,-4.14000000000001,0.));
#1991=CARTESIAN_POINT('Origin',(53.14,-4.14,0.));
#1992=CARTESIAN_POINT('',(53.14,-4.14,0.));
#1993=CARTESIAN_POINT('Origin',(0.,-12.,0.));
#1994=CARTESIAN_POINT('',(0.,0.,0.));
#1995=CARTESIAN_POINT('Origin',(-49.,-0.139999999999976,34.));
#1996=CARTESIAN_POINT('',(-49.,-84.,34.));
#1997=CARTESIAN_POINT('',(-49.,-0.139999999999976,34.));
#1998=CARTESIAN_POINT('',(-49.,-84.,34.));
#1999=CARTESIAN_POINT('',(-49.,-84.,38.));
#2000=CARTESIAN_POINT('',(-49.,-84.,34.));
#2001=CARTESIAN_POINT('',(-49.,-0.139999999999976,38.));
#2002=CARTESIAN_POINT('',(-49.,-84.,38.));
#2003=CARTESIAN_POINT('',(-49.,-0.139999999999976,34.));
#2004=CARTESIAN_POINT('Origin',(49.,-0.139999999999976,34.));
#2005=CARTESIAN_POINT('',(49.,-0.139999999999976,34.));
#2006=CARTESIAN_POINT('',(-49.,-0.139999999999976,34.));
#2007=CARTESIAN_POINT('',(49.,-0.139999999999976,38.));
#2008=CARTESIAN_POINT('',(-49.,-0.139999999999976,38.));
#2009=CARTESIAN_POINT('',(49.,-0.139999999999976,34.));
#2010=CARTESIAN_POINT('Origin',(49.,-84.,34.));
#2011=CARTESIAN_POINT('',(49.,-84.,34.));
#2012=CARTESIAN_POINT('',(49.,-0.139999999999976,34.));
#2013=CARTESIAN_POINT('',(49.,-84.,38.));
#2014=CARTESIAN_POINT('',(49.,-0.139999999999976,38.));
#2015=CARTESIAN_POINT('',(49.,-84.,34.));
#2016=CARTESIAN_POINT('Origin',(-49.,-84.,34.));
#2017=CARTESIAN_POINT('',(49.,-84.,34.));
#2018=CARTESIAN_POINT('',(49.,-84.,38.));
#2019=CARTESIAN_POINT('Origin',(0.,-42.07,38.));
#2020=CARTESIAN_POINT('Origin',(0.,-42.07,34.));
#2021=CARTESIAN_POINT('',(0.,0.,0.));
#2022=CARTESIAN_POINT('',(0.,0.,0.));
#2023=UNCERTAINTY_MEASURE_WITH_UNIT(LENGTH_MEASURE(0.01),#2031,
'DISTANCE_ACCURACY_VALUE',
'Maximum model space distance between geometric entities at asserted c
onnectivities');
#2024=UNCERTAINTY_MEASURE_WITH_UNIT(LENGTH_MEASURE(0.01),#2031,
'DISTANCE_ACCURACY_VALUE',
'Maximum model space distance between geometric entities at asserted c
onnectivities');
#2025=UNCERTAINTY_MEASURE_WITH_UNIT(LENGTH_MEASURE(0.01),#2031,
'DISTANCE_ACCURACY_VALUE',
'Maximum model space distance between geometric entities at asserted c
onnectivities');
#2026=UNCERTAINTY_MEASURE_WITH_UNIT(LENGTH_MEASURE(0.01),#2031,
'DISTANCE_ACCURACY_VALUE',
'Maximum model space distance between geometric entities at asserted c
onnectivities');
#2027=(
GEOMETRIC_REPRESENTATION_CONTEXT(3)
GLOBAL_UNCERTAINTY_ASSIGNED_CONTEXT((#2023))
GLOBAL_UNIT_ASSIGNED_CONTEXT((#2031,#2033,#2034))
REPRESENTATION_CONTEXT('','3D')
);
#2028=(
GEOMETRIC_REPRESENTATION_CONTEXT(3)
GLOBAL_UNCERTAINTY_ASSIGNED_CONTEXT((#2024))
GLOBAL_UNIT_ASSIGNED_CONTEXT((#2031,#2033,#2034))
REPRESENTATION_CONTEXT('','3D')
);
#2029=(
GEOMETRIC_REPRESENTATION_CONTEXT(3)
GLOBAL_UNCERTAINTY_ASSIGNED_CONTEXT((#2025))
GLOBAL_UNIT_ASSIGNED_CONTEXT((#2031,#2033,#2034))
REPRESENTATION_CONTEXT('','3D')
);
#2030=(
GEOMETRIC_REPRESENTATION_CONTEXT(3)
GLOBAL_UNCERTAINTY_ASSIGNED_CONTEXT((#2026))
GLOBAL_UNIT_ASSIGNED_CONTEXT((#2031,#2033,#2034))
REPRESENTATION_CONTEXT('','3D')
);
#2031=(
LENGTH_UNIT()
NAMED_UNIT(*)
SI_UNIT(.MILLI.,.METRE.)
);
#2032=(
LENGTH_UNIT()
NAMED_UNIT(*)
SI_UNIT($,.METRE.)
);
#2033=(
NAMED_UNIT(*)
PLANE_ANGLE_UNIT()
SI_UNIT($,.RADIAN.)
);
#2034=(
NAMED_UNIT(*)
SI_UNIT($,.STERADIAN.)
SOLID_ANGLE_UNIT()
);
#2035=SHAPE_DEFINITION_REPRESENTATION(#2038,#2043);
#2036=SHAPE_DEFINITION_REPRESENTATION(#2039,#2044);
#2037=SHAPE_DEFINITION_REPRESENTATION(#2040,#2045);
#2038=PRODUCT_DEFINITION_SHAPE('',$,#2047);
#2039=PRODUCT_DEFINITION_SHAPE('',$,#2048);
#2040=PRODUCT_DEFINITION_SHAPE('',$,#2049);
#2041=PRODUCT_DEFINITION_SHAPE($,$,#17);
#2042=PRODUCT_DEFINITION_SHAPE($,$,#18);
#2043=SHAPE_REPRESENTATION('',(#1290,#1356,#1357),#2027);
#2044=SHAPE_REPRESENTATION('',(#1291),#2028);
#2045=SHAPE_REPRESENTATION('',(#1349),#2029);
#2046=PRODUCT_DEFINITION_CONTEXT('part definition',#2057,'design');
#2047=PRODUCT_DEFINITION('07 - DIFFERENTIALGEAR MECHANISM BASE',
'07 - DIFFERENTIALGEAR MECHANISM BASE v2',#2050,#2046);
#2048=PRODUCT_DEFINITION('01 - DIFFERENTIAL GEAR MECHANISM BASE',
'01 - DIFFERENTIAL GEAR MECHANISM BASE',#2051,#2046);
#2049=PRODUCT_DEFINITION('02 - DIFFERENTIAL GEAR MECHANISM CAP',
'02 - DIFFERENTIAL GEAR MECHANISM CAP',#2052,#2046);
#2050=PRODUCT_DEFINITION_FORMATION('',$,#2059);
#2051=PRODUCT_DEFINITION_FORMATION('',$,#2060);
#2052=PRODUCT_DEFINITION_FORMATION('',$,#2061);
#2053=PRODUCT_RELATED_PRODUCT_CATEGORY(
'07 - DIFFERENTIALGEAR MECHANISM BASE v2',
'07 - DIFFERENTIALGEAR MECHANISM BASE v2',(#2059));
#2054=PRODUCT_RELATED_PRODUCT_CATEGORY(
'01 - DIFFERENTIAL GEAR MECHANISM BASE',
'01 - DIFFERENTIAL GEAR MECHANISM BASE',(#2060));
#2055=PRODUCT_RELATED_PRODUCT_CATEGORY(
'02 - DIFFERENTIAL GEAR MECHANISM CAP',
'02 - DIFFERENTIAL GEAR MECHANISM CAP',(#2061));
#2056=APPLICATION_PROTOCOL_DEFINITION('international standard',
'automotive_design',2009,#2057);
#2057=APPLICATION_CONTEXT(
'Core Data for Automotive Mechanical Design Process');
#2058=PRODUCT_CONTEXT('part definition',#2057,'mechanical');
#2059=PRODUCT('07 - DIFFERENTIALGEAR MECHANISM BASE',
'07 - DIFFERENTIALGEAR MECHANISM BASE v2',$,(#2058));
#2060=PRODUCT('01 - DIFFERENTIAL GEAR MECHANISM BASE',
'01 - DIFFERENTIAL GEAR MECHANISM BASE',$,(#2058));
#2061=PRODUCT('02 - DIFFERENTIAL GEAR MECHANISM CAP',
'02 - DIFFERENTIAL GEAR MECHANISM CAP',$,(#2058));
#2062=PRESENTATION_STYLE_ASSIGNMENT((#2063));
#2063=SURFACE_STYLE_USAGE(.BOTH.,#2064);
#2064=SURFACE_SIDE_STYLE('',(#2065));
#2065=SURFACE_STYLE_FILL_AREA(#2066);
#2066=FILL_AREA_STYLE('Steel - Satin',(#2067));
#2067=FILL_AREA_STYLE_COLOUR('Steel - Satin',#2068);
#2068=COLOUR_RGB('Steel - Satin',0.627450980392157,0.627450980392157,0.627450980392157);
ENDSEC;
END-ISO-10303-21;
